<?xml version="1.0" standalone="no"?>
<!DOCTYPE svg PUBLIC "-//W3C//DTD SVG 1.1//EN" "http://www.w3.org/Graphics/SVG/1.1/DTD/svg11.dtd" >
<svg>
<metadata>
Created by FontForge 20090914 at Fri Jul  2 10:53:47 2021
 By www-data
Copyright (c) 2017 by . All rights reserved.
</metadata>
<defs>
<font id="ALSSector-Bold" horiz-adv-x="1228" >
  <font-face 
    font-family="ALS Sector Regular"
    font-weight="700"
    font-stretch="normal"
    units-per-em="2048"
    panose-1="0 0 0 0 0 0 0 0 0 0"
    ascent="1638"
    descent="-410"
    x-height="1020"
    cap-height="1294"
    bbox="-162 -397 2234.03 1712"
    underline-thickness="102"
    underline-position="-612"
    unicode-range="U+000D-U+25FC"
  />
<missing-glyph horiz-adv-x="622" 
 />
    <glyph glyph-name=".notdef" horiz-adv-x="622" 
 />
    <glyph glyph-name="NULL" horiz-adv-x="0" 
 />
    <glyph glyph-name="NULL" horiz-adv-x="0" 
 />
    <glyph glyph-name="CR" unicode="&#xd;" horiz-adv-x="622" 
 />
    <glyph glyph-name="space" unicode=" " horiz-adv-x="593" 
 />
    <glyph glyph-name="exclam" unicode="!" horiz-adv-x="505" 
d="M74 137c0 56 16.833 99.334 50.5 130.001s77.5 46 131.5 46c52.667 0 95.5 -15.333 128.5 -46s49.5 -74 49.5 -130c0 -54.667 -16.667 -97.334 -50 -128.001s-76 -46 -128 -46c-50.667 0 -93.667 15 -129 45c-35.333 29.333 -53 72.333 -53 129zM147 461.001l-69 833h352
l-72 -833h-211z" />
    <glyph glyph-name="quotedbl" unicode="&#x22;" horiz-adv-x="864" 
d="M338 778h-248v608h248v-608zM752 778h-250v608h250v-608z" />
    <glyph glyph-name="numbersign" unicode="#" horiz-adv-x="1441" 
d="M254 319h-199v203h240l57 283h-200v203h241l60 286h206l-59 -286h305l60 286h206l-59 -286h205v-203h-246l-57 -283h207v-203h-248l-64 -319h-207l64 319h-305l-64 -319h-207zM559 805l-57 -283h305l57 283h-305z" />
    <glyph glyph-name="dollar" unicode="$" horiz-adv-x="1060" 
d="M51 883c0 116 33.665 204.999 100.998 266.999c66.667 60.667 158 98.667 274 114v153h227v-151c106 -11.333 198.333 -32 277 -62v-252c-45.333 18.667 -106 37.667 -182 57c-77.333 19.333 -145.666 29 -204.999 29c-58 0 -104.667 -7.33301 -140 -22
c-42 -17.333 -63 -55.666 -63 -114.999c-4 -41.333 21 -76 75 -104c22 -12.667 58.333 -25 109 -37c13.333 -2.66699 34.666 -7.66699 63.999 -15c69.333 -16 123.333 -30.333 162 -43c55.333 -19.333 104.333 -45.666 147 -78.999c65.333 -54 100 -136 104 -246
c0 -112.667 -30.167 -200.334 -90.5 -263.001s-146.166 -102 -257.499 -118v-154h-227v150c-123.333 11.333 -236 39.333 -338 84v264c61.333 -29.333 129.333 -54.333 204 -75c76 -21.333 145.333 -32 208 -32c75.333 0 130.666 10.833 165.999 32.5s53 57.5 53 107.5
c-2.66699 29.333 -12 52.5 -28 69.5s-41.333 31.5 -76 43.5c-20 7.33301 -41.667 14 -65 20c-4 0.666992 -14.667 2.83398 -32 6.50098l-45 9.5c-58 11.333 -97.667 19.666 -119 24.999c-31.333 8 -67.666 20.667 -108.999 38c-45.333 18 -79.666 38.667 -102.999 62
c-26 25.333 -47.667 58.5 -65 99.5s-26 86.5 -26 136.5z" />
    <glyph glyph-name="percent" unicode="%" horiz-adv-x="1906" 
d="M51 932c0 112 38 204.333 114 277c76 72 168.333 108 277 108c109.333 0 202.666 -36 279.999 -108c76 -72.667 114 -165 114 -277c0 -111.333 -38 -203 -114 -275c-77.333 -72 -170.666 -108 -279.999 -108c-108.667 0 -201 36 -277 108s-114 163.667 -114 275zM274 932
c0 -50.667 15.8311 -91 47.498 -121s71.834 -45 120.501 -45c49.333 0 90 15 122 45s48 70.333 48 121c0 51.333 -15.667 92.166 -47 122.499s-72.333 45.5 -123 45.5c-49.333 0 -89.666 -15.167 -120.999 -45.5s-47 -71.166 -47 -122.499zM593.998 -35h-164l930 1424h168z
M1063 348c0 112 38 204.333 114 277c76 72 168.333 108 277 108c110 0 203 -36 279 -108s114 -164.333 114 -277c0 -111.333 -38 -203 -114 -275c-76.667 -72 -169.667 -108 -279 -108c-108.667 0 -201 36 -277 108s-114 163.667 -114 275zM1286 348
c0 -50.667 15.8311 -91 47.498 -121s71.834 -45 120.501 -45c49.333 0 90 15 122 45s48 70.333 48 121c0 51.333 -15.667 92.166 -47 122.499s-72.333 45.5 -123 45.5c-49.333 0 -89.666 -15.167 -120.999 -45.5s-47 -71.166 -47 -122.499z" />
    <glyph glyph-name="ampersand" unicode="&#x26;" horiz-adv-x="1767" 
d="M100 453c0 98 31.002 183 93.002 255c61.333 71.333 143.666 126 246.999 164c-40.667 56.667 -61 115 -61 175c0 78 31.667 142.667 95 194c62.667 50.667 145 76 247 76c126.667 0 229 -15 307 -45v-236c-106 42.667 -190.667 64 -254 64
c-36.667 0 -67.334 -6 -92.001 -18s-37 -29.333 -37 -52c0 -36.667 18.333 -72 55 -106h576l-57 -209h-293l749 -715h-348l-162 154c-132 -126 -297.667 -189 -497 -189c-91.333 0 -174 13 -248 39s-134 62.333 -180 109c-93.333 92 -140 205.333 -140 340zM393.002 461
c0 -56.667 14.3301 -105.333 42.9971 -146s66.334 -70 113.001 -88c44.667 -17.333 94.334 -26 149.001 -26c58 0 114.833 9.16699 170.5 27.5s102.834 43.833 141.501 76.5l-398 383c-76 -18 -131.5 -45.667 -166.5 -83s-52.5 -85.333 -52.5 -144z" />
    <glyph glyph-name="quotesingle" unicode="'" horiz-adv-x="425" 
d="M338 778h-248v608h248v-608z" />
    <glyph glyph-name="parenleft" unicode="(" horiz-adv-x="757" 
d="M253 67c-100.667 140.667 -151 335.333 -151 584s50.333 443.667 151 585c100.667 142 241.667 223 423 243v-228c-86.667 -24.667 -156.667 -85.667 -210 -183c-52.667 -96.667 -79 -235.667 -79 -417s26.333 -320.333 79 -417
c53.333 -97.333 123.333 -158.333 210 -183v-227c-181.333 20 -322.333 101 -423 243z" />
    <glyph glyph-name="parenright" unicode=")" horiz-adv-x="759" 
d="M102 -176v227.001c86.667 24.667 156.667 85.667 210 183c52.667 96.667 79 235.667 79 417s-26.333 320.333 -79 417c-53.333 97.333 -123.333 158.333 -210 183v228c181.333 -20 322.333 -101 423 -243c100.667 -141.333 151 -336.333 151 -585
s-50.333 -443.334 -151 -584.001c-100.667 -142 -241.667 -223 -423 -243z" />
    <glyph glyph-name="asterisk" unicode="*" horiz-adv-x="907" 
d="M365 981l-316 -51v174l316 -51l-259 190l123 123l187 -260l-49 315h172l-50 -313l189 258l123 -123l-260 -190l315 51v-174l-315 51l260 -190l-123 -123l-189 260l50 -316h-172l49 316l-187 -260l-123 123z" />
    <glyph glyph-name="plus" unicode="+" horiz-adv-x="1302" 
d="M526 580h-385v245h385v396h246v-396h387v-245h-387v-398h-246v398z" />
    <glyph glyph-name="comma" unicode="," horiz-adv-x="518" 
d="M262 -281h-219l162 572h284z" />
    <glyph glyph-name="hyphen" unicode="-" horiz-adv-x="811" 
d="M729 377h-633v260h633v-260z" />
    <glyph glyph-name="period" unicode="." horiz-adv-x="477" 
d="M66 137c0 56 16.833 99.334 50.5 130.001s77.5 46 131.5 46c52.667 0 95.5 -15.333 128.5 -46s49.5 -74 49.5 -130c0 -54.667 -16.667 -97.334 -50 -128.001s-76 -46 -128 -46c-50.667 0 -93.667 15 -129 45c-35.333 29.333 -53 72.333 -53 129z" />
    <glyph glyph-name="slash" unicode="/" horiz-adv-x="1171" 
d="M428 0h-289l627 1386h289z" />
    <glyph glyph-name="zero" unicode="0" horiz-adv-x="1355" 
d="M122 378c-26.667 80 -40 167.665 -40 262.998s13.333 183.333 40 264c55.333 170.667 156.333 290.334 303 359.001c76.667 35.333 161 53 253 53s176.333 -17.667 253 -53c146 -69.333 247 -189.666 303 -360.999c26.667 -80.667 40 -168.667 40 -264
s-13.333 -183 -40 -263c-55.333 -171.333 -156.333 -291.333 -303 -360c-76.667 -35.333 -161 -53 -253 -53c-92.667 0 -177 18 -253 54c-146 68.667 -247 189 -303 361zM375 640.998c0 -59.333 5.83301 -114 17.5 -164s29.334 -94.5 53.001 -133.5
s55.334 -69.5 95.001 -91.5s85.5 -33 137.5 -33c67.333 0 124.5 18.667 171.5 56s80.833 87.666 101.5 150.999c20 61.333 30 132.333 30 213c0 59.333 -5.83301 114 -17.5 164s-29.334 94.5 -53.001 133.5s-55.334 69.5 -95.001 91.5s-85.5 33 -137.5 33
c-67.333 0 -124.5 -18.667 -171.5 -56s-80.833 -87.666 -101.5 -150.999c-20 -61.333 -30 -132.333 -30 -213z" />
    <glyph glyph-name="one" unicode="1" horiz-adv-x="833" 
d="M311 1047h-268l61 247h484v-1065h243v-229h-763v229h243v818z" />
    <glyph glyph-name="two" unicode="2" horiz-adv-x="1030" 
d="M946 0l-923.001 0.00292969v102l395 445c77.333 87.333 130.666 153.666 159.999 198.999c28.667 43.333 43 91 43 143c0 55.333 -19.167 97.166 -57.5 125.499s-90.833 42.5 -157.5 42.5c-56.667 0 -115.5 -11 -176.5 -33s-116.5 -52 -166.5 -90v266
c53.333 37.333 115.333 66.166 186 86.499s141.334 30.5 212.001 30.5c118 0 220 -34 306 -102c42 -33.333 74.833 -75.333 98.5 -126s35.5 -106.334 35.5 -167.001c0 -106 -36.333 -208 -109 -306c-35.333 -47.333 -85.666 -106.666 -150.999 -177.999l-174 -190h479v-248z
" />
    <glyph glyph-name="three" unicode="3" horiz-adv-x="1064" 
d="M569 1053h-526.003l59 241h828v-170l-316 -336c112.667 -4 200 -42 262 -114s93 -160 93 -264c0 -132 -47.333 -239.333 -142 -322c-95.333 -83.333 -212.666 -125 -351.999 -125c-76.667 0 -152 8 -226 24c-73.333 16.667 -133.666 43.667 -180.999 81v266
c121.333 -80.667 244 -121 368 -121c74.667 0 133.667 18.833 177 56.5s65 87.834 65 150.501c0 36 -6.5 67 -19.5 93s-31.167 46.167 -54.5 60.5s-48.666 24.666 -75.999 30.999s-57.333 9.5 -90 9.5c-48 0 -100.333 -6.66699 -157 -20l-35 113z" />
    <glyph glyph-name="four" unicode="4" horiz-adv-x="1269" 
d="M131 307l-55 164l715 823h229v-759h219l-82 -228h-137v-307h-264v307h-625zM756 948l-361 -413h361v413z" />
    <glyph glyph-name="five" unicode="5" horiz-adv-x="1112" 
d="M88 57l-0.00585938 258c48 -28.667 104 -52.667 168 -72c64 -20 127.333 -30 190 -30c85.333 0 155.666 16.667 210.999 50c54.667 32.667 82 83.667 82 153c0 84.667 -26.667 143.334 -80 176.001c-48 28.667 -110.667 43 -188 43c-91.333 0 -185 -15.667 -281 -47
l-57 55l72 651h764l-60 -241h-493l-25 -219c62.667 14.667 123.334 22 182.001 22c50.667 0 98.334 -5.5 143.001 -16.5s86.334 -28.167 125.001 -51.5s71.834 -52 99.501 -86s49.5 -75.333 65.5 -124s24 -102.667 24 -162c1.33301 -88 -23.167 -167 -73.5 -237
s-118.666 -123.833 -204.999 -161.5s-181.166 -55.834 -284.499 -54.501c-147.333 0 -273.666 31.333 -378.999 94z" />
    <glyph glyph-name="six" unicode="6" horiz-adv-x="1286" 
d="M123 573c0 118.667 19.502 230 58.502 334s96.167 191.333 171.5 262c50.667 48 112.167 85.333 184.5 112s150.5 40 234.5 40c128 0 235.333 -26 322 -78v-248c-90.667 56 -186.334 84 -287.001 84c-115.333 0 -207.333 -31.667 -276 -95c-68 -64 -107 -151 -117 -261
c78.667 80.667 190.667 121 336 121c130 0 238.333 -39 325 -117c86 -78.667 129 -180.334 129 -305.001c1.33301 -86 -21 -164.667 -67 -236s-108.833 -126.666 -188.5 -165.999s-166.5 -58.333 -260.5 -57c-178.667 0 -317.334 54 -416.001 162
c-99.333 108.667 -149 258 -149 448zM422.002 502c0 -94 21.6689 -167.667 65.002 -221s105 -82.666 185 -87.999c72 1.33301 130.333 22.666 175 63.999c45.333 41.333 68 94.333 68 159c0 68 -24 122.333 -72 163c-48.667 40 -105.667 60 -171 60
c-44.667 0 -91.334 -12.333 -140.001 -37s-85.334 -58 -110.001 -100z" />
    <glyph glyph-name="seven" unicode="7" horiz-adv-x="917" 
d="M557 1047h-582l62 247h913l-526 -1335l-258 98z" />
    <glyph glyph-name="eight" unicode="8" horiz-adv-x="1212" 
d="M80 367c0 65.333 18.499 125.333 55.499 180s88.833 97 155.5 127c-88.667 64.667 -133 156 -133 274c0 112.667 40.333 202.334 121 269.001s192.334 100 335.001 100c130.667 0 235.667 -35.333 315 -106c80 -71.333 120 -164.333 120 -279c0 -43.333 -15 -89 -45 -137
c-30.667 -48.667 -67.667 -86.334 -111 -113.001c78.667 -35.333 138.334 -79.5 179.001 -132.5s61 -120.167 61 -201.5c0 -64.667 -14.5 -122.167 -43.5 -172.5s-69.5 -90.833 -121.5 -121.5c-103.333 -60.667 -225.333 -91 -366 -91
c-154.667 2.66699 -280.334 40 -377.001 112c-96.667 70.667 -145 168 -145 292zM345.999 401c0 -64 23.167 -115.167 69.5 -153.5s112.5 -57.5 198.5 -57.5c78 0 136.167 14 174.5 42s57.5 65.333 57.5 112c4 74.667 -65 133.667 -207 177l-103 32
c-38 12 -64.333 21.667 -79 29c-32 -16.667 -58.5 -42 -79.5 -76s-31.5 -69 -31.5 -105zM415.999 948c0 -52.667 28.667 -93.666 86 -122.999c47.333 -24.667 112 -49 194 -73c2.66699 -0.666992 5.66699 -1.5 9 -2.5s5.33301 -1.5 6 -1.5c51.333 47.333 77 104 77 170
c0 59.333 -18 103.666 -54 132.999c-35.333 28.667 -78 43 -128 43c-74 0 -127.333 -19.333 -160 -58c-20 -22.667 -30 -52 -30 -88z" />
    <glyph glyph-name="nine" unicode="9" horiz-adv-x="1247" 
d="M80 860c0 134.667 47.335 244.333 142.002 329c94.667 85.333 212.334 128 353.001 128c172 0 306.667 -53.667 404 -161c96.667 -106.667 145 -255.667 145 -447c0 -120 -18.167 -231.5 -54.5 -334.5s-90.5 -189.5 -162.5 -259.5c-48.667 -48 -108 -85.333 -178 -112
s-146.333 -40 -229 -40c-124 0 -228.667 28 -314 84v242c85.333 -56 183 -84 293 -84c104.667 0 187.667 29 249 87s98.666 145 111.999 261c-36 -38 -81.833 -67.667 -137.5 -89s-113.834 -32 -174.501 -32c-120.667 0 -224.334 37 -311.001 111
c-42.667 36 -76.167 81.5 -100.5 136.5s-36.5 115.167 -36.5 180.5zM352.002 865.999c0 -68 24.333 -121.999 73 -161.999c48.667 -40.667 105.667 -61 171 -61c44.667 0 91.667 12.667 141 38c48.667 24.667 85 57.667 109 99c0 94 -21.667 167.833 -65 221.5
s-105 83.167 -185 88.5c-74.667 -1.33301 -134 -21.833 -178 -61.5s-66 -93.834 -66 -162.501z" />
    <glyph glyph-name="colon" unicode=":" horiz-adv-x="477" 
d="M66 137c0 56 16.833 99.334 50.5 130.001s77.5 46 131.5 46c52.667 0 95.5 -15.333 128.5 -46s49.5 -74 49.5 -130c0 -54.667 -16.667 -97.334 -50 -128.001s-76 -46 -128 -46c-50.667 0 -93.667 15 -129 45c-35.333 29.333 -53 72.333 -53 129zM66 879.001
c0 56 16.833 99.334 50.5 130.001s77.5 46 131.5 46c52.667 0 95.5 -15.333 128.5 -46s49.5 -74 49.5 -130c0 -54.667 -16.667 -97.334 -50 -128.001s-76 -46 -128 -46c-50.667 0 -93.667 15 -129 45c-35.333 29.333 -53 72.333 -53 129z" />
    <glyph glyph-name="semicolon" unicode=";" horiz-adv-x="477" 
d="M182 -281h-219l162 572h285zM66 879c0 56 16.833 99.334 50.5 130.001s77.5 46 131.5 46c52.667 0 95.5 -15.333 128.5 -46s49.5 -74 49.5 -130c0 -54.667 -16.667 -97.334 -50 -128.001s-76 -46 -128 -46c-50.667 0 -93.667 15 -129 45
c-35.333 29.333 -53 72.333 -53 129z" />
    <glyph glyph-name="less" unicode="&#x3c;" horiz-adv-x="1140" 
d="M1073 66l-911 581v90l911 582v-313l-538 -314l538 -313v-313z" />
    <glyph glyph-name="equal" unicode="=" horiz-adv-x="1222" 
d="M1116 326h-1014v231h1014v-231zM1116 801h-1014v231h1014v-231z" />
    <glyph glyph-name="greater" unicode="&#x3e;" horiz-adv-x="1142" 
d="M1073 647l-911 -581v313l538 313l-538 314v313l911 -582v-90z" />
    <glyph glyph-name="question" unicode="?" horiz-adv-x="841" 
d="M35 991l0.000976562 256.001c42 21.333 93 38.666 153 51.999c58.667 12 113.334 18 164.001 18c65.333 0 125.333 -8.16699 180 -24.5s103 -40.5 145 -72.5s74.833 -74 98.5 -126s35.5 -111.667 35.5 -179c0 -102 -33.333 -187.667 -100 -257
c-66.667 -70.667 -160.334 -116 -281.001 -136v-133h-252l-26 328h43c224.667 0 337 58.667 337 176c0 56.667 -17.333 99.167 -52 127.5s-82.667 42.5 -144 42.5c-48 0 -100.667 -6.66699 -158 -20c-56.667 -14 -104.334 -31.333 -143.001 -52zM154.001 129.001
c0 44.667 16.001 82.999 48.001 114.999c31.333 31.333 69.666 47 114.999 47s84.333 -15.667 117 -47c31.333 -31.333 47 -69.666 47 -114.999c0 -44.667 -15.667 -83.334 -47 -116.001c-32 -32 -71 -48 -117 -48s-84.333 16 -115 48c-32 30.667 -48 69.334 -48 116.001z
" />
    <glyph glyph-name="at" unicode="@" horiz-adv-x="1574" 
d="M102 393c0 126 32.001 240.668 96.001 344.001c62.667 101.333 148.334 180.666 257.001 237.999c107.333 56 225.333 84 354 84c183.333 0 338.333 -54.333 465 -163c126.667 -109.333 200.334 -249.666 221.001 -420.999c10.667 -84.667 6.66699 -172 -12 -262
l-789 -172c-79.333 39.333 -138.666 89.5 -177.999 150.5s-59 128.167 -59 201.5c0 92.667 31.333 170.667 94 234c63.333 64 148.666 96 255.999 96c48.667 0 98.334 -8.66699 149.001 -26c33.333 -12 62.666 -27.667 87.999 -47c27.333 -20.667 49.666 -49.667 66.999 -87
s26 -79 26 -125v-123l168 37c0 6.66699 -1.66699 32.667 -5 78c-17.333 133.333 -70.333 239.333 -159 318s-199.334 118 -332.001 118c-138.667 0 -255.667 -42 -351 -126c-46 -40.667 -82 -91 -108 -151s-39 -125.333 -39 -196c-2 -85.333 18 -164 60 -236
s101.667 -129 179 -171s163.666 -62.667 258.999 -62c90.667 0 176 12.333 256 37v-190c-66.667 -26 -152 -39 -256 -39c-96 0 -187.667 17.167 -275 51.5s-163 81.166 -227 140.499c-63.333 59.333 -113.333 130 -150 212s-55 167.667 -55 257zM668.001 389.001
c0 -30 7.33203 -59.999 21.999 -89.999s34 -54 58 -72l176 41v172c0 26 -6.66699 47.167 -20 63.5s-27.166 26.666 -41.499 30.999s-28.833 6.5 -43.5 6.5c-48.667 0 -86 -15 -112 -45s-39 -65.667 -39 -107z" />
    <glyph glyph-name="A" unicode="A" horiz-adv-x="1329" 
d="M266 0h-286l638 1294h76l656 -1294h-301l-107 227h-571zM655 844l-184 -400h371z" />
    <glyph glyph-name="B" unicode="B" horiz-adv-x="1267" 
d="M156 4v1290c185.333 7.33301 338 11 458 11c172 0 302.167 -28.167 390.5 -84.5s132.5 -135.5 132.5 -237.5c0 -68 -16.333 -127.333 -49 -178s-80 -89.667 -142 -117c160 -44 240 -145.667 240 -305c0 -126 -52.333 -222.333 -157 -289s-247.667 -100 -429 -100
c-188.667 0 -336.667 3.33301 -444 10zM432 553v-330c86.667 -5.33301 146 -8 178 -8c191.333 0 287 59.333 287 178c0 106.667 -91.333 160 -274 160h-191zM432 1079l0.000976562 -314.999h182c71.333 0 127.833 14.667 169.5 44s62.5 70.666 62.5 123.999
c0 49.333 -21.333 86.833 -64 112.5s-103.334 38.5 -182.001 38.5c-54 0 -110 -1.33301 -168 -4z" />
    <glyph glyph-name="C" unicode="C" horiz-adv-x="1257" 
d="M92 637c0 204 65.3311 368.334 195.998 493.001c129.333 124.667 301 187 515 187c128 0 255.667 -27.333 383 -82v-266c-102.667 54.667 -223 82 -361 82c-131.333 0 -235.666 -36.667 -312.999 -110c-78 -72.667 -117 -174 -117 -304c4 -128 45.333 -228 124 -300
c78 -72 174 -108 288 -108c144.667 0 274.334 39 389.001 117v-283c-122.667 -66.667 -264.667 -100 -426 -100c-133.333 0 -251 29.667 -353 89c-104.667 59.333 -184.667 140 -240 242c-56.667 101.333 -85 215.666 -85 342.999z" />
    <glyph glyph-name="D" unicode="D" horiz-adv-x="1445" 
d="M653 0l-497 0.000976562v1294h497c134.667 2 256.667 -24.833 366 -80.5s194.666 -133.334 255.999 -233.001s91 -210.834 89 -333.501c2 -124 -27.5 -235.667 -88.5 -335s-146.167 -176.666 -255.5 -231.999s-231.666 -82 -366.999 -80zM430 1055v-817h186
c145.333 0 258.333 36.333 339 109c81.333 72 122 172 122 300s-40.667 228 -122 300c-80.667 72 -193.667 108 -339 108h-186z" />
    <glyph glyph-name="E" unicode="E" horiz-adv-x="1163" 
d="M1135 0h-979v1294h970v-241h-698v-279h612v-242h-612v-290h707v-242z" />
    <glyph glyph-name="F" unicode="F" horiz-adv-x="1146" 
d="M432 0h-276v1294h974v-241h-698v-318h543v-239h-543v-496z" />
    <glyph glyph-name="G" unicode="G" horiz-adv-x="1409" 
d="M82 637c0 203.333 65.6631 367.669 196.996 493.002c130.667 124.667 302.667 187 516 187c152.667 0 292.334 -28 419.001 -84v-264c-49.333 26 -108.166 46.5 -176.499 61.5s-137.166 22.5 -206.499 22.5c-140.667 0 -252 -35 -334 -105
c-82.667 -70.667 -124 -174.334 -124 -311.001c3.33301 -151.333 47 -262 131 -332c76.667 -64 171.334 -96 284.001 -96c98.667 0 178 11 238 33v254h-293v225h533v-651c-60.667 -34 -139 -60.667 -235 -80c-95.333 -18 -185 -27 -269 -27
c-133.333 0 -251.333 29.667 -354 89c-104 59.333 -184.333 140 -241 242c-56.667 101.333 -85 215.666 -85 342.999z" />
    <glyph glyph-name="H" unicode="H" horiz-adv-x="1441" 
d="M432 0h-276v1294h276v-520h578v520h276v-1294h-276v524h-578v-524z" />
    <glyph glyph-name="I" unicode="I" horiz-adv-x="587" 
d="M432 0h-276v1294h276v-1294z" />
    <glyph glyph-name="J" unicode="J" horiz-adv-x="942" 
d="M31 47v264c72.667 -58.667 158 -88 256 -88c84 0 145.833 19.5 185.5 58.5s59.5 101.5 59.5 187.5v825h267v-870c0 -166 -45.667 -284.333 -137 -355c-83.333 -65.333 -189.333 -98 -318 -98c-134 0 -238.333 25.333 -313 76z" />
    <glyph glyph-name="K" unicode="K" horiz-adv-x="1280" 
d="M432 0h-276v1294h276v-538h64l450 538h324l-535 -624l598 -670h-360l-473 545h-68v-545z" />
    <glyph glyph-name="L" unicode="L" horiz-adv-x="1114" 
d="M1063 0h-907v1294h276v-1050h631v-244z" />
    <glyph glyph-name="M" unicode="M" horiz-adv-x="1830" 
d="M377 0h-275l232 1294h69l521 -841l524 841h68l233 -1294h-276l-119 672l-430 -684l-439 684z" />
    <glyph glyph-name="N" unicode="N" horiz-adv-x="1449" 
d="M420 0h-264v1294h86l788 -770v770h264v-1294h-92l-782 772v-772z" />
    <glyph glyph-name="O" unicode="O" horiz-adv-x="1538" 
d="M82 641c2 201.333 66.333 364.333 193 489s291.667 187 495 187c205.333 0 370.333 -62.333 495 -187c125.333 -125.333 189 -288.333 191 -489c-2 -200.667 -65.667 -363.667 -191 -489c-124.667 -126 -289.667 -189 -495 -189c-99.333 0 -191.833 16.5 -277.5 49.5
s-158.5 79.5 -218.5 139.5c-60.667 60.667 -107.667 133 -141 217s-50.333 174.667 -51 272zM486 948c-74 -77.333 -111 -179.667 -111 -307c0 -128 37 -230 111 -306s168.667 -114 284 -114c116 0 211.333 38 286 114c74 76 111 178 111 306s-37.333 230.333 -112 307
s-169.667 115 -285 115s-210 -38.333 -284 -115z" />
    <glyph glyph-name="P" unicode="P" horiz-adv-x="1249" 
d="M432 0l-275.999 -0.00195312v1294h510c90.667 0 170.667 -11.833 240 -35.5s124.333 -57.167 165 -100.5c78 -82.667 117 -190 117 -322c0 -66 -9.83301 -125.5 -29.5 -178.5s-46.334 -97.167 -80.001 -132.5s-73.334 -64.666 -119.001 -87.999
s-93.667 -40.166 -144 -50.499s-103.166 -15.5 -158.499 -15.5c-96 0 -171 6 -225 18v-389zM432.001 1053v-437c38.667 -8 100.667 -12 186 -12c88.667 0 157.667 19.667 207 59s74 99 74 179c0 66 -18.333 117.667 -55 155c-37.333 37.333 -102.333 56 -195 56h-217z" />
    <glyph glyph-name="Q" unicode="Q" horiz-adv-x="1544" 
d="M92 641c2 201.333 66.334 364.333 193.001 489s291.667 187 495 187c205.333 0 370.333 -62.333 495 -187c125.333 -125.333 189 -288.333 191 -489c0 -110 -21.5 -212 -64.5 -306s-104.333 -172 -184 -234s-170.834 -101 -273.501 -117c58.667 -58.667 133 -88 223 -88
c54 0 121 15.667 201 47v-234c-25.333 -12.667 -57.833 -23 -97.5 -31s-74.834 -12 -105.501 -12c-108.667 0 -208 30.333 -298 91c-41.333 28 -82.666 60.333 -123.999 97c-40.667 36.667 -83 78.667 -127 126c-158.667 30.667 -285.667 106 -381 226
c-94 118 -141.667 263 -143 435zM496.001 948c-74 -77.333 -111 -179.667 -111 -307c0 -128 37 -230 111 -306s168.667 -114 284 -114c116 0 211.333 38.333 286 115c74.667 75.333 112 177 112 305s-37.333 230.333 -112 307s-170 115 -286 115
c-115.333 0 -210 -38.333 -284 -115z" />
    <glyph glyph-name="R" unicode="R" horiz-adv-x="1284" 
d="M430 0h-274v1294h526c156.667 0 274.667 -34.333 354 -103s119 -166 119 -292c0 -169.333 -66.333 -290 -199 -362l295 -537h-305l-250 467c-24 -1.33301 -51.333 -2 -82 -2c-54.667 0 -116 4 -184 12v-477zM430 1057v-342c77.333 -14 140 -21 188 -21
c170.667 0 256 64.333 256 193c0 113.333 -79.667 170 -239 170h-205z" />
    <glyph glyph-name="S" unicode="S" horiz-adv-x="1116" 
d="M61 907c0 72.667 13.1719 136.338 39.5049 191.005s63.833 97.667 112.5 129c92.667 60 213.334 90 362.001 90c63.333 0 133 -6.66699 209 -20c70 -12 134.333 -29.333 193 -52v-254c-40.667 18 -100.667 37 -180 57c-81.333 19.333 -156 29 -224 29
c-54 0 -97 -4.33301 -129 -13c-20 -6 -36.667 -14 -50 -24c-29.333 -24.667 -44 -61.334 -44 -110.001c0 -28.667 8 -53 24 -73s39.833 -36.167 71.5 -48.5s63.167 -22.333 94.5 -30s71 -16.834 119 -27.501s87.667 -21 119 -31c56.667 -18 104.5 -39.833 143.5 -65.5
s70.5 -60.834 94.5 -105.501c26 -48.667 39 -107.334 39 -176.001c0 -72.667 -12.833 -136 -38.5 -190s-61.834 -96.667 -108.501 -128s-99.334 -54.5 -158.001 -69.5s-123.667 -22.5 -195 -22.5c-170 0 -322.333 30.667 -457 92v273c57.333 -30 126 -56.333 206 -79
c76.667 -22.667 150.667 -34 222 -34c83.333 0 144.166 11.833 182.499 35.5s57.5 63.167 57.5 118.5c0 27.333 -7.5 50.5 -22.5 69.5s-37.833 34.167 -68.5 45.5s-60.834 20.5 -90.501 27.5s-67.834 15.167 -114.501 24.5s-84.667 18 -114 26
c-34 9.33301 -64.333 19.666 -91 30.999s-53.167 26.333 -79.5 45s-48.333 40 -66 64s-31.834 53.333 -42.501 88s-16 73.667 -16 117z" />
    <glyph glyph-name="T" unicode="T" horiz-adv-x="1085" 
d="M410 1053h-410v241h1085v-241h-409v-1053h-266v1053z" />
    <glyph glyph-name="U" unicode="U" horiz-adv-x="1404" 
d="M143 539l-0.000976562 755h277v-743c0 -101.333 24.833 -179.166 74.5 -233.499s118.834 -81.5 207.501 -81.5c89.333 0 158.833 27.167 208.5 81.5s74.5 132.166 74.5 233.499v743h277v-755c0 -176.667 -52 -316.667 -156 -420
c-104.667 -102.667 -239.334 -154 -404.001 -154c-165.333 0 -299.666 51.333 -402.999 154c-104 103.333 -156 243.333 -156 420z" />
    <glyph glyph-name="V" unicode="V" horiz-adv-x="1198" 
d="M551 0l-571 1294h307l321 -776l301 776h310l-574 -1294h-94z" />
    <glyph glyph-name="W" unicode="W" horiz-adv-x="1724" 
d="M406 0l-437 1294h285l250 -751l360 663l371 -663l254 751h266l-434 -1294h-86l-371 721l-375 -721h-83z" />
    <glyph glyph-name="X" unicode="X" horiz-adv-x="1300" 
d="M297 0h-317l514 672l-437 622h322l270 -411l289 411h317l-434 -596l500 -698h-320l-342 492z" />
    <glyph glyph-name="Y" unicode="Y" horiz-adv-x="1218" 
d="M471 469l-504 825h316l325 -577l328 577h315l-503 -825v-469h-277v469z" />
    <glyph glyph-name="Z" unicode="Z" horiz-adv-x="1128" 
d="M1108 0h-1067v63l635 988h-604v243h1007v-63l-635 -987h664v-244z" />
    <glyph glyph-name="bracketleft" unicode="[" horiz-adv-x="788" 
d="M733 -82h-643v1516h643v-224h-381v-1069h381v-223z" />
    <glyph glyph-name="backslash" unicode="\" horiz-adv-x="1226" 
d="M766 0l-627 1386h289l627 -1386h-289z" />
    <glyph glyph-name="bracketright" unicode="]" horiz-adv-x="788" 
d="M733 -82h-643v223h381v1069h-381v224h643v-1516z" />
    <glyph glyph-name="a" unicode="a" horiz-adv-x="1171" 
d="M78 315c0 126 43.999 218.668 131.999 278.001c81.333 54 183.333 81 306 81c102.667 0 185.334 -13 248.001 -39v37c0 103.333 -69 155 -207 155c-142 0 -265 -25.667 -369 -77v245c124 40 260 60 408 60c292 0 438 -139.333 438 -418v-637h-203l-26 141
c-48 -61.333 -101.667 -104 -161 -128c-60 -24 -136.667 -36 -230 -36c-103.333 0 -185 33.333 -245 100c-60.667 65.333 -91 144.666 -91 237.999zM359.999 322.001c0 -40.667 14.333 -73.833 43 -99.5s67 -38.5 115 -38.5c48.667 0 95.5 12.5 140.5 37.5
s80.167 59.167 105.5 102.5v116c-49.333 31.333 -111.333 47 -186 47c-74 0 -128.833 -13.5 -164.5 -40.5s-53.5 -68.5 -53.5 -124.5z" />
    <glyph glyph-name="b" unicode="b" horiz-adv-x="1298" 
d="M156 70v1316h278v-471c78.667 92 188.667 138 330 138c140 0 251.333 -47.333 334 -142c82 -95.333 123 -224.333 123 -387c0 -76 -10.667 -145.167 -32 -207.5s-50.5 -115 -87.5 -158s-81.167 -79.167 -132.5 -108.5s-106.833 -50.833 -166.5 -64.5
s-123.167 -20.5 -190.5 -20.5c-161.333 0 -313.333 35 -456 105zM434 719l0.000976562 -479c55.333 -24.667 119 -37 191 -37c88 0 161.333 26.667 220 80c58 52.667 87 132.334 87 239.001c0 97.333 -23.667 169.166 -71 215.499s-105 69.5 -173 69.5
c-102.667 0 -187.334 -29.333 -254.001 -88z" />
    <glyph glyph-name="c" unicode="c" horiz-adv-x="1017" 
d="M78 504c0 165.333 50.6689 298.669 152.002 400.002c100.667 100.667 237 151 409 151c43.333 0 94.666 -4.66699 153.999 -14c56 -10 103 -24 141 -42v-245c-28 18.667 -68 34 -120 46c-52.667 11.333 -103.334 17 -152.001 17c-96 0 -169.167 -26 -219.5 -78
s-75.5 -127.667 -75.5 -227c0 -95.333 24.333 -170.333 73 -225s112.334 -82 191.001 -82c129.333 0 234.333 23.667 315 71v-245c-45.333 -22.667 -96.333 -39.334 -153 -50.001c-56 -10.667 -110.667 -16 -164 -16c-102.667 -2 -195.834 18.667 -279.501 62
s-150 106.666 -199 189.999s-73.167 179 -72.5 287z" />
    <glyph glyph-name="d" unicode="d" horiz-adv-x="1269" 
d="M78 510c0 166.667 47 299.334 141 398.001c92.667 98 216.334 147 371.001 147c112 0 205.333 -30 280 -90v421h277v-1386h-234l-12 129c-92 -99.333 -208.667 -149 -350 -149c-74.667 0 -142.334 13.667 -203.001 41s-110.667 65.666 -150 114.999
c-80 100 -120 224.667 -120 374zM436 742c-46 -58.667 -68.999 -133.333 -68.999 -224c0 -91.333 21.333 -166.333 64 -225c43.333 -60 103.666 -90 180.999 -90c116 0 204.333 50.333 265 151v394c-74 54 -155.333 81 -244 81c-86 0 -151.667 -29 -197 -87z" />
    <glyph glyph-name="e" unicode="e" horiz-adv-x="1204" 
d="M78 514c0 71.333 9.83496 136.831 29.502 196.498s46.5 110.334 80.5 152.001s73.833 77 119.5 106s94.667 50.333 147 64s106.833 20.5 163.5 20.5c84.667 0 159.667 -13.667 225 -41s117 -65.666 155 -114.999c73.333 -94.667 110 -212.667 110 -354
c0 -44.667 -4 -94.667 -12 -150h-738c10 -66 44.667 -115.5 104 -148.5s136.666 -49.5 231.999 -49.5c85.333 0 194.666 21 327.999 63v-221c-85.333 -48 -206.333 -72 -363 -72c-97.333 0 -184 14 -260 42s-137 67.667 -183 119c-92 100 -138 229.333 -138 388z
M348.002 579.998h491.999c0 78 -19.667 137.667 -59 179s-93.666 62 -162.999 62c-78 0 -141 -21.167 -189 -63.5s-75 -101.5 -81 -177.5z" />
    <glyph glyph-name="f" unicode="f" horiz-adv-x="788" 
d="M414 0l-286.999 0.000976562v967c0 141.333 30.667 247.333 92 318c25.333 29.333 58.333 53.666 99 72.999c38 16.667 74.833 28 110.5 34s78.5 9 128.5 9c64 0 131 -5.66699 201 -17v-227c-60 16.667 -114 25 -162 25c-50.667 0 -92.334 -9.33301 -125.001 -28
c-38 -21.333 -57 -66 -57 -134h293v-217h-293v-803z" />
    <glyph glyph-name="g" unicode="g" horiz-adv-x="1302" 
d="M78 514c0 104 20.002 194.832 60.002 272.499s93.333 138.5 160 182.5c82.667 57.333 174.334 86 275.001 86c67.333 0 129.666 -12.5 186.999 -37.5s105 -61.833 143 -110.5l17 113h235v-858c-0.666992 -96 -16.334 -180.667 -47.001 -254
s-72.5 -131.666 -125.5 -174.999s-112.833 -75.833 -179.5 -97.5s-139 -32.5 -217 -32.5c-153.333 0 -280.333 29.333 -381 88v248c119.333 -63.333 236.666 -95 351.999 -95c216 0 324 78.667 324 236v26c-88 -84 -198 -126 -330 -126c-74.667 0 -142.167 14 -202.5 42
s-110 66.167 -149 114.5s-69 104.833 -90 169.5s-31.5 134 -31.5 208zM362.002 505.999c0 -86 21.333 -157.667 64 -215c42.667 -58.667 104.667 -88 186 -88c120 0 209.667 49 269 147v365c-79.333 73.333 -166 110 -260 110c-84.667 0 -149 -27.833 -193 -83.5
s-66 -134.167 -66 -235.5z" />
    <glyph glyph-name="h" unicode="h" horiz-adv-x="1241" 
d="M418 0l-281 0.000976562v1386h281v-505c72 116 181 174 327 174c110 0 197.667 -32.667 263 -98c64 -64.667 96 -158.334 96 -281.001v-676h-281v625c0 71.333 -15.5 122.5 -46.5 153.5s-76.833 46.5 -137.5 46.5c-48 -2 -91.333 -15.667 -130 -41s-69 -60 -91 -104v-680
z" />
    <glyph glyph-name="i" unicode="i" horiz-adv-x="581" 
d="M127 1276c0 44.667 15.999 82.999 47.999 114.999c32.667 31.333 71.334 47 116.001 47c45.333 0 84.333 -15.667 117 -47c31.333 -31.333 47 -69.666 47 -114.999c0 -44.667 -15.667 -83.334 -47 -116.001c-32 -32 -71 -48 -117 -48c-45.333 0 -84 16 -116 48
c-32 30.667 -48 69.334 -48 116.001zM433.999 -0.000976562h-284v1020h284v-1020z" />
    <glyph glyph-name="j" unicode="j" horiz-adv-x="544" 
d="M-162 -137c40.667 -20.667 88.667 -31 144 -31c86 0 129 62 129 186v1002h286v-918c0 -118 -13 -214.333 -39 -289c-16 -44.667 -36.667 -81.667 -62 -111c-58 -66 -142.333 -99 -253 -99c-82 0 -150.333 15.667 -205 47v213zM88 1276c0 -45.333 16.334 -84 49.001 -116
s71.667 -48 117 -48s84 16 116 48s48 70.667 48 116c0 44.667 -16 83 -48 115c-32.667 31.333 -71.334 47 -116.001 47s-83.667 -15.667 -117 -47c-32.667 -32 -49 -70.333 -49 -115z" />
    <glyph glyph-name="k" unicode="k" horiz-adv-x="1114" 
d="M422 0h-285v1386h285v-768h72l311 402h334l-406 -492l420 -528h-344l-334 432h-53v-432z" />
    <glyph glyph-name="l" unicode="l" horiz-adv-x="552" 
d="M422 0h-285v1386h285v-1386z" />
    <glyph glyph-name="m" unicode="m" horiz-adv-x="1830" 
d="M420 0h-283.001v1020h248v-166c39.333 70 86.833 121 142.5 153s122.167 48 199.5 48s142 -17.667 194 -53s89 -87.333 111 -156c38 73.333 84.333 126.5 139 159.5s120.334 49.5 197.001 49.5c104 0 185.333 -32.5 244 -97.5s88 -158.833 88 -281.5v-676h-281v625
c0 69.333 -12.5 120 -37.5 152s-63.5 48 -115.5 48c-94.667 -4 -165 -52.333 -211 -145v-680h-271v625c0 69.333 -12.5 120 -37.5 152s-63.5 48 -115.5 48c-88.667 -4 -159 -52.333 -211 -145v-680z" />
    <glyph glyph-name="n" unicode="n" horiz-adv-x="1239" 
d="M420 0l-282.999 -0.000976562v1020h250v-168c63.333 135.333 183.666 203 360.999 203c110 0 197.333 -32.333 262 -97c65.333 -65.333 98 -158.666 98 -279.999v-678h-283v625c0 72.667 -15.167 124.5 -45.5 155.5s-75.833 46.5 -136.5 46.5
c-96.667 -6 -171 -54.333 -223 -145v-682z" />
    <glyph glyph-name="o" unicode="o" horiz-adv-x="1267" 
d="M78 504c-0.666992 104.667 20.999 198.5 64.999 281.5s108.333 148.667 193 197s183.667 72.5 297 72.5c90 0 171.333 -14.5 244 -43.5s131.667 -69.167 177 -120.5c90.667 -104 136 -229 136 -375c2 -102.667 -19.333 -195.834 -64 -279.501s-110 -150 -196 -199
s-185 -73.167 -297 -72.5c-88.667 0.666992 -169.167 15.5 -241.5 44.5s-131.166 69.167 -176.499 120.5c-91.333 102.667 -137 227.334 -137 374.001zM368.999 520c0 -42.667 5 -82.835 15 -120.502s25.333 -71.667 46 -102s48.334 -54.333 83.001 -72
s74.667 -26.5 120 -26.5c38.667 0 73.667 6 105 18s57 27.833 77 47.5s36.667 42.834 50 69.501s22.666 53.834 27.999 81.501s8 56.5 8 86.5c0 124.667 -38.333 215.667 -115 273c-40.667 30.667 -91.667 46 -153 46c-48 0 -89.833 -8.83301 -125.5 -26.5
s-63.167 -41.5 -82.5 -71.5s-33.5 -61.833 -42.5 -95.5s-13.5 -69.5 -13.5 -107.5z" />
    <glyph glyph-name="p" unicode="p" horiz-adv-x="1298" 
d="M420 -389l-283 -0.000976562v1409h244l12 -160c75.333 130 192 195 350 195c78 0 148 -13.5 210 -40.5s112.667 -64.833 152 -113.5c77.333 -98 116 -221.667 116 -371c0 -154 -43.333 -285.333 -130 -394c-42.667 -53.333 -96.5 -95.166 -161.5 -125.499
s-136.5 -45.5 -214.5 -45.5c-122 0 -220.333 42.333 -295 127v-481zM418 724.999v-433.999c69.333 -57.333 156 -86 260 -86c85.333 1.33301 149 31.666 191 90.999s63 135.333 63 228c0 91.333 -21.667 163.333 -65 216s-106.333 79 -189 79
c-47.333 0 -95.333 -8.66699 -144 -26c-48 -18 -86.667 -40.667 -116 -68z" />
    <glyph glyph-name="q" unicode="q" horiz-adv-x="1296" 
d="M78 514c0 104 20 194.834 60 272.501s93.333 138.5 160 182.5c82.667 57.333 174.334 86 275.001 86c64 0 123.5 -11.333 178.5 -34s101.5 -56.334 139.5 -101.001l24 100h244v-1409h-282v493c-86.667 -82.667 -195.334 -124 -326.001 -124
c-74.667 0 -142.167 14 -202.5 42s-110 66.167 -149 114.5s-69 104.833 -90 169.5s-31.5 134 -31.5 208zM362 506.001c0 -86 21.333 -157.667 64 -215c42.667 -58.667 104.667 -88 186 -88c116.667 0 205 48.333 265 145v369c-80 72 -165.333 108 -256 108
c-84.667 0 -149 -27.833 -193 -83.5s-66 -134.167 -66 -235.5z" />
    <glyph glyph-name="r" unicode="r" horiz-adv-x="792" 
d="M420 0h-282.999v1020h248l18 -176c72 136.667 197.667 205 377 205c15.333 0 26.333 -0.666992 33 -2v-283c-36.667 8 -75.667 12 -117 12c-66 0 -123.333 -12.833 -172 -38.5s-83.334 -64.5 -104.001 -116.5v-621z" />
    <glyph glyph-name="s" unicode="s" horiz-adv-x="1030" 
d="M88 717c0 108 38.833 191.336 116.5 250.003s188.5 88 332.5 88c133.333 0 252.666 -26.667 357.999 -80v-227c-30 16 -83.667 32 -161 48c-80 15.333 -150 23 -210 23c-46.667 0 -81.667 -4 -105 -12c-32 -11.333 -48 -37.333 -48 -78
c0 -38.667 23.333 -67.334 70 -86.001c34.667 -14.667 88.334 -29.334 161.001 -44.001c8 -1.33301 13.333 -2.33301 16 -3c39.333 -8 66.666 -14 81.999 -18c23.333 -5.33301 47.666 -12.333 72.999 -21c45.333 -14.667 85 -36.334 119 -65.001
c51.333 -44 77 -110.333 77 -199c0 -98.667 -42.333 -178 -127 -238c-85.333 -60 -196 -90 -332 -90c-151.333 0 -286.666 32.667 -405.999 98v232c48.667 -23.333 116.334 -46 203.001 -68c84 -21.333 158.333 -32 223 -32c46.667 0 84 8.5 112 25.5s42 40.5 42 70.5
c0 20 -8.5 36.5 -25.5 49.5s-39.5 22.667 -67.5 29s-59.833 13 -95.5 20l-109.5 20.5c-37.333 6.66699 -73.833 17.667 -109.5 33s-67.5 33.5 -95.5 54.5s-50.5 50.333 -67.5 88s-25.5 81.5 -25.5 131.5z" />
    <glyph glyph-name="t" unicode="t" horiz-adv-x="790" 
d="M127 299l-0.000976562 915l281 93v-287h313v-217h-313v-455c0.666992 -42 12.334 -72.333 35.001 -91s58.667 -28 108 -28c59.333 0 107.666 11 144.999 33v-235c-61.333 -36 -141.666 -54 -240.999 -54c-218.667 0 -328 108.667 -328 326z" />
    <glyph glyph-name="u" unicode="u" horiz-adv-x="1222" 
d="M123 344l-0.000976562 675.999h283v-625c0 -72 15.5 -123.333 46.5 -154s76.833 -46 137.5 -46c96.667 4 168.334 52.333 215.001 145v680h282v-1020h-249v166c-66.667 -134 -185 -201 -355 -201c-110 0 -197.667 32.667 -263 98c-64.667 64.667 -97 158.334 -97 281.001
z" />
    <glyph glyph-name="v" unicode="v" horiz-adv-x="1097" 
d="M498 0l-488 1020h314l237 -612l234 612h292l-479 -1020h-110z" />
    <glyph glyph-name="w" unicode="w" horiz-adv-x="1650" 
d="M475 0l-465 1020h289l231 -578l244 578h103l243 -578l232 578h288l-464 -1020h-111l-238 592l-241 -592h-111z" />
    <glyph glyph-name="x" unicode="x" horiz-adv-x="991" 
d="M350 510l-370 510h315l205 -322l202 322h308l-363 -504l365 -516h-305l-205 315l-197 -315h-317z" />
    <glyph glyph-name="y" unicode="y" horiz-adv-x="1091" 
d="M420 104l-426 916h311l240 -621l229 621h297l-631 -1409h-286z" />
    <glyph glyph-name="z" unicode="z" horiz-adv-x="909" 
d="M907 0h-897v123l508 661h-479v236h844v-123l-510 -661h534v-236z" />
    <glyph glyph-name="braceleft" unicode="{" horiz-adv-x="663" 
d="M76 555l0.000976562 188.003c48 0 87 10.667 117 32s45 49 45 83c0 32 -19.333 95 -58 189c-39.333 96 -61 164.667 -65 206c-10.667 117.333 38.666 197 147.999 239c57.333 21.333 127.333 32 210 32h148v-234h-148c-30.667 0 -52.5 -7.16699 -65.5 -21.5
s-15.167 -35.166 -6.5 -62.499l95 -268c22 -66.667 20.333 -124.334 -5 -173.001s-71.666 -87.334 -138.999 -116.001c67.333 -28.667 113.666 -67.334 138.999 -116.001s27 -106.334 5 -173.001l-95 -268c-8.66699 -27.333 -6.5 -48.166 6.5 -62.499
s34.833 -21.5 65.5 -21.5h148v-233h-148c-102.667 0 -187 17 -253 51c-37.333 19.333 -65.333 47.666 -84 84.999s-25.667 82 -21 134c4 41.333 25.667 110 65 206c38.667 94 58 157 58 189c0 34 -15 61.667 -45 83s-69 32 -117 32z" />
    <glyph glyph-name="braceright" unicode="}" horiz-adv-x="663" 
d="M76 -225v232.998h147c30.667 0 52.5 7.16699 65.5 21.5s15.167 35.166 6.5 62.499l-94 268c-22 66.667 -20.333 124.334 5 173.001s71.333 87.334 138 116.001c-66.667 28.667 -112.667 67.334 -138 116.001s-27 106.334 -5 173.001l94 268
c8.66699 27.333 6.5 48.166 -6.5 62.499s-34.833 21.5 -65.5 21.5h-147v234h147c128 2 226 -24.667 294 -80c23.333 -20 41 -46.5 53 -79.5s16 -70.167 12 -111.5c-4 -43.333 -25.333 -112 -64 -206c-39.333 -96 -59 -159 -59 -189c0 -34 15 -61.667 45 -83s69 -32 117 -32
v-188c-48 0 -87 -10.667 -117 -32s-45 -49 -45 -83c0 -30 19.667 -93 59 -189c38.667 -94 60 -162.667 64 -206c10.667 -118 -39 -197.667 -149 -239c-58 -20.667 -128 -31 -210 -31h-147z" />
    <glyph glyph-name="asciitilde" unicode="~" horiz-adv-x="1255" 
d="M162 362l-139.002 154.002c104.667 160 226 244.667 364 254c36.667 2.66699 74.5 -2.83301 113.5 -16.5s70.333 -28.334 94 -44.001s51.5 -36.167 83.5 -61.5c62 -49.333 114.667 -74.333 158 -75c54 0 122 49.333 204 148l146 -148
c-92 -152.667 -211.667 -233.667 -359 -243c-36.667 -2.66699 -74.667 2.66602 -114 15.999s-70.666 27.5 -93.999 42.5s-51.333 34.833 -84 59.5c-63.333 46.667 -116.666 70 -159.999 70c-67.333 0 -138.333 -52 -213 -156z" />
    <glyph glyph-name="uni00A0" unicode="&#xa0;" horiz-adv-x="593" 
 />
    <glyph glyph-name="sterling" unicode="&#xa3;" horiz-adv-x="1521" 
d="M207 938c0 63.333 15.001 119.998 45.001 169.998s72.333 90.333 127 121c106.667 58.667 240.334 88 401.001 88c192 0 371.667 -39 539 -117v-246c-59.333 29.333 -144.333 58 -255 86c-108 26 -198.333 39 -271 39c-195.333 0 -293 -54.667 -293 -164
c0 -21.333 6.83301 -44.333 20.5 -69s35.834 -56.667 66.501 -96c29.333 -40.667 50 -71 62 -91h551v-227h-493c-2.66699 -50 -25.334 -112.667 -68.001 -188h680v-244h-1083v98c70 47.333 125.667 101 167 161c41.333 60.667 62 119 62 175
c0 15.333 -2.66699 31.666 -8 48.999s-11.333 32.833 -18 46.5s-16.834 30.334 -30.501 50.001s-24.834 34.834 -33.501 45.501l-40 49l-37 46c-60.667 74.667 -91 147.334 -91 218.001z" />
    <glyph glyph-name="copyright" unicode="&#xa9;" horiz-adv-x="1617" 
d="M63 674c0 103.333 19.668 201.333 59.001 294c38.667 90.667 92 168.667 160 234c68 64.667 147.667 115.334 239 152.001s186.666 55 285.999 55c98.667 0 193.334 -17.833 284.001 -53.5s169.667 -85.167 237 -148.5c68 -63.333 121.667 -140.166 161 -230.499
s59.666 -185.833 60.999 -286.5c0 -138.667 -33.333 -264.334 -100 -377.001s-157 -200.667 -271 -264c-112.667 -62.667 -236.667 -94 -372 -94c-134 0 -257 30.667 -369 92c-113.333 61.333 -203.333 147 -270 257c-68 111.333 -103 234.666 -105 369.999zM258.001 674
c3.33301 -107.333 29.668 -202.332 79.001 -284.999c49.333 -84 115 -147.333 197 -190c82 -44 173 -66 273 -66c102.667 0 195.167 22.5 277.5 67.5s148.166 109.833 197.499 194.5c49.333 85.333 74 183.666 74 294.999c-3.33301 108 -29.333 203.333 -78 286
c-50 82.667 -116 146 -198 190c-82.667 43.333 -173.667 65 -273 65c-102.667 0 -195 -22.5 -277 -67.5s-147.667 -109.833 -197 -194.5c-50 -84.667 -75 -183 -75 -295zM562.003 406.001c-72.667 72.667 -108.999 162 -108.999 268c0 106.667 36.333 196.334 109 269.001
c73.333 73.333 164.666 110 273.999 110c58.667 0 109.5 -9.5 152.5 -28.5s86.167 -49.167 129.5 -90.5l-90 -107c-60.667 54.667 -125.334 82 -194.001 82c-62.667 0 -115 -22.667 -157 -68c-42 -44.667 -63 -100.334 -63 -167.001c0 -65.333 21 -120.333 63 -165
c42 -46 94.333 -69 157 -69c69.333 0 134.666 28.667 195.999 86l98 -102c-43.333 -44.667 -88.166 -77 -134.499 -97s-101.166 -30 -164.499 -30c-106 0 -195 36.333 -267 109z" />
    <glyph glyph-name="guillemotleft" unicode="&#xab;" horiz-adv-x="1146" 
d="M399 47l-364 463l364 461l201 -94l-297 -367l297 -369zM872 47l-364 463l364 461l201 -94l-297 -367l297 -369z" />
    <glyph glyph-name="uni00AD" unicode="&#xad;" horiz-adv-x="811" 
d="M729 377h-633v260h633v-260z" />
    <glyph glyph-name="registered" unicode="&#xae;" horiz-adv-x="866" 
d="M63 1014c0 119.333 35.001 212.999 105.001 280.999c69.333 68 157.333 102 264 102c106 0 193.667 -33.333 263 -100c70 -67.333 106 -159 108 -275c0 -117.333 -35 -210.666 -105 -279.999c-70.667 -68.667 -159.334 -103 -266.001 -103
c-102.667 -2.66699 -189.667 30.5 -261 99.5s-107.333 160.833 -108 275.5zM281.001 1251v-437.998h106v148h33l94 -148h121l-115 172c24 7.33301 42.667 22.166 56 44.499s20 47.166 20 74.499c0 46 -14 82 -42 108s-66 39 -114 39h-159zM440.001 1055h-53v102h39
c40.667 0 61 -16.333 61 -49c0 -35.333 -15.667 -53 -47 -53z" />
    <glyph glyph-name="twosuperior" unicode="&#xb2;" horiz-adv-x="808" 
d="M725 518l-702 -0.00195312v82l284 264c48 43.333 81.833 78 101.5 104s29.5 51.333 29.5 76c0 49.333 -33.333 74 -100 74c-49.333 0 -101 -8.33301 -155 -25c-55.333 -16.667 -103.333 -37.667 -144 -63v209c42 24 91.5 43 148.5 57s113.167 21 168.5 21
c98.667 0 179.667 -20 243 -60c63.333 -41.333 95 -100.666 95 -177.999c0 -51.333 -14.667 -97.666 -44 -138.999c-30 -42 -83.667 -97.333 -161 -166l-86 -76h322v-180z" />
    <glyph glyph-name="threesuperior" unicode="&#xb3;" horiz-adv-x="854" 
d="M406 1120l-363.002 0.000976562l53 174h631v-123l-262 -192c14.667 1.33301 30.334 2 47.001 2c76 0 136 -22 180 -66s66 -96.333 66 -157c0 -80.667 -34.333 -146 -103 -196s-161.334 -75 -278.001 -75c-63.333 0 -118.666 4.66699 -165.999 14s-98 26.666 -152 51.999
v192c114 -43.333 205.667 -65 275 -65c108 0 162 32 162 96c0 26.667 -10.167 48 -30.5 64s-49.166 24 -86.499 24c-54 0 -110.667 -7.33301 -170 -22l-37 96z" />
    <glyph glyph-name="paragraph" unicode="&#xb6;" horiz-adv-x="1212" 
d="M37 899c0 63.333 12.668 125.166 38.001 185.499s60 112.833 104 157.5s95.667 79.834 155 105.501s120.666 38.5 183.999 38.5h625v-239h-436v-1147h-189v418c-132.667 0 -246 47.333 -340 142c-94 94 -141 207 -141 339zM1024 0h-190v1038h190v-1038z" />
    <glyph glyph-name="onesuperior" unicode="&#xb9;" horiz-adv-x="661" 
d="M242 1112h-199l53 182h396v-606h167v-178h-589v178h172v424z" />
    <glyph glyph-name="guillemotright" unicode="&#xbb;" horiz-adv-x="1146" 
d="M236 47l-201 94l297 369l-297 367l201 94l364 -461zM709 47l-201 94l297 369l-297 367l201 94l364 -461z" />
    <glyph glyph-name="florin" unicode="&#x192;" horiz-adv-x="1335" 
d="M-145 -346l85.9971 223c49.333 -16 97 -24 143 -24c50 0 89.833 11.333 119.5 34s51.834 63 66.501 121l154 959c11.333 70.667 29.5 133.334 54.5 188.001s53.833 98 86.5 130c30.667 29.333 67.667 53.666 111 72.999c68 28.667 150 43 246 43
c64 0 130 -5.66699 198 -17l-37 -227c-58 16.667 -110.333 25 -157 25c-50 0 -92.667 -9.33301 -128 -28c-42 -21.333 -69 -66 -81 -134h293l-33 -217h-293l-123 -774c-21.333 -160 -71.666 -272.333 -150.999 -337c-75.333 -59.333 -175 -89 -299 -89
c-93.333 0 -178.666 17 -255.999 51z" />
    <glyph glyph-name="uni0401" unicode="&#x401;" horiz-adv-x="1183" 
d="M1135 0h-979v1294h970v-241h-698v-279h612v-242h-612v-290h707v-242zM252 1540c0 46 13.833 81.832 41.5 107.499s63.5 38.5 107.5 38.5c42.667 0 77.667 -12.833 105 -38.5s41 -61.5 41 -107.5c0 -44 -13.833 -78.5 -41.5 -103.5s-62.5 -37.5 -104.5 -37.5
c-44 0 -79.833 12.333 -107.5 37s-41.5 59.334 -41.5 104.001zM723 1540c0 46 13.667 81.834 41 107.501s62.666 38.5 105.999 38.5s78.5 -12.833 105.5 -38.5s40.5 -61.5 40.5 -107.5c0 -44.667 -13.5 -79.334 -40.5 -104.001s-62.167 -37 -105.5 -37
s-78.666 12.5 -105.999 37.5s-41 59.5 -41 103.5z" />
    <glyph glyph-name="uni0410" unicode="&#x410;" horiz-adv-x="1329" 
d="M266 0h-286l638 1294h76l656 -1294h-301l-107 227h-571zM655 844l-184 -400h371z" />
    <glyph glyph-name="uni0411" unicode="&#x411;" horiz-adv-x="1251" 
d="M711 0h-555.001v1294h934v-241h-658v-262c88 10.667 161.667 16 221 16c118 0 219.667 -16 305 -48c49.333 -20 89.666 -43.667 120.999 -71c34.667 -30 61.834 -69 81.501 -117s29.5 -102.333 29.5 -163c0 -130 -42.333 -230.333 -127 -301
c-85.333 -71.333 -202.666 -107 -351.999 -107zM431.999 571v-325h266c68 0 119.167 15.333 153.5 46s51.5 72.667 51.5 126c0 114.667 -86 172 -258 172c-54 0 -125 -6.33301 -213 -19z" />
    <glyph glyph-name="uni0412" unicode="&#x412;" horiz-adv-x="1267" 
d="M156 4v1290c185.333 7.33301 338 11 458 11c172 0 302.167 -28.167 390.5 -84.5s132.5 -135.5 132.5 -237.5c0 -68 -16.333 -127.333 -49 -178s-80 -89.667 -142 -117c160 -44 240 -145.667 240 -305c0 -126 -52.333 -222.333 -157 -289s-247.667 -100 -429 -100
c-188.667 0 -336.667 3.33301 -444 10zM432 553v-330c86.667 -5.33301 146 -8 178 -8c191.333 0 287 59.333 287 178c0 106.667 -91.333 160 -274 160h-191zM432 1079l0.000976562 -314.999h182c71.333 0 127.833 14.667 169.5 44s62.5 70.666 62.5 123.999
c0 49.333 -21.333 86.833 -64 112.5s-103.334 38.5 -182.001 38.5c-54 0 -110 -1.33301 -168 -4z" />
    <glyph glyph-name="uni0413" unicode="&#x413;" horiz-adv-x="1062" 
d="M430 0h-274v1294h897v-245h-623v-1049z" />
    <glyph glyph-name="uni0414" unicode="&#x414;" horiz-adv-x="1476" 
d="M311 -242h-260.001v488h121c52.667 120 90.334 246.333 113.001 379c22.667 131.333 34 305.333 34 522v147h934v-1048h152v-488h-260v242h-834v-242zM458.999 246h520v803h-397v-140c0 -247.333 -41 -468.333 -123 -663z" />
    <glyph glyph-name="uni0415" unicode="&#x415;" horiz-adv-x="1183" 
d="M1135 0h-979v1294h970v-241h-698v-279h612v-242h-612v-290h707v-242z" />
    <glyph glyph-name="uni0416" unicode="&#x416;" horiz-adv-x="1978" 
d="M354 0h-354l557 670l-494 624h318l410 -538h63v538h270v-538h64l409 538h318l-494 -624l557 -670h-354l-432 545h-68v-545h-270v545h-68z" />
    <glyph glyph-name="uni0417" unicode="&#x417;" horiz-adv-x="1163" 
d="M78 76l-0.00195312 254c82 -44.667 156.333 -76 223 -94c71.333 -19.333 150.666 -29 237.999 -29c72.667 0 133.334 14.667 182.001 44c48 28.667 72 70 72 124c0 52.667 -20.667 91.667 -62 117s-104.666 38 -189.999 38h-258v230h225c173.333 0 260 53.333 260 160
c0 102 -82 153 -246 153c-74.667 0 -152.334 -9 -233.001 -27c-79.333 -17.333 -138.666 -37 -177.999 -59v240c56 28 123.667 50 203 66s161.666 24 246.999 24c149.333 0 271.333 -32.333 366 -97s142 -147 142 -247c0 -73.333 -22 -136 -66 -188
s-105.333 -91.667 -184 -119c86 -20 153.667 -57 203 -111s74 -119.667 74 -197c0 -115.333 -50 -210 -150 -284c-101.333 -74 -235 -111 -401 -111c-95.333 0 -179.666 9 -252.999 27s-144.666 46.667 -213.999 86z" />
    <glyph glyph-name="uni0418" unicode="&#x418;" horiz-adv-x="1449" 
d="M248 0h-92v1294h264v-770l788 770h86v-1294h-264v772z" />
    <glyph glyph-name="uni0419" unicode="&#x419;" horiz-adv-x="1449" 
d="M248 0h-92v1294h264v-770l788 770h86v-1294h-264v772zM367 1712l228.998 0.00195312c0 -48.667 14 -86.834 42 -114.501s66.667 -41.5 116 -41.5c50 0 89 13.667 117 41s42 65.666 42 114.999h230c-1.33301 -110 -37.666 -198 -108.999 -264
c-72.667 -66.667 -166 -100 -280 -100c-113.333 0 -205.666 33.333 -276.999 100c-72 65.333 -108.667 153.333 -110 264z" />
    <glyph glyph-name="uni041A" unicode="&#x41a;" horiz-adv-x="1280" 
d="M432 0h-276v1294h276v-538h64l450 538h324l-535 -624l598 -670h-360l-473 545h-68v-545z" />
    <glyph glyph-name="uni041B" unicode="&#x41b;" horiz-adv-x="1376" 
d="M0 -2l18 219.001c9.33301 -1.33301 21.666 -2 36.999 -2c28.667 0 53.334 3.66699 74.001 11s41 21 61 41s36.5 49 49.5 87s24.5 86.5 34.5 145.5s17.333 132.167 22 219.5s7 189.666 7 306.999v268h918v-1294h-273v1049h-389v-111
c0 -188.667 -8.16699 -345.167 -24.5 -469.5s-42.5 -222 -78.5 -293s-78.667 -120.667 -128 -149s-111 -42.5 -185 -42.5c-61.333 0 -109 4.66699 -143 14z" />
    <glyph glyph-name="uni041C" unicode="&#x41c;" horiz-adv-x="1843" 
d="M377 0h-275l232 1294h69l521 -841l524 841h68l233 -1294h-276l-119 672l-430 -684l-439 684z" />
    <glyph glyph-name="uni041D" unicode="&#x41d;" horiz-adv-x="1441" 
d="M432 0h-276v1294h276v-520h578v520h276v-1294h-276v524h-578v-524z" />
    <glyph glyph-name="uni041E" unicode="&#x41e;" horiz-adv-x="1538" 
d="M82 641c2 201.333 66.333 364.333 193 489s291.667 187 495 187c205.333 0 370.333 -62.333 495 -187c125.333 -125.333 189 -288.333 191 -489c-2 -200.667 -65.667 -363.667 -191 -489c-124.667 -126 -289.667 -189 -495 -189c-99.333 0 -191.833 16.5 -277.5 49.5
s-158.5 79.5 -218.5 139.5c-60.667 60.667 -107.667 133 -141 217s-50.333 174.667 -51 272zM486 948c-74 -77.333 -111 -179.667 -111 -307c0 -128 37 -230 111 -306s168.667 -114 284 -114c116 0 211.333 38 286 114c74 76 111 178 111 306s-37.333 230.333 -112 307
s-169.667 115 -285 115s-210 -38.333 -284 -115z" />
    <glyph glyph-name="uni041F" unicode="&#x41f;" horiz-adv-x="1421" 
d="M432 0h-276v1294h1110v-1294h-277v1044h-557v-1044z" />
    <glyph glyph-name="uni0420" unicode="&#x420;" 
d="M432 0l-275.999 -0.00195312v1294h510c90.667 0 170.667 -11.833 240 -35.5s124.333 -57.167 165 -100.5c78 -82.667 117 -190 117 -322c0 -66 -9.83301 -125.5 -29.5 -178.5s-46.334 -97.167 -80.001 -132.5s-73.334 -64.666 -119.001 -87.999
s-93.667 -40.166 -144 -50.499s-103.166 -15.5 -158.499 -15.5c-96 0 -171 6 -225 18v-389zM432.001 1053v-437c38.667 -8 100.667 -12 186 -12c88.667 0 157.667 19.667 207 59s74 99 74 179c0 66 -18.333 117.667 -55 155c-37.333 37.333 -102.333 56 -195 56h-217z" />
    <glyph glyph-name="uni0421" unicode="&#x421;" horiz-adv-x="1257" 
d="M92 637c0 204 65.3311 368.334 195.998 493.001c129.333 124.667 301 187 515 187c128 0 255.667 -27.333 383 -82v-266c-102.667 54.667 -223 82 -361 82c-131.333 0 -235.666 -36.667 -312.999 -110c-78 -72.667 -117 -174 -117 -304c4 -128 45.333 -228 124 -300
c78 -72 174 -108 288 -108c144.667 0 274.334 39 389.001 117v-283c-122.667 -66.667 -264.667 -100 -426 -100c-133.333 0 -251 29.667 -353 89c-104.667 59.333 -184.667 140 -240 242c-56.667 101.333 -85 215.666 -85 342.999z" />
    <glyph glyph-name="uni0422" unicode="&#x422;" horiz-adv-x="1085" 
d="M410 1053h-410v241h1085v-241h-409v-1053h-266v1053z" />
    <glyph glyph-name="uni0423" unicode="&#x423;" horiz-adv-x="1208" 
d="M498 317l-518 976.999h305l362 -708l314 708h296l-487 -981c-59.333 -119.333 -123 -204.666 -191 -255.999c-69.333 -51.333 -149 -77 -239 -77c-59.333 0 -114.666 8 -165.999 24v236c43.333 -14 81 -21 113 -21c85.333 0 155.666 32.667 210.999 98z" />
    <glyph glyph-name="uni0424" unicode="&#x424;" horiz-adv-x="1689" 
d="M107 436c-30.667 69.333 -46 144.666 -46 225.999c0 82 15.333 157 46 225c29.333 68 72 127.333 128 178c56 50 124.5 88.833 205.5 116.5s169.833 41.5 266.5 41.5v116h276v-116c194 0 350.333 -52.667 469 -158c117.333 -105.333 176 -240.666 176 -405.999
c0 -80 -14.833 -154.833 -44.5 -224.5s-71.834 -130.167 -126.501 -181.5c-55.333 -52 -124 -92.5 -206 -121.5s-171.333 -43.5 -268 -43.5v-139h-276v139c-146 0 -271.667 31.5 -377 94.5s-179.666 147.5 -222.999 253.5zM344 655c0 -99.333 33.333 -178.999 100 -238.999
c66 -60 153.667 -90 263 -90v659c-110 0 -197.667 -30.333 -263 -91c-66.667 -60.667 -100 -140.334 -100 -239.001zM983 985.001v-659c108.667 0 196 30 262 90c65.333 60 98 139.667 98 239c0 98 -33 177.667 -99 239c-65.333 60.667 -152.333 91 -261 91z" />
    <glyph glyph-name="uni0425" unicode="&#x425;" horiz-adv-x="1300" 
d="M297 0h-317l514 672l-437 622h322l270 -411l289 411h317l-434 -596l500 -698h-320l-342 492z" />
    <glyph glyph-name="uni0426" unicode="&#x426;" horiz-adv-x="1497" 
d="M1180 0h-1024v1294h276v-1048h543v1048h276v-1048h195v-488h-266v242z" />
    <glyph glyph-name="uni0427" unicode="&#x427;" horiz-adv-x="1277" 
d="M61 850l0.000976562 444h277v-391c0 -106 23.333 -177.333 70 -214c41.333 -33.333 104.666 -50 189.999 -50c97.333 0 180 15 248 45v610h276v-1294h-276v442c-108 -39.333 -214.667 -59 -320 -59c-163.333 0 -286 48.667 -368 146c-64.667 75.333 -97 182.333 -97 321z
" />
    <glyph glyph-name="uni0428" unicode="&#x428;" horiz-adv-x="2084" 
d="M1929 0h-1773v1294h274v-1048h475v1048h275v-1048h475v1048h274v-1294z" />
    <glyph glyph-name="uni0429" unicode="&#x429;" horiz-adv-x="2146" 
d="M1829 0h-1673v1294h274v-1048h475v1048h275v-1048h475v1048h274v-1048h166v-488h-266v242z" />
    <glyph glyph-name="uni042A" unicode="&#x42a;" horiz-adv-x="1427" 
d="M340 1053h-300.999v241h577v-444c80 13.333 161.333 20 244 20c60 0 115.333 -4.66699 166 -14s98.5 -24.666 143.5 -45.999s83.167 -48.5 114.5 -81.5s56.166 -74.667 74.499 -125s27.5 -107.5 27.5 -171.5c0 -122.667 -41 -224.334 -123 -305.001
c-86 -84.667 -209.333 -127 -370 -127h-553v1053zM616.001 618v-372h234c80.667 0 142.5 16.667 185.5 50s64.5 82 64.5 146c0 130 -86 195 -258 195c-48.667 0 -124 -6.33301 -226 -19z" />
    <glyph glyph-name="uni042B" unicode="&#x42b;" horiz-adv-x="1751" 
d="M694 0h-537.998v1294h276v-444c80 13.333 156.667 20 230 20c60 0 115.333 -4.66699 166 -14s98.5 -24.666 143.5 -45.999s83.167 -48.5 114.5 -81.5s56.166 -74.667 74.499 -125s27.5 -107.5 27.5 -171.5c0 -122.667 -41 -224.334 -123 -305.001
c-86.667 -84.667 -210.334 -127 -371.001 -127zM432.002 618v-372h219c80.667 0 142.5 16.667 185.5 50s64.5 82 64.5 146c0 130 -86 195 -258 195c-38.667 0 -109 -6.33301 -211 -19zM1595 0h-276v1294h276v-1294z" />
    <glyph glyph-name="uni042C" unicode="&#x42c;" horiz-adv-x="1263" 
d="M709 0h-552.999v1294h276v-444c80 13.333 161.333 20 244 20c60 0 115.333 -4.66699 166 -14s98.5 -24.666 143.5 -45.999s83.167 -48.5 114.5 -81.5s56.166 -74.667 74.499 -125s27.5 -107.5 27.5 -171.5c0 -122.667 -41 -224.334 -123 -305.001
c-86 -84.667 -209.333 -127 -370 -127zM432.001 618l-0.000976562 -372h234c80.667 0 142.334 16.667 185.001 50s64 82 64 146c0 130 -86 195 -258 195c-48 0 -123 -6.33301 -225 -19z" />
    <glyph glyph-name="uni042D" unicode="&#x42d;" horiz-adv-x="1212" 
d="M72 35v241.001c110 -47.333 232 -71 366 -71c249.333 0 383.333 108.333 402 325h-621v236h625c-30 207.333 -172 311 -426 311c-126.667 0 -240.667 -26.667 -342 -80v246c114 49.333 236.667 74 368 74c136.667 -0.666992 254.167 -24.667 352.5 -72
s174.5 -113 228.5 -197c70 -106.667 105 -233.334 105 -380.001c0 -106 -13.333 -201.667 -40 -287s-66.5 -159.333 -119.5 -222s-121.667 -111 -206 -145s-182.166 -51 -293.499 -51c-80.667 0 -151 6 -211 18c-60.667 12 -123.334 30 -188.001 54z" />
    <glyph glyph-name="uni042E" unicode="&#x42e;" horiz-adv-x="1955" 
d="M432 0l-275.999 -0.00195312v1294h276v-520h166c27.333 164 99 295.667 215 395c114.667 98.667 254 148 418 148c90 1.33301 174.833 -14.667 254.5 -48s148 -79.666 205 -138.999s101.833 -131.333 134.5 -216s49 -175.667 49 -273
c-0.666992 -131.333 -28.834 -248.666 -84.501 -351.999s-132.167 -183.5 -229.5 -240.5s-207 -85.5 -329 -85.5c-164.667 0 -305.667 51.667 -423 155c-116 102.667 -186.667 238 -212 406h-164v-524zM975.001 947.998c-67.333 -77.333 -101.001 -179.667 -101.001 -307
c0 -128.667 33.333 -230.667 100 -306c66.667 -76 152.334 -114 257.001 -114s190.667 38 258 114c66.667 75.333 100 177.333 100 306c0 128 -33.333 230.333 -100 307s-152.667 115 -258 115c-104 0 -189.333 -38.333 -256 -115z" />
    <glyph glyph-name="uni042F" unicode="&#x42f;" horiz-adv-x="1384" 
d="M418 0h-325.999l281 459c-86 34.667 -153.333 84.667 -202 150s-74.334 145 -77.001 239c0 144 43 254.333 129 331s209 115 369 115h604v-1294h-289v420c-80 -12.667 -151.667 -19 -215 -19h-33zM383.001 848c1.33301 -85.333 36.666 -142.667 105.999 -172
c60 -26 134.667 -39 224 -39c76.667 0 141.334 5.33301 194.001 16v402h-276c-165.333 0 -248 -69 -248 -207z" />
    <glyph glyph-name="uni0430" unicode="&#x430;" horiz-adv-x="1171" 
d="M78 315c0 126 43.999 218.668 131.999 278.001c81.333 54 183.333 81 306 81c102.667 0 185.334 -13 248.001 -39v37c0 103.333 -69 155 -207 155c-142 0 -265 -25.667 -369 -77v245c124 40 260 60 408 60c292 0 438 -139.333 438 -418v-637h-203l-26 141
c-48 -61.333 -101.667 -104 -161 -128c-60 -24 -136.667 -36 -230 -36c-103.333 0 -185 33.333 -245 100c-60.667 65.333 -91 144.666 -91 237.999zM359.999 322.001c0 -40.667 14.333 -73.833 43 -99.5s67 -38.5 115 -38.5c48.667 0 95.5 12.5 140.5 37.5
s80.167 59.167 105.5 102.5v116c-49.333 31.333 -111.333 47 -186 47c-74 0 -128.833 -13.5 -164.5 -40.5s-53.5 -68.5 -53.5 -124.5z" />
    <glyph glyph-name="uni0431" unicode="&#x431;" horiz-adv-x="1257" 
d="M84 580c0 149.333 26.335 275.665 79.002 378.998c47.333 92.667 127.666 173 240.999 241c96.667 56.667 232 106 406 148c83.333 19.333 171.666 37 264.999 53v-268l-49.5 -7.5c-24.333 -3.66699 -42.5 -6.5 -54.5 -8.5c-14.667 -2.66699 -35 -5.66699 -61 -9
s-44 -6 -54 -8c-92 -14 -167 -31.667 -225 -53c-81.333 -30 -143.333 -67.333 -186 -112c-53.333 -56 -86.333 -125.333 -99 -208c98 125.333 228.333 188 391 188c132 0 238.333 -41 319 -123c81.333 -83.333 122 -191.666 122 -324.999c0 -92.667 -21 -176.667 -63 -252
s-102.333 -135.666 -181 -180.999c-78.667 -46 -168.667 -69 -270 -69c-95.333 0 -180.5 15.333 -255.5 46s-136.167 74 -183.5 130c-94 112 -141 258.333 -141 439zM365.002 519.999c0 -97.333 25.333 -173.333 76 -228c50 -55.333 116.667 -83 200 -83
c74 0 135.667 22.333 185 67c50 44 75 99.333 75 166c0 70 -22.667 126.667 -68 170c-44.667 42.667 -102.667 64 -174 64c-56 0 -111.667 -14.667 -167 -44c-54 -28.667 -96.333 -66 -127 -112z" />
    <glyph glyph-name="uni0432" unicode="&#x432;" horiz-adv-x="1134" 
d="M137 0l0.000976562 1020c118 9.33301 275.667 14 473 14c100 0 182 -9.66699 246 -29c39.333 -12.667 71 -28 95 -46c55.333 -42 83 -105 83 -189c0 -107.333 -58.667 -185.666 -176 -234.999c74.667 -22 129.167 -53.667 163.5 -95s51.5 -93.666 51.5 -156.999
c0 -198 -162.333 -297 -487 -297c-174.667 0 -324.334 4.66699 -449.001 14zM408.001 435.998v-227h229c50.667 0 89.667 10.5 117 31.5s41 49.5 41 85.5c0 33.333 -14 60 -42 80s-68.667 30 -122 30h-223zM408.001 824.998l-0.000976562 -223h204
c45.333 0 81.333 10.5 108 31.5s40 48.167 40 81.5s-13.667 60 -41 80s-67.666 30 -120.999 30h-190z" />
    <glyph glyph-name="uni0433" unicode="&#x433;" horiz-adv-x="913" 
d="M420 0h-283v1020h744v-238h-461v-782z" />
    <glyph glyph-name="uni0434" unicode="&#x434;" horiz-adv-x="1366" 
d="M86 -242v465h117c38.667 81.333 65.667 180.5 81 297.5s23 257.5 23 421.5v78h826v-797h151v-465h-240v242h-718v-242h-240zM479 223h381v576h-297v-33c0 -222.667 -28 -403.667 -84 -543z" />
    <glyph glyph-name="uni0435" unicode="&#x435;" horiz-adv-x="1204" 
d="M78 514c0 71.333 9.83496 136.831 29.502 196.498s46.5 110.334 80.5 152.001s73.833 77 119.5 106s94.667 50.333 147 64s106.833 20.5 163.5 20.5c84.667 0 159.667 -13.667 225 -41s117 -65.666 155 -114.999c73.333 -94.667 110 -212.667 110 -354
c0 -44.667 -4 -94.667 -12 -150h-738c10 -66 44.667 -115.5 104 -148.5s136.666 -49.5 231.999 -49.5c85.333 0 194.666 21 327.999 63v-221c-85.333 -48 -206.333 -72 -363 -72c-97.333 0 -184 14 -260 42s-137 67.667 -183 119c-92 100 -138 229.333 -138 388z
M348.002 579.998h491.999c0 78 -19.667 137.667 -59 179s-93.666 62 -162.999 62c-78 0 -141 -21.167 -189 -63.5s-75 -101.5 -81 -177.5z" />
    <glyph glyph-name="uni0436" unicode="&#x436;" horiz-adv-x="1775" 
d="M385 0h-354l409 526l-352 494h322l262 -404h94v404h264v-404h94l262 404h322l-352 -494l409 -526h-354l-283 406h-98v-406h-264v406h-98z" />
    <glyph glyph-name="uni0437" unicode="&#x437;" horiz-adv-x="1040" 
d="M113 29l0.000976562 241.001c108.667 -50 224 -75 346 -75c150 0 225 37.333 225 112c0 72.667 -56.667 109 -170 109h-281v196h279c94 0 141 36.333 141 109c0 69.333 -65.333 104 -196 104c-50.667 0 -110 -6 -178 -18c-69.333 -12 -122 -24.333 -158 -37v229
c33.333 16 94.333 29.667 183 41c86.667 10 162.667 15 228 15c125.333 0 224.333 -24 297 -72c72.667 -48.667 109 -119 109 -211c0 -58.667 -16.333 -109.5 -49 -152.5s-77.667 -72.833 -135 -89.5c66 -12.667 117.333 -40.834 154 -84.501s55 -97.834 55 -162.501
c0 -44.667 -8 -85.167 -24 -121.5s-37.667 -66.5 -65 -90.5s-60 -44.167 -98 -60.5s-78 -28 -120 -35s-86.667 -10.5 -134 -10.5c-66.667 0 -142.334 5.66699 -227.001 17c-81.333 10.667 -142 26.334 -182 47.001z" />
    <glyph glyph-name="uni0438" unicode="&#x438;" horiz-adv-x="1245" 
d="M242 0h-105v1020h264v-574l603 574h104v-1020h-264v573z" />
    <glyph glyph-name="uni0439" unicode="&#x439;" horiz-adv-x="1245" 
d="M242 0h-105v1020h264v-574l603 574h104v-1020h-264v573zM279 1444h221c0 -47.333 13.167 -84.166 39.5 -110.499s63.5 -39.5 111.5 -39.5s85.333 13.167 112 39.5s40 63.166 40 110.499h221c-1.33301 -106.667 -36.333 -191.334 -105 -254.001
c-70 -64 -159.333 -96 -268 -96s-197.667 32 -267 96c-68.667 62.667 -103.667 147.334 -105 254.001z" />
    <glyph glyph-name="uni043A" unicode="&#x43a;" horiz-adv-x="1173" 
d="M420 0h-283v1020h283v-404h90l285 404h338l-381 -494l417 -526h-348l-303 406h-98v-406z" />
    <glyph glyph-name="uni043B" unicode="&#x43b;" horiz-adv-x="1232" 
d="M31 2l19.999 217c14.667 -1.33301 31 -2 49 -2c34.667 0 62.334 8.16699 83.001 24.5s39 50.5 55 102.5c30 121.333 45 346.666 45 675.999h813v-1020h-275v791h-286c-1.33301 -208.667 -11.5 -368.167 -30.5 -478.5s-50.833 -189.833 -95.5 -238.5
c-30 -31.333 -63.167 -53.166 -99.5 -65.499s-82.833 -18.5 -139.5 -18.5c-52 0 -98.333 4 -139 12z" />
    <glyph glyph-name="uni043C" unicode="&#x43c;" horiz-adv-x="1605" 
d="M348 -2h-276l202 1024h93l436 -635l438 635h90l203 -1024h-274l-101 496l-356 -517l-365 515z" />
    <glyph glyph-name="uni043D" unicode="&#x43d;" horiz-adv-x="1222" 
d="M420 0h-283v1020h283v-399h383v399h282v-1020h-282v399h-383v-399z" />
    <glyph glyph-name="uni043E" unicode="&#x43e;" horiz-adv-x="1267" 
d="M78 504c-0.666992 104.667 20.999 198.5 64.999 281.5s108.333 148.667 193 197s183.667 72.5 297 72.5c90 0 171.333 -14.5 244 -43.5s131.667 -69.167 177 -120.5c90.667 -104 136 -229 136 -375c2 -102.667 -19.333 -195.834 -64 -279.501s-110 -150 -196 -199
s-185 -73.167 -297 -72.5c-88.667 0.666992 -169.167 15.5 -241.5 44.5s-131.166 69.167 -176.499 120.5c-91.333 102.667 -137 227.334 -137 374.001zM368.999 520c0 -42.667 5 -82.835 15 -120.502s25.333 -71.667 46 -102s48.334 -54.333 83.001 -72
s74.667 -26.5 120 -26.5c38.667 0 73.667 6 105 18s57 27.833 77 47.5s36.667 42.834 50 69.501s22.666 53.834 27.999 81.501s8 56.5 8 86.5c0 124.667 -38.333 215.667 -115 273c-40.667 30.667 -91.667 46 -153 46c-48 0 -89.833 -8.83301 -125.5 -26.5
s-63.167 -41.5 -82.5 -71.5s-33.5 -61.833 -42.5 -95.5s-13.5 -69.5 -13.5 -107.5z" />
    <glyph glyph-name="uni043F" unicode="&#x43f;" horiz-adv-x="1208" 
d="M420 0h-283v1020h934v-1020h-283v799h-368v-799z" />
    <glyph glyph-name="uni0440" unicode="&#x440;" horiz-adv-x="1286" 
d="M420 -389l-283 -0.000976562v1409h244l12 -160c75.333 130 192 195 350 195c78 0 148 -13.5 210 -40.5s112.667 -64.833 152 -113.5c77.333 -98 116 -221.667 116 -371c0 -154 -43.333 -285.333 -130 -394c-42.667 -53.333 -96.5 -95.166 -161.5 -125.499
s-136.5 -45.5 -214.5 -45.5c-122 0 -220.333 42.333 -295 127v-481zM418 724.999v-433.999c69.333 -57.333 156 -86 260 -86c85.333 1.33301 149 31.666 191 90.999s63 135.333 63 228c0 91.333 -21.667 163.333 -65 216s-106.333 79 -189 79
c-47.333 0 -95.333 -8.66699 -144 -26c-48 -18 -86.667 -40.667 -116 -68z" />
    <glyph glyph-name="uni0441" unicode="&#x441;" horiz-adv-x="1017" 
d="M78 504c0 165.333 50.6689 298.669 152.002 400.002c100.667 100.667 237 151 409 151c43.333 0 94.666 -4.66699 153.999 -14c56 -10 103 -24 141 -42v-245c-28 18.667 -68 34 -120 46c-52.667 11.333 -103.334 17 -152.001 17c-96 0 -169.167 -26 -219.5 -78
s-75.5 -127.667 -75.5 -227c0 -95.333 24.333 -170.333 73 -225s112.334 -82 191.001 -82c129.333 0 234.333 23.667 315 71v-245c-45.333 -22.667 -96.333 -39.334 -153 -50.001c-56 -10.667 -110.667 -16 -164 -16c-102.667 -2 -195.834 18.667 -279.501 62
s-150 106.666 -199 189.999s-73.167 179 -72.5 287z" />
    <glyph glyph-name="uni0442" unicode="&#x442;" horiz-adv-x="1007" 
d="M362 791h-311v229h905v-229h-311v-791h-283v791z" />
    <glyph glyph-name="uni0443" unicode="&#x443;" horiz-adv-x="1085" 
d="M444 104l-426 916h312l239 -621l230 621h297l-631 -1409h-287z" />
    <glyph glyph-name="uni0444" unicode="&#x444;" horiz-adv-x="1536" 
d="M72 512c0 150.667 49.999 275.67 149.999 375.003c98.667 98.667 236.334 154.667 413.001 168v331h268v-331c172 -8 308.333 -63.333 409 -166c101.333 -103.333 152 -229 152 -377c0 -152.667 -49.333 -278.334 -148 -377.001
c-99.333 -100.667 -237 -157.334 -413 -170.001v-354h-268v354c-116 4 -216.667 31.333 -302 82c-87.333 51.333 -152.333 117 -195 197c-44 81.333 -66 170.666 -66 267.999zM349.999 512.003c0 -87.333 26.333 -161.332 79 -221.999c52 -60.667 120.667 -93 206 -97v632
c-86.667 -5.33301 -155.667 -37 -207 -95c-52 -58.667 -78 -131.334 -78 -218.001zM902.999 825.004v-632.001c85.333 4 154.333 36.333 207 97c52 61.333 78 135.333 78 222s-26 159.334 -78 218.001c-51.333 58 -120.333 89.667 -207 95z" />
    <glyph glyph-name="uni0445" unicode="&#x445;" horiz-adv-x="1073" 
d="M391 510l-371 510h316l205 -322l202 322h308l-363 -504l365 -516h-305l-205 315l-197 -315h-317z" />
    <glyph glyph-name="uni0446" unicode="&#x446;" horiz-adv-x="1304" 
d="M971 0h-834v1020h283v-799h368v799h283v-799h148v-463h-248v242z" />
    <glyph glyph-name="uni0447" unicode="&#x447;" horiz-adv-x="1148" 
d="M82 618v402h283v-318c0 -64 14.667 -110 44 -138s74 -42 134 -42c71.333 0 133.333 11.667 186 35v463h283v-1020h-283v350c-82 -36.667 -174.667 -55 -278 -55c-48 0 -93.667 6.5 -137 19.5s-82.5 32.333 -117.5 58s-62.833 59.5 -83.5 101.5s-31 90 -31 144z" />
    <glyph glyph-name="uni0448" unicode="&#x448;" horiz-adv-x="1757" 
d="M1620 0h-1483v1020h283v-799h317v799h283v-799h317v799h283v-1020z" />
    <glyph glyph-name="uni0449" unicode="&#x449;" horiz-adv-x="1884" 
d="M1520 0h-1383v1020h283v-799h317v799h283v-799h317v799h283v-799h147v-463h-247v242z" />
    <glyph glyph-name="uni044A" unicode="&#x44a;" horiz-adv-x="1271" 
d="M303 784l-288.999 -0.000976562v236h572v-356c65.333 17.333 132.666 26 201.999 26c133.333 0 237.666 -31.333 312.999 -94c75.333 -63.333 113 -144.666 113 -243.999c0 -108 -35 -193.333 -105 -256c-71.333 -64 -170.666 -96 -297.999 -96h-508v784z
M586.001 464.999v-253.999h178c58.667 0 102.667 12.667 132 38s44 59.666 44 102.999s-16.333 76.333 -49 99s-79.667 34 -141 34c-59.333 0 -114 -6.66699 -164 -20z" />
    <glyph glyph-name="uni044B" unicode="&#x44b;" horiz-adv-x="1544" 
d="M631 0l-494 -0.000976562v1020h283v-356c65.333 17.333 128 26 188 26c133.333 0 237.666 -31.333 312.999 -94c75.333 -63.333 113 -144.666 113 -243.999c0 -108 -35 -193.333 -105 -256c-71.333 -64 -170.666 -96 -297.999 -96zM420 464.999v-253.999h164
c58.667 0 102.667 12.667 132 38s44 59.666 44 102.999s-16.5 76.333 -49.5 99s-80.167 34 -141.5 34c-49.333 0 -99 -6.66699 -149 -20zM1407 0h-283v1020h283v-1020z" />
    <glyph glyph-name="uni044C" unicode="&#x44c;" horiz-adv-x="1093" 
d="M645 0l-508 -0.000976562v1020h283v-356c65.333 17.333 133 26 203 26c133.333 0 237.666 -31.333 312.999 -94c75.333 -63.333 113 -144.666 113 -243.999c0 -108 -35.333 -193.333 -106 -256c-71.333 -64 -170.666 -96 -297.999 -96zM420 464.999v-253.999h178
c58.667 0 102.667 12.667 132 38s44 59.666 44 102.999s-16.333 76.333 -49 99s-79.667 34 -141 34c-59.333 0 -114 -6.66699 -164 -20z" />
    <glyph glyph-name="uni044D" unicode="&#x44d;" horiz-adv-x="1052" 
d="M82 41l0.00390625 238.002c88.667 -46.667 182 -70 280 -70c56 0 106.833 6 152.5 18s85.667 33.833 120 65.5s54.166 71.5 59.499 119.5h-444v204h442c-6 44.667 -24 82.5 -54 113.5s-66.667 52.833 -110 65.5c-42 12 -89 18 -141 18c-104.667 0 -199.667 -19 -285 -57
v235c88 42.667 190 64 306 64c157.333 0 289.333 -43.667 396 -131c53.333 -44 95.166 -101.333 125.499 -172s45.5 -150 45.5 -238c0 -88.667 -14.833 -168.834 -44.5 -240.501s-71.167 -129.834 -124.5 -174.501c-106.667 -89.333 -239.334 -134 -398.001 -134
c-128.667 0 -237.334 25.333 -326.001 76z" />
    <glyph glyph-name="uni044E" unicode="&#x44e;" horiz-adv-x="1697" 
d="M420 0l-283 -0.000976562v1020h283v-399h129c23.333 130.667 82 235.667 176 315c94.667 79.333 212.667 119 354 119c84.667 0 162.334 -14.5 233.001 -43.5s128.334 -69.167 173.001 -120.5c90 -104.667 135 -229.667 135 -375
c0 -159.333 -49.333 -290.666 -148 -393.999c-98.667 -104.667 -229.667 -157 -393 -157c-148.667 2 -269.334 43.667 -362.001 125s-149.334 184.333 -170.001 309h-127v-399zM827 519.999c0 -42.667 4.83496 -82.8311 14.502 -120.498s24.167 -71.667 43.5 -102
s45.666 -54.333 78.999 -72s71.666 -26.5 114.999 -26.5c45.333 0 85.333 8.66699 120 26s61.334 41.666 80.001 72.999c36 58.667 54 126.667 54 204c0 124.667 -36.333 215.667 -109 273c-38.667 30.667 -87 46 -145 46c-36.667 0 -69.667 -6 -99 -18
s-53.333 -27.667 -72 -47s-34.334 -42.333 -47.001 -69s-21.5 -53.834 -26.5 -81.501s-7.5 -56.167 -7.5 -85.5z" />
    <glyph glyph-name="uni044F" unicode="&#x44f;" horiz-adv-x="1153" 
d="M82 651c0 112.667 35.666 202.667 106.999 270c71.333 66 173 99 305 99h522v-1020h-281v297c-37.333 -6.66699 -79.666 -10 -126.999 -10c-19.333 0 -36.333 0.666992 -51 2l-160 -289h-313l201 334c-131.333 58 -199 163.667 -203 317zM359.999 647
c0 -56.667 21.333 -99.167 64 -127.5s102 -42.5 178 -42.5c44 0 88.333 4 133 12v322h-192c-56 0 -100.5 -14.5 -133.5 -43.5s-49.5 -69.167 -49.5 -120.5z" />
    <glyph glyph-name="uni0451" unicode="&#x451;" horiz-adv-x="1204" 
d="M78 514c0 71.333 9.83496 136.831 29.502 196.498s46.5 110.334 80.5 152.001s73.833 77 119.5 106s94.667 50.333 147 64s106.833 20.5 163.5 20.5c84.667 0 159.667 -13.667 225 -41s117 -65.666 155 -114.999c73.333 -94.667 110 -212.667 110 -354
c0 -44.667 -4 -94.667 -12 -150h-738c10 -66 44.667 -115.5 104 -148.5s136.666 -49.5 231.999 -49.5c85.333 0 194.666 21 327.999 63v-221c-85.333 -48 -206.333 -72 -363 -72c-97.333 0 -184 14 -260 42s-137 67.667 -183 119c-92 100 -138 229.333 -138 388z
M227.002 1268c0 -44.667 14 -79.5 42 -104.5s64 -37.5 108 -37.5c42 0 76.667 12.667 104 38s41 60 41 104c0 46 -13.5 81.667 -40.5 107s-61.833 38 -104.5 38c-44 0 -80 -12.667 -108 -38s-42 -61 -42 -107zM348.002 579.998h491.999c0 78 -19.667 137.667 -59 179
s-93.666 62 -162.999 62c-78 0 -141 -21.167 -189 -63.5s-75 -101.5 -81 -177.5zM698.001 1268c0 -44 13.833 -78.667 41.5 -104s63.167 -38 106.5 -38c42.667 0 77.5 12.5 104.5 37.5s40.5 59.833 40.5 104.5c0 46 -13.333 81.667 -40 107s-61.667 38 -105 38
s-78.833 -12.667 -106.5 -38s-41.5 -61 -41.5 -107z" />
    <glyph glyph-name="uni0E3F" unicode="&#xe3f;" horiz-adv-x="0" 
 />
    <glyph glyph-name="uni2000" unicode="&#x2000;" horiz-adv-x="856" 
 />
    <glyph glyph-name="uni2001" unicode="&#x2001;" horiz-adv-x="1712" 
 />
    <glyph glyph-name="uni2002" unicode="&#x2002;" horiz-adv-x="856" 
 />
    <glyph glyph-name="uni2003" unicode="&#x2003;" horiz-adv-x="1712" 
 />
    <glyph glyph-name="uni2004" unicode="&#x2004;" horiz-adv-x="570" 
 />
    <glyph glyph-name="uni2005" unicode="&#x2005;" horiz-adv-x="428" 
 />
    <glyph glyph-name="uni2006" unicode="&#x2006;" horiz-adv-x="285" 
 />
    <glyph glyph-name="uni2007" unicode="&#x2007;" horiz-adv-x="285" 
 />
    <glyph glyph-name="uni2008" unicode="&#x2008;" horiz-adv-x="214" 
 />
    <glyph glyph-name="uni2009" unicode="&#x2009;" horiz-adv-x="342" 
 />
    <glyph glyph-name="uni200A" unicode="&#x200a;" horiz-adv-x="95" 
 />
    <glyph glyph-name="uni2010" unicode="&#x2010;" horiz-adv-x="811" 
d="M729 377h-633v260h633v-260z" />
    <glyph glyph-name="uni2011" unicode="&#x2011;" horiz-adv-x="811" 
d="M729 377h-633v260h633v-260z" />
    <glyph glyph-name="figuredash" unicode="&#x2012;" horiz-adv-x="811" 
d="M729 377h-633v260h633v-260z" />
    <glyph glyph-name="endash" unicode="&#x2013;" horiz-adv-x="1579" 
d="M1382 377h-1185v260h1185v-260z" />
    <glyph glyph-name="emdash" unicode="&#x2014;" horiz-adv-x="1878" 
d="M1681 377h-1484v260h1484v-260z" />
    <glyph glyph-name="bullet" unicode="&#x2022;" horiz-adv-x="847" 
d="M123 795c0 82.667 29.6641 153.667 88.9971 213c58.667 58.667 129.334 88 212.001 88s153.334 -29.333 212.001 -88c58 -58.667 87 -129.667 87 -213c0 -81.333 -29.333 -151.333 -88 -210c-59.333 -59.333 -129.666 -89 -210.999 -89c-82 0 -152.667 29.667 -212 89
s-89 129.333 -89 210z" />
    <glyph glyph-name="ellipsis" unicode="&#x2026;" horiz-adv-x="1624" 
d="M66 137c0 56 16.833 99.334 50.5 130.001s77.5 46 131.5 46c52.667 0 95.5 -15.333 128.5 -46s49.5 -74 49.5 -130c0 -54.667 -16.667 -97.334 -50 -128.001s-76 -46 -128 -46c-50.667 0 -93.667 15 -129 45c-35.333 29.333 -53 72.333 -53 129zM639 137.001
c0 56 16.833 99.334 50.5 130.001s77.5 46 131.5 46c52.667 0 95.5 -15.333 128.5 -46s49.5 -74 49.5 -130c0 -54.667 -16.667 -97.334 -50 -128.001s-76 -46 -128 -46c-51.333 0 -94.333 15 -129 45c-35.333 29.333 -53 72.333 -53 129zM1212 137.002
c0 56 17 99.333 51 130s78 46 132 46c52.667 0 95.5 -15.333 128.5 -46s49.5 -74 49.5 -130c0 -54.667 -16.667 -97.334 -50 -128.001s-76 -46 -128 -46c-54 0 -98 15.333 -132 46s-51 73.334 -51 128.001z" />
    <glyph glyph-name="uni202F" unicode="&#x202f;" horiz-adv-x="342" 
 />
    <glyph glyph-name="uni205F" unicode="&#x205f;" horiz-adv-x="428" 
 />
    <glyph glyph-name="zerosuperior" unicode="&#x2070;" horiz-adv-x="1024" 
d="M82 907c0 56.667 9.16699 109.498 27.5 158.498s44.833 92.333 79.5 130s79.667 67.334 135 89.001s118 32.5 188 32.5c68.667 0 130.834 -10.833 186.501 -32.5s101.167 -51.834 136.5 -90.501c71.333 -79.333 107 -175.666 107 -288.999c0 -162 -64 -279.333 -192 -352
c-66 -38 -145.333 -57 -238 -57c-68.667 0 -130.834 10.833 -186.501 32.5s-101.167 51.834 -136.5 90.501c-71.333 78.667 -107 174.667 -107 288zM342 906.998c0 -63.333 14.332 -115.668 42.999 -157.001c28.667 -42.667 71 -64 127 -64s98.333 21 127 63
c28.667 41.333 43 93.333 43 156s-14.333 115.334 -43 158.001c-29.333 42 -71.666 63 -126.999 63c-56 0 -98.333 -21 -127 -63c-28.667 -41.333 -43 -93.333 -43 -156z" />
    <glyph glyph-name="foursuperior" unicode="&#x2074;" horiz-adv-x="993" 
d="M121 657l-45 117l524 520h201v-475h162l-70 -162h-92v-147h-240v147h-440zM561 1036l-225 -217h225v217z" />
    <glyph glyph-name="fivesuperior" unicode="&#x2075;" horiz-adv-x="886" 
d="M88 553v191.997c100 -44.667 196.333 -67 289 -67c112 0 168 35.333 168 106c0 30.667 -11.833 54.834 -35.5 72.501s-57.5 26.5 -101.5 26.5c-66 0 -131 -12.333 -195 -37l-94 57l55 391h594l-55 -174h-363l-22 -102c50 14.667 102.333 22 157 22
c42 0 81.333 -4.5 118 -13.5s70.5 -23.167 101.5 -42.5s55.5 -46.166 73.5 -80.499s27 -74.166 27 -119.499c0 -88 -33 -159.333 -99 -214c-66.667 -55.333 -160.667 -83 -282 -83c-138 0 -250 22 -336 66z" />
    <glyph glyph-name="sixsuperior" unicode="&#x2076;" horiz-adv-x="993" 
d="M123 868c0 122.667 36.666 226.669 109.999 312.002c37.333 42.667 87 76.167 149 100.5s132 36.5 210 36.5c96.667 0 182 -17.667 256 -53v-181c-76 36 -156.667 54 -242 54c-62 0 -115.333 -12.667 -160 -38c-44 -24.667 -69.667 -65.334 -77 -122.001
c22.667 20 53.834 35.833 93.501 47.5s80.167 17.5 121.5 17.5c100 0 179.667 -23.667 239 -71c58.667 -48 88 -111.667 88 -191c0 -83.333 -35.333 -151.333 -106 -204c-71.333 -53.333 -161.333 -80 -270 -80c-132.667 0 -234.5 32.667 -305.5 98
s-106.5 156.666 -106.5 273.999zM388.999 776.002c0 -34.667 11.5 -61.832 34.5 -81.499s55.167 -29.834 96.5 -30.501c42 0.666992 74.667 11 98 31s35 47 35 81s-12.5 61.333 -37.5 82s-56.833 31 -95.5 31c-38 0 -69.333 -10.333 -94 -31s-37 -48 -37 -82z" />
    <glyph glyph-name="sevensuperior" unicode="&#x2077;" horiz-adv-x="702" 
d="M383 1112h-408l54 182h706l-389 -817l-237 74z" />
    <glyph glyph-name="eightsuperior" unicode="&#x2078;" horiz-adv-x="952" 
d="M80 735c0 38.667 12.3281 74.8311 36.9951 108.498s60.667 59.834 108 78.501c-60 42 -90 97 -90 165c0 69.333 31 125 93 167c60.667 42 145 63 253 63c96.667 0 176.334 -20.667 239.001 -62c62 -42 93 -91.667 93 -149c0 -30 -9.66699 -59.167 -29 -87.5
s-46.666 -53.166 -81.999 -74.499c113.333 -43.333 170 -111.666 170 -204.999c0 -40.667 -11.333 -76.834 -34 -108.501s-53.167 -57.167 -91.5 -76.5s-80.666 -33.833 -126.999 -43.5s-95.166 -14.5 -146.499 -14.5c-115.333 0 -209.666 21.667 -282.999 65
s-110 101.333 -110 174zM321.995 771.997c0 -35.333 14.498 -62.5 43.498 -81.5s68.833 -28.5 119.5 -28.5c36.667 0 67.334 6.5 92.001 19.5s37 30.833 37 53.5c2.66699 16 -6.16602 30.5 -26.499 43.5s-46.833 24.5 -79.5 34.5l-71 21c-40 12 -64 19.333 -72 22
c-28.667 -26.667 -43 -54.667 -43 -84zM372.993 1085c0 -41.333 55.333 -73.334 166 -96.001c26 26 39 53.333 39 82c0 26.667 -10.333 47.334 -31 62.001s-46.667 22 -78 22c-64 0 -96 -23.333 -96 -70z" />
    <glyph glyph-name="ninesuperior" unicode="&#x2079;" horiz-adv-x="991" 
d="M174 833c-62.667 46.667 -93.999 111.667 -93.999 195c0 82.667 35.667 151.667 107 207c70.667 54.667 160.667 82 270 82c132 0 233.5 -32.833 304.5 -98.5s106.5 -157.167 106.5 -274.5c0 -136 -38 -244.667 -114 -326c-77.333 -81.333 -187.333 -122 -330 -122
c-104.667 0 -196 17.667 -274 53v176c80 -34 162.333 -51 247 -51c143.333 0 218.666 54 225.999 162c-55.333 -49.333 -130 -74 -224 -74c-86.667 0 -161.667 23.667 -225 71zM338.001 1032c0 -34.667 12.5 -62.333 37.5 -83s56.833 -31 95.5 -31c38 0 69.333 10.5 94 31.5
s37 48.5 37 82.5c0 34.667 -11.5 62.667 -34.5 84s-55.167 32.333 -96.5 33c-41.333 -0.666992 -73.833 -11.667 -97.5 -33s-35.5 -49.333 -35.5 -84z" />
    <glyph glyph-name="zeroinferior" unicode="&#x2080;" horiz-adv-x="1024" 
d="M82 389c0 56.667 9.16602 109.5 27.499 158.5s44.833 92.333 79.5 130s79.667 67.334 135 89.001s118 32.5 188 32.5c68.667 0 130.834 -10.833 186.501 -32.5s101.167 -51.834 136.5 -90.501c71.333 -79.333 107 -175.666 107 -288.999
c0 -56.667 -9.16699 -109.5 -27.5 -158.5s-44.833 -92.333 -79.5 -130s-79.667 -67.334 -135 -89.001s-118 -32.5 -188 -32.5c-68.667 0 -131 10.833 -187 32.5s-101.333 52.167 -136 91.5c-71.333 78.667 -107 174.667 -107 288zM341.999 389
c0 -63.333 14.332 -115.668 42.999 -157.001c28.667 -42.667 71 -64 127 -64s98.333 21 127 63c28.667 41.333 43 93.333 43 156s-14.333 115.334 -43 158.001c-29.333 42 -71.666 63 -126.999 63c-56 0 -98.333 -21 -127 -63c-28.667 -41.333 -43 -93.333 -43 -156z" />
    <glyph glyph-name="oneinferior" unicode="&#x2081;" horiz-adv-x="770" 
d="M301 1047h-268l61 247h484v-1294h-277v1047z" />
    <glyph glyph-name="twoinferior" unicode="&#x2082;" horiz-adv-x="661" 
d="M242 602h-199l53 182h396v-606h167v-178h-589v178h172v424z" />
    <glyph glyph-name="threeinferior" unicode="&#x2083;" horiz-adv-x="808" 
d="M725 0l-702 -0.00195312v82l284 264c48 43.333 81.833 78 101.5 104s29.5 51.333 29.5 76c0 49.333 -33.333 74 -100 74c-49.333 0 -101 -8.33301 -155 -25c-55.333 -16.667 -103.333 -37.667 -144 -63v209c42 24 91.5 43 148.5 57s113.167 21 168.5 21
c98.667 0 179.667 -20 243 -60c63.333 -41.333 95 -100.666 95 -177.999c0 -51.333 -14.667 -97.666 -44 -138.999c-30 -42 -83.667 -97.333 -161 -166l-86 -76h322v-180z" />
    <glyph glyph-name="fourinferior" unicode="&#x2084;" horiz-adv-x="854" 
d="M406 610l-363.002 0.000976562l53 174h631v-122l-262 -193c14.667 1.33301 30.334 2 47.001 2c76 0 136 -22 180 -66s66 -96.333 66 -157c0 -80.667 -34.333 -146 -103 -196s-161.334 -75 -278.001 -75c-63.333 0 -118.666 4.66699 -165.999 14s-98 26.666 -152 51.999
v193c115.333 -44 207 -66 275 -66c108 0 162 32 162 96c0 26.667 -10.167 48 -30.5 64s-49.166 24 -86.499 24c-54 0 -110.667 -7.33301 -170 -22l-37 96z" />
    <glyph glyph-name="fiveinferior" unicode="&#x2085;" horiz-adv-x="993" 
d="M121 147l-45 117l524 520h201v-475h162l-70 -162h-92v-147h-240v147h-440zM561 526l-225 -217h225v217z" />
    <glyph glyph-name="sixinferior" unicode="&#x2086;" horiz-adv-x="886" 
d="M88 43v192.997c104 -45.333 200.333 -68 289 -68c112 0 168 35.333 168 106c0 30.667 -11.833 54.834 -35.5 72.501s-57.5 26.5 -101.5 26.5c-66 0 -131 -12.333 -195 -37l-94 57l55 391h594l-55 -174h-363l-22 -102c50 14.667 102.333 22 157 22
c42 0 81.333 -4.5 118 -13.5s70.5 -23.167 101.5 -42.5s55.5 -46.166 73.5 -80.499s27 -74.166 27 -119.499c0 -88 -33 -159.333 -99 -214c-66.667 -55.333 -160.667 -83 -282 -83c-138 0 -250 22 -336 66z" />
    <glyph glyph-name="seveninferior" unicode="&#x2087;" horiz-adv-x="993" 
d="M123 350c0 122.667 36.666 226.668 109.999 312.001c37.333 42.667 87 76.167 149 100.5s132 36.5 210 36.5c96.667 0 182 -18 256 -54v-180c-74.667 35.333 -155.334 53 -242.001 53c-63.333 0 -116.666 -12.333 -159.999 -37c-44 -24.667 -69.667 -65.334 -77 -122.001
c22.667 20 53.834 35.833 93.501 47.5s80.167 17.5 121.5 17.5c100 0 179.667 -23.667 239 -71c58.667 -48 88 -111.667 88 -191c0 -83.333 -35.333 -151.333 -106 -204c-71.333 -54 -161.333 -81 -270 -81c-132.667 0 -234.5 32.667 -305.5 98s-106.5 157 -106.5 275z
M388.999 258.001c0 -34.667 11.5 -62 34.5 -82s55.167 -30.333 96.5 -31c41.333 0.666992 73.833 11.167 97.5 31.5s35.5 47.5 35.5 81.5s-12.5 61.333 -37.5 82s-56.833 31 -95.5 31c-38 0 -69.333 -10.333 -94 -31s-37 -48 -37 -82z" />
    <glyph glyph-name="eightinferior" unicode="&#x2088;" horiz-adv-x="702" 
d="M383 602h-408l54 182h706l-389 -817l-237 74z" />
    <glyph glyph-name="nineinferior" unicode="&#x2089;" horiz-adv-x="952" 
d="M80 217c0 38.667 12.3291 74.6641 36.9961 107.997s60.667 59.333 108 78c-60 42 -90 97.333 -90 166c0 69.333 31 125 93 167c60.667 42 145 63 253 63c96.667 0 176.334 -20.667 239.001 -62c62 -42 93 -91.667 93 -149c0 -30 -9.66699 -59.167 -29 -87.5
s-46.666 -53.166 -81.999 -74.499c113.333 -43.333 170 -111.666 170 -204.999c0 -53.333 -19.667 -99 -59 -137c-39.333 -37.333 -88.666 -64.666 -147.999 -81.999c-58 -16.667 -122 -25 -192 -25c-115.333 0 -209.666 22 -282.999 66
c-73.333 43.333 -110 101.333 -110 174zM321.996 253.997c0 -35.333 14.499 -62.667 43.499 -82s68.833 -29 119.5 -29c36 0 66.5 6.5 91.5 19.5s37.5 31.167 37.5 54.5c2.66699 16 -6.16602 30.5 -26.499 43.5s-46.833 24.5 -79.5 34.5l-71 21c-40 12 -64 19.333 -72 22
c-28.667 -26.667 -43 -54.667 -43 -84zM372.995 566.996c0 -41.333 55.333 -73.334 166 -96.001c26 26 39 53.333 39 82c0 26.667 -10.333 47.334 -31 62.001s-46.667 22 -78 22c-64 0 -96 -23.333 -96 -70z" />
    <glyph glyph-name="parenleftinferior" unicode="&#x208d;" horiz-adv-x="991" 
d="M174 315c-62.667 46.667 -93.998 111.667 -93.998 195c0 82.667 35.667 151.667 107 207c70.667 54.667 160.667 82 270 82c132 0 233.5 -32.833 304.5 -98.5s106.5 -157.167 106.5 -274.5c0 -136 -38 -244.667 -114 -326c-77.333 -82 -187.333 -123 -330 -123
c-104.667 0 -196 18 -274 54v176c80 -34 162.333 -51 247 -51c143.333 0 218.666 53.667 225.999 161c-54.667 -48.667 -129.334 -73 -224.001 -73c-86.667 0 -161.667 23.667 -225 71zM338.002 514c0 -34.667 12.5 -62.5 37.5 -83.5s56.833 -31.5 95.5 -31.5
c38 0 69.333 10.667 94 32s37 49 37 83c0 34.667 -11.5 62.667 -34.5 84s-55.167 32.333 -96.5 33c-41.333 -0.666992 -73.833 -11.667 -97.5 -33s-35.5 -49.333 -35.5 -84z" />
    <glyph glyph-name="uni20B4" unicode="&#x20b4;" horiz-adv-x="1456" 
d="M612 702l-480.996 0.000976562v152h686c32 15.333 57.833 34.666 77.5 57.999s29.5 46.333 29.5 69c0 38.667 -21.667 67 -65 85c-44.667 17.333 -99.667 26 -165 26c-50.667 0 -100.334 -3.66699 -149.001 -11c-41.333 -6.66699 -74 -12.334 -98 -17.001l-88 -20
c-18.667 -4.66699 -31.334 -7.66699 -38.001 -9c-4.66699 -0.666992 -16.667 -3.66699 -36 -9c-3.33301 -0.666992 -6.66602 -1.5 -9.99902 -2.5s-6 -1.83301 -8 -2.5s-3.83301 -1.16699 -5.5 -1.5s-2.83398 -0.833008 -3.50098 -1.5h-2v231
c157.333 45.333 326.666 68 507.999 68c134 0 242.333 -28 325 -84c82 -56 123 -128.333 123 -217c0 -56.667 -21.667 -112.667 -65 -168l127 -2v-144h-295c-2 -1.33301 -33.667 -20.666 -95 -57.999c-46 -27.333 -75.667 -45.333 -89 -54h481v-152h-686
c-32 -15.333 -57.833 -34.666 -77.5 -57.999s-29.5 -46.333 -29.5 -69c0 -39.333 22.333 -69.333 67 -90c44 -20.667 98.333 -31 163 -31c73.333 0 158.666 8.33301 255.999 25c103.333 18 184.333 34.333 243 49v-231c-157.333 -45.333 -347 -68 -569 -68
c-134 0 -242 29.667 -324 89c-82.667 58.667 -124 132.667 -124 222c0 56.667 21.667 112.667 65 168l-127 2v144h295c40 27.333 82 53.333 126 78c8.66699 5.33301 19.5 11.666 32.5 18.999s21.5 12.333 25.5 15z" />
    <glyph glyph-name="uni20BD" unicode="&#x20bd;" horiz-adv-x="1628" 
d="M426 166h-201v199h201v108h-201v217h201v604h510c92 0 172 -10.333 240 -31s122.333 -50 163 -88s70.667 -82 90 -132s29 -106.333 29 -169c0 -267.333 -174 -401 -522 -401h-234v-108h486v-199h-486v-166h-276v166zM702 1053l0.000976562 -363h199
c102.667 2 173.167 17.833 211.5 47.5s57.166 75.167 56.499 136.5c0 60.667 -19 105.667 -57 135s-108.333 44 -211 44h-199z" />
    <glyph glyph-name="uni2116" unicode="&#x2116;" horiz-adv-x="2381" 
d="M399 0h-243v1294h77l783 -786v786h244v-1294h-82l-779 788v-788zM1444 928c-1.33301 110 37.333 202.499 116 277.499s171.667 111.5 279 109.5c110 0 203.333 -35.333 280 -106s115 -161.667 115 -273c1.33301 -110 -37.334 -202.667 -116 -278
c-78.667 -75.333 -171.667 -111.666 -279 -108.999c-110 0 -203.333 35.333 -280 106s-115 161.667 -115 273zM2154 196.999h-630v215h630v-215zM1665 927.999c0 -51.333 16.167 -91.833 48.5 -121.5s74.166 -44.5 125.499 -44.5c50 0 91.333 16 124 48
c33.333 32 50 74.667 50 128c0 51.333 -16.167 91.833 -48.5 121.5s-74.166 44.5 -125.499 44.5c-50 0 -91.333 -16 -124 -48c-33.333 -32 -50 -74.667 -50 -128z" />
    <glyph glyph-name="trademark" unicode="&#x2122;" horiz-adv-x="1492" 
d="M299 1137h-197v157h566v-157h-195v-439h-174v439zM915 698h-161v596h43l293 -258l292 258h43v-596h-161v299l-174 -151l-175 151v-299z" />
    <glyph glyph-name="arrowleft" unicode="&#x2190;" horiz-adv-x="1521" 
d="M721 -18l-666 663l666 664l162 -170l-406 -367h1030v-246h-1032l408 -372z" />
    <glyph glyph-name="arrowup" unicode="&#x2191;" horiz-adv-x="1404" 
d="M207 625l-172 161l667 672l668 -672l-172 -161l-373 401v-1026h-245v1026z" />
    <glyph glyph-name="arrowright" unicode="&#x2192;" horiz-adv-x="1521" 
d="M1047 526h-1033v246h1030l-405 367l162 170l665 -664l-665 -663l-162 172z" />
    <glyph glyph-name="arrowdown" unicode="&#x2193;" horiz-adv-x="1404" 
d="M702 0l-667 672l172 162l373 -402v1026h245v-1026l373 402l172 -162z" />
    <glyph glyph-name="infinity" unicode="&#x221e;" horiz-adv-x="1599" 
d="M82 629c0 148 56.335 258.333 169.002 331c57.333 37.333 124.666 56 201.999 56c73.333 0 136 -15 188 -45c51.333 -30 102 -75.667 152 -137c58 64 114.333 110.667 169 140s115 44 181 44c71.333 0 135.666 -17.667 192.999 -53c54.667 -34.667 97 -80 127 -136
c28 -56 42 -116 42 -180c0 -126 -33.667 -223.667 -101 -293c-68 -69.333 -153.667 -104 -257 -104c-70 0 -132.667 13.5 -188 40.5s-109.333 68.167 -162 123.5c-119.333 -110.667 -235.333 -166 -348 -166c-103.333 0 -190.333 34 -261 102
c-70.667 66.667 -106 159 -106 277zM313.002 631c0 -52 14.167 -91.667 42.5 -119s66.166 -41 113.499 -41c68.667 0 140.334 44.333 215.001 133c-36 64.667 -72 111.5 -108 140.5s-74.333 43.5 -115 43.5c-42.667 0 -78 -14.333 -106 -43s-42 -66.667 -42 -114z
M899.002 629c42 -53.333 80.998 -91 116.998 -113s74 -33 114 -33c43.333 0 77.833 12.833 103.5 38.5s38.5 63.5 38.5 113.5c0 52.667 -13.667 92.5 -41 119.5s-64.333 40.5 -111 40.5c-41.333 0 -78.666 -13.333 -111.999 -40s-69.666 -68.667 -108.999 -126z" />
    <glyph glyph-name="approxequal" unicode="&#x2248;" horiz-adv-x="1300" 
d="M143 205l-147.001 153.002c52 56.667 113.333 105 184 145c70 40 139.667 60 209 60c12 0 24 -0.666992 36 -2s22.833 -2.83301 32.5 -4.5s20.5 -4.33398 32.5 -8.00098l29 -9c7.33301 -2.33301 17 -6.33301 29 -12s20.667 -9.66699 26 -12s14 -7 26 -14
s19.833 -11.5 23.5 -13.5s11.667 -6.83301 24 -14.5s19.5 -12.167 21.5 -13.5c59.333 -38 114.333 -57 165 -57c40.667 0 83.334 11.167 128.001 33.5s85.667 53.5 123 93.5l121 -159c-60 -62.667 -119.833 -109.834 -179.5 -141.501s-123.834 -47.5 -192.501 -47.5
c-11.333 0 -23 0.666992 -35 2l-32 3.5c-9.33301 1 -20 3.33301 -32 7s-21.5 6.33398 -28.5 8.00098s-16.5 5.16699 -28.5 10.5s-20.5 9 -25.5 11s-13.833 6.33301 -26.5 13l-23 12c-2.66699 1.33301 -10.667 5.66602 -24 12.999s-20.666 11.333 -21.999 12
c-60.667 33.333 -118 50 -172 50c-80 0 -160.667 -39.667 -242 -119zM142.999 602.002l-147 154.001c52 56.667 113.333 105 184 145c70 40 139.667 60 209 60c12 0 24 -0.666992 36 -2s22.833 -2.83301 32.5 -4.5s20.5 -4.33398 32.5 -8.00098l29 -9
c7.33301 -2.33301 17 -6.33301 29 -12s20.667 -9.66699 26 -12s14 -7 26 -14s19.833 -11.5 23.5 -13.5s11.667 -6.83301 24 -14.5s19.5 -12.167 21.5 -13.5c59.333 -38 114.333 -57 165 -57c40.667 0 83.334 11.167 128.001 33.5s85.667 53.5 123 93.5l121 -160
c-60 -62.667 -119.833 -109.667 -179.5 -141s-123.834 -47 -192.501 -47c-28 0 -54.5 2.33301 -79.5 7s-51.667 13.167 -80 25.5s-47.333 21 -57 26l-60.5 32.5c-60.667 33.333 -118 50 -172 50c-80 0 -160.667 -39.667 -242 -119z" />
    <glyph glyph-name="uni25FC" unicode="&#x25fc;" horiz-adv-x="1024" 
d="M1024 0h-1024v1024h1024v-1024z" />
    <glyph glyph-name=".null" horiz-adv-x="0" 
 />
    <glyph glyph-name="nonmarkingreturn" horiz-adv-x="682" 
 />
    <glyph glyph-name="null" horiz-adv-x="0" 
 />
    <glyph glyph-name="zero.alt" 
d="M58 378c-26.667 80 -40 167.665 -40 262.998s13.333 183.333 40 264c55.333 170.667 156.333 290.334 303 359.001c76.667 35.333 161 53 253 53s176.333 -17.667 253 -53c146 -69.333 247 -189.666 303 -360.999c26.667 -80.667 40 -168.667 40 -264
s-13.333 -183 -40 -263c-55.333 -171.333 -156.333 -291.333 -303 -360c-76.667 -35.333 -161 -53 -253 -53c-92.667 0 -177 18 -253 54c-146 68.667 -247 189 -303 361zM311 640.998c0 -59.333 5.83203 -113.999 17.499 -163.999s29.334 -94.5 53.001 -133.5
s55.334 -69.5 95.001 -91.5s85.5 -33 137.5 -33c67.333 0 124.666 18.667 171.999 56s81.333 87.666 102 150.999c20 61.333 30 132.333 30 213c0 170.667 -43.333 292 -130 364c-46.667 38.667 -104.667 58 -174 58s-127 -19 -173 -57c-86.667 -72 -130 -193 -130 -363z
" />
    <glyph glyph-name="one.alt" 
d="M487 1047h-268l62 247h483v-1065h244v-229h-764v229h243v818z" />
    <glyph glyph-name="two.alt" 
d="M1075 0l-923.002 0.00292969v102l395 445c77.333 87.333 130.666 153.666 159.999 198.999c28.667 43.333 43 91 43 143c0 55.333 -19.167 97.166 -57.5 125.499s-90.833 42.5 -157.5 42.5c-56 0 -114.5 -11 -175.5 -33s-116.5 -52 -166.5 -90v266
c54.667 37.333 116.834 66.166 186.501 86.499s139.834 30.5 210.501 30.5c118 0 220 -34 306 -102c42 -33.333 74.833 -75.333 98.5 -126s35.5 -106.334 35.5 -167.001c0 -106 -36.333 -208 -109 -306c-35.333 -47.333 -85.666 -106.666 -150.999 -177.999l-174 -190h479
v-248z" />
    <glyph glyph-name="three.alt" 
d="M678 1053l-525.999 -0.000976562l59 241h827v-170l-315 -336c112.667 -4 200 -41.667 262 -113c61.333 -72.667 92 -161 92 -265c0 -132 -47.333 -239.333 -142 -322c-95.333 -83.333 -212.333 -125 -351 -125c-76.667 0 -152 8 -226 24
c-74 16.667 -134.667 43.667 -182 81v266c121.333 -80.667 244.333 -121 369 -121c74.667 0 133.5 18.833 176.5 56.5s64.5 87.834 64.5 150.501c0 68.667 -22.333 118.167 -67 148.5s-102 45.5 -172 45.5c-48.667 0 -101.334 -6.66699 -158.001 -20l-35 113z" />
    <glyph glyph-name="four.alt" 
d="M88 307l-55 164l715 823h229v-759h219l-82 -228h-137v-307h-264v307h-625zM713 948l-361 -413h361v413z" />
    <glyph glyph-name="five.alt" 
d="M143 57l-0.00292969 258.002c48 -29.333 104.333 -53.333 169 -72c64 -20 127.333 -30 190 -30c85.333 0 155.666 16.667 210.999 50c54.667 32.667 82 83.667 82 153c0 85.333 -27 144 -81 176c-48 28.667 -110.667 43 -188 43c-90.667 0 -184 -15.667 -280 -47l-58 55
l72 651h764l-59 -241h-494l-25 -219c62.667 14.667 123.667 22 183 22c128.667 0 235.667 -35 321 -105c42.667 -35.333 75.834 -81.833 99.501 -139.5s35.5 -122.834 35.5 -195.501c1.33301 -88 -23.167 -167 -73.5 -237s-118.666 -123.833 -204.999 -161.5
s-181.166 -55.834 -284.499 -54.501c-147.333 0 -273.666 31.333 -378.999 94z" />
    <glyph glyph-name="six.alt" 
d="M74 573c0 118.667 19.5 229.999 58.5 333.999s96.167 191.333 171.5 262c50.667 48 112.167 85.333 184.5 112s150.5 40 234.5 40c127.333 0 234.333 -26 321 -78v-248c-90.667 56 -186 84 -286 84c-114.667 0 -205.667 -31.667 -273 -95
c-67.333 -64.667 -106 -151.667 -116 -261c78.667 80.667 189 121 331 121c130 0 238.333 -39.333 325 -118s130 -180 130 -304c1.33301 -86 -21 -164.667 -67 -236s-108.833 -126.666 -188.5 -165.999s-166.5 -58.333 -260.5 -57c-178 0 -316.667 54 -416 162
c-99.333 108.667 -149 258 -149 448zM377 415.999c0 -65.333 23 -118.333 69 -159c46.667 -42 105.667 -63.333 177 -64c72 1.33301 130.333 22.666 175 63.999c45.333 41.333 68 94.333 68 159c0 68 -24 122.333 -72 163c-49.333 40 -106.333 60 -171 60
c-66 0 -123.333 -20 -172 -60c-49.333 -41.333 -74 -95.666 -74 -162.999z" />
    <glyph glyph-name="seven.alt" 
d="M709 1047h-582l61 247h914l-527 -1335l-258 98z" />
    <glyph glyph-name="eight.alt" 
d="M88 367c0 64.667 17.667 124.169 53 178.502s84.666 97.166 147.999 128.499l-6 6c-78 62.667 -117 152 -117 268c0 112 40.667 202.667 122 272c80.667 68.667 192.334 103 335.001 103c129.333 0 234 -36 314 -108c80 -72.667 120 -167 120 -283
c0 -43.333 -15 -89 -45 -137c-30.667 -48.667 -67.667 -86.334 -111 -113.001c78.667 -35.333 138.334 -79.5 179.001 -132.5s61 -120.167 61 -201.5c0 -65.333 -15 -123.5 -45 -174.5s-70.333 -91.667 -121 -122s-106.834 -53.333 -168.501 -69
s-127.167 -23.5 -196.5 -23.5c-155.333 3.33301 -281 41.333 -377 114c-96.667 72 -145 170 -145 294zM354 401.002c0 -64 23.333 -115.333 70 -154s113 -57.667 199 -57c77.333 0 135.166 13.833 173.499 41.5s57.5 64.5 57.5 110.5c0 38 -15.333 71.667 -46 101
c-13.333 11.333 -32.666 23.333 -57.999 36c-23.333 10.667 -45.666 20 -66.999 28c-16.667 6 -44.334 15.333 -83.001 28c-40 9.33301 -85 25 -135 47c-32 -16.667 -58.5 -42 -79.5 -76s-31.5 -69 -31.5 -105zM424 948.002c0 -52.667 28.668 -93.666 86.001 -122.999
c47.333 -24.667 112 -49 194 -73c2 -0.666992 4.66699 -1.5 8 -2.5s5.66602 -1.5 6.99902 -1.5c52 48 78 104.667 78 170c0 59.333 -18 103.666 -54 132.999c-36.667 28.667 -79.667 43 -129 43c-74 0 -127.333 -19.333 -160 -58c-20 -22.667 -30 -52 -30 -88z" />
    <glyph glyph-name="nine.alt" 
d="M92 860c0 134.667 47.334 244.334 142.001 329.001c95.333 85.333 213.333 128 354 128c172 0 306.667 -53.667 404 -161c96.667 -106.667 145 -255.667 145 -447c0 -118.667 -19.167 -229.667 -57.5 -333s-93.833 -190.333 -166.5 -261
c-49.333 -48 -108.833 -85.333 -178.5 -112s-145.167 -40 -226.5 -40c-118.667 0 -221.667 28 -309 84v242c84.667 -56 176.667 -84 276 -84c108.667 0 197 33 265 99c67.333 66.667 104 151.667 110 255c-34 -40.667 -78.167 -72 -132.5 -94s-113.166 -33 -176.499 -33
c-58.667 0 -114.834 9.66699 -168.501 29s-101.334 46.666 -143.001 81.999s-75 80.5 -100 135.5s-37.5 115.5 -37.5 181.5zM371.001 864c0 -62 22.668 -113.668 68.001 -155.001s101.666 -62 168.999 -62s124.333 20.667 171 62c46 40.667 69 92.334 69 155.001
c0 69.333 -22 124.666 -66 165.999c-45.333 40 -103.333 60 -174 60s-127.667 -20 -171 -60c-44 -41.333 -66 -96.666 -66 -165.999z" />
    </font>
</defs>
</svg>
