<svg width="350" height="200" viewBox="0 0 350 200" fill="none" xmlns="http://www.w3.org/2000/svg">
<g filter="url(#filter0_d)">
<path d="M42 166.754C42 164.63 42.3882 162.616 43.1645 160.712C43.9555 158.807 45.0688 157.137 46.5044 155.702C47.9399 154.252 49.6684 153.109 51.6899 152.274C53.726 151.424 55.9892 151 58.4795 151C61.0136 151 63.2988 151.424 65.3349 152.274C67.3711 153.109 69.0996 154.244 70.5205 155.68C71.956 157.115 73.0547 158.785 73.8167 160.69C74.5927 162.594 74.9807 164.615 74.9807 166.754C74.9807 168.82 74.5997 170.804 73.8387 172.709C73.0917 174.598 72.0073 176.268 70.5864 177.718C69.1655 179.169 67.4223 180.326 65.3569 181.19C63.3061 182.054 60.9843 182.487 58.3916 182.487C56.7217 182.487 55.1543 182.296 53.6894 181.915C52.2246 181.52 50.8843 180.97 49.6684 180.267C48.4673 179.564 47.3906 178.729 46.4385 177.762C45.4863 176.781 44.6806 175.712 44.0215 174.554C43.3623 173.383 42.8569 172.137 42.5053 170.819C42.1684 169.501 42 168.146 42 166.754ZM46.5483 166.754C46.5483 168.424 46.8486 169.977 47.4492 171.412C48.0498 172.833 48.8774 174.071 49.9321 175.126C51.0014 176.166 52.2612 176.979 53.7114 177.565C55.1762 178.151 56.7656 178.444 58.4795 178.444C60.1933 178.444 61.7827 178.151 63.2475 177.565C64.7124 176.979 65.9721 176.166 67.0268 175.126C68.0962 174.071 68.9311 172.833 69.5317 171.412C70.1323 169.977 70.4326 168.424 70.4326 166.754C70.4326 165.055 70.1323 163.495 69.5317 162.074C68.9311 160.638 68.0962 159.401 67.0268 158.361C65.9721 157.32 64.7124 156.508 63.2475 155.922C61.7827 155.336 60.1933 155.043 58.4795 155.043C56.7656 155.043 55.1762 155.336 53.7114 155.922C52.2612 156.508 51.0014 157.32 49.9321 158.361C48.8774 159.401 48.0498 160.638 47.4492 162.074C46.8486 163.495 46.5483 165.055 46.5483 166.754ZM120.306 151.219L134.039 182.091H129.535L118.702 157.196L108.529 182.091H104.025L117.208 151.219H120.306ZM186.022 159.547L166.533 182.487H164.423V151.395H168.818V174.752L188.263 151.395H190.417V182.091H186.022V159.547ZM252.771 151.395V182.091H248.354V158.207H248.266L238.818 170.072H238.093L228.645 158.207H228.557V182.091H224.162V151.395H228.293L238.467 164.008L248.684 151.395H252.771ZM312.4 151.395V182.091H308.006V155.35H290.801V182.091H286.407V151.395H312.4Z" fill="white"/>
<path d="M43.0066 160.554L42.229 160.231L42.2269 160.236L43.0066 160.554ZM46.3465 155.544L46.9419 156.139L46.9449 156.136L46.3465 155.544ZM51.532 152.116L51.8535 152.894L51.8563 152.893L51.532 152.116ZM65.177 152.116L64.8528 152.893L64.8576 152.895L65.177 152.116ZM70.3626 155.522L69.7641 156.114L69.7672 156.117L70.3626 155.522ZM73.6588 160.532L72.8768 160.844L72.8788 160.85L73.6588 160.532ZM73.6808 172.551L72.8988 172.238L72.8978 172.241L73.6808 172.551ZM65.199 181.032L64.874 180.255L64.872 180.256L65.199 181.032ZM53.5315 181.757L53.312 182.57L53.3196 182.572L53.5315 181.757ZM49.5105 180.109L49.0851 180.836L49.089 180.838L49.5105 180.109ZM46.2806 177.604L45.6762 178.191L45.6806 178.195L46.2806 177.604ZM43.8636 174.396L43.1297 174.809L43.1319 174.813L43.8636 174.396ZM42.3474 170.661L41.5316 170.87L41.5338 170.878L42.3474 170.661ZM47.2913 171.254L46.5145 171.579L46.5157 171.582L47.2913 171.254ZM49.7742 174.968L49.1787 175.563L49.1871 175.571L49.7742 174.968ZM53.5535 177.407L53.2381 178.187L53.2408 178.188L53.5535 177.407ZM66.8689 174.968L67.4602 175.567L66.8689 174.968ZM69.3738 171.254L70.1494 171.582L70.1506 171.579L69.3738 171.254ZM69.3738 161.916L68.597 162.241L68.5982 162.244L69.3738 161.916ZM66.8689 158.203L66.2777 158.802L66.2819 158.806L66.8689 158.203ZM53.5535 155.764L53.2408 154.982L53.2381 154.983L53.5535 155.764ZM49.7742 158.203L49.1871 157.599L49.183 157.603L49.7742 158.203ZM47.2913 161.916L48.0669 162.244L48.0681 162.241L47.2913 161.916ZM42.6841 166.596C42.6841 164.577 43.0525 162.672 43.7863 160.871L42.2269 160.236C41.408 162.244 41 164.367 41 166.596H42.6841ZM43.7842 160.877C44.5336 159.073 45.5856 157.496 46.9419 156.139L45.7511 154.948C44.2363 156.463 43.0617 158.226 42.229 160.231L43.7842 160.877ZM46.9449 156.136C48.2959 154.771 49.9282 153.69 51.8535 152.894L51.2106 151.338C49.0928 152.213 47.2681 153.416 45.748 154.951L46.9449 156.136ZM51.8563 152.893C53.7773 152.092 55.9284 151.684 58.3216 151.684V150C55.7343 150 53.359 150.441 51.2078 151.339L51.8563 152.893ZM58.3216 151.684C60.7608 151.684 62.9335 152.092 64.8528 152.893L65.5013 151.339C63.3483 150.441 60.9507 150 58.3216 150V151.684ZM64.8576 152.895C66.7985 153.691 68.4296 154.766 69.7641 156.114L70.961 154.93C69.4537 153.407 67.6278 152.211 65.4965 151.337L64.8576 152.895ZM69.7672 156.117C71.1212 157.471 72.1569 159.045 72.8768 160.844L74.4398 160.219C73.6368 158.21 72.475 156.443 70.958 154.926L69.7672 156.117ZM72.8788 160.85C73.6128 162.649 73.9808 164.562 73.9808 166.596H75.6648C75.6648 164.353 75.2578 162.223 74.4378 160.214L72.8788 160.85ZM73.9808 166.596C73.9808 168.555 73.6198 170.434 72.8988 172.238L74.4618 172.863C75.2638 170.859 75.6648 168.768 75.6648 166.596H73.9808ZM72.8978 172.241C72.1916 174.026 71.1693 175.601 69.8271 176.971L71.0299 178.15C72.5295 176.619 73.6748 174.854 74.4638 172.86L72.8978 172.241ZM69.8271 176.971C68.4926 178.333 66.8464 179.43 64.874 180.255L65.524 181.809C67.6825 180.906 69.5226 179.688 71.0299 178.15L69.8271 176.971ZM64.872 180.256C62.9404 181.07 60.7325 181.486 58.2337 181.486V183.171C60.9204 183.171 63.3561 182.723 65.526 181.808L64.872 180.256ZM58.2337 181.486C56.628 181.486 55.1324 181.303 53.7434 180.942L53.3196 182.572C54.8604 182.973 56.4995 183.171 58.2337 183.171V181.486ZM53.751 180.944C52.3513 180.566 51.0796 180.044 49.9321 179.38L49.089 180.838C50.3731 181.581 51.7821 182.157 53.312 182.57L53.751 180.944ZM49.9359 179.383C48.797 178.716 47.7793 177.926 46.8805 177.014L45.6806 178.195C46.6861 179.216 47.8217 180.096 49.0852 180.836L49.9359 179.383ZM46.8849 177.018C45.9808 176.086 45.2183 175.074 44.5952 173.98L43.1319 174.813C43.8271 176.034 44.676 177.16 45.6762 178.191L46.8849 177.018ZM44.5975 173.984C43.9735 172.874 43.4946 171.695 43.161 170.444L41.5338 170.878C41.9034 172.264 42.4353 173.575 43.1297 174.809L44.5975 173.984ZM43.1633 170.453C42.8441 169.204 42.6841 167.919 42.6841 166.596H41C41 168.056 41.1769 169.481 41.5316 170.87L43.1633 170.453ZM45.5484 166.596C45.5484 168.369 45.8678 170.033 46.5145 171.579L48.0681 170.929C47.5136 169.604 47.2324 168.163 47.2324 166.596H45.5484ZM46.5157 171.582C47.1571 173.099 48.0447 174.429 49.1788 175.563L50.3696 174.372C49.3943 173.397 48.6267 172.251 48.0669 170.926L46.5157 171.582ZM49.1871 175.571C50.3384 176.691 51.6917 177.563 53.2381 178.187L53.8689 176.626C52.5149 176.079 51.3486 175.324 50.3613 174.364L49.1871 175.571ZM53.2408 178.188C54.8134 178.817 56.5099 179.128 58.3216 179.128V177.444C56.7055 177.444 55.2233 177.168 53.8662 176.625L53.2408 178.188ZM58.3216 179.128C60.1333 179.128 61.8298 178.817 63.4024 178.188L62.7769 176.625C61.4198 177.168 59.9376 177.444 58.3216 177.444V179.128ZM63.4024 178.188C64.9644 177.564 66.3206 176.691 67.4602 175.567L66.2777 174.368C65.3079 175.324 64.1446 176.078 62.7769 176.625L63.4024 178.188ZM67.4602 175.567C68.6104 174.433 69.507 173.102 70.1494 171.582L68.5982 170.926C68.0395 172.248 67.2662 173.393 66.2776 174.368L67.4602 175.567ZM70.1506 171.579C70.7973 170.033 71.1167 168.369 71.1167 166.596H69.4327C69.4327 168.163 69.1515 169.604 68.597 170.929L70.1506 171.579ZM71.1167 166.596C71.1167 164.796 70.7981 163.123 70.1494 161.588L68.5982 162.244C69.1507 163.551 69.4327 164.998 69.4327 166.596H71.1167ZM70.1506 161.591C69.5081 160.055 68.6102 158.722 67.456 157.599L66.2819 158.806C67.2663 159.764 68.0383 160.905 68.597 162.241L70.1506 161.591ZM67.4602 157.603C66.3206 156.479 64.9644 155.607 63.4024 154.982L62.7769 156.545C64.1446 157.092 65.3079 157.846 66.2777 158.802L67.4602 157.603ZM63.4024 154.982C61.8298 154.353 60.1333 154.043 58.3216 154.043V155.727C59.9376 155.727 61.4198 156.003 62.7769 156.545L63.4024 154.982ZM58.3216 154.043C56.5099 154.043 54.8134 154.353 53.2408 154.982L53.8662 156.545C55.2233 156.003 56.7055 155.727 58.3216 155.727V154.043ZM53.2381 154.983C51.6917 155.608 50.3384 156.479 49.1871 157.599L50.3613 158.806C51.3486 157.846 52.5149 157.091 53.8689 156.544L53.2381 154.983ZM49.183 157.603C48.0449 158.725 47.1559 160.058 46.5145 161.591L48.0681 162.241C48.6278 160.903 49.3942 159.76 50.3654 158.802L49.183 157.603ZM46.5157 161.588C45.867 163.123 45.5484 164.796 45.5484 166.596H47.2324C47.2324 164.998 47.5144 163.551 48.0669 162.244L46.5157 161.588ZM120.148 151.061L120.918 150.719L120.695 150.219H120.148V151.061ZM133.881 181.933V182.775H135.177L134.651 181.591L133.881 181.933ZM129.377 181.933L128.605 182.269L128.825 182.775H129.377V181.933ZM118.544 157.038L119.317 156.702L118.52 154.872L117.765 156.719L118.544 157.038ZM108.371 181.933V182.775H108.937L109.151 182.252L108.371 181.933ZM103.867 181.933L103.092 181.602L102.592 182.775H103.867V181.933ZM117.05 151.061V150.219H116.494L116.276 150.731L117.05 151.061ZM119.379 151.404L133.112 182.275L134.651 181.591L120.918 150.719L119.379 151.404ZM133.881 181.091H129.377V182.775H133.881V181.091ZM130.149 181.597L119.317 156.702L117.772 157.374L128.605 182.269L130.149 181.597ZM117.765 156.719L107.592 181.614L109.151 182.252L119.324 157.357L117.765 156.719ZM108.371 181.091H103.867V182.775H108.371V181.091ZM104.641 182.264L117.825 151.392L116.276 150.731L103.092 181.602L104.641 182.264ZM117.05 151.903H120.148V150.219H117.05V151.903ZM185.864 159.389H186.706V157.098L185.223 158.844L185.864 159.389ZM166.375 182.329V183.171H166.764L167.016 182.874L166.375 182.329ZM164.265 182.329H163.423V183.171H164.265V182.329ZM164.265 151.237V150.395H163.423V151.237H164.265ZM168.66 151.237H169.502V150.395H168.66V151.237ZM168.66 174.594H167.818V176.922L169.307 175.133L168.66 174.594ZM188.105 151.237V150.395H187.711L187.458 150.698L188.105 151.237ZM190.259 151.237H191.101V150.395H190.259V151.237ZM190.259 181.933V182.775H191.101V181.933H190.259ZM185.864 181.933H185.022V182.775H185.864V181.933ZM185.223 158.844L165.733 181.783L167.016 182.874L186.506 159.934L185.223 158.844ZM166.375 181.486H164.265V183.171H166.375V181.486ZM165.107 182.329V151.237H163.423V182.329H165.107ZM164.265 152.079H168.66V150.395H164.265V152.079ZM167.818 151.237V174.594H169.502V151.237H167.818ZM169.307 175.133L188.753 151.776L187.458 150.698L168.013 174.055L169.307 175.133ZM188.105 152.079H190.259V150.395H188.105V152.079ZM189.417 151.237V181.933H191.101V151.237H189.417ZM190.259 181.091H185.864V182.775H190.259V181.091ZM186.706 181.933V159.389H185.022V181.933H186.706ZM252.613 151.237H253.455V150.395H252.613V151.237ZM252.613 181.933V182.775H253.455V181.933H252.613ZM248.196 181.933H247.354V182.775H248.196V181.933ZM248.196 158.049H249.038V157.207H248.196V158.049ZM248.108 158.049V157.207H247.703L247.45 157.524L248.108 158.049ZM238.66 169.914V170.756H239.066L239.319 170.438L238.66 169.914ZM237.935 169.914L237.276 170.438L237.529 170.756H237.935V169.914ZM228.487 158.049L229.146 157.524L228.893 157.207H228.487V158.049ZM228.399 158.049V157.207H227.557V158.049H228.399ZM228.399 181.933V182.775H229.241V181.933H228.399ZM224.004 181.933H223.162V182.775H224.004V181.933ZM224.004 151.237V150.395H223.162V151.237H224.004ZM228.135 151.237L228.791 150.709L228.538 150.395H228.135V151.237ZM238.309 163.85L237.653 164.378L238.307 165.189L238.963 164.38L238.309 163.85ZM248.526 151.237V150.395H248.124L247.872 150.707L248.526 151.237ZM251.771 151.237V181.933H253.455V151.237H251.771ZM252.613 181.091H248.196V182.775H252.613V181.091ZM249.038 181.933V158.049H247.354V181.933H249.038ZM248.196 157.207H248.108V158.891H248.196V157.207ZM247.45 157.524L238.001 169.389L239.319 170.438L248.767 158.573L247.45 157.524ZM238.66 169.072H237.935V170.756H238.66V169.072ZM238.594 169.389L229.146 157.524L227.828 158.573L237.276 170.438L238.594 169.389ZM228.487 157.207H228.399V158.891H228.487V157.207ZM227.557 158.049V181.933H229.241V158.049H227.557ZM228.399 181.091H224.004V182.775H228.399V181.091ZM224.846 181.933V151.237H223.162V181.933H224.846ZM224.004 152.079H228.135V150.395H224.004V152.079ZM227.48 151.766L237.653 164.378L238.964 163.321L228.791 150.709L227.48 151.766ZM238.963 164.38L249.18 151.767L247.872 150.707L237.654 163.319L238.963 164.38ZM248.526 152.079H252.613V150.395H248.526V152.079ZM312.242 151.237H313.084V150.395H312.242V151.237ZM312.242 181.933V182.775H313.084V181.933H312.242ZM307.848 181.933H307.006V182.775H307.848V181.933ZM307.848 155.192H308.69V154.35H307.848V155.192ZM290.643 155.192V154.35H289.801V155.192H290.643ZM290.643 181.933V182.775H291.485V181.933H290.643ZM286.249 181.933H285.406V182.775H286.249V181.933ZM286.249 151.237V150.395H285.406V151.237H286.249ZM311.4 151.237V181.933H313.084V151.237H311.4ZM312.242 181.091H307.848V182.775H312.242V181.091ZM308.69 181.933V155.192H307.006V181.933H308.69ZM307.848 154.35H290.643V156.034H307.848V154.35ZM289.801 155.192V181.933H291.485V155.192H289.801ZM290.643 181.091H286.249V182.775H290.643V181.091ZM287.091 181.933V151.237H285.406V181.933H287.091ZM286.249 152.079H312.242V150.395H286.249V152.079Z" fill="black"/>
<g filter="url(#filter1_d)">
<path fill-rule="evenodd" clip-rule="evenodd" d="M218.78 144.59H260.71L259.56 143C259.45 142.83 248.41 127.61 242.66 120L262.23 95.65C274.96 112.4 298.38 142.87 298.62 143.18L298.92 143.57H345.55L344.32 141.96C343.92 141.44 304.26 89.61 284.48 63.61L283.71 62.61L262.33 89.25L196.16 2L144.13 70.52L111.07 27.52L32.81 127.59L23.72 116.06L4 141.81L6.91 144.11L23.84 122.5L30.16 130.86C27.7233 134.093 23.9507 139.029 22.3914 141.068C21.9542 141.64 21.691 141.985 21.68 142L20.44 143.59H45L43.71 141.96C43.6956 141.937 43.2373 141.34 42.5204 140.406C40.7483 138.096 37.3959 133.728 35.26 130.88L111.06 33.88L141.62 73.83L137.4 79.3L130.4 70.83L129.64 71.83C113.363 92.843 82.122 133.614 75.987 141.62C75.334 142.473 74.966 142.954 74.93 143L73.7 144.59H119.63L137.69 120.59H163.39C165.29 123.02 175.69 136.33 181.07 143.33L181.67 144.11L184.67 141.91L184.07 141.1C179.76 135.32 171.51 124.59 168.37 120.59H181.75L159.41 91.26L187 54.38L237.78 120.59L218.78 144.59ZM337.49 139.59H300.65L264.75 92.22L283.62 68.66L337.49 139.59ZM253 139.59H226.65L240.14 122.81L253 139.59ZM117.64 139.59H81.85L130.34 77L134.62 82.69L106.8 119.59H132.56L117.64 139.59ZM37.17 139.59H28.3L32.74 133.79L37.17 139.59ZM240.14 116.83L187 47.6L157.07 87.52L146.6 73.83L196.16 8.46L259.74 92.41L240.14 116.83ZM173.77 115.6H165.08L152.84 99.56L157.05 93.76L159.15 96.48C159.754 97.262 160.354 98.035 160.949 98.801C162.462 100.751 163.944 102.661 165.38 104.57L171.6 112.74L173.77 115.6ZM160.04 115.6H140.85L150.33 102.85L160.04 115.6ZM135.82 115.6H114.68L137.37 85.72L147.82 99.6L135.82 115.6ZM150.37 96.47L139.89 82.87L144.12 77.1L154.6 90.8L150.37 96.47Z" fill="url(#paint0_linear)"/>
</g>
</g>
<defs>
<filter id="filter0_d" x="-4" y="0" width="358" height="208" filterUnits="userSpaceOnUse" color-interpolation-filters="sRGB">
<feFlood flood-opacity="0" result="BackgroundImageFix"/>
<feColorMatrix in="SourceAlpha" type="matrix" values="0 0 0 0 0 0 0 0 0 0 0 0 0 0 0 0 0 0 127 0" result="hardAlpha"/>
<feOffset dy="4"/>
<feGaussianBlur stdDeviation="2"/>
<feComposite in2="hardAlpha" operator="out"/>
<feColorMatrix type="matrix" values="0 0 0 0 0 0 0 0 0 0 0 0 0 0 0 0 0 0 0.25 0"/>
<feBlend mode="normal" in2="BackgroundImageFix" result="effect1_dropShadow"/>
<feBlend mode="normal" in="SourceGraphic" in2="effect1_dropShadow" result="shape"/>
</filter>
<filter id="filter1_d" x="0" y="2" width="349.55" height="150.59" filterUnits="userSpaceOnUse" color-interpolation-filters="sRGB">
<feFlood flood-opacity="0" result="BackgroundImageFix"/>
<feColorMatrix in="SourceAlpha" type="matrix" values="0 0 0 0 0 0 0 0 0 0 0 0 0 0 0 0 0 0 127 0" result="hardAlpha"/>
<feOffset dy="4"/>
<feGaussianBlur stdDeviation="2"/>
<feComposite in2="hardAlpha" operator="out"/>
<feColorMatrix type="matrix" values="0 0 0 0 0 0 0 0 0 0 0 0 0 0 0 0 0 0 0.25 0"/>
<feBlend mode="normal" in2="BackgroundImageFix" result="effect1_dropShadow"/>
<feBlend mode="normal" in="SourceGraphic" in2="effect1_dropShadow" result="shape"/>
</filter>
<linearGradient id="paint0_linear" x1="8.8487" y1="157.642" x2="319" y2="44" gradientUnits="userSpaceOnUse">
<stop stop-color="#00439E"/>
<stop offset="0.333412" stop-color="#0051BD"/>
<stop offset="0.449407" stop-color="#2BAAE2"/>
<stop offset="0.47681" stop-color="#0051BD"/>
<stop offset="0.559614" stop-color="#0051BD"/>
<stop offset="0.686945" stop-color="#2BAAE2"/>
<stop offset="0.803492" stop-color="#0051BD"/>
<stop offset="0.871801" stop-color="#2BAAE2"/>
<stop offset="0.947878" stop-color="#0051BD"/>
<stop offset="1" stop-color="#00347B"/>
</linearGradient>
</defs>
</svg>
