<?xml version="1.0" standalone="no"?>
<!DOCTYPE svg PUBLIC "-//W3C//DTD SVG 1.1//EN" "http://www.w3.org/Graphics/SVG/1.1/DTD/svg11.dtd" >
<svg>
<metadata>
Created by FontForge 20090914 at Fri Jul  2 11:10:08 2021
 By www-data
Copyright (c) 2016 by . All rights reserved.
</metadata>
<defs>
<font id="ALSSectorRegular-Regular" horiz-adv-x="1187" >
  <font-face 
    font-family="ALS Sector Regular"
    font-weight="400"
    font-stretch="normal"
    units-per-em="2048"
    panose-1="0 0 0 0 0 0 0 0 0 0"
    ascent="1638"
    descent="-410"
    x-height="1020"
    cap-height="1294"
    bbox="-147 -397 2195 1712"
    underline-thickness="102"
    underline-position="-612"
    unicode-range="U+000D-U+25FC"
  />
<missing-glyph horiz-adv-x="622" 
 />
    <glyph glyph-name=".notdef" horiz-adv-x="622" 
 />
    <glyph glyph-name="NULL" horiz-adv-x="0" 
 />
    <glyph glyph-name="NULL" horiz-adv-x="0" 
 />
    <glyph glyph-name="CR" unicode="&#xd;" horiz-adv-x="622" 
 />
    <glyph glyph-name="space" unicode=" " horiz-adv-x="593" 
 />
    <glyph glyph-name="exclam" unicode="!" horiz-adv-x="436" 
d="M74 115c0 48.667 13.6689 86.667 41.002 114s62.666 41 105.999 41c42 0 76.5 -13.667 103.5 -41s40.5 -65.333 40.5 -114c0 -47.333 -13.5 -84.5 -40.5 -111.5s-61.5 -40.5 -103.5 -40.5c-42.667 0 -77.834 13.5 -105.501 40.5s-41.5 64.167 -41.5 111.5zM147.002 481
l-67 813h278l-71 -813h-140z" />
    <glyph glyph-name="quotedbl" unicode="&#x22;" horiz-adv-x="737" 
d="M270 778h-180v608h180v-608zM625 778h-181v608h181v-608z" />
    <glyph glyph-name="numbersign" unicode="#" horiz-adv-x="1409" 
d="M270 342h-215v143h246l74 365h-219v143h250l61 301h164l-62 -301h328l61 301h164l-61 -301h223v-143h-254l-74 -365h228v-143h-258l-70 -342h-164l70 342h-328l-69 -342h-164zM539 850l-74 -365h328l73 365h-327z" />
    <glyph glyph-name="dollar" unicode="$" horiz-adv-x="1009" 
d="M51 907c0 58.667 10.002 110.171 30.002 154.504s48.167 80.166 84.5 107.499s76.666 48.666 120.999 63.999s94.166 25.666 149.499 30.999v159h152v-157c98.667 -6 195 -24 289 -54v-182c-56.667 18.667 -116.334 34 -179.001 46c-68.667 13.333 -130 20 -184 20
c-73.333 0 -132.666 -10 -177.999 -30c-53.333 -24.667 -80 -72 -80 -142c0 -78.667 46 -133.334 138 -164.001c29.333 -10 76.666 -22.5 141.999 -37.5s112.333 -26.833 141 -35.5c56.667 -16.667 104 -36.667 142 -60s69 -55.666 93 -96.999
c25.333 -45.333 38 -100.333 38 -165c0 -106.667 -32.333 -192 -97 -256c-64.667 -63.333 -153 -101.666 -265 -114.999v-160h-152v158c-56.667 3.33301 -109 9.66602 -157 18.999c-49.333 10 -85.666 19 -108.999 27c-17.333 5.33301 -46.666 16 -87.999 32v186
c142 -60 271 -90 387 -90c184 0 276 64.667 276 194c0 19.333 -3 36.833 -9 52.5s-16.333 29.5 -31 41.5s-28.167 22 -40.5 30s-31.833 15.833 -58.5 23.5s-47.334 13.334 -62.001 17.001s-39.167 9.16699 -73.5 16.5s-58.5 12.666 -72.5 15.999
c-92.667 17.333 -172 50.666 -238 99.999c-33.333 24 -59.833 57.5 -79.5 100.5s-29.5 92.833 -29.5 149.5z" />
    <glyph glyph-name="percent" unicode="%" horiz-adv-x="1892" 
d="M161 1210c73.333 71.333 161.667 107 265 107s192.333 -35.667 267 -107c73.333 -71.333 110 -160 110 -266c0 -105.333 -36.667 -193.666 -110 -264.999c-73.333 -70.667 -162.333 -106 -267 -106c-104 0 -192.333 35.333 -265 106
c-73.333 71.333 -110 159.666 -110 264.999c0 106 36.667 194.667 110 266zM211.001 944c0 -61.333 21 -113.666 63 -156.999c42 -42.667 92.667 -64 152 -64c60 0 111.333 21.333 154 64c42 43.333 63 95.666 63 156.999c0 64 -21 117.667 -63 161
c-42.667 42.667 -94 64 -154 64c-59.333 0 -110 -21.333 -152 -64c-42 -43.333 -63 -97 -63 -161zM418.001 -35h164l934 1424h-168zM1191 600c73.333 71.333 161.667 107 265 107s192.333 -35.667 267 -107c73.333 -71.333 110 -160 110 -266
c0 -105.333 -36.667 -193.666 -110 -264.999c-73.333 -70.667 -162.333 -106 -267 -106c-104 0 -192.333 35.333 -265 106c-73.333 71.333 -110 159.666 -110 264.999c0 106 36.667 194.667 110 266zM1241 334c0 -61.333 21 -113.666 63 -156.999
c42 -42.667 92.667 -64 152 -64c60 0 111.333 21.333 154 64c42 43.333 63 95.666 63 156.999c0 64 -21 117.667 -63 161c-42.667 42.667 -94 64 -154 64c-59.333 0 -110 -21.333 -152 -64c-42 -43.333 -63 -97 -63 -161z" />
    <glyph glyph-name="ampersand" unicode="&#x26;" horiz-adv-x="1710" 
d="M100 444c0 104 33.002 194.667 99.002 272c66.667 78 156.667 132.333 270 163c-27.333 34 -46.5 65.333 -57.5 94s-16.5 60 -16.5 94c0 42.667 9.83301 81 29.5 115s46.5 60.667 80.5 80c64 36.667 137.333 55 220 55c94.667 0 182 -11.667 262 -35v-172
c-26 11.333 -62.333 21.333 -109 30c-45.333 8.66699 -90.333 13 -135 13c-106 0 -159 -34 -159 -102c0 -20.667 7.33301 -44 22 -70s34.667 -50.667 60 -74h571l-39 -143h-383l803 -764h-248l-192 186c-73.333 -73.333 -155.5 -128.833 -246.5 -166.5
s-184.5 -56.5 -280.5 -56.5c-88.667 0 -168.834 12.833 -240.501 38.5s-129.834 61.167 -174.501 106.5c-90.667 90.667 -136 202.667 -136 336zM315.002 453c0 -52 10.333 -98.166 31 -138.499s48.5 -72.5 83.5 -96.5s73.833 -42.167 116.5 -54.5s88 -18.5 136 -18.5
c64 0 130.667 14 200 42c69.333 28.667 129 66 179 112l-461 444c-190 -40.667 -285 -137.334 -285 -290.001z" />
    <glyph glyph-name="quotesingle" unicode="'" horiz-adv-x="358" 
d="M270 778h-180v608h180v-608z" />
    <glyph glyph-name="parenleft" unicode="(" horiz-adv-x="698" 
d="M102 649c0 240 44.335 430.83 133.002 572.497s215.667 226.834 381 255.501v-162c-94 -22 -168 -90.333 -222 -205s-81 -268.334 -81 -461.001c0 -191.333 27 -343.666 81 -456.999c54 -114 128 -182 222 -204v-162c-164.667 28.667 -291.334 113.334 -380.001 254.001
s-133.334 330.334 -134.001 569.001z" />
    <glyph glyph-name="parenright" unicode=")" horiz-adv-x="700" 
d="M102 -174l-0.00292969 162c94 22 168.333 90.333 223 205c54 114 81 267.333 81 460c0 191.333 -27 344 -81 458c-55.333 114 -129.666 182 -222.999 204v162c164.667 -28.667 291.334 -113.5 380.001 -254.5s133.334 -330.833 134.001 -569.5
c0 -240 -44.333 -430.667 -133 -572s-215.667 -226.333 -381 -255z" />
    <glyph glyph-name="asterisk" unicode="*" horiz-adv-x="899" 
d="M362 997l-313 -49v148l313 -49l9 18l-256 190l104 105l187 -258l18 6l-49 313h147l-49 -311l21 -6l186 256l104 -105l-258 -190l9 -18l313 49v-148l-313 49l-9 -18l258 -191l-104 -104l-186 260l-21 -8l49 -313h-147l49 313l-18 6l-187 -258l-104 104l256 191z" />
    <glyph glyph-name="plus" unicode="+" horiz-adv-x="1277" 
d="M547 621h-406v170h406v430h182v-430h406v-170h-406v-439h-182v439z" />
    <glyph glyph-name="comma" unicode="," horiz-adv-x="452" 
d="M186 -281h-143l152 537h229z" />
    <glyph glyph-name="hyphen" unicode="-" horiz-adv-x="792" 
d="M711 416h-615v188h615v-188z" />
    <glyph glyph-name="period" unicode="." horiz-adv-x="407" 
d="M66 115c0 48.667 13.6689 86.667 41.002 114s62.666 41 105.999 41c42 0 76.333 -13.667 103 -41s40 -65.333 40 -114c0 -47.333 -13.333 -84.5 -40 -111.5s-61 -40.5 -103 -40.5c-42.667 0 -77.834 13.5 -105.501 40.5s-41.5 64.167 -41.5 111.5z" />
    <glyph glyph-name="slash" unicode="/" horiz-adv-x="1091" 
d="M346 0h-207l627 1386h209z" />
    <glyph glyph-name="zero" unicode="0" horiz-adv-x="1327" 
d="M149 300c-44.667 100 -66.998 213.668 -66.998 341.001s22.333 241 67 341c44.667 101.333 111.667 182.333 201 243c89.333 61.333 194 92 314 92c89.333 0 171.166 -17.5 245.499 -52.5s136.166 -83.833 185.499 -146.5c100 -129.333 150 -289 150 -479
c0 -74.667 -8.16699 -145.834 -24.5 -213.501s-40.833 -129.667 -73.5 -186s-72 -105 -118 -146s-100.167 -73 -162.5 -96s-129.833 -34.5 -202.5 -34.5c-120 0 -224.667 31 -314 93c-88.667 60.667 -155.667 142 -201 244zM322.002 828.001
c-13.333 -56 -20.001 -118.334 -20.001 -187.001s6.66699 -131 20 -187c30.667 -125.333 90 -211.666 178 -258.999c46.667 -26 101.334 -39 164.001 -39c62 0 116.667 12.667 164 38c87.333 46.667 146.333 133 177 259c13.333 55.333 20 117.333 20 186
s-6.66699 131 -20 187c-30.667 125.333 -89.667 212 -177 260c-47.333 25.333 -102 38 -164 38s-116.667 -12.667 -164 -38c-88 -47.333 -147.333 -133.333 -178 -258z" />
    <glyph glyph-name="one" unicode="1" horiz-adv-x="776" 
d="M315 1096h-272l47 198h428v-1114h256v-180h-715v180h256v916z" />
    <glyph glyph-name="two" unicode="2" horiz-adv-x="987" 
d="M903 0l-880.002 0.00292969v72l403 450c47.333 54 80 92 98 114c19.333 24 41.333 53.667 66 89c39.333 58 59 116 59 174c0 75.333 -21.167 132 -63.5 170s-103.166 57 -182.499 57c-50.667 0 -106 -9.16699 -166 -27.5s-117 -43.833 -171 -76.5v195
c110.667 66.667 234.667 100 372 100c56 0 108.833 -8 158.5 -24s94 -39.333 133 -70s69.833 -70.834 92.5 -120.501s34 -105.834 34 -168.501c0 -86.667 -21.333 -165 -64 -235c-25.333 -42.667 -51.666 -80.334 -78.999 -113.001l-119 -137l-227 -250h536v-199z" />
    <glyph glyph-name="three" unicode="3" horiz-adv-x="1015" 
d="M610 1102l-566.997 -0.000976562l49 192h787v-137l-357 -371c64 -2.66699 122 -15.167 174 -37.5s94.333 -52.166 127 -89.499c64.667 -74.667 97 -161.334 97 -260.001c0 -130 -45.333 -235 -136 -315c-90.667 -80.667 -203.334 -121 -338.001 -121
c-172.667 0 -300.334 29.333 -383.001 88v201c131.333 -70 244.666 -105 339.999 -105c91.333 0 163.666 25.333 216.999 76c53.333 50 80 112.333 80 187c0 86.667 -30 148.334 -90 185.001c-53.333 32 -120.666 48 -201.999 48c-44 0 -92 -4.66699 -144 -14l-24 76z" />
    <glyph glyph-name="four" unicode="4" horiz-adv-x="1220" 
d="M121 322l-45 131l725 841h184v-798h215l-63 -174h-152v-322h-201v322h-663zM784 1026l-454 -530h454v530z" />
    <glyph glyph-name="five" unicode="5" horiz-adv-x="1069" 
d="M88 43v197c133.333 -62 244.666 -93 333.999 -93c105.333 0 189.333 24 252 72c62.667 46.667 94 115 94 205c0 72.667 -24.5 130 -73.5 172s-118.167 63 -207.5 63c-117.333 0 -220.333 -17.667 -309 -53l-43 45l72 643h721l-51 -192h-523l-32 -293
c66.667 22 136 33 208 33c57.333 0 112 -7.83301 164 -23.5s100.5 -40 145.5 -73s80.833 -78.667 107.5 -137s40 -125.833 40 -202.5c0 -133.333 -50.333 -240.333 -151 -321c-101.333 -81.333 -230.333 -122 -387 -122c-141.333 0 -261.666 26.667 -360.999 80z" />
    <glyph glyph-name="six" unicode="6" horiz-adv-x="1327" 
d="M152 575c0 141.333 24.1689 267.166 72.502 377.499s119.166 198.5 212.499 264.5c94.667 66.667 205.667 100 333 100c113.333 0 215.666 -28 306.999 -84v-193c-91.333 57.333 -186 86 -284 86c-82 0 -154.667 -19.167 -218 -57.5s-111.333 -90.166 -144 -155.499
c-32 -63.333 -50.667 -136.333 -56 -219c81.333 91.333 200.666 137 357.999 137c125.333 0 230.666 -38.667 315.999 -116c84.667 -76.667 127 -176.334 127 -299.001c0 -131.333 -46 -239.666 -138 -324.999c-93.333 -85.333 -208.666 -128 -345.999 -128
c-169.333 0 -301.666 54 -396.999 162c-95.333 107.333 -143 257.333 -143 450zM367.002 459c12 -93.333 45.333 -168.333 100 -225c55.333 -58 125 -87 209 -87c81.333 0 148.333 25.333 201 76c52.667 50 79 113 79 189c0 72.667 -26.667 132.667 -80 180
c-53.333 46.667 -120 70 -200 70c-65.333 0 -128.333 -19.667 -189 -59c-60.667 -40 -100.667 -88 -120 -144z" />
    <glyph glyph-name="seven" unicode="7" horiz-adv-x="856" 
d="M592 1098h-617l48 196h866l-504 -1335l-192 76z" />
    <glyph glyph-name="eight" unicode="8" horiz-adv-x="1169" 
d="M78 336c0 68 19.335 132.667 58.002 194c38 62 92.333 111.333 163 148c-96.667 68.667 -145 163.667 -145 285c0 108 40.333 194 121 258s189.667 96 327 96c116.667 0.666992 214.667 -32 294 -98c78.667 -66.667 118 -149.334 118 -248.001
c0 -63.333 -15.833 -122 -47.5 -176s-75.834 -95.667 -132.501 -125c84 -37.333 148 -81 192 -131c44 -51.333 66 -118.333 66 -201c0 -61.333 -13.833 -116.666 -41.5 -165.999s-66.167 -89 -115.5 -119c-96 -60 -212.333 -90 -349 -90
c-152.667 -0.666992 -275.334 34.333 -368.001 105c-93.333 70 -140 159.333 -140 268zM283.002 362c0 -73.333 29 -127.331 87 -161.998c58.667 -35.333 134 -53 226 -53c84.667 -0.666992 154.334 15.333 209.001 48s82 79 82 139c-2 37.333 -14.5 68.166 -37.5 92.499
s-58.167 46.833 -105.5 67.5c-18.667 8 -82.334 30.333 -191.001 67c-30 10 -64 22.333 -102 37c-54 -20.667 -95.5 -52.334 -124.5 -95.001s-43.5 -89.667 -43.5 -141zM354.002 963.002c0 -34 13.666 -67.3311 40.999 -99.998c16.667 -20 50.334 -43 101.001 -69
c16 -9.33301 36.333 -18 61 -26c28 -10.667 46.667 -17.334 56 -20.001c12.667 -4.66699 31 -10.334 55 -17.001c45.333 26 80.833 59.167 106.5 99.5s38.5 80.833 38.5 121.5c0 58.667 -20.5 104.5 -61.5 137.5s-97.5 49.5 -169.5 49.5c-152 0 -228 -58.667 -228 -176z" />
    <glyph glyph-name="nine" unicode="9" horiz-adv-x="1249" 
d="M154 864c0 132 46.002 240.667 138.002 326c91.333 84.667 206.333 127 345 127c170 0 302.333 -54 397 -162c94.667 -108.667 142 -258.667 142 -450c0 -209.333 -53.667 -384.333 -161 -525c-52 -68.667 -117.667 -122 -197 -160s-166.333 -57 -261 -57
c-114 0 -215.667 28 -305 84v193c89.333 -57.333 183.666 -86 282.999 -86c126 0 225.667 41 299 123c72 80 112.667 183 122 309c-42.667 -42.667 -95.834 -76.167 -159.501 -100.5s-131.167 -36.5 -202.5 -36.5c-128 0 -233.333 38.333 -316 115
c-82.667 76 -124 176 -124 300zM373.002 872c0 -77.333 25.667 -139.001 77 -185.001c50.667 -46 117.667 -69 201 -69c68 0 132.333 20.333 193 61c60 39.333 99.667 87.333 119 144c-12 90.667 -45.667 165.334 -101 224.001c-56 57.333 -127 86 -213 86
c-78 0 -143.667 -25 -197 -75c-52.667 -50 -79 -112 -79 -186z" />
    <glyph glyph-name="colon" unicode=":" horiz-adv-x="577" 
d="M143 115c0 48.667 13.833 86.667 41.5 114s63.167 41 106.5 41c42 0 76.333 -13.667 103 -41s40 -65.333 40 -114c0 -47.333 -13.333 -84.5 -40 -111.5s-61 -40.5 -103 -40.5c-43.333 0 -78.833 13.5 -106.5 40.5s-41.5 64.167 -41.5 111.5zM143 899
c0 48.667 13.833 86.832 41.5 114.499s63.167 41.5 106.5 41.5c42 0 76.333 -13.667 103 -41s40 -65.666 40 -114.999c0 -47.333 -13.333 -84.333 -40 -111s-61 -40 -103 -40c-43.333 0 -78.833 13.333 -106.5 40s-41.5 63.667 -41.5 111z" />
    <glyph glyph-name="semicolon" unicode=";" horiz-adv-x="419" 
d="M106 -281h-143l152 537h229zM78 899c0 49.333 13.667 87.668 41 115.001s62.666 41 105.999 41c42 0 76.5 -13.833 103.5 -41.5s40.5 -65.834 40.5 -114.501c0 -47.333 -13.5 -84.333 -40.5 -111s-61.5 -40 -103.5 -40c-43.333 0 -78.666 13.333 -105.999 40
s-41 63.667 -41 111z" />
    <glyph glyph-name="less" unicode="&#x3c;" horiz-adv-x="1095" 
d="M1028 104l-866 555v70l866 553v-231l-600 -357l600 -356v-234z" />
    <glyph glyph-name="equal" unicode="=" horiz-adv-x="1183" 
d="M1077 399h-975v168h975v-168zM1077 850h-975v168h975v-168z" />
    <glyph glyph-name="greater" unicode="&#x3e;" horiz-adv-x="1097" 
d="M1028 659l-866 -555v234l600 356l-600 357v231l866 -553v-70z" />
    <glyph glyph-name="question" unicode="?" horiz-adv-x="792" 
d="M35 1073l-0.000976562 184c96 40 192.333 60 289 60c118 0 218.667 -28.667 302 -86c42.667 -29.333 76 -69.5 100 -120.5s36 -109.167 36 -174.5c0 -100 -35.667 -185.667 -107 -257s-170.333 -116 -297 -134v-137h-176l-22 282c100 0 188.667 17.333 266 52
c40.667 18 72.667 43.667 96 77s35 72.333 35 117c0 60 -21.5 107.833 -64.5 143.5s-104.167 53.5 -183.5 53.5c-75.333 0 -166.666 -20 -273.999 -60zM136.999 115c0 48.667 13.833 86.667 41.5 114s63.167 41 106.5 41c42 0 76.333 -13.667 103 -41s40 -65.333 40 -114
c0 -47.333 -13.333 -84.5 -40 -111.5s-61 -40.5 -103 -40.5c-43.333 0 -78.833 13.5 -106.5 40.5s-41.5 64.167 -41.5 111.5z" />
    <glyph glyph-name="at" unicode="@" horiz-adv-x="1538" 
d="M102 406c0 95.333 18.333 184.333 55 267s87.667 152.334 153 209.001c64 56 138.667 99.5 224 130.5s175 46.5 269 46.5c104 0 198.333 -15.667 283 -47s154.667 -75.333 210 -132c112 -116 168 -263.333 168 -442c0 -78.667 -10.667 -155 -32 -229l-752 -156
c-144.667 72.667 -217 185.334 -217 338.001c0 87.333 31.667 162.666 95 225.999c62.667 62.667 147.667 94 255 94c48.667 0 96 -9.66699 142 -29c28.667 -12 54.334 -27.333 77.001 -46c23.333 -20 42.5 -47.5 57.5 -82.5s22.5 -73.5 22.5 -115.5v-166l203 45
c5.33301 37.333 8 75.666 8 114.999c0 148.667 -46.667 266.667 -140 354c-92.667 86 -219.334 129 -380.001 129c-103.333 0 -195.666 -20.167 -276.999 -60.5s-146.333 -99.833 -195 -178.5c-50 -81.333 -75 -176.333 -75 -285c0 -80.667 14.833 -154.5 44.5 -221.5
s70.5 -121.833 122.5 -164.5c105.333 -88 233.333 -132 384 -132c92.667 0 169 11 229 33v-139c-74 -23.333 -151.667 -35 -233 -35c-104 2.66699 -200.167 21.667 -288.5 57s-162.833 83.333 -223.5 144s-107.334 131.667 -140.001 213s-49 168 -49 260zM629 391
c0 -38 9.33301 -75 28 -111s44 -66 76 -90l221 48v202c0 24.667 -5 45.667 -15 63s-22.833 30 -38.5 38s-30.667 13.667 -45 17s-28.5 5 -42.5 5c-60 0 -105.667 -15.667 -137 -47s-47 -73 -47 -125z" />
    <glyph glyph-name="A" unicode="A" horiz-adv-x="1273" 
d="M209 0h-229l618 1294h61l635 -1294h-231l-125 264h-610zM629 930l-221 -490h448z" />
    <glyph glyph-name="B" unicode="B" horiz-adv-x="1236" 
d="M156 2l-0.000976562 1292c194.667 7.33301 342.667 11 444 11c166.667 0 292.334 -26.5 377.001 -79.5s127 -128.5 127 -226.5c0 -158.667 -73.667 -263.667 -221 -315c94 -22 162.833 -58.833 206.5 -110.5s65.5 -119.167 65.5 -202.5
c0 -122.667 -49.333 -216 -148 -280c-98.667 -64.667 -235.667 -97 -411 -97c-145.333 0 -292 2.66699 -440 8zM361.999 573v-399c39.333 -2.66699 116 -4 230 -4c116.667 0 203.167 17 259.5 51s84.5 87.333 84.5 160c0 128 -110 192 -330 192h-244zM361.999 1120v-375h234
c89.333 0 159.166 17 209.499 51s75.5 83.333 75.5 148c0 126 -99.667 189 -299 189c-81.333 0 -154.666 -4.33301 -219.999 -13z" />
    <glyph glyph-name="C" unicode="C" horiz-adv-x="1222" 
d="M92 637c0 204.667 64.334 369.333 193.001 494c128.667 124 298 186 508 186c124.667 0 244 -24 358 -72v-186c-99.333 40.667 -214 61 -344 61c-150 0 -269.667 -42.667 -359 -128c-88.667 -84.667 -133 -203 -133 -355c4 -149.333 50.333 -266 139 -350
c88.667 -84.667 200 -127 334 -127c60.667 0 125 8 193 24c65.333 15.333 125.333 36 180 62v-197c-120 -57.333 -254.333 -86 -403 -86c-130 0 -245.333 29.333 -346 88c-102.667 59.333 -181.334 140 -236.001 242c-56 102 -84 216.667 -84 344z" />
    <glyph glyph-name="D" unicode="D" horiz-adv-x="1427" 
d="M645 0l-489 -0.00195312v1294h489c100 0 193.5 -15.833 280.5 -47.5s161.833 -76.167 224.5 -133.5c62 -57.333 110.167 -126.166 144.5 -206.499s51.5 -166.833 51.5 -259.5c2 -124 -27 -235.667 -87 -335s-144 -176.666 -252 -231.999s-228.667 -82 -362 -80zM362 1104
v-916h238c164.667 0 293.667 40.667 387 122c92.667 80.667 139 193 139 337c0 143.333 -46.333 255.333 -139 336s-221.667 121 -387 121h-238z" />
    <glyph glyph-name="E" unicode="E" horiz-adv-x="1120" 
d="M1092 0h-936v1294h936v-186h-730v-354h644v-187h-644v-381h730v-186z" />
    <glyph glyph-name="F" unicode="F" horiz-adv-x="1107" 
d="M362 0h-206v1294h936v-186h-730v-399h572v-187h-572v-522z" />
    <glyph glyph-name="G" unicode="G" horiz-adv-x="1366" 
d="M82 637c0 204.667 64.333 369.333 193 494c128 124 297 186 507 186c125.333 0 245 -24 359 -72v-186c-99.333 40.667 -214 61 -344 61c-154 0 -274.333 -41 -361 -123c-87.333 -83.333 -131 -203.333 -131 -360c4 -145.333 46.667 -262.666 128 -351.999
c80.667 -88.667 194.334 -133 341.001 -133c109.333 0 200.333 19.667 273 59v307h-310l41 176h445v-596c-59.333 -46.667 -134 -81.334 -224 -104.001c-86.667 -20.667 -173.334 -31 -260.001 -31c-127.333 0 -241.333 29.667 -342 89
c-100 58.667 -177.667 139.667 -233 243c-54.667 101.333 -82 215.333 -82 342z" />
    <glyph glyph-name="H" unicode="H" horiz-adv-x="1409" 
d="M362 0h-206v1294h206v-546h685v546h206v-1294h-206v551h-685v-551z" />
    <glyph glyph-name="I" unicode="I" horiz-adv-x="518" 
d="M362 0h-206v1294h206v-1294z" />
    <glyph glyph-name="J" unicode="J" horiz-adv-x="905" 
d="M31 37l0.00195312 190.001c73.333 -44.667 148.333 -67 225 -67c104.667 0 180.667 22.667 228 68s71 120.333 71 225v841h207v-854c0 -69.333 -8.16699 -131.333 -24.5 -186s-38.333 -99.334 -66 -134.001s-60.834 -63.5 -99.501 -86.5s-79.167 -39.167 -121.5 -48.5
s-87.5 -14 -135.5 -14c-120.667 0 -215.334 22 -284.001 66z" />
    <glyph glyph-name="K" unicode="K" horiz-adv-x="1218" 
d="M362 0h-206v1294h206v-559h125l476 559h243l-530 -620l596 -674h-281l-489 565h-140v-565z" />
    <glyph glyph-name="L" unicode="L" horiz-adv-x="1073" 
d="M1022 0h-866v1294h206v-1099h660v-195z" />
    <glyph glyph-name="M" unicode="M" horiz-adv-x="1808" 
d="M322 0h-220l228 1294h61l520 -901l516 901h62l237 -1294h-219l-145 821l-451 -790l-467 790z" />
    <glyph glyph-name="N" unicode="N" horiz-adv-x="1449" 
d="M362 0h-206v1294h86l845 -886v886h207v-1294h-86l-846 887v-887z" />
    <glyph glyph-name="O" unicode="O" horiz-adv-x="1519" 
d="M82 641c2 201.333 65.3311 364.335 189.998 489.002s287.334 187 488.001 187s363.334 -62.333 488.001 -187s188 -288.334 190 -491.001c-2 -201.333 -65.333 -364.333 -190 -489s-287.334 -187 -488.001 -187c-199.333 0 -361.666 62.667 -486.999 188
s-189 288.666 -191 489.999zM430.998 991.002c-86.667 -88.667 -130 -205.331 -130 -349.998s43.333 -261.334 130 -350.001c86 -90 195.667 -135 329 -135c132.667 0 242.667 44.667 330 134c86 89.333 129 205.666 129 348.999c0 144 -43 261 -129 351
c-87.333 89.333 -197.333 134 -330 134c-133.333 0 -243 -44.333 -329 -133z" />
    <glyph glyph-name="P" unicode="P" horiz-adv-x="1214" 
d="M362 0l-206.001 0.000976562v1294h493c178.667 0 308.667 -44.333 390 -133c76 -82.667 114 -188.334 114 -317.001c0 -80.667 -14.167 -151.167 -42.5 -211.5s-67.166 -108 -116.499 -143s-103.5 -60.833 -162.5 -77.5s-122.5 -25 -190.5 -25
c-96.667 0 -189.667 10.333 -279 31v-418zM361.999 1102l0.000976562 -510.001c68 -14 146 -21 234 -21c104 0 186.333 22.333 247 67s91 115.334 91 212.001c0 29.333 -2.83301 56 -8.5 80s-15.5 46.833 -29.5 68.5s-32.333 40 -55 55s-51.834 26.833 -87.501 35.5
s-77.167 13 -124.5 13h-267z" />
    <glyph glyph-name="Q" unicode="Q" horiz-adv-x="1525" 
d="M92 641c2 201.333 65.333 364.337 190 489.004s287.334 187 488.001 187s363.334 -62.333 488.001 -187s188 -288.334 190 -491.001c-2 -182.667 -54.333 -333.667 -157 -453c-102.667 -120.667 -239.334 -192.334 -410.001 -215.001c75.333 -86 177 -129 305 -129
c64 0 119.333 13 166 39v-180c-52 -23.333 -108 -35 -168 -35c-99.333 0 -193.333 25.833 -282 77.5s-176.334 128.167 -263.001 229.5c-165.333 27.333 -297.333 100.666 -396 219.999s-149 268.666 -151 447.999zM441 991.004
c-86.667 -88.667 -130 -205.334 -130 -350.001s43.333 -261.667 130 -351c86 -90.667 195.667 -136 329 -136s243.333 45 330 135c86 88.667 129 205.334 129 350.001c0 144 -43 261 -129 351c-87.333 89.333 -197.333 134 -330 134c-133.333 0 -243 -44.333 -329 -133z" />
    <glyph glyph-name="R" unicode="R" horiz-adv-x="1232" 
d="M362 0h-206.002v1294h514c149.333 0 262 -33.167 338 -99.5s114 -160.833 114 -283.5c0 -168 -72.333 -291.333 -217 -370l148 -271l147 -270h-225l-260 492c-61.333 -3.33301 -93.666 -5 -96.999 -5c-71.333 0 -156.666 7.66699 -255.999 23v-510zM361.998 1106v-418
c77.333 -14.667 157.333 -22 240 -22c207.333 0 311 77 311 231c0 139.333 -97.333 209 -292 209h-259z" />
    <glyph glyph-name="S" unicode="S" horiz-adv-x="1073" 
d="M61 944c0 122.667 44.0068 215.667 132.007 279c86.667 62.667 208 94 364 94c126 0 251.667 -21.333 377 -64v-200c-44 19.333 -102.667 36.666 -176 51.999c-72 14 -141 21 -207 21c-96 0 -166.167 -12.833 -210.5 -38.5s-66.5 -68.834 -66.5 -129.501
c0 -26 4.16699 -49.333 12.5 -70s21.166 -38.5 38.499 -53.5s35.166 -27.667 53.499 -38s42.5 -19.833 72.5 -28.5s56.167 -15.834 78.5 -21.501s51.666 -12.334 87.999 -20.001s65.166 -14.167 86.499 -19.5c87.333 -22.667 159 -58 215 -106
c62 -53.333 93 -133.666 93 -240.999c0 -142.667 -46.333 -245.667 -139 -309c-87.333 -58.667 -200 -88 -338 -88c-155.333 0 -300.333 28 -435 84v213c154 -69.333 289.333 -104 406 -104c98.667 0 172.167 16.167 220.5 48.5s72.5 82.833 72.5 151.5
c0 32 -8.33301 59.333 -25 82s-39.334 40.5 -68.001 53.5s-61.5 24.333 -98.5 34s-75.833 18.834 -116.5 27.501s-81.334 18.334 -122.001 29.001s-79.5 25.334 -116.5 44.001s-69.833 41 -98.5 67s-51.334 60.333 -68.001 103s-25 92 -25 148z" />
    <glyph glyph-name="T" unicode="T" horiz-adv-x="1046" 
d="M420 1108h-420v186h1047v-186h-420v-1108h-207v1108z" />
    <glyph glyph-name="U" unicode="U" horiz-adv-x="1372" 
d="M143 535v759h207v-766c0 -118.667 29.5 -210 88.5 -274s141.5 -96 247.5 -96s188.5 32 247.5 96s88.5 155.333 88.5 274v766h207v-759c0 -178.667 -49.333 -318.334 -148 -419.001c-99.333 -102 -231 -153 -395 -153s-295.667 51 -395 153
c-98.667 100.667 -148 240.334 -148 419.001z" />
    <glyph glyph-name="V" unicode="V" horiz-adv-x="1140" 
d="M530 0l-550 1294h237l363 -905l346 905h235l-555 -1294h-76z" />
    <glyph glyph-name="W" unicode="W" horiz-adv-x="1699" 
d="M354 0l-385 1294h228l243 -897l414 752l416 -752l239 897h222l-385 -1294h-76l-418 780l-422 -780h-76z" />
    <glyph glyph-name="X" unicode="X" horiz-adv-x="1228" 
d="M225 0h-245l505 688l-428 606h248l303 -458l326 458h246l-443 -596l512 -698h-248l-393 553z" />
    <glyph glyph-name="Y" unicode="Y" horiz-adv-x="1148" 
d="M471 467l-504 827h240l366 -645l369 645h240l-504 -827v-467h-207v467z" />
    <glyph glyph-name="Z" unicode="Z" horiz-adv-x="1093" 
d="M1073 0h-1032v63l690 1045h-657v186h968v-63l-692 -1045h723v-186z" />
    <glyph glyph-name="bracketleft" unicode="[" horiz-adv-x="751" 
d="M696 -86h-606v1526h606v-174h-399v-1178h399v-174z" />
    <glyph glyph-name="backslash" unicode="\" horiz-adv-x="1146" 
d="M768 0l-629 1386h209l627 -1386h-207z" />
    <glyph glyph-name="bracketright" unicode="]" horiz-adv-x="751" 
d="M696 -86h-606v174h399v1178h-399v174h606v-1526z" />
    <glyph glyph-name="a" unicode="a" horiz-adv-x="1148" 
d="M78 309c0 123.333 42.668 212.669 128.001 268.002c78 50.667 176 76 294 76c38.667 0 87.334 -5.66699 146.001 -17c52 -10 104.333 -25.333 157 -46v92c0 128 -97.667 192 -293 192c-128 0 -236 -21.667 -324 -65v184c120 41.333 235.333 62 346 62
c111.333 0 204 -15.667 278 -47c42 -18.667 77.667 -42.667 107 -72c63.333 -66.667 95 -163.667 95 -291v-645h-142l-24 160c-50.667 -64.667 -108.334 -111.334 -173.001 -140.001s-139.334 -43 -224.001 -43c-94 0 -178 27.333 -252 82
c-36.667 27.333 -65.667 62.666 -87 105.999s-32 91.333 -32 144zM297.001 332.003c0 -127.333 71.667 -190.999 215 -190.999c56 0 110.333 17.333 163 52c52 33.333 94.667 79.666 128 138.999v84c-83.333 52 -176.333 78 -279 78c-151.333 0 -227 -54 -227 -162z" />
    <glyph glyph-name="b" unicode="b" horiz-adv-x="1275" 
d="M156 80l0.000976562 1306h209v-460c96.667 86 218.667 129 366 129c67.333 0 129.333 -11.333 186 -34s106 -55.5 148 -98.5s74.667 -98.333 98 -166s35 -144.5 35 -230.5c0 -76 -10.333 -145.167 -31 -207.5s-49.334 -115.166 -86.001 -158.499
s-80.334 -79.833 -131.001 -109.5s-105.5 -51.334 -164.5 -65.001s-121.5 -20.5 -187.5 -20.5c-145.333 0 -292.666 38.333 -441.999 115zM365.001 743l-0.000976562 -537.999c86 -32.667 167.667 -49 245 -49c107.333 0 195.666 30.667 264.999 92s104 153.333 104 276
c0 58.667 -8.33301 110.667 -25 156s-39.167 81.166 -67.5 107.499s-59.666 46 -93.999 59s-71.166 19.5 -110.499 19.5c-119.333 0 -225 -41 -317 -123z" />
    <glyph glyph-name="c" unicode="c" horiz-adv-x="983" 
d="M78 504c0 166.667 49.666 300.334 148.999 401.001c99.333 100 233.333 150 402 150c103.333 0 193.333 -15 270 -45v-176c-78 26.667 -160 40 -246 40c-116.667 0 -205.167 -30.5 -265.5 -91.5s-90.5 -151.167 -90.5 -270.5c0 -117.333 32 -207.333 96 -270
c64.667 -63.333 149.334 -95 254.001 -95c98.667 0 186.667 17.333 264 52v-179c-85.333 -36.667 -183 -55 -293 -55c-101.333 -2 -193 18.667 -275 62s-146.833 106.666 -194.5 189.999s-71.167 179 -70.5 287z" />
    <glyph glyph-name="d" unicode="d" horiz-adv-x="1255" 
d="M78 510c0 166 45.665 298.667 136.998 398c91.333 98 211.333 147 360 147c136 0 252.333 -39.667 349 -119v450h209v-1386h-150l-20 160c-65.333 -72 -129.666 -120.667 -192.999 -146c-62 -24.667 -136.333 -37 -223 -37c-97.333 0 -181.666 24.333 -252.999 73
c-72 48 -126 112 -162 192s-54 169.333 -54 268zM379.998 781c-55.333 -67.333 -82.999 -155 -82.999 -263s25 -195.667 75 -263c49.333 -67.333 125.333 -101 228 -101c68 0 130.167 17.5 186.5 52.5s102.166 87.833 137.499 158.5v372c-90 96 -190.333 144 -301 144
c-107.333 0 -188.333 -33.333 -243 -100z" />
    <glyph glyph-name="e" unicode="e" horiz-adv-x="1189" 
d="M78 514c0 82.667 14.332 158.834 42.999 228.501s68.334 127.167 119.001 172.5c104 93.333 226 140 366 140c82.667 0 156.167 -12.833 220.5 -38.5s115.833 -61.834 154.5 -108.501c75.333 -91.333 113 -206.333 113 -345c0 -36.667 -3 -85.667 -9 -147h-786
c15.333 -101.333 63 -173.666 143 -216.999c71.333 -38.667 153.333 -58 246 -58c120 0 228 21.333 324 64v-174c-45.333 -22 -100 -38.333 -164 -49c-69.333 -11.333 -135 -17 -197 -17c-95.333 0 -180.5 14 -255.5 42s-135.5 67.667 -181.5 119
c-90.667 99.333 -136 228.666 -136 387.999zM294.999 578h590c0 94.667 -26 168.667 -78 222c-52 52.667 -119 79 -201 79c-92 0 -165.5 -26.667 -220.5 -80s-85.167 -127 -90.5 -221z" />
    <glyph glyph-name="f" unicode="f" horiz-adv-x="735" 
d="M340 0l-212.999 -0.000976562v971c0 191.333 55.333 318 166 380c64.667 34.667 146 51.334 244 50.001c36 0 92 -5 168 -15v-167c-49.333 13.333 -98.666 20 -147.999 20c-22.667 0 -43.334 -1.5 -62.001 -4.5s-38 -9 -58 -18s-36.833 -21.333 -50.5 -37
s-24.834 -37 -33.501 -64s-13 -58.833 -13 -95.5h311v-162h-311v-858z" />
    <glyph glyph-name="g" unicode="g" horiz-adv-x="1284" 
d="M78 512c0 86 13.499 164.669 40.499 236.002s64.167 129.333 111.5 174c94 88.667 201.667 133 323 133c168.667 0 301.667 -50.667 399 -152l15 117h170v-819c0 -73.333 -7 -140.333 -21 -201s-34 -112.5 -60 -155.5s-56.167 -80.333 -90.5 -112
s-73 -56.834 -116 -75.501s-87.333 -32.334 -133 -41.001s-94.167 -13 -145.5 -13c-140 0 -260 26 -360 78v178c110 -49.333 220 -74 330 -74c258 0 387 116 387 348v33c-53.333 -74 -110.666 -123.667 -171.999 -149c-61.333 -26.667 -135 -40 -221 -40
c-96 0 -178.667 24.333 -248 73c-70.667 48.667 -123 113 -157 193c-34.667 78 -52 167.667 -52 269zM296.999 506.002c0 -38 3.50098 -73.833 10.501 -107.5s18.167 -65.667 33.5 -96s34.666 -56.333 57.999 -78s52 -38.834 86 -51.501s72.333 -19 115 -19
c64 0 125 19.833 183 59.5s106.333 96.834 145 171.501v350c-92 96 -202.667 144 -332 144c-199.333 0 -299 -124.333 -299 -373z" />
    <glyph glyph-name="h" unicode="h" horiz-adv-x="1214" 
d="M348 0l-211.001 0.00195312v1386h211v-518c38.667 62 88.5 108.667 149.5 140s127.833 47 200.5 47c52.667 0 101.334 -7.33301 146.001 -22s84.667 -36.334 120 -65.001s63 -67 83 -115s30 -103 30 -165v-688h-213v631c0 81.333 -20 142.666 -60 183.999
s-93.667 62 -161 62c-134 0 -232.333 -67 -295 -201v-676z" />
    <glyph glyph-name="i" unicode="i" horiz-adv-x="514" 
d="M127 1296c0 38.667 12.668 72.335 38.001 101.002c25.333 27.333 55.666 41 90.999 41c36.667 0 67.667 -13.667 93 -41c25.333 -28.667 38 -62.334 38 -101.001s-12.667 -72.334 -38 -101.001c-24.667 -28 -55.667 -42 -93 -42c-36 0 -66.333 14 -91 42
c-25.333 27.333 -38 61 -38 101zM360.001 0.000976562h-213v1020h213v-1020z" />
    <glyph glyph-name="j" unicode="j" horiz-adv-x="548" 
d="M-147 -354l0.000976562 166c41.333 -23.333 86.333 -35 135 -35c59.333 0 106.666 17.667 141.999 53c34.667 34.667 52 96 52 184v1006h213v-866c0 -86.667 -5.66699 -163.667 -17 -231c-12.667 -75.333 -36.667 -139 -72 -191c-60 -86 -153 -129 -279 -129
c-65.333 0 -123.333 14.333 -174 43zM162.001 1296c0 38.667 12.668 72.335 38.001 101.002c25.333 27.333 55.666 41 90.999 41c36.667 0 67.667 -13.667 93 -41c25.333 -28.667 38 -62.334 38 -101.001s-12.667 -72.334 -38 -101.001c-25.333 -28 -56.333 -42 -93 -42
c-36 0 -66.333 14 -91 42c-25.333 27.333 -38 61 -38 101z" />
    <glyph glyph-name="k" unicode="k" horiz-adv-x="1054" 
d="M350 0h-213v1386h213v-784h152l323 418h254l-405 -490l420 -530h-265l-346 449h-133v-449z" />
    <glyph glyph-name="l" unicode="l" horiz-adv-x="481" 
d="M350 0h-213v1386h213v-1386z" />
    <glyph glyph-name="m" unicode="m" horiz-adv-x="1822" 
d="M348 0h-211.001v1020h166v-180c40 70.667 90.667 124.167 152 160.5s129.333 54.5 204 54.5c165.333 0 272 -71.667 320 -215c81.333 143.333 202 215 362 215c54.667 0 107.334 -9 158.001 -27c28 -10 53 -25 75 -45c80.667 -70.667 120 -188 118 -352v-631h-211v631
c0 86 -15.833 148.5 -47.5 187.5s-82.167 58.5 -151.5 58.5c-116 -4 -203.333 -65 -262 -183v-694h-211v631c0 86 -15.833 148.5 -47.5 187.5s-82.167 58.5 -151.5 58.5c-116 -4 -203.333 -65 -262 -183v-694z" />
    <glyph glyph-name="n" unicode="n" horiz-adv-x="1210" 
d="M350 0l-212.999 0.00195312v1020h166v-180c42.667 71.333 97.167 125 163.5 161s140.166 54 221.499 54c52.667 0 102 -7.33301 148 -22s87.333 -36.334 124 -65.001s65.667 -67 87 -115s32 -103 32 -165v-688h-213v631c0 81.333 -20 142.666 -60 183.999
s-93.667 62 -161 62c-134 0 -232.333 -67 -295 -201v-676z" />
    <glyph glyph-name="o" unicode="o" horiz-adv-x="1241" 
d="M78 504c0 161.333 48.998 293.332 146.998 395.999c98 103.333 230 155 396 155c86.667 -0.666992 165.334 -15.5 236.001 -44.5s128.334 -68.833 173.001 -119.5c88.667 -102 133 -227 133 -375c0 -160.667 -48.667 -292.667 -146 -396
c-98 -103.333 -230 -155 -396 -155c-86.667 0.666992 -165.5 15.5 -236.5 44.5s-128.833 69.167 -173.5 120.5c-88.667 100.667 -133 225.334 -133 374.001zM296.998 519.999c0 -100.667 25.333 -187.332 76 -259.999c54.667 -79.333 137.334 -119 248.001 -119
c47.333 0 89.833 7.16699 127.5 21.5s68.5 33.166 92.5 56.499s44 51 60 83s27.167 64.333 33.5 97s9.5 66.334 9.5 101.001c0 49.333 -6.33301 96 -19 140s-31.5 84.167 -56.5 120.5s-58.833 65.166 -101.5 86.499s-91.334 32 -146.001 32c-57.333 0 -108 -10.5 -152 -31.5
s-78.333 -49.833 -103 -86.5c-46 -68.667 -69 -149 -69 -241z" />
    <glyph glyph-name="p" unicode="p" horiz-adv-x="1273" 
d="M348 -389l-211.002 0.000976562v1409h166v-180c101.333 143.333 245.333 215 432 215c75.333 0 143 -13.333 203 -40s108.667 -64 146 -112c74.667 -96.667 112 -220.334 112 -371.001c0 -156.667 -42 -289 -126 -397c-41.333 -52.667 -93.666 -94.167 -156.999 -124.5
s-132.666 -45.5 -207.999 -45.5c-138.667 0 -257.667 39.667 -357 119v-473zM345.998 682.001l0.000976562 -416.001c87.333 -73.333 194 -110 320 -110c53.333 0.666992 100.333 10.834 141 30.501s73.167 46.667 97.5 81s42.5 73 54.5 116s18 89.833 18 140.5
c0 106.667 -26.167 189.667 -78.5 249s-129.833 89 -232.5 89c-60.667 0 -120.334 -15.667 -179.001 -47c-57.333 -30.667 -104.333 -75 -141 -133z" />
    <glyph glyph-name="q" unicode="q" horiz-adv-x="1273" 
d="M78 512c0 86 13.5 164.667 40.5 236s64.167 129.333 111.5 174c94 88.667 201.667 133 323 133c168.667 0 301.667 -50.667 399 -152l15 117h170v-1409h-209v555c-50.667 -76 -110.667 -127.333 -180 -154c-59.333 -23.333 -130.333 -35 -213 -35
c-96 0 -178.667 24.333 -248 73c-70.667 48.667 -123 113 -157 193c-34.667 78 -52 167.667 -52 269zM297 506c0 -47.333 5.66797 -91.332 17.001 -131.999s28.666 -77.834 51.999 -111.501s55 -60.167 95 -79.5s86.333 -29 139 -29c64 0 125.667 19 185 57s107 96 143 174
v350c-92 96 -202.667 144 -332 144c-199.333 0 -299 -124.333 -299 -373z" />
    <glyph glyph-name="r" unicode="r" horiz-adv-x="749" 
d="M350 0h-212.999v1020h166v-207c48 83.333 105.333 143.5 172 180.5s144.667 55.5 234 55.5c23.333 0 43.666 -0.666992 60.999 -2v-218c-41.333 10 -79.666 15 -114.999 15c-140.667 0 -242.334 -70.333 -305.001 -211v-633z" />
    <glyph glyph-name="s" unicode="s" horiz-adv-x="995" 
d="M88 729c0 104.667 37.1699 185.168 111.503 241.501s181.166 84.5 320.499 84.5c122.667 0 234.667 -24 336 -72v-176c-52 20 -110 37 -174 51c-65.333 14 -124 21 -176 21c-61.333 0 -109.333 -7.66699 -144 -23c-42 -18.667 -63 -57 -63 -115
c0.666992 -32 13 -58.333 37 -79s54.667 -36.334 92 -47.001s78.666 -20.5 123.999 -29.5s90.333 -20 135 -33s85.5 -29.167 122.5 -48.5s67 -48 90 -86s34.5 -83.667 34.5 -137c0 -96.667 -39.333 -173.334 -118 -230.001c-78 -57.333 -183.333 -86 -316 -86
c-148 0 -279.333 29.333 -394 88v176c52.667 -27.333 116 -49 190 -65c72.667 -15.333 142 -23 208 -23c63.333 0 115.666 11.667 156.999 35s62 57.666 62 102.999c0 25.333 -9.16699 46.5 -27.5 63.5s-42.333 29.667 -72 38s-63.5 16.666 -101.5 24.999
s-76.833 15.833 -116.5 22.5s-78.5 17.334 -116.5 32.001s-71.833 32.334 -101.5 53.001s-53.667 49.334 -72 86.001s-27.5 80 -27.5 130z" />
    <glyph glyph-name="t" unicode="t" horiz-adv-x="743" 
d="M127 317v897l213 93v-287h334v-162h-334v-541c0 -108.667 49.667 -163 149 -163c22.667 0 50.667 3.66699 84 11c29.333 6.66699 54 15 74 25v-180c-51.333 -24.667 -122.333 -37 -213 -37c-102 0 -178.667 27.5 -230 82.5s-77 142.167 -77 261.5z" />
    <glyph glyph-name="u" unicode="u" horiz-adv-x="1189" 
d="M123 334l-0.00292969 686h213v-631c0 -92 19 -156 57 -192c36.667 -36 91.334 -54 164.001 -54c60.667 2 116.167 19.167 166.5 51.5s89.833 76.166 118.5 131.499v694h213v-1020h-166v176c-55.333 -87.333 -124.666 -145.666 -207.999 -174.999
c-68.667 -24 -142 -36 -220 -36c-103.333 0 -185.666 32 -246.999 96c-60.667 62.667 -91 153.667 -91 273z" />
    <glyph glyph-name="v" unicode="v" horiz-adv-x="1042" 
d="M489 0l-479 1020h242l283 -694l274 694h223l-461 -1020h-82z" />
    <glyph glyph-name="w" unicode="w" horiz-adv-x="1630" 
d="M455 0l-445 1020h226l268 -666l282 666h66l283 -666l266 666h219l-444 -1020h-72l-289 684l-289 -684h-71z" />
    <glyph glyph-name="x" unicode="x" horiz-adv-x="958" 
d="M365 510l-385 510h243l260 -377l258 377h232l-373 -504l379 -516h-231l-263 367l-249 -367h-246z" />
    <glyph glyph-name="y" unicode="y" horiz-adv-x="1034" 
d="M418 111l-424 909h237l287 -692l283 692h213l-633 -1409h-219z" />
    <glyph glyph-name="z" unicode="z" horiz-adv-x="876" 
d="M874 0h-864v92l563 758h-532v170h807v-92l-563 -758h589v-170z" />
    <glyph glyph-name="braceleft" unicode="{" horiz-adv-x="602" 
d="M76 578l-0.000976562 143c52.667 5.33301 93.834 20.833 123.501 46.5s44.5 59.167 44.5 100.5c0 26 -10.333 63 -31 111c-17.333 40 -38 91.667 -62 155c-22 56 -33.333 102 -34 138c0 82 28.833 144.5 86.5 187.5s139.5 64.5 245.5 64.5h110v-164h-117
c-44 0 -76.333 -8.33301 -97 -25c-22 -17.333 -25.667 -49.333 -11 -96l78 -211c18.667 -46.667 28.5 -90.667 29.5 -132s-5 -76.666 -18 -105.999s-31.833 -55 -56.5 -77c-37.333 -32 -82.666 -53.333 -135.999 -64c114.667 -24 183.667 -87.333 207 -190
c12 -52.667 3.33301 -115.667 -26 -189l-78 -211c-14.667 -46 -11 -77.667 11 -95c20.667 -16.667 53 -25 97 -25h117v-164h-110c-106 0 -187.833 21.5 -245.5 64.5s-86.5 105.5 -86.5 187.5c0.666992 36 12 82 34 138c26 67.333 46.667 118.666 62 153.999
c20.667 48 31 85 31 111c0 42 -14.833 75.833 -44.5 101.5s-70.834 41.167 -123.501 46.5z" />
    <glyph glyph-name="braceright" unicode="}" horiz-adv-x="602" 
d="M76 -225l0.000976562 164.001h117c44 0 76.667 8.33301 98 25c21.333 17.333 24.666 49 9.99902 95l-78 211c-27.333 74.667 -36.333 137.5 -27 188.5s33.333 93.167 72 126.5c36 32 81 53.333 135 64c-114.667 24 -183.334 87.667 -206.001 191
c-12 52 -3.33301 114.667 26 188l78 211c14.667 46.667 11.334 78.667 -9.99902 96c-21.333 16.667 -54 25 -98 25h-117v164h110c106 0 187.833 -21.5 245.5 -64.5s86.5 -105.5 86.5 -187.5c-1.33301 -38 -12.333 -84 -33 -138
c-18.667 -48.667 -39.667 -100.334 -63 -155.001c-20.667 -48 -31 -85 -31 -111c0 -41.333 14.833 -74.833 44.5 -100.5s70.834 -41.167 123.501 -46.5v-143c-52.667 -5.33301 -93.834 -20.833 -123.501 -46.5s-44.5 -59.5 -44.5 -101.5c0 -26 10.333 -63 31 -111
c22.667 -52 43.667 -103.333 63 -154c20.667 -54 31.667 -100 33 -138c0 -82 -28.833 -144.5 -86.5 -187.5s-139.5 -64.5 -245.5 -64.5h-110z" />
    <glyph glyph-name="asciitilde" unicode="~" horiz-adv-x="1214" 
d="M119 410l-96 100c106.667 156.667 223.334 235 350.001 235c10.667 0 21.5 -0.833008 32.5 -2.5s21 -3.33398 30 -5.00098s19.333 -5 31 -10l28 -12c7 -3 16.667 -8.16699 29 -15.5l26.5 -15.5c5.33301 -3 14.333 -9 27 -18s20.667 -14.833 24 -17.5
s11.666 -9 24.999 -19s21 -15.667 23 -17c63.333 -48 122 -72 176 -72c35.333 0 69.833 10 103.5 30s71.5 52.333 113.5 97l103 -103c-47.333 -73.333 -100.833 -128.5 -160.5 -165.5s-122.167 -55.5 -187.5 -55.5c-13.333 0 -26.833 1.33301 -40.5 4
s-25.667 5.33398 -36 8.00098s-23 7.66699 -38 15l-33.5 16c-7.33301 3.33301 -19 10.333 -35 21l-30.5 20.5l-32.5 23.5c-17.333 12.667 -27 19.667 -29 21c-64.667 46.667 -124 70 -178 70c-78 0 -153 -44.333 -225 -133z" />
    <glyph glyph-name="uni00A0" unicode="&#xa0;" horiz-adv-x="593" 
 />
    <glyph glyph-name="sterling" unicode="&#xa3;" horiz-adv-x="1468" 
d="M207 948c0 64.667 15 121.497 45 170.497s72 87.833 126 116.5c103.333 54.667 232 82 386 82c160.667 0 328 -36.333 502 -109v-194c-88.667 32.667 -181 59.334 -277 80.001c-100.667 21.333 -186.667 32 -258 32c-93.333 0 -166 -12.333 -218 -37
c-58 -27.333 -87 -76.333 -87 -147c0 -28 9 -57.167 27 -87.5s46.333 -68.833 85 -115.5c34.667 -40.667 60.667 -76.667 78 -108h529v-178h-473c1.33301 -9.33301 2 -19.666 2 -30.999c0 -82 -40.333 -160.667 -121 -236h713v-186h-1033v61c75.333 54.667 134 114 176 178
c42.667 63.333 64 125 64 185c0 20.667 -2.83301 40.834 -8.5 60.501s-16.5 42 -32.5 67s-27.833 42.833 -35.5 53.5s-24.667 31.667 -51 63l-44.5 53c-62.667 76 -94 151.667 -94 227z" />
    <glyph glyph-name="guillemotleft" unicode="&#xab;" horiz-adv-x="1099" 
d="M385 61l-350 443l350 438l170 -63l-301 -375l301 -375zM856 61l-350 443l350 438l170 -63l-301 -375l301 -375z" />
    <glyph glyph-name="uni00AD" unicode="&#xad;" horiz-adv-x="792" 
d="M711 416h-615v188h615v-188z" />
    <glyph glyph-name="registered" unicode="&#xae;" horiz-adv-x="815" 
d="M63 1026c0 115.333 33 206.002 99 272.002c65.333 66 147.333 99 246 99c98 0 179.333 -32.333 244 -97s98 -153.334 100 -266.001c0 -113.333 -32.333 -203.333 -97 -270s-147 -100 -247 -100c-98 0 -179.333 32.333 -244 97c-65.333 65.333 -99 153.666 -101 264.999z
M258 1251v-438h86v168h74l94 -168h100l-110 186c47.333 25.333 71 64.333 71 117c0 44 -13.333 77.5 -40 100.5s-65 34.5 -115 34.5h-160zM416 1055l-72 -0.000976562v123h72c30 1.33301 50.667 -8.66699 62 -30s10.833 -42.666 -1.5 -63.999s-32.5 -31 -60.5 -29z" />
    <glyph glyph-name="paragraph" unicode="&#xb6;" horiz-adv-x="1177" 
d="M37 911c-2 82.667 18.168 161 60.501 235s99.5 133 171.5 177s148.333 65 229 63h610v-190h-385v-1196h-182v436c-88.667 -2 -172.334 18.833 -251.001 62.5s-141 102.5 -187 176.5s-68 152.667 -66 236zM1047 0h-183v1038h183v-1038z" />
    <glyph glyph-name="guillemotright" unicode="&#xbb;" horiz-adv-x="1099" 
d="M205 61l-170 64l301 375l-301 374l170 68l350 -442zM676 61l-170 64l301 375l-301 374l170 68l350 -442z" />
    <glyph glyph-name="uni0401" unicode="&#x401;" horiz-adv-x="1140" 
d="M1092 0h-936v1294h936v-186h-730v-354h644v-187h-644v-381h730v-186zM256 1563c0 38.667 10.667 68.834 32 90.501s49 32.5 83 32.5c31.333 0 57.166 -10.833 77.499 -32.5s30.5 -51.834 30.5 -90.501c0 -36.667 -10.167 -65.334 -30.5 -86.001s-46.166 -31 -77.499 -31
c-34 0 -61.667 10.333 -83 31s-32 49.334 -32 86.001zM750 1563c0 38.667 10.333 68.834 31 90.501s47 32.5 79 32.5c32.667 0 59.334 -10.833 80.001 -32.5s31 -51.834 31 -90.501c0 -36.667 -10.333 -65.334 -31 -86.001s-47.334 -31 -80.001 -31
c-32 0 -58.333 10.333 -79 31s-31 49.334 -31 86.001z" />
    <glyph glyph-name="uni0410" unicode="&#x410;" horiz-adv-x="1273" 
d="M209 0h-229l618 1294h61l635 -1294h-231l-125 264h-610zM629 930l-221 -490h448z" />
    <glyph glyph-name="uni0411" unicode="&#x411;" horiz-adv-x="1222" 
d="M702 0h-546v1294h895v-186h-689v-336c85.333 10.667 168 16 248 16c128.667 0 234.667 -15 318 -45c49.333 -18 90.333 -41 123 -69c73.333 -62.667 110 -153.667 110 -273c0 -127.333 -40.333 -226 -121 -296c-81.333 -70 -194 -105 -338 -105zM362 590
l0.000976562 -404h322c46.667 0 87.167 5.83301 121.5 17.5s61.166 27.5 80.499 47.5s33.5 42.167 42.5 66.5s13.5 50.833 13.5 79.5c0 83.333 -31.667 140 -95 170c-54.667 26 -128.667 39 -222 39c-86 0 -173.667 -5.33301 -263 -16z" />
    <glyph glyph-name="uni0412" unicode="&#x412;" horiz-adv-x="1236" 
d="M156 2l-0.000976562 1292c194.667 7.33301 342.667 11 444 11c166.667 0 292.334 -26.5 377.001 -79.5s127 -128.5 127 -226.5c0 -158.667 -73.667 -263.667 -221 -315c94 -22 162.833 -58.833 206.5 -110.5s65.5 -119.167 65.5 -202.5
c0 -122.667 -49.333 -216 -148 -280c-98.667 -64.667 -235.667 -97 -411 -97c-145.333 0 -292 2.66699 -440 8zM361.999 573v-399c39.333 -2.66699 116 -4 230 -4c116.667 0 203.167 17 259.5 51s84.5 87.333 84.5 160c0 128 -110 192 -330 192h-244zM361.999 1120v-375h234
c89.333 0 159.166 17 209.499 51s75.5 83.333 75.5 148c0 126 -99.667 189 -299 189c-81.333 0 -154.666 -4.33301 -219.999 -13z" />
    <glyph glyph-name="uni0413" unicode="&#x413;" horiz-adv-x="1024" 
d="M362 0h-206v1294h858v-186h-652v-1108z" />
    <glyph glyph-name="uni0414" unicode="&#x414;" horiz-adv-x="1472" 
d="M51 -242v435.001h131c43.333 97.333 77 186.333 101 267c25.333 83.333 46.333 184.666 63 303.999c16.667 117.333 25 252.333 25 405v125h872v-1101h158v-435h-187v242h-976v-242h-187zM397 193.001l641 -0.000976562v915h-479v-186c0 -131.333 -14 -255 -42 -371
c-28.667 -115.333 -68.667 -234.666 -120 -357.999z" />
    <glyph glyph-name="uni0415" unicode="&#x415;" horiz-adv-x="1142" 
d="M1094 0h-938v1294h929v-192h-731v-354h641v-195h-641v-360h740v-193z" />
    <glyph glyph-name="uni0416" unicode="&#x416;" horiz-adv-x="1923" 
d="M274 0h-274l557 672l-487 622h258l413 -559h119v559h203v-559h119l413 559h258l-487 -622l557 -672h-274l-453 565h-133v-565h-203v565h-133z" />
    <glyph glyph-name="uni0417" unicode="&#x417;" horiz-adv-x="1124" 
d="M78 61l0.000976562 194.998c72 -36 143.333 -62.333 214 -79s148.667 -25 234 -25c87.333 0 160.666 18.667 219.999 56c58.667 36.667 88 88 88 154c0 131.333 -102 197 -306 197h-235v172h201c210 0 315 67 315 201c0 66.667 -26.333 116.334 -79 149.001
s-126.667 49 -222 49c-65.333 0 -133.666 -7.33301 -204.999 -22c-72 -14.667 -135.333 -31.667 -190 -51v182c108 52 250.667 78 428 78c147.333 0 265.666 -29.667 354.999 -89c89.333 -60 134 -142.333 134 -247c0 -68.667 -20 -131.167 -60 -187.5
s-100.667 -101.166 -182 -134.499c86.667 -20 153.167 -57.5 199.5 -112.5s69.5 -122.5 69.5 -202.5c0 -112 -48.333 -203.333 -145 -274c-97.333 -71.333 -226.666 -107 -387.999 -107c-172.667 0 -321.334 32.667 -446.001 98z" />
    <glyph glyph-name="uni0418" unicode="&#x418;" horiz-adv-x="1449" 
d="M236 0h-80v1294h206v-893l852 893h80v-1294h-207v895z" />
    <glyph glyph-name="uni0419" unicode="&#x419;" horiz-adv-x="1449" 
d="M236 0h-80v1294h206v-893l852 893h80v-1294h-207v895zM391 1712l189 -0.000976562c4 -49.333 21.667 -88 53 -116s74.333 -42 129 -42s97.667 14 129 42s49 66.667 53 116h189c-6 -98 -43.667 -175.667 -113 -233c-70.667 -57.333 -156.667 -86 -258 -86
c-102 0 -187.667 28.667 -257 86c-70 56.667 -108 134.334 -114 233.001z" />
    <glyph glyph-name="uni041A" unicode="&#x41a;" horiz-adv-x="1218" 
d="M362 0h-206v1294h206v-559h125l476 559h243l-530 -620l596 -674h-281l-489 565h-140v-565z" />
    <glyph glyph-name="uni041B" unicode="&#x41b;" horiz-adv-x="1351" 
d="M0 -10l16.001 184c44.667 -6.66699 82 -5 112 5s57.667 32.333 83 67s45.166 85.167 59.499 151.5s25.333 152.333 33 258s11.5 235.167 11.5 388.5v250h881v-1294h-207v1102h-473v-150c0 -228 -12.5 -410.5 -37.5 -547.5s-63.167 -237.5 -114.5 -301.5
c-34 -43.333 -71.333 -74 -112 -92s-89.334 -27 -146.001 -27c-37.333 0 -72.666 2 -105.999 6z" />
    <glyph glyph-name="uni041C" unicode="&#x41c;" horiz-adv-x="1820" 
d="M322 0h-220l228 1294h61l520 -901l516 901h62l237 -1294h-219l-145 821l-451 -790l-467 790z" />
    <glyph glyph-name="uni041D" unicode="&#x41d;" horiz-adv-x="1409" 
d="M362 0h-206v1294h206v-546h685v546h206v-1294h-206v551h-685v-551z" />
    <glyph glyph-name="uni041E" unicode="&#x41e;" horiz-adv-x="1519" 
d="M82 641c2 201.333 65.3311 364.335 189.998 489.002s287.334 187 488.001 187s363.334 -62.333 488.001 -187s188 -288.334 190 -491.001c-2 -201.333 -65.333 -364.333 -190 -489s-287.334 -187 -488.001 -187c-199.333 0 -361.666 62.667 -486.999 188
s-189 288.666 -191 489.999zM430.998 991.002c-86.667 -88.667 -130 -205.331 -130 -349.998s43.333 -261.334 130 -350.001c86 -90 195.667 -135 329 -135c132.667 0 242.667 44.667 330 134c86 89.333 129 205.666 129 348.999c0 144 -43 261 -129 351
c-87.333 89.333 -197.333 134 -330 134c-133.333 0 -243 -44.333 -329 -133z" />
    <glyph glyph-name="uni041F" unicode="&#x41f;" horiz-adv-x="1388" 
d="M362 0h-206v1294h1077v-1294h-207v1102h-664v-1102z" />
    <glyph glyph-name="uni0420" unicode="&#x420;" horiz-adv-x="1193" 
d="M362 0l-206.001 0.000976562v1294h493c178.667 0 308.667 -44.333 390 -133c76 -82.667 114 -188.334 114 -317.001c0 -80.667 -14.167 -151.167 -42.5 -211.5s-67.166 -108 -116.499 -143s-103.5 -60.833 -162.5 -77.5s-122.5 -25 -190.5 -25
c-96.667 0 -189.667 10.333 -279 31v-418zM361.999 1102l0.000976562 -510.001c68 -14 146 -21 234 -21c104 0 186.333 22.333 247 67s91 115.334 91 212.001c0 29.333 -2.83301 56 -8.5 80s-15.5 46.833 -29.5 68.5s-32.333 40 -55 55s-51.834 26.833 -87.501 35.5
s-77.167 13 -124.5 13h-267z" />
    <glyph glyph-name="uni0421" unicode="&#x421;" horiz-adv-x="1222" 
d="M92 637c0 204.667 64.334 369.333 193.001 494c128.667 124 298 186 508 186c124.667 0 244 -24 358 -72v-186c-99.333 40.667 -214 61 -344 61c-150 0 -269.667 -42.667 -359 -128c-88.667 -84.667 -133 -203 -133 -355c4 -149.333 50.333 -266 139 -350
c88.667 -84.667 200 -127 334 -127c60.667 0 125 8 193 24c65.333 15.333 125.333 36 180 62v-197c-120 -57.333 -254.333 -86 -403 -86c-130 0 -245.333 29.333 -346 88c-102.667 59.333 -181.334 140 -236.001 242c-56 102 -84 216.667 -84 344z" />
    <glyph glyph-name="uni0422" unicode="&#x422;" horiz-adv-x="1046" 
d="M420 1108h-420v186h1047v-186h-420v-1108h-207v1108z" />
    <glyph glyph-name="uni0423" unicode="&#x423;" horiz-adv-x="1144" 
d="M514 293l-533.998 1001h241l402 -796l352 796h219l-457 -972c-59.333 -130.667 -128 -221.667 -206 -273c-69.333 -46 -148 -69 -236 -69c-40.667 0 -84.334 4.66699 -131.001 14v186c37.333 -6.66699 62 -10 74 -10h8h17h18h11l28 2c13.333 1.33301 33.666 6 60.999 14
c46 16 90.333 51.667 133 107z" />
    <glyph glyph-name="uni0424" unicode="&#x424;" horiz-adv-x="1675" 
d="M61 662c0 163.333 61.333 297 184 401c122 104 285.333 156 490 156v120h205v-120c204 0 367.667 -52 491 -156c122 -104 183 -237.667 183 -401c0 -79.333 -15.5 -153.833 -46.5 -223.5s-75.167 -130.167 -132.5 -181.5c-58 -52 -129.833 -92.5 -215.5 -121.5
s-178.834 -43.5 -279.501 -43.5v-143h-205v143c-100.667 0 -193.667 14.5 -279 43.5s-157 69.5 -215 121.5c-57.333 51.333 -101.666 111.833 -132.999 181.5s-47 144.167 -47 223.5zM270 655c0 -114 41.001 -205 123.001 -273c81.333 -68.667 195.333 -104 342 -106v758
c-152.667 0 -268.334 -33.167 -347.001 -99.5s-118 -159.5 -118 -279.5zM940.001 1034l0.000976562 -758c146.667 2 260.667 37.333 342 106c82 68 123 159 123 273c0 120 -39.333 213.167 -118 279.5s-194.334 99.5 -347.001 99.5z" />
    <glyph glyph-name="uni0425" unicode="&#x425;" horiz-adv-x="1228" 
d="M225 0h-245l505 688l-428 606h248l303 -458l326 458h246l-443 -596l512 -698h-248l-393 553z" />
    <glyph glyph-name="uni0426" unicode="&#x426;" horiz-adv-x="1470" 
d="M1227 0h-1071v1294h206v-1101h664v1101h207v-1101h186v-435h-192v242z" />
    <glyph glyph-name="uni0427" unicode="&#x427;" horiz-adv-x="1247" 
d="M61 881v412.999h207v-379c0 -124.667 27.333 -209 82 -253c50 -40 126.667 -60 230 -60c52 0 105.667 6.33301 161 19c56.667 12.667 104.667 29.667 144 51v622h207v-1294h-207v485c-50 -28 -109.333 -49 -178 -63s-135 -21 -199 -21
c-153.333 -2 -271.333 47.333 -354 148c-62 78.667 -93 189.334 -93 332.001z" />
    <glyph glyph-name="uni0428" unicode="&#x428;" horiz-adv-x="2054" 
d="M1898 0h-1742v1294h206v-1101h562v1101h206v-1101h562v1101h206v-1294z" />
    <glyph glyph-name="uni0429" unicode="&#x429;" horiz-adv-x="2136" 
d="M1892 0h-1736v1294h206v-1101h562v1101h206v-1101h562v1101h206v-1101h187v-435h-193v242z" />
    <glyph glyph-name="uni042A" unicode="&#x42a;" horiz-adv-x="1421" 
d="M358 1108h-319.002v186h526v-471c99.333 15.333 183.333 23 252 23c164 0 296.333 -31 397 -93c108 -68 162 -178.333 162 -331c0 -118.667 -39.667 -217.667 -119 -297c-39.333 -39.333 -89.666 -70 -150.999 -92s-129.666 -33 -204.999 -33h-543v1108zM564.998 637
v-451h283c97.333 0 172.5 20.333 225.5 61s79.5 99.667 79.5 177c0 160 -113.333 240 -340 240c-79.333 0 -162 -9 -248 -27z" />
    <glyph glyph-name="uni042B" unicode="&#x42b;" horiz-adv-x="1673" 
d="M682 0h-526.002v1294h206v-471c99.333 15.333 178 23 236 23c164 0 296.333 -31 397 -93c108 -68 162 -178.333 162 -331c0 -118.667 -39.667 -217.667 -119 -297c-39.333 -39.333 -89.666 -70 -150.999 -92s-129.666 -33 -204.999 -33zM361.998 637v-451h267
c97.333 0 172.5 20.333 225.5 61s79.5 99.667 79.5 177c0 160 -113.333 240 -340 240c-68.667 0 -146 -9 -232 -27zM1518 0h-207v1294h207v-1294z" />
    <glyph glyph-name="uni042C" unicode="&#x42c;" horiz-adv-x="1239" 
d="M698 0h-542.001v1294h206v-471c99.333 15.333 183.333 23 252 23c164.667 0 297.334 -31 398.001 -93c108 -68 162 -178.333 162 -331c0 -118.667 -39.667 -217.667 -119 -297c-39.333 -39.333 -89.833 -70 -151.5 -92s-130.167 -33 -205.5 -33zM361.999 637v-451h283
c97.333 0 172.5 20.333 225.5 61s79.5 99.667 79.5 177c0 160 -113.333 240 -340 240c-79.333 0 -162 -9 -248 -27z" />
    <glyph glyph-name="uni042D" unicode="&#x42d;" horiz-adv-x="1175" 
d="M72 25l-0.000976562 182c102 -35.333 215.333 -53 340 -53c286 0 441 132.333 465 397h-652v197h658c-25.333 167.333 -101.333 278 -228 332c-70.667 30.667 -158.667 46 -264 46c-115.333 0 -220.333 -19 -315 -57v184c106 42.667 220 64 342 64
c134.667 -0.666992 250.334 -24.667 347.001 -72s171.667 -113 225 -197c69.333 -107.333 104 -234 104 -380c0 -106 -13.167 -201.833 -39.5 -287.5s-65.666 -159.667 -117.999 -222s-120 -110.5 -203 -144.5s-178.833 -51 -287.5 -51
c-134.667 0 -259.334 20.667 -374.001 62z" />
    <glyph glyph-name="uni042E" unicode="&#x42e;" horiz-adv-x="1943" 
d="M362 0l-205.997 0.000976562v1294h206v-546h246c23.333 172 91.666 309.667 204.999 413c114 104 253.333 156 418 156c181.333 0 331.666 -62.667 450.999 -188c118 -124.667 178 -287.334 180 -488.001c-2 -199.333 -62 -362 -180 -488
c-118.667 -126.667 -269 -190 -451 -190c-168.667 0 -310.334 54 -425.001 162c-116 108 -183.333 250 -202 426h-242v-551zM931.003 990.001c-78.667 -89.333 -118 -206.335 -118 -351.002c0 -144 39.333 -260.333 118 -349c79.333 -89.333 179.333 -134 300 -134
s220.667 45 300 135c78.667 88.667 118 205.334 118 350.001s-39.333 261.334 -118 350.001s-178.667 133 -300 133c-120.667 0 -220.667 -44.667 -300 -134z" />
    <glyph glyph-name="uni042F" unicode="&#x42f;" horiz-adv-x="1343" 
d="M92 877c0 138 43.001 242 129.001 312s211.667 105 377 105h557v-1294h-207v446c-82.667 -17.333 -169.334 -26 -260.001 -26c-26.667 0 -50 0.666992 -70 2l-251 -422h-252l284 463c-96.667 33.333 -172 84.833 -226 154.5s-81 156.167 -81 259.5zM313.001 858
c1.33301 -173.333 131 -260 389 -260c91.333 0 173.333 7.66699 246 23v487h-348c-92 0 -162.833 -21.333 -212.5 -64s-74.5 -104.667 -74.5 -186z" />
    <glyph glyph-name="uni0430" unicode="&#x430;" horiz-adv-x="1148" 
d="M78 309c0 123.333 42.668 212.669 128.001 268.002c78 50.667 176 76 294 76c38.667 0 87.334 -5.66699 146.001 -17c52 -10 104.333 -25.333 157 -46v92c0 128 -97.667 192 -293 192c-128 0 -236 -21.667 -324 -65v184c120 41.333 235.333 62 346 62
c111.333 0 204 -15.667 278 -47c42 -18.667 77.667 -42.667 107 -72c63.333 -66.667 95 -163.667 95 -291v-645h-142l-24 160c-50.667 -64.667 -108.334 -111.334 -173.001 -140.001s-139.334 -43 -224.001 -43c-94 0 -178 27.333 -252 82
c-36.667 27.333 -65.667 62.666 -87 105.999s-32 91.333 -32 144zM297.001 332.003c0 -127.333 71.667 -190.999 215 -190.999c56 0 110.333 17.333 163 52c52 33.333 94.667 79.666 128 138.999v84c-83.333 52 -176.333 78 -279 78c-151.333 0 -227 -54 -227 -162z" />
    <glyph glyph-name="uni0431" unicode="&#x431;" horiz-adv-x="1234" 
d="M84 551c0 132.667 16.999 245.331 50.999 337.998c32.667 90.667 89 170 169 238c78 66 176.667 120.667 296 164c121.333 42.667 271.666 79.334 450.999 110.001v-199c-46 -10.667 -110.333 -24 -193 -40l-97 -22c-70.667 -16 -133.334 -35.667 -188.001 -59
c-61.333 -25.333 -114.333 -57.666 -159 -96.999c-23.333 -20 -44 -43 -62 -69c-37.333 -56.667 -61.666 -120.667 -72.999 -192c108.667 124 257.334 186 446.001 186c124.667 0 227.667 -40 309 -120c80.667 -80.667 121 -186 121 -316c0 -93.333 -21 -178.5 -63 -255.5
s-101.667 -138.167 -179 -183.5c-79.333 -46 -168.666 -69 -267.999 -69c-121.333 0 -225 24.833 -311 74.5s-149.333 118.834 -190 207.501c-40 87.333 -60 188.666 -60 303.999zM282.999 515.997c7.33301 -105.333 35.999 -191.001 85.999 -257.001
c54.667 -72.667 139.334 -109 254.001 -109c104.667 0 185 29.667 241 89c56 58.667 84 134 84 226c0 86.667 -24.667 151.667 -74 195s-120 65 -212 65c-68 0 -137.333 -18.333 -208 -55c-71.333 -37.333 -128.333 -88.666 -171 -153.999z" />
    <glyph glyph-name="uni0432" unicode="&#x432;" horiz-adv-x="1138" 
d="M137 -4l0.00195312 1026c116 8 273 12 471 12c97.333 0 176 -9 236 -27c35.333 -10.667 65.333 -25.334 90 -44.001c53.333 -40 80 -99 80 -177c0 -111.333 -55.333 -196 -166 -254c139.333 -43.333 209 -128.666 209 -255.999c0 -42 -8.33301 -80 -25 -114
s-42.834 -64.5 -78.501 -91.5s-84.834 -47.833 -147.501 -62.5s-136.667 -22 -222 -22c-198.667 0 -347.667 3.33301 -447 10zM348.002 444v-284h281c69.333 0 121.833 12.5 157.5 37.5s53.5 60.833 53.5 107.5c0 92.667 -71.667 139 -215 139h-277zM348.002 874
l-0.000976562 -278h254c64.667 0 114.334 13 149.001 39s52 61.333 52 106c0 45.333 -16.5 78.833 -49.5 100.5s-88.167 32.5 -165.5 32.5h-240z" />
    <glyph glyph-name="uni0433" unicode="&#x433;" horiz-adv-x="870" 
d="M350 0h-213v1020h701v-174h-488v-846z" />
    <glyph glyph-name="uni0434" unicode="&#x434;" horiz-adv-x="1331" 
d="M66 -242l0.000976562 418h120c45.333 94.667 77.166 206.5 95.499 335.5s27.5 281.5 27.5 457.5v51h781v-844h159v-418h-180v242h-823v-242h-180zM383.001 176h504v670h-385v-66c0 -236.667 -39.667 -438 -119 -604z" />
    <glyph glyph-name="uni0435" unicode="&#x435;" horiz-adv-x="1189" 
d="M78 514c0 82.667 14.332 158.834 42.999 228.501s68.334 127.167 119.001 172.5c104 93.333 226 140 366 140c82.667 0 156.167 -12.833 220.5 -38.5s115.833 -61.834 154.5 -108.501c75.333 -91.333 113 -206.333 113 -345c0 -36.667 -3 -85.667 -9 -147h-786
c15.333 -101.333 63 -173.666 143 -216.999c71.333 -38.667 153.333 -58 246 -58c120 0 228 21.333 324 64v-174c-45.333 -22 -100 -38.333 -164 -49c-69.333 -11.333 -135 -17 -197 -17c-95.333 0 -180.5 14 -255.5 42s-135.5 67.667 -181.5 119
c-90.667 99.333 -136 228.666 -136 387.999zM294.999 578h590c0 94.667 -26 168.667 -78 222c-52 52.667 -119 79 -201 79c-92 0 -165.5 -26.667 -220.5 -80s-85.167 -127 -90.5 -221z" />
    <glyph glyph-name="uni0436" unicode="&#x436;" horiz-adv-x="1730" 
d="M299 0h-268l403 524l-348 496h244l272 -420h176v420h195v-420h174l39 60l47 72l52.5 80.5l50.5 76.5c40 60 68.333 103.667 85 131h246l-350 -496l403 -524h-268l-301 422h-178v-422h-195v422h-178z" />
    <glyph glyph-name="uni0437" unicode="&#x437;" horiz-adv-x="1003" 
d="M113 14v189.001c103.333 -38.667 211 -58 323 -58c187.333 0 281 50 281 150c0 96.667 -74.333 145 -223 145h-254v148h252c128 0 192 48.333 192 145c0 94 -84 141 -252 141c-78.667 0 -182.334 -15 -311.001 -45v181c42 14 103 25 183 33s150 12 210 12
c121.333 0 215.833 -22.833 283.5 -68.5s101.5 -111.834 101.5 -198.501c0 -57.333 -15.167 -108.5 -45.5 -153.5s-75.166 -80.5 -134.499 -106.5c65.333 -15.333 116.166 -46.333 152.499 -93s54.5 -102.334 54.5 -167.001c0 -107.333 -43 -185.666 -129 -234.999
c-78 -45.333 -176.333 -68 -295 -68c-68.667 0 -140 4 -214 12c-75.333 8 -133.666 20.333 -174.999 37z" />
    <glyph glyph-name="uni0438" unicode="&#x438;" horiz-adv-x="1222" 
d="M213 0h-76v1020h213v-651l660 651h75v-1020h-213v651z" />
    <glyph glyph-name="uni0439" unicode="&#x439;" horiz-adv-x="1222" 
d="M213 0h-76v1020h213v-651l660 651h75v-1020h-213v651zM295 1444h190c2 -101.333 58.667 -152 170 -152s168 50.667 170 152h191c-6.66699 -95.333 -43.667 -171.666 -111 -228.999c-66.667 -56.667 -150 -85 -250 -85c-99.333 0 -182.333 28.333 -249 85
c-67.333 57.333 -104.333 133.666 -111 228.999z" />
    <glyph glyph-name="uni043A" unicode="&#x43a;" horiz-adv-x="1116" 
d="M350 0h-213v1020h213v-420h164l307 420h254l-379 -490l416 -530h-266l-322 422h-174v-422z" />
    <glyph glyph-name="uni043B" unicode="&#x43b;" horiz-adv-x="1206" 
d="M31 -4l16 174c16 -4 31 -6 45 -6c47.333 0 84.166 17.333 110.499 52s46.5 95 60.5 181c12 72.667 21 193 27 361c2.66699 92 4.33398 179.333 5.00098 262h774v-1020h-203v846h-391c0 -340 -26.667 -573.667 -80 -701c-31.333 -74.667 -82.333 -122 -153 -142
c-28.667 -8.66699 -65 -13 -109 -13c-32.667 0 -66.667 2 -102 6z" />
    <glyph glyph-name="uni043C" unicode="&#x43c;" horiz-adv-x="1593" 
d="M283 0h-211l202 1022h74l449 -692l448 692h72l205 -1022h-211l-113 616l-401 -602l-414 602z" />
    <glyph glyph-name="uni043D" unicode="&#x43d;" horiz-adv-x="1206" 
d="M350 0h-213v1020h213v-424h506v424h213v-1020h-213v424h-506v-424z" />
    <glyph glyph-name="uni043E" unicode="&#x43e;" horiz-adv-x="1241" 
d="M78 504c0 161.333 48.998 293.332 146.998 395.999c98 103.333 230 155 396 155c86.667 -0.666992 165.334 -15.5 236.001 -44.5s128.334 -68.833 173.001 -119.5c88.667 -102 133 -227 133 -375c0 -160.667 -48.667 -292.667 -146 -396
c-98 -103.333 -230 -155 -396 -155c-86.667 0.666992 -165.5 15.5 -236.5 44.5s-128.833 69.167 -173.5 120.5c-88.667 100.667 -133 225.334 -133 374.001zM296.998 519.999c0 -100.667 25.333 -187.332 76 -259.999c54.667 -79.333 137.334 -119 248.001 -119
c47.333 0 89.833 7.16699 127.5 21.5s68.5 33.166 92.5 56.499s44 51 60 83s27.167 64.333 33.5 97s9.5 66.334 9.5 101.001c0 49.333 -6.33301 96 -19 140s-31.5 84.167 -56.5 120.5s-58.833 65.166 -101.5 86.499s-91.334 32 -146.001 32c-57.333 0 -108 -10.5 -152 -31.5
s-78.333 -49.833 -103 -86.5c-46 -68.667 -69 -149 -69 -241z" />
    <glyph glyph-name="uni043F" unicode="&#x43f;" horiz-adv-x="1198" 
d="M350 0h-213v1020h924v-1020h-213v846h-498v-846z" />
    <glyph glyph-name="uni0440" unicode="&#x440;" horiz-adv-x="1261" 
d="M348 -389l-211.002 0.000976562v1409h166v-180c101.333 143.333 245.333 215 432 215c75.333 0 143 -13.333 203 -40s108.667 -64 146 -112c74.667 -96.667 112 -220.334 112 -371.001c0 -156.667 -42 -289 -126 -397c-41.333 -52.667 -93.666 -94.167 -156.999 -124.5
s-132.666 -45.5 -207.999 -45.5c-138.667 0 -257.667 39.667 -357 119v-473zM345.998 682.001l0.000976562 -416.001c87.333 -73.333 194 -110 320 -110c53.333 0.666992 100.333 10.834 141 30.501s73.167 46.667 97.5 81s42.5 73 54.5 116s18 89.833 18 140.5
c0 106.667 -26.167 189.667 -78.5 249s-129.833 89 -232.5 89c-60.667 0 -120.334 -15.667 -179.001 -47c-57.333 -30.667 -104.333 -75 -141 -133z" />
    <glyph glyph-name="uni0441" unicode="&#x441;" horiz-adv-x="983" 
d="M78 504c0 166.667 49.666 300.334 148.999 401.001c99.333 100 233.333 150 402 150c103.333 0 193.333 -15 270 -45v-176c-78 26.667 -160 40 -246 40c-116.667 0 -205.167 -30.5 -265.5 -91.5s-90.5 -151.167 -90.5 -270.5c0 -117.333 32 -207.333 96 -270
c64.667 -63.333 149.334 -95 254.001 -95c98.667 0 186.667 17.333 264 52v-179c-85.333 -36.667 -183 -55 -293 -55c-101.333 -2 -193 18.667 -275 62s-146.833 106.666 -194.5 189.999s-71.167 179 -70.5 287z" />
    <glyph glyph-name="uni0442" unicode="&#x442;" horiz-adv-x="974" 
d="M381 846h-330v174h873v-174h-330v-846h-213v846z" />
    <glyph glyph-name="uni0443" unicode="&#x443;" horiz-adv-x="1028" 
d="M442 111l-424 909h238l287 -692l282 692h213l-632 -1409h-220z" />
    <glyph glyph-name="uni0444" unicode="&#x444;" horiz-adv-x="1533" 
d="M72 512c0 150 52.667 274.667 158 374c104.667 98.667 250.667 155 438 169v331h198v-331c187.333 -14 333.333 -70.333 438 -169c105.333 -99.333 158 -224 158 -374s-52 -276.333 -156 -379c-50.667 -50.667 -114 -90.667 -190 -120s-159.333 -45.333 -250 -48v-354
h-198v354c-90.667 2.66699 -174 18.667 -250 48s-139.333 69.333 -190 120c-104 102.667 -156 229 -156 379zM279 512c0 -104.667 34.334 -191.333 103.001 -260c67.333 -68 162.666 -105.667 285.999 -113v740c-124 -6 -219.667 -42.667 -287 -110
c-68 -67.333 -102 -153 -102 -257zM866.001 879.001l-0.000976562 -740.001c122.667 7.33301 218.334 45 287.001 113c68 68.667 102 155.334 102 260.001c0 104 -33.667 189.667 -101 257c-68.667 67.333 -164.667 104 -288 110z" />
    <glyph glyph-name="uni0445" unicode="&#x445;" horiz-adv-x="1040" 
d="M406 510l-386 510h244l260 -377l258 377h232l-373 -504l379 -516h-232l-262 367l-250 -367h-245z" />
    <glyph glyph-name="uni0446" unicode="&#x446;" horiz-adv-x="1280" 
d="M1008 0h-871v1020h213v-846h498v846h213v-846h133v-416h-186v242z" />
    <glyph glyph-name="uni0447" unicode="&#x447;" horiz-adv-x="1097" 
d="M82 637v383h213v-305c0 -90 16.333 -150.333 49 -181c33.333 -31.333 87.333 -47 162 -47c80 0 160.667 22 242 66v467h213v-1020h-213v389c-90.667 -52 -198 -78 -322 -78c-96 0 -177.333 27.667 -244 83c-66.667 54.667 -100 135.667 -100 243z" />
    <glyph glyph-name="uni0448" unicode="&#x448;" horiz-adv-x="1744" 
d="M1608 0h-1471v1020h213v-846h416v846h213v-846h416v846h213v-1020z" />
    <glyph glyph-name="uni0449" unicode="&#x449;" horiz-adv-x="1857" 
d="M1554 0h-1417v1020h213v-846h416v846h213v-846h416v846h213v-846h133v-416h-187v242z" />
    <glyph glyph-name="uni044A" unicode="&#x44a;" horiz-adv-x="1257" 
d="M328 846h-314v174h527v-367c73.333 16.667 151 25 233 25c132 0 236 -30 312 -90s114 -143.333 114 -250c0 -102.667 -33 -184.667 -99 -246c-67.333 -61.333 -158 -92 -272 -92h-501v846zM541 494l-0.00195312 -332.002h252c126.667 0 190 60 190 180
c0 34.667 -6 63.834 -18 87.501s-29.167 41.834 -51.5 54.501s-46.166 21.5 -71.499 26.5s-54.666 7.5 -87.999 7.5c-74.667 0 -145.667 -8 -213 -24z" />
    <glyph glyph-name="uni044B" unicode="&#x44b;" horiz-adv-x="1466" 
d="M625 0h-488v1020h213v-367c73.333 16.667 146.333 25 219 25c132 0 236 -30 312 -90s114 -143.333 114 -250c0 -102.667 -33 -184.667 -99 -246c-66.667 -61.333 -157 -92 -271 -92zM350 494l-0.00195312 -332.002h238c126.667 0 190 60 190 180
c0 34.667 -6 63.834 -18 87.501s-29.167 41.834 -51.5 54.501s-46.166 21.5 -71.499 26.5s-54.666 7.5 -87.999 7.5c-66 0 -132.333 -8 -199 -24zM1329 -0.00195312h-213v1020h213v-1020z" />
    <glyph glyph-name="uni044C" unicode="&#x44c;" horiz-adv-x="1054" 
d="M639 0h-502v1020h213v-367c73.333 16.667 151.333 25 234 25c132 0 236 -30 312 -90s114 -143.333 114 -250c0 -102.667 -33 -184.667 -99 -246c-67.333 -61.333 -158 -92 -272 -92zM350 494v-332h252c127.333 0 191 60 191 180c0 117.333 -76.667 176 -230 176
c-75.333 0 -146.333 -8 -213 -24z" />
    <glyph glyph-name="uni044D" unicode="&#x44d;" horiz-adv-x="1017" 
d="M88 27v171.999c81.333 -34.667 167.333 -52 258 -52c117.333 0 207.333 22.167 270 66.5s101.667 114.5 117 210.5h-471v172h473c-25.333 185.333 -147.333 278 -366 278c-100 0 -189 -12.667 -267 -38v168c80.667 34 174.334 51 281.001 51c162 0 294 -44 396 -132
c51.333 -44.667 91 -102 119 -172s42 -149 42 -237c0 -89.333 -14.167 -169.666 -42.5 -240.999s-67.833 -129.333 -118.5 -174c-102.667 -89.333 -231.334 -134 -386.001 -134c-119.333 0 -221 20.667 -305 62z" />
    <glyph glyph-name="uni044E" unicode="&#x44e;" horiz-adv-x="1691" 
d="M350 0l-212.998 0.000976562v1020h213v-424h213c18 135.333 73.667 245.666 167 330.999s211.666 128 354.999 128c83.333 0 159.333 -14.5 228 -43.5s125 -68.833 169 -119.5c88 -103.333 132 -228.666 132 -375.999c0 -104.667 -21.167 -198.5 -63.5 -281.5
s-103.833 -148.5 -184.5 -196.5c-80.667 -48.667 -174.334 -73 -281.001 -73c-75.333 0 -145 12 -209 36s-117.667 57.667 -161 101c-86.667 85.333 -138 192.666 -154 321.999h-211v-424zM774.002 518.001c0 -100 24.0039 -186.001 72.0039 -258.001
c24.667 -37.333 57.5 -66.5 98.5 -87.5s87.833 -31.5 140.5 -31.5c45.333 0 86.166 7.16699 122.499 21.5s66.166 33.333 89.499 57s42.666 51.334 57.999 83.001s26.166 64 32.499 97s9.5 67.167 9.5 102.5c0 48.667 -6 94.834 -18 138.501s-30.167 83.667 -54.5 120
s-57 65.166 -98 86.499s-88.167 32 -141.5 32c-55.333 0 -104 -10.5 -146 -31.5s-74.667 -49.833 -98 -86.5c-44.667 -70 -67 -151 -67 -243z" />
    <glyph glyph-name="uni044F" unicode="&#x44f;" horiz-adv-x="1136" 
d="M82 659c0 110.667 33.667 198.667 101 264c66.667 64.667 163.334 97 290.001 97h526v-1020h-213v317c-64.667 -14.667 -144.334 -22 -239.001 -22h-31l-162 -295h-250l203 336c-138.667 56 -213.667 163.667 -225 323zM301 655c0 -70 26.5 -122.667 79.5 -158
s126.833 -53 221.5 -53c50.667 0 112 7 184 21v395h-247c-72.667 0 -130.5 -18 -173.5 -54s-64.5 -86.333 -64.5 -151z" />
    <glyph glyph-name="uni0451" unicode="&#x451;" horiz-adv-x="1189" 
d="M78 483c0 82.667 14.332 158.834 42.999 228.501s68.334 127.167 119.001 172.5c104 93.333 226 140 366 140c82.667 0 156.167 -12.833 220.5 -38.5s115.833 -61.834 154.5 -108.501c75.333 -91.333 113 -206.333 113 -345c0 -37.333 -3 -86.333 -9 -147h-786
c15.333 -101.333 63 -173.666 143 -216.999c70 -38 152 -57 246 -57c121.333 0 229.333 21 324 63v-174c-45.333 -22 -100 -38.333 -164 -49c-69.333 -11.333 -135 -17 -197 -17c-95.333 0 -180.5 14 -255.5 42s-135.5 67.667 -181.5 119
c-90.667 99.333 -136 228.666 -136 387.999zM284.999 1290c0 -37.333 10.667 -66.5 32 -87.5s48.666 -31.5 81.999 -31.5c32.667 0 59.334 10.5 80.001 31.5s31 50.167 31 87.5c0 38.667 -10.333 68.834 -31 90.501s-47.334 32.5 -80.001 32.5
c-33.333 0 -60.666 -10.833 -81.999 -32.5s-32 -51.834 -32 -90.501zM294.999 547h590c0 95.333 -26 169.333 -78 222s-119 79 -201 79c-92 0 -165.5 -26.667 -220.5 -80s-85.167 -127 -90.5 -221zM783.999 1290c0 -36.667 10.667 -65.666 32 -86.999s48.333 -32 81 -32
c32 0 58.5 10.667 79.5 32s31.5 50.333 31.5 87c0 38 -10.5 68 -31.5 90s-47.5 33 -79.5 33c-33.333 0 -60.5 -10.833 -81.5 -32.5s-31.5 -51.834 -31.5 -90.501z" />
    <glyph glyph-name="uni0E3F" unicode="&#xe3f;" horiz-adv-x="0" 
 />
    <glyph glyph-name="uni2000" unicode="&#x2000;" horiz-adv-x="856" 
 />
    <glyph glyph-name="uni2001" unicode="&#x2001;" horiz-adv-x="1712" 
 />
    <glyph glyph-name="uni2002" unicode="&#x2002;" horiz-adv-x="856" 
 />
    <glyph glyph-name="uni2003" unicode="&#x2003;" horiz-adv-x="1712" 
 />
    <glyph glyph-name="uni2004" unicode="&#x2004;" horiz-adv-x="570" 
 />
    <glyph glyph-name="uni2005" unicode="&#x2005;" horiz-adv-x="428" 
 />
    <glyph glyph-name="uni2006" unicode="&#x2006;" horiz-adv-x="285" 
 />
    <glyph glyph-name="uni2007" unicode="&#x2007;" horiz-adv-x="285" 
 />
    <glyph glyph-name="uni2008" unicode="&#x2008;" horiz-adv-x="214" 
 />
    <glyph glyph-name="uni2009" unicode="&#x2009;" horiz-adv-x="342" 
 />
    <glyph glyph-name="uni200A" unicode="&#x200a;" horiz-adv-x="95" 
 />
    <glyph glyph-name="uni2010" unicode="&#x2010;" horiz-adv-x="792" 
d="M711 416h-615v188h615v-188z" />
    <glyph glyph-name="uni2011" unicode="&#x2011;" horiz-adv-x="792" 
d="M711 416h-615v188h615v-188z" />
    <glyph glyph-name="figuredash" unicode="&#x2012;" horiz-adv-x="792" 
d="M711 416h-615v188h615v-188z" />
    <glyph glyph-name="endash" unicode="&#x2013;" horiz-adv-x="1548" 
d="M1352 420h-1155v180h1155v-180z" />
    <glyph glyph-name="emdash" unicode="&#x2014;" horiz-adv-x="1855" 
d="M1659 420h-1462v180h1462v-180z" />
    <glyph glyph-name="bullet" unicode="&#x2022;" horiz-adv-x="790" 
d="M123 797c0 78 26.667 145.332 80 201.999c52.667 56 116.667 84 192 84s139.333 -28 192 -84c52.667 -56.667 79 -124 79 -202c0 -77.333 -26.333 -143.666 -79 -198.999c-52.667 -56 -116.667 -84 -192 -84s-139.333 28 -192 84c-53.333 56.667 -80 123 -80 199z" />
    <glyph glyph-name="ellipsis" unicode="&#x2026;" horiz-adv-x="1280" 
d="M66 115c0 48.667 13.6689 86.667 41.002 114s62.666 41 105.999 41c42 0 76.333 -13.667 103 -41s40 -65.333 40 -114c0 -47.333 -13.333 -84.5 -40 -111.5s-61 -40.5 -103 -40.5c-42.667 0 -77.834 13.5 -105.501 40.5s-41.5 64.167 -41.5 111.5zM502.002 115
c0 48.667 13.6689 86.667 41.002 114s62.666 41 105.999 41c42 0 76.5 -13.667 103.5 -41s40.5 -65.333 40.5 -114c0 -47.333 -13.5 -84.5 -40.5 -111.5s-61.5 -40.5 -103.5 -40.5c-42.667 0 -77.834 13.5 -105.501 40.5s-41.5 64.167 -41.5 111.5zM938.004 115
c0 48.667 13.6689 86.667 41.002 114s62.666 41 105.999 41c42 0 76.5 -13.667 103.5 -41s40.5 -65.333 40.5 -114c0 -47.333 -13.5 -84.5 -40.5 -111.5s-61.5 -40.5 -103.5 -40.5c-42.667 0 -77.834 13.5 -105.501 40.5s-41.5 64.167 -41.5 111.5z" />
    <glyph glyph-name="uni202F" unicode="&#x202f;" horiz-adv-x="342" 
 />
    <glyph glyph-name="uni205F" unicode="&#x205f;" horiz-adv-x="428" 
 />
    <glyph glyph-name="uni20B4" unicode="&#x20b4;" horiz-adv-x="1421" 
d="M268 432l-137.002 0.00292969v133h297c18.667 12 54.334 33.667 107.001 65l112 68h-516v133h711c79.333 64 119 123 119 177c0 90 -90.333 135 -271 135c-150.667 0 -293.334 -22 -428.001 -66v180c151.333 40 314 60 488 60c128 0 231.333 -26.333 310 -79
s118 -121.334 118 -206.001c0 -62.667 -33 -129.667 -99 -201h162v-133h-326c-44.667 -29.333 -119 -73.666 -223 -132.999h549v-133h-747c-30.667 -26.667 -51.667 -50.334 -63 -71.001s-17 -42.667 -17 -66c0 -50.667 25 -89.334 75 -116.001s119 -40 207 -40
c122.667 0 283.334 21.333 482.001 64v-178c-157.333 -40 -341.666 -60 -552.999 -60c-130 0 -233.667 27.333 -311 82c-78 55.333 -117 126.333 -117 213c0 61.333 23.667 118.666 71 171.999z" />
    <glyph glyph-name="uni20BD" unicode="&#x20bd;" horiz-adv-x="1601" 
d="M436 215h-211.001v147h211v134h-211v166h211v632h492c174.667 0 302.334 -36.333 383.001 -109s121 -172.667 121 -300c0 -259.333 -168 -389 -504 -389h-289v-134h508v-147h-508v-215h-203v215zM638.999 1102l0.00488281 -440h252
c63.333 0 116.666 5.16699 159.999 15.5s76.666 25.833 99.999 46.5s39.666 43.667 48.999 69s14 56 14 92c0 36.667 -4.83301 67.5 -14.5 92.5s-25.834 47.167 -48.501 66.5c-46.667 38.667 -133.334 58 -260.001 58h-252z" />
    <glyph glyph-name="uni2116" unicode="&#x2116;" horiz-adv-x="2342" 
d="M346 0h-190v1294h67l828 -888v888h190v-1294h-74l-821 891v-891zM1554 679c-73.333 71.333 -109.998 159.666 -109.998 264.999c0 106 36.667 194.667 110 266s161.666 107 264.999 107c104 0 192.667 -35.667 266 -107s110 -160 110 -266
c0 -105.333 -36.667 -193.666 -110 -264.999c-72.667 -70.667 -161.334 -106 -266.001 -106c-104 0 -192.333 35.333 -265 106zM2101 205h-565v166h565v-166zM1604 944c0 -61.333 21 -113.667 63 -157c42 -42.667 92.667 -64 152 -64c60 0 111.333 21.333 154 64
c42 42.667 63 95 63 157c0 64 -21 117.667 -63 161c-42.667 42.667 -94 64 -154 64c-59.333 0 -110 -21.333 -152 -64c-42 -43.333 -63 -97 -63 -161z" />
    <glyph glyph-name="arrowleft" unicode="&#x2190;" horiz-adv-x="1492" 
d="M705 4l-650 641l652 643l118 -133l-446 -416h1100v-180h-1100l446 -422z" />
    <glyph glyph-name="arrowup" unicode="&#x2191;" horiz-adv-x="1353" 
d="M168 653l-133 121l641 649l643 -651l-133 -119l-416 445v-1098h-180v1098z" />
    <glyph glyph-name="arrowright" unicode="&#x2192;" horiz-adv-x="1492" 
d="M1112 559h-1098v180h1098l-444 416l118 133l652 -643l-650 -641l-120 133z" />
    <glyph glyph-name="arrowdown" unicode="&#x2193;" horiz-adv-x="1353" 
d="M678 0l-643 651l133 119l416 -446v1099h180v-1099l422 446l133 -121z" />
    <glyph glyph-name="infinity" unicode="&#x221e;" horiz-adv-x="1579" 
d="M82 629c0 144 51.999 251 155.999 321c53.333 36 116 54 188 54c138 0 256 -72.667 354 -218c68.667 76 132.167 131.667 190.5 167s117.833 53 178.5 53c98.667 0.666992 180 -35.166 244 -107.499s94.667 -155.5 92 -249.5c0 -122.667 -31.333 -217.334 -94 -284.001
c-63.333 -67.333 -142.666 -101 -237.999 -101c-66.667 0 -129.167 16 -187.5 48s-117.5 80.333 -177.5 145c-53.333 -61.333 -112.333 -109 -177 -143c-64.667 -34.667 -127.667 -52 -189 -52c-96 0 -176.667 32.667 -242 98s-98 155 -98 269zM237.999 631
c0 -64.667 18.667 -114.002 56 -148.002s87.333 -51 150 -51c85.333 0 176.333 56 273 168c-44 78.667 -88.833 135.834 -134.5 171.501s-95.167 53.5 -148.5 53.5c-56 0 -102.333 -17.333 -139 -52c-38 -35.333 -57 -82.666 -57 -141.999zM845.999 626.998
c52 -66 101 -112.667 147 -140s94 -41 144 -41c58 0 104.167 16 138.5 48s51.5 79 51.5 141c0 64 -18.167 112.667 -54.5 146s-85.833 50 -148.5 50c-58 0 -110.333 -21.333 -157 -64c-38 -34 -78.333 -80.667 -121 -140z" />
    <glyph glyph-name="approxequal" unicode="&#x2248;" horiz-adv-x="1259" 
d="M102 240l-105.998 110c61.333 61.333 119.666 106 174.999 134s112.333 42 171 42c44 0 89.667 -8.33301 137 -25c48.667 -17.333 90.334 -35.333 125.001 -54c33.333 -18.667 72.333 -37 117 -55c41.333 -16.667 79 -25 113 -25c74.667 0 149.667 36.667 225 110
l106 -110c-118.667 -113.333 -231.334 -170 -338.001 -170c-36 0 -76 8.33301 -120 25c-49.333 18 -91 36.333 -125 55c-36.667 18.667 -77.334 36.667 -122.001 54c-42 16.667 -78.667 25 -110 25c-82 0 -164.667 -38.667 -248 -116zM102.002 649l-105.998 111
c61.333 61.333 119.666 106 174.999 134s112.333 42 171 42c44 0 89.667 -8.33301 137 -25c50.667 -18 92.334 -36.333 125.001 -55c33.333 -18.667 72.333 -37 117 -55c41.333 -16.667 79 -25 113 -25c74 0 149 37 225 111l106 -111
c-118.667 -113.333 -231.334 -170 -338.001 -170c-36 0 -76 8.33301 -120 25c-49.333 18 -91 36.333 -125 55c-34.667 18 -75.334 36.333 -122.001 55c-42 16.667 -78.667 25 -110 25c-81.333 0 -164 -39 -248 -117z" />
    <glyph glyph-name="uni25FC" unicode="&#x25fc;" horiz-adv-x="1024" 
d="M1024 0h-1024v1024h1024v-1024z" />
    <glyph glyph-name=".null" horiz-adv-x="0" 
 />
    <glyph glyph-name="nonmarkingreturn" horiz-adv-x="682" 
 />
    <glyph glyph-name="null" horiz-adv-x="0" 
 />
    <glyph glyph-name="zero.alt" 
d="M79 300c-44.667 100 -67 213.667 -67 341s22.333 241 67 341c44.667 101.333 111.667 182.333 201 243c89.333 61.333 194 92 314 92s224.667 -30.667 314 -92c88.667 -62 155.667 -143.667 201 -245c44.667 -100 67 -213.667 67 -341c0 -126.667 -22.333 -240 -67 -340
c-45.333 -102 -112.333 -183.333 -201 -244c-89.333 -61.333 -194 -92 -314 -92s-224.667 31 -314 93c-88.667 60.667 -155.667 142 -201 244zM252 828c-13.333 -56 -20.001 -118.334 -20.001 -187.001s6.66699 -131 20 -187c30.667 -125.333 90 -211.666 178 -258.999
c46.667 -26 101.334 -39 164.001 -39c62 0 116.667 12.667 164 38c87.333 46.667 146.333 133 177 259c13.333 55.333 20 117.333 20 186s-6.66699 131 -20 187c-30.667 125.333 -89.667 212 -177 260c-47.333 25.333 -102 38 -164 38s-116.667 -12.667 -164 -38
c-88 -47.333 -147.333 -133.333 -178 -258z" />
    <glyph glyph-name="one.alt" 
d="M500 1096h-273l47 198h428v-1114h256v-180h-714v180h256v916z" />
    <glyph glyph-name="two.alt" 
d="M1034 0l-880.001 0.00292969v72l403 450c47.333 54 80 92 98 114c19.333 24 41.333 53.667 66 89c39.333 58 59 116 59 174c0 75.333 -21 132 -63 170s-102.667 57 -182 57c-50.667 0 -106.167 -9.33301 -166.5 -28s-117.5 -44 -171.5 -76v195
c110.667 66.667 234.667 100 372 100c56 0 108.833 -8 158.5 -24s94 -39.333 133 -70s69.833 -70.834 92.5 -120.501s34 -105.834 34 -168.501c0 -86.667 -21.333 -165 -64 -235c-25.333 -42.667 -51.666 -80.334 -78.999 -113.001l-119 -137l-227 -250h536v-199z" />
    <glyph glyph-name="three.alt" 
d="M723 1102l-566.998 -0.000976562l49 192h786v-137l-356 -371c64 -2.66699 122 -15.167 174 -37.5s94.333 -52.166 127 -89.499c64 -74 96 -160.667 96 -260c0 -130 -45.333 -235 -136 -315c-90.667 -80.667 -203 -121 -337 -121c-172.667 0 -300.334 29.333 -383.001 88
v201c131.333 -70 244.666 -105 339.999 -105c91.333 0 163.666 25.333 216.999 76c53.333 50 80 112.333 80 187c0 87.333 -30.333 149 -91 185c-53.333 32 -120.666 48 -201.999 48c-43.333 0 -91 -4.66699 -143 -14l-25 76z" />
    <glyph glyph-name="four.alt" 
d="M82 322l-45 131l725 841h184v-798h215l-63 -174h-152v-322h-201v322h-663zM745 1026l-454 -530h454v530z" />
    <glyph glyph-name="five.alt" 
d="M143 43v197c132.667 -62 244 -93 334 -93c104.667 0 188.667 24 252 72c62.667 46.667 94 115 94 205c0 73.333 -24.333 130.833 -73 172.5s-117.667 62.5 -207 62.5c-118 0 -221.333 -17.667 -310 -53l-43 45l72 643h721l-51 -192h-522l-33 -293
c67.333 22 137 33 209 33c45.333 0 89.166 -4.66699 131.499 -14s83.5 -25 123.5 -47s74.667 -49.333 104 -82s52.833 -74.167 70.5 -124.5s26.5 -106.5 26.5 -168.5c0 -133.333 -50.333 -240.333 -151 -321c-101.333 -81.333 -230.333 -122 -387 -122
c-141.333 0 -261.666 26.667 -360.999 80z" />
    <glyph glyph-name="six.alt" 
d="M98 575c0 212 54.002 387.666 162.002 526.999c52 68 117.5 120.833 196.5 158.5s165.833 56.5 260.5 56.5c114 0 216.333 -28 307 -84v-193c-91.333 57.333 -186.333 86 -285 86c-82 0 -154.5 -19.167 -217.5 -57.5s-110.833 -90.166 -143.5 -155.499
c-32 -62.667 -50.667 -135.667 -56 -219c81.333 91.333 200.666 137 357.999 137c125.333 0 230.666 -38.667 315.999 -116c84 -76.667 126 -176.334 126 -299.001c0 -131.333 -46 -239.666 -138 -324.999c-92.667 -85.333 -207.667 -128 -345 -128
c-170 0 -302.667 54 -398 162c-95.333 107.333 -143 257.333 -143 450zM313.002 458.999c12 -92.667 45.665 -167.667 100.998 -225c54.667 -58 124.334 -87 209.001 -87c81.333 0 148.333 25.333 201 76c52.667 50 79 113 79 189c0 72.667 -26.667 132.667 -80 180
c-53.333 46.667 -120 70 -200 70c-65.333 0 -128.666 -19.667 -189.999 -59c-60.667 -40 -100.667 -88 -120 -144z" />
    <glyph glyph-name="seven.alt" 
d="M754 1098h-617l47 196h867l-504 -1335l-193 76z" />
    <glyph glyph-name="eight.alt" 
d="M86 336c0 68 19.335 132.667 58.002 194c38 62 92.333 111.333 163 148c-96.667 68.667 -145 163.667 -145 285c0 108 40.333 194 121 258s189.667 96 327 96c116.667 0.666992 214.667 -32 294 -98c78.667 -66.667 118 -149.334 118 -248.001
c0 -63.333 -15.833 -122 -47.5 -176s-75.834 -95.667 -132.501 -125c84 -37.333 148 -81 192 -131c44 -51.333 66 -118.333 66 -201c0 -61.333 -13.833 -116.666 -41.5 -165.999s-66.167 -89 -115.5 -119c-96 -60 -212.333 -90 -349 -90
c-152.667 -0.666992 -275.334 34.333 -368.001 105c-93.333 70 -140 159.333 -140 268zM291.002 362c0 -73.333 29 -127.331 87 -161.998c58.667 -35.333 134 -53 226 -53c84.667 -0.666992 154.334 15.333 209.001 48s82 79 82 139c-2 37.333 -14.5 68.166 -37.5 92.499
s-58.167 46.833 -105.5 67.5c-18.667 8 -82.334 30.333 -191.001 67c-30 10 -64 22.333 -102 37c-54 -20.667 -95.5 -52.334 -124.5 -95.001s-43.5 -89.667 -43.5 -141zM362.002 963.002c0 -34 13.666 -67.3311 40.999 -99.998c16.667 -20 50.334 -43 101.001 -69
c16 -9.33301 36.333 -18 61 -26c28 -10.667 46.667 -17.334 56 -20.001c12.667 -4.66699 31 -10.334 55 -17.001c45.333 26 80.833 59.167 106.5 99.5s38.5 80.833 38.5 121.5c0 58.667 -20.5 104.5 -61.5 137.5s-97.5 49.5 -169.5 49.5c-152 0 -228 -58.667 -228 -176z" />
    <glyph glyph-name="nine.alt" 
d="M143 864c0 132.667 46.332 241.333 138.999 326c91.333 84.667 206.333 127 345 127c168.667 0 300.667 -54 396 -162c94.667 -108.667 142 -258.667 142 -450c0 -82 -8.66699 -160.167 -26 -234.5s-43.333 -142.333 -78 -204s-76.5 -115.167 -125.5 -160.5
s-106.667 -80.5 -173 -105.5s-138.166 -37.5 -215.499 -37.5c-114 0 -215.667 28 -305 84v193c89.333 -57.333 183.333 -86 282 -86c126.667 0 226.334 41 299.001 123c72.667 80.667 113.667 183.667 123 309c-42.667 -42.667 -95.834 -76.167 -159.501 -100.5
s-131.167 -36.5 -202.5 -36.5c-128 0 -233.333 38.333 -316 115c-83.333 76 -125 176 -125 300zM361.999 871.999c0 -77.333 25.668 -139 77.001 -185s118.666 -69 201.999 -69c67.333 0 131.333 20.333 192 61c60 39.333 99.667 87.333 119 144
c-12 92 -45.667 166.667 -101 224s-126 86 -212 86c-78 0 -143.667 -25 -197 -75s-80 -112 -80 -186z" />
    </font>
</defs>
</svg>
