<?xml version="1.0" standalone="no"?>
<!DOCTYPE svg PUBLIC "-//W3C//DTD SVG 1.1//EN" "http://www.w3.org/Graphics/SVG/1.1/DTD/svg11.dtd" >
<svg>
<metadata>
Created by FontForge 20090914 at Tue Aug 24 10:29:19 2021
 By www-data
Copyright (c) 2015 by Colophon Foundry. All rights reserved.
</metadata>
<defs>
<font id="BasisGrotesquePro-Regular" horiz-adv-x="610" >
  <font-face 
    font-family="Basis Grotesque Pro"
    font-weight="400"
    font-stretch="normal"
    units-per-em="1000"
    panose-1="2 0 5 3 3 0 0 2 0 4"
    ascent="800"
    descent="-200"
    x-height="496"
    cap-height="700"
    bbox="-50.999 -285 1107 934"
    underline-thickness="50"
    underline-position="-150"
    unicode-range="U+000D-U+FB04"
  />
<missing-glyph horiz-adv-x="500" 
 />
    <glyph glyph-name="ff" unicode="ff" horiz-adv-x="580" 
d="M179 434l0.00195312 -434h-78v434h-78v62h78v99c0 47.333 13.167 85 39.5 113s64.166 42 113.499 42c20 0 36 -2.33301 48 -7l-12 -66c-11.333 3.33301 -22.333 5 -33 5c-52 0 -78 -29.333 -78 -88v-98h186v99c0 47.333 13.167 85 39.5 113s64.166 42 113.499 42
c20 0 36 -2.33301 48 -7l-12 -66c-11.333 3.33301 -22.333 5 -33 5c-52 0 -78 -29.333 -78 -88v-98h114v-62h-114v-434h-78v434h-186z" />
    <glyph glyph-name="fi" unicode="fi" horiz-adv-x="532" 
d="M378 0l0.000976562 434h-199v-434h-78v434h-78v62h78v99c0 47.333 13.167 85 39.5 113s64.166 42 113.499 42c20 0 36 -2.33301 48 -7l-12 -66c-11.333 3.33301 -22.333 5 -33 5c-52 0 -78 -29.333 -78 -88v-98h277v-496h-78zM370.001 582v98h94v-98h-94z" />
    <glyph glyph-name="fl" unicode="fl" horiz-adv-x="532" 
d="M23 434l0.000976562 62h78v99c0 47.333 13.167 85 39.5 113s64.166 42 113.499 42c20 0 36 -2.33301 48 -7l-12 -66c-11.333 3.33301 -22.333 5 -33 5c-52 0 -78 -29.333 -78 -88v-98h114v-62h-114v-434h-78v434h-78zM378.001 0v700h78v-700h-78z" />
    <glyph glyph-name="f_f_i" unicode="ffi" horiz-adv-x="796" 
d="M642 0v434.001h-199v-434h-78v434h-186v-434h-78v434h-78v62h78v99c0 47.333 13.167 85 39.5 113s64.166 42 113.499 42c20 0 36 -2.33301 48 -7l-12 -66c-11.333 3.33301 -22.333 5 -33 5c-52 0 -78 -29.333 -78 -88v-98h186v95c0 49.333 13.833 88.166 41.5 116.499
s66.834 42.5 117.501 42.5c18 0 33 -2.33301 45 -7l-12 -66c-11.333 3.33301 -22.333 5 -33 5c-54 0 -81 -31 -81 -93v-93h277v-496h-78zM634 582.001v98h94v-98h-94z" />
    <glyph glyph-name="f_f_l" unicode="ffl" horiz-adv-x="796" 
d="M179 434l0.00195312 -434h-78v434h-78v62h78v99c0 47.333 13.167 85 39.5 113s64.166 42 113.499 42c20 0 36 -2.33301 48 -7l-12 -66c-11.333 3.33301 -22.333 5 -33 5c-52 0 -78 -29.333 -78 -88v-98h186v99c0 47.333 13.167 85 39.5 113s64.166 42 113.499 42
c20 0 36 -2.33301 48 -7l-12 -66c-11.333 3.33301 -22.333 5 -33 5c-52 0 -78 -29.333 -78 -88v-98h114v-62h-114v-434h-78v434h-186zM642.002 0v700h78v-700h-78z" />
    <glyph glyph-name="f_j" unicode="fj" horiz-adv-x="532" 
d="M273 -203l10.001 70c14 -5.33301 27 -8 39 -8c20.667 0 35.167 5.5 43.5 16.5s12.5 29.167 12.5 54.5v504h-199v-434h-78v434h-78v62h78v99c0 47.333 13.167 85 39.5 113s64.166 42 113.499 42c20 0 36 -2.33301 48 -7l-12 -66c-11.333 3.33301 -22.333 5 -33 5
c-52 0 -78 -29.333 -78 -88v-98h277v-554c0 -102 -45 -153 -135 -153c-12.667 0 -28.667 2.66699 -48 8zM370.001 582v98h94v-98h-94z" />
    <glyph glyph-name="f_f_j" unicode="ffj" horiz-adv-x="796" 
d="M537 -203l10.002 70c14 -5.33301 27 -8 39 -8c20.667 0 35.167 5.33301 43.5 16s12.5 28.667 12.5 54v505h-199v-434h-78v434h-186v-434h-78v434h-78v62h78v99c0 47.333 13.167 85 39.5 113s64.166 42 113.499 42c20 0 36 -2.33301 48 -7l-12 -66
c-11.333 3.33301 -22.333 5 -33 5c-52 0 -78 -29.333 -78 -88v-98h186v99c0 47.333 13.167 85 39.5 113s64.166 42 113.499 42c20 0 36 -2.33301 48 -7l-12 -66c-11.333 3.33301 -22.333 5 -33 5c-52 0 -78 -29.333 -78 -88v-98h277v-554c0 -102 -45 -153 -135 -153
c-12.667 0 -28.667 2.66699 -48 8zM634.002 582v98h94v-98h-94z" />
    <glyph glyph-name=".notdef" horiz-adv-x="500" 
 />
    <glyph glyph-name="NULL" horiz-adv-x="0" 
 />
    <glyph glyph-name="NULL" horiz-adv-x="0" 
 />
    <glyph glyph-name="CR" unicode="&#xd;" horiz-adv-x="289" 
 />
    <glyph glyph-name="space" unicode=" " horiz-adv-x="276" 
 />
    <glyph glyph-name="exclam" unicode="!" horiz-adv-x="268" 
d="M92 477v223h84v-223l-11 -289h-62zM88 0v100h92v-100h-92z" />
    <glyph glyph-name="quotedbl" unicode="&#x22;" horiz-adv-x="344" 
d="M62 644v56h80v-56l-13 -156h-54zM202 644v56h80v-56l-13 -156h-54z" />
    <glyph glyph-name="numbersign" unicode="#" horiz-adv-x="659" 
d="M553 700l-41 -222h98v-62h-109l-25 -132h114v-62h-125l-42 -222h-76l42 222h-159l-41 -222h-76l41 222h-100v62h111l25 132h-116v62h127l42 222h76l-42 -222h159l41 222h76zM266 416l-25 -132h159l25 132h-159z" />
    <glyph glyph-name="dollar" unicode="$" horiz-adv-x="655" 
d="M295 -100l0.000976562 88c-66.667 6 -121.167 29 -163.5 69s-68.5 88.667 -78.5 146l74 39c8 -52.667 26.667 -94 56 -124s66.666 -48.333 111.999 -55v268c-136.667 30 -205 96 -205 198c0 49.333 18.667 90.833 56 124.5s87 53.167 149 58.5v88h72v-89
c52 -6 96.833 -23.5 134.5 -52.5s64.167 -66.5 79.5 -112.5l-68 -40c-25.333 72.667 -74 117 -146 133v-246c76 -14 132.333 -36.833 169 -68.5s55 -74.834 55 -129.501c0 -54 -20.833 -100.667 -62.5 -140s-95.5 -61.666 -161.5 -66.999v-88h-72zM507.001 189
c0 34 -11.333 60.668 -34 80.001s-58 35 -106 47v-254c43.333 5.33301 77.5 19.666 102.5 42.999s37.5 51.333 37.5 84zM170.001 529.001c0 -54 41.667 -93.667 125 -119v230c-37.333 -4.66699 -67.5 -16.667 -90.5 -36s-34.5 -44.333 -34.5 -75z" />
    <glyph glyph-name="percent" unicode="%" horiz-adv-x="885" 
d="M251 0l-52 35l435 665l52 -35zM52 539c0 49.333 16 90.833 48 124.5s72.667 50.5 122 50.5s90 -16.833 122 -50.5s48 -75.167 48 -124.5s-16 -90.833 -48 -124.5s-72.667 -50.5 -122 -50.5s-90 16.833 -122 50.5s-48 75.167 -48 124.5zM118 539
c0 -34 9.33301 -61.333 28 -82s44 -31 76 -31s57.333 10.333 76 31s28 48 28 82s-9.33301 61.333 -28 82s-44 31 -76 31s-57.333 -10.333 -76 -31s-28 -48 -28 -82zM493 161c0 49.333 16 90.833 48 124.5s72.667 50.5 122 50.5s90 -16.833 122 -50.5s48 -75.167 48 -124.5
s-16 -90.833 -48 -124.5s-72.667 -50.5 -122 -50.5s-90 16.833 -122 50.5s-48 75.167 -48 124.5zM559 161c0 -34 9.33301 -61.333 28 -82s44 -31 76 -31s57.333 10.333 76 31s28 48 28 82s-9.33301 61.333 -28 82s-44 31 -76 31s-57.333 -10.333 -76 -31s-28 -48 -28 -82z
" />
    <glyph glyph-name="ampersand" unicode="&#x26;" horiz-adv-x="640" 
d="M598 0l-90 -0.000976562l-45 59c-48.667 -48.667 -109.334 -73 -182.001 -73c-64.667 0 -117.5 20 -158.5 60s-61.5 90 -61.5 150c0 87.333 45.667 158 137 212c-32.667 44.667 -49 93.667 -49 147c0 44.667 15.833 82.334 47.5 113.001s69.834 46 114.501 46
c47.333 0 85 -12.5 113 -37.5s42 -58.833 42 -101.5c0 -23.333 -4.16699 -44.333 -12.5 -63s-22 -35.834 -41 -51.501s-35 -27.667 -48 -36s-33.5 -19.833 -61.5 -34.5l161 -213c22 40.667 39 91.334 51 152.001l65 -36c-16.667 -70.667 -40 -129.667 -70 -177zM286 55.999
c50.667 0 95.333 20.001 134 60.001l-181 238c-31.333 -22 -55.5 -45.333 -72.5 -70s-25.5 -54.334 -25.5 -89.001c0 -42 14.333 -75.667 43 -101s62.667 -38 102 -38zM222.999 556c0 -40 13.333 -77.9971 40 -113.997c51.333 23.333 86 44.166 104 62.499
s27 40.166 27 65.499c0 23.333 -8.16699 42.166 -24.5 56.499s-35.833 21.5 -58.5 21.5c-26 0 -47.167 -8.66699 -63.5 -26s-24.5 -39.333 -24.5 -66z" />
    <glyph glyph-name="quotesingle" unicode="'" horiz-adv-x="204" 
d="M62 644v56h80v-56l-13 -156h-54z" />
    <glyph glyph-name="parenleft" unicode="(" horiz-adv-x="350" 
d="M258 -148h-76c-70.667 122.667 -106 264 -106 424s35.333 301.333 106 424h76c-65.333 -122.667 -98 -264 -98 -424s32.667 -301.333 98 -424z" />
    <glyph glyph-name="parenright" unicode=")" horiz-adv-x="350" 
d="M168 -148h-76c65.333 122.667 98 264 98 424s-32.667 301.333 -98 424h76c70.667 -122.667 106 -264 106 -424s-35.333 -301.333 -106 -424z" />
    <glyph glyph-name="asterisk" unicode="*" horiz-adv-x="434" 
d="M178 376l16 124l-102 -72l-36 68l111 42l-111 42l36 68l102 -72l-16 124h78l-16 -124l102 72l36 -68l-111 -42l111 -42l-36 -68l-102 72l16 -124h-78z" />
    <glyph glyph-name="plus" unicode="+" horiz-adv-x="506" 
d="M48 334v62h174v174h62v-174h174v-62h-174v-174h-62v174h-174z" />
    <glyph glyph-name="comma" unicode="," horiz-adv-x="190" 
d="M48 0v98h94v-98l-70 -127l-24 9l33 118h-33z" />
    <glyph glyph-name="hyphen" unicode="-" horiz-adv-x="456" 
d="M48 280v62h360v-62h-360z" />
    <glyph glyph-name="period" unicode="." horiz-adv-x="190" 
d="M48 0v98h94v-98h-94z" />
    <glyph glyph-name="slash" unicode="/" horiz-adv-x="496" 
d="M6 -30l400 760h84l-400 -760h-84z" />
    <glyph glyph-name="zero" unicode="0" horiz-adv-x="716" 
d="M662 350c0 -108.667 -28.333 -196.5 -85 -263.5s-129.667 -100.5 -219 -100.5s-162.333 33.5 -219 100.5s-85 154.833 -85 263.5s28.333 196.5 85 263.5s129.667 100.5 219 100.5s162.333 -33.5 219 -100.5s85 -154.833 85 -263.5zM358 60c65.333 0 118.333 26 159 78
s61 122.667 61 212s-20.333 160 -61 212s-93.667 78 -159 78s-118.333 -26 -159 -78s-61 -122.667 -61 -212s20.333 -160 61 -212s93.667 -78 159 -78z" />
    <glyph glyph-name="one" unicode="1" horiz-adv-x="366" 
d="M55 540v72c38 0 68.333 7 91 21s42.667 36.333 60 67h76v-700h-84v587c-18.667 -18.667 -38.667 -31.167 -60 -37.5s-49 -9.5 -83 -9.5z" />
    <glyph glyph-name="two" unicode="2" horiz-adv-x="585" 
d="M57 55l270 271c36.667 36.667 62 68.334 76 95.001s21 56 21 88c0 40 -13.5 72.5 -40.5 97.5s-61.5 37.5 -103.5 37.5c-40 0 -73.333 -13 -100 -39s-40 -59.667 -40 -101c0 -15.333 2.66699 -30.333 8 -45l-74 -12c-8 20.667 -12 42.667 -12 66
c0 53.333 20.833 100.166 62.5 140.499s94.5 60.5 158.5 60.5c66.667 0 120.5 -18.167 161.5 -54.5s61.5 -82.833 61.5 -139.5c0 -42.667 -9.16699 -82.667 -27.5 -120s-50.5 -79 -96.5 -125l-200 -201h327v-74h-452v55z" />
    <glyph glyph-name="three" unicode="3" horiz-adv-x="590" 
d="M71 244l77.001 -18.9971c-2.66699 -6 -4 -17.333 -4 -34c0 -38 14.667 -69.333 44 -94s66 -37 110 -37c48 0 85.333 12.5 112 37.5s40 60.5 40 106.5c0 47.333 -17.833 82.166 -53.5 104.499s-82.834 33.5 -141.501 33.5v68c57.333 0 98.833 11.833 124.5 35.5
s38.5 53.5 38.5 89.5c0 33.333 -12 59.833 -36 79.5s-55.333 29.5 -94 29.5c-36 0 -66.667 -10.667 -92 -32s-38 -49 -38 -83c0 -10 1.66699 -20 5 -30l-72 -11c-5.33301 14.667 -8 31.667 -8 51c0 48.667 19.667 90 59 124s88.333 51 147 51c64 0 115.167 -16 153.5 -48
s57.5 -72.333 57.5 -121c0 -34.667 -10 -67.334 -30 -98.001s-49 -51.667 -87 -63c45.333 -10.667 81.833 -31.334 109.5 -62.001s41.5 -68.334 41.5 -113.001c0 -68 -22.5 -122.167 -67.5 -162.5s-101.167 -60.5 -168.5 -60.5c-70.667 0 -128 20.167 -172 60.5
s-66 86.5 -66 138.5c0 22.667 3.66699 42.334 11 59.001z" />
    <glyph glyph-name="four" unicode="4" horiz-adv-x="592" 
d="M49 140v74l345 486h84v-486h79v-74h-79v-140h-84v140h-345zM394 578l-256 -364h256v364z" />
    <glyph glyph-name="five" unicode="5" horiz-adv-x="597" 
d="M63 322l33.001 377.997h402v-74h-335l-20 -236c19.333 28 44.166 49.667 74.499 65s62.166 23 95.499 23c71.333 0 127.5 -22.5 168.5 -67.5s61.5 -103.833 61.5 -176.5s-23.167 -132.167 -69.5 -178.5s-106.833 -69.5 -181.5 -69.5c-68.667 0 -124.667 18.167 -168 54.5
s-65 80.5 -65 132.5c0 20.667 3 37.334 9 50.001l77 -18c-2.66699 -6 -4 -15.333 -4 -28c0 -37.333 14 -66.166 42 -86.499s64.333 -30.5 109 -30.5c49.333 0 89.5 15.5 120.5 46.5s46.5 73.5 46.5 127.5s-15.167 96.5 -45.5 127.5s-69.166 46.5 -116.499 46.5
c-35.333 0 -67.833 -10.167 -97.5 -30.5s-52.5 -45.166 -68.5 -74.499z" />
    <glyph glyph-name="six" unicode="6" horiz-adv-x="607" 
d="M520 496l-79 16c5.33301 12 8 24 8 36c0 27.333 -11 49.5 -33 66.5s-52 25.5 -90 25.5c-54 0 -98 -27 -132 -81s-52.333 -124.333 -55 -211c19.333 34.667 46.166 61.667 80.499 81s70.833 29 109.5 29c64.667 0 118.834 -22 162.501 -66s65.5 -99.667 65.5 -167
c0 -66 -23.5 -122.333 -70.5 -169s-105.5 -70 -175.5 -70c-78.667 0 -141.167 28.5 -187.5 85.5s-69.5 136.167 -69.5 237.5c0 84 13.667 160.667 41 230c22 55.333 53.167 98.333 93.5 129s85.833 46 136.5 46c62 0 111.5 -15.333 148.5 -46s55.5 -71 55.5 -121
c0 -19.333 -3 -36.333 -9 -51zM311 384c-44.667 0 -83 -14.833 -115 -44.5s-48 -68.834 -48 -117.501s16 -87.834 48 -117.501s70.333 -44.5 115 -44.5c44 0 82 14.833 114 44.5s48 68.834 48 117.501s-16 87.834 -48 117.501s-70 44.5 -114 44.5z" />
    <glyph glyph-name="seven" unicode="7" horiz-adv-x="539" 
d="M495 632l-283 -632h-82l280 626h-367v74h452v-68z" />
    <glyph glyph-name="eight" unicode="8" horiz-adv-x="580" 
d="M290 -14c-67.333 0 -123.168 19.333 -167.501 58s-66.5 88.667 -66.5 150c0 80.667 38.667 141 116 181c-29.333 16 -52.333 37.833 -69 65.5s-25 58.5 -25 92.5c0 53.333 20.333 96.833 61 130.5s91 50.5 151 50.5s110.333 -16.833 151 -50.5s61 -77.167 61 -130.5
c0 -34 -8.33301 -64.833 -25 -92.5s-39.667 -49.5 -69 -65.5c77.333 -40 116 -100.333 116 -181c0 -61.333 -22.167 -111.333 -66.5 -150s-100.166 -58 -167.499 -58zM289.998 54c46 0 82.833 13 110.5 39s41.5 60.667 41.5 104c0 42 -14.667 76.333 -44 103
s-65.333 40 -108 40s-78.667 -13.333 -108 -40s-44 -61 -44 -103c0 -43.333 13.833 -78 41.5 -104s64.5 -39 110.5 -39zM155.998 526c0 -36.667 12.5 -66.167 37.5 -88.5s57.167 -33.5 96.5 -33.5c38.667 0 70.667 11.167 96 33.5s38 51.833 38 88.5
c0 39.333 -13 69.833 -39 91.5s-57.667 32.5 -95 32.5s-69 -10.833 -95 -32.5s-39 -52.167 -39 -91.5z" />
    <glyph glyph-name="nine" unicode="9" horiz-adv-x="607" 
d="M91 204l79 -15.999c-5.33301 -12 -8 -24 -8 -36c0 -26 11 -47.833 33 -65.5s53.667 -26.5 95 -26.5c118.667 0 178 97.667 178 293c-15.333 -34.667 -39.5 -61.834 -72.5 -81.501s-67.5 -29.5 -103.5 -29.5c-66 0 -121.167 22 -165.5 66s-66.5 99.667 -66.5 167
c0 65.333 22.667 121.5 68 168.5s103.333 70.5 174 70.5c84 0 148.333 -31.333 193 -94c38 -54.667 57 -125.667 57 -213c0 -110.667 -11.667 -197 -35 -259c-19.333 -52 -48.5 -92 -87.5 -120s-85.5 -42 -139.5 -42c-59.333 0 -108.833 15.5 -148.5 46.5
s-59.5 71.167 -59.5 120.5c0 20 3 37 9 51zM300 316.001c44 0 81.333 14.833 112 44.5s46 68.834 46 117.501c0 48 -15.5 87 -46.5 117s-68.167 45 -111.5 45s-80.166 -15 -110.499 -45s-45.5 -69 -45.5 -117c0 -48.667 15.167 -87.834 45.5 -117.501
s67.166 -44.5 110.499 -44.5z" />
    <glyph glyph-name="colon" unicode=":" horiz-adv-x="190" 
d="M48 0v98h94v-98h-94zM48 378v98h94v-98h-94z" />
    <glyph glyph-name="semicolon" unicode=";" horiz-adv-x="190" 
d="M48 0v98h94v-98l-70 -127l-24 9l33 118h-33zM48 378v98h94v-98h-94z" />
    <glyph glyph-name="less" unicode="&#x3c;" horiz-adv-x="517" 
d="M48 272v76l410 201v-80l-334 -159l334 -159v-80z" />
    <glyph glyph-name="equal" unicode="=" horiz-adv-x="506" 
d="M48 224v62h410v-62h-410zM48 414v62h410v-62h-410z" />
    <glyph glyph-name="greater" unicode="&#x3e;" horiz-adv-x="517" 
d="M469 348v-76l-410 -201v80l334 159l-334 159v80z" />
    <glyph glyph-name="question" unicode="?" horiz-adv-x="536" 
d="M301 195l-85.999 -0.00195312v22c0 24.667 6.83301 48.334 20.5 71.001s37.5 48.334 71.5 77.001c37.333 32 62.166 58.667 74.499 80s18.5 48.333 18.5 81c0 34.667 -12.5 63 -37.5 85s-57.833 33 -98.5 33c-38 0 -69.833 -11.167 -95.5 -33.5
s-38.5 -54.833 -38.5 -97.5c0 -11.333 1.66699 -25.333 5 -42l-73 -13c-8 18.667 -12 41.667 -12 69c0 50 20.333 93.667 61 131s91.667 56 153 56c66.667 0 119.667 -17.333 159 -52s59 -78.667 59 -132c0 -42 -9 -78 -27 -108s-50.667 -65.333 -98 -106
c-21.333 -18 -36 -35.667 -44 -53s-12 -40 -12 -68zM213.001 -0.00195312v100h92v-100h-92z" />
    <glyph glyph-name="at" unicode="@" horiz-adv-x="949" 
d="M640 -32l36.0059 -57.9971c-60 -41.333 -136 -62 -228 -62c-48 0 -94.5 8.16699 -139.5 24.5s-86.833 40.833 -125.5 73.5s-69.834 76.834 -93.501 132.501s-35.5 119.167 -35.5 190.5c0 124.667 41.667 230 125 316s188.666 129 315.999 129
c53.333 0 103.166 -7.5 149.499 -22.5s88 -37.167 125 -66.5s66.167 -68.333 87.5 -117s32 -104.334 32 -167.001c0 -90.667 -23.833 -165.667 -71.5 -225s-104.5 -89 -170.5 -89c-26.667 0 -47.334 6.66699 -62.001 20s-22 32.666 -22 57.999
c0 7.33301 0.333008 13.333 1 18l2 12c-12.667 -31.333 -34.334 -57.166 -65.001 -77.499s-62.667 -30.5 -96 -30.5c-49.333 0 -90 18.5 -122 55.5s-48 87.5 -48 151.5c0 95.333 25.333 170.166 76 224.499s108.334 81.5 173.001 81.5c63.333 0 104.666 -27.333 123.999 -82
l10 66h72l-55 -378c-0.666992 -5.33301 -1 -10.666 -1 -15.999c0 -24.667 12 -37 36 -37c35.333 0 68.666 21.667 99.999 65s47 102.666 47 177.999c0 93.333 -29.167 168.666 -87.5 225.999s-139.833 86 -244.5 86c-98 0 -182.333 -36 -253 -108s-106 -162.333 -106 -271
c0 -58 9.16699 -110 27.5 -156s43 -83.333 74 -112s66.167 -50.334 105.5 -65.001s81.333 -22 126 -22c70 0 130.333 18 181 54zM414.006 93.0029c48 0 89.833 25.832 125.5 77.499s53.5 110.834 53.5 177.501c0 84 -34.667 126 -104 126
c-47.333 0 -88.833 -21.333 -124.5 -64s-53.5 -100 -53.5 -172c0 -49.333 10 -85.833 30 -109.5s44.333 -35.5 73 -35.5z" />
    <glyph glyph-name="A" unicode="A" horiz-adv-x="656" 
d="M6 0l278 700h88l278 -700h-86l-81 207h-310l-81 -207h-86zM307 549l-107.001 -272h255l-106 272l-8 21c-0.666992 2.66699 -2.66699 8.5 -6 17.5s-5.66602 15.5 -6.99902 19.5l-13 -37z" />
    <glyph glyph-name="B" unicode="B" horiz-adv-x="645" 
d="M88 0l-0.00195312 700h256c66.667 0 120 -15.667 160 -47s60 -72 60 -122c0 -74 -40.667 -125.333 -122 -154c46.667 -16 82.834 -37.667 108.501 -65s38.5 -64.333 38.5 -111c0 -60 -23.667 -108.5 -71 -145.5s-104.666 -55.5 -171.999 -55.5h-258zM171.998 336v-266
h161c52.667 0 95.167 10.5 127.5 31.5s48.5 54.833 48.5 101.5c0 46 -16.167 79.667 -48.5 101s-74.833 32 -127.5 32h-161zM171.998 630v-224h166c44 0 79.333 9 106 27s40 46.333 40 85c0 37.333 -13.333 65.333 -40 84s-62 28 -106 28h-166z" />
    <glyph glyph-name="C" unicode="C" horiz-adv-x="748" 
d="M626 211l62.999 -46c-62.667 -119.333 -161.334 -179 -296.001 -179c-96.667 0 -177 34.5 -241 103.5s-96 155.833 -96 260.5c0 103.333 33.333 189.833 100 259.5s147.334 104.5 242.001 104.5c68 0 127.333 -16 178 -48s88.667 -76 114 -132l-65 -46
c-49.333 101.333 -125.666 152 -228.999 152c-71.333 0 -131.5 -28 -180.5 -84s-73.5 -124.667 -73.5 -206c0 -83.333 23.5 -152.5 70.5 -207.5s107.833 -82.5 182.5 -82.5c52.667 0 97.5 11.833 134.5 35.5s69.167 62.167 96.5 115.5z" />
    <glyph glyph-name="D" unicode="D" horiz-adv-x="693" 
d="M88 0v700h193c106 0 191.833 -31 257.5 -93s98.5 -147.667 98.5 -257s-32.833 -195 -98.5 -257s-151.5 -93 -257.5 -93h-193zM172 74l104 0.00195312c84.667 0 151.667 23.167 201 69.5s74 115.166 74 206.499s-24.667 160.166 -74 206.499s-116.333 69.5 -201 69.5h-104
v-552z" />
    <glyph glyph-name="E" unicode="E" horiz-adv-x="597" 
d="M88 0v700h438v-74h-354v-227h326v-74h-326v-251h357v-74h-441z" />
    <glyph glyph-name="F" unicode="F" horiz-adv-x="596" 
d="M88 0v700h448v-74h-364v-247h334v-74h-334v-305h-84z" />
    <glyph glyph-name="G" unicode="G" horiz-adv-x="766" 
d="M637 0l-24.002 121c-44 -90 -118.667 -135 -224 -135c-97.333 0 -177.166 34.333 -239.499 103s-93.5 155.667 -93.5 261c0 103.333 33.5 189.833 100.5 259.5s147.5 104.5 241.5 104.5c67.333 0 126 -15 176 -45s88.667 -71.667 116 -125l-64 -46
c-29.333 50.667 -62.5 87 -99.5 109s-80.167 33 -129.5 33c-70 0 -130 -27.333 -180 -82s-75 -124 -75 -208c0 -86 22.833 -155.833 68.5 -209.5s106.167 -80.5 181.5 -80.5c62.667 0 112.334 19.667 149.001 59s60 93.333 70 162h-246v70h330v-351h-58z" />
    <glyph glyph-name="H" unicode="H" horiz-adv-x="690" 
d="M88 0v700h84v-306h346v306h84v-700h-84v320h-346v-320h-84z" />
    <glyph glyph-name="I" unicode="I" horiz-adv-x="260" 
d="M88 0v700h84v-700h-84z" />
    <glyph glyph-name="J" unicode="J" horiz-adv-x="537" 
d="M471 700l0.00195312 -502.001c0 -64 -18.833 -115.333 -56.5 -154s-87.167 -58 -148.5 -58c-64 0 -115.833 17.333 -155.5 52s-59.5 87 -59.5 157l84 -9c1.33301 -43.333 14.166 -75.166 38.499 -95.499s55.166 -30.5 92.499 -30.5c35.333 0 64.333 12 87 36
s34 58.333 34 103v501h84z" />
    <glyph glyph-name="K" unicode="K" horiz-adv-x="619" 
d="M88 0v700h84v-319c20 21.333 32.667 35.333 38 42l20 22l242 255h105l-244 -259l264 -441h-98l-226 378l-101 -107v-271h-84z" />
    <glyph glyph-name="L" unicode="L" horiz-adv-x="573" 
d="M88 0v700h84v-626h351v-74h-435z" />
    <glyph glyph-name="M" unicode="M" horiz-adv-x="860" 
d="M88 0v700h90l252 -630l252 630h90v-700h-80v540l-20 -56l-16 -42l-183 -442h-86l-183 442l-16 42l-20 56v-540h-80z" />
    <glyph glyph-name="N" unicode="N" horiz-adv-x="708" 
d="M88 0l0.000976562 700h89l333 -527c1.33301 -2 5.66602 -9.33301 12.999 -22c7.33301 -12 13 -23 17 -33v582h80v-700h-89l-333 527c-1.33301 2 -5.66602 9.33301 -12.999 22c-8.66699 14.667 -14.334 25.667 -17.001 33v-582h-80z" />
    <glyph glyph-name="O" unicode="O" horiz-adv-x="788" 
d="M732 350c0 -107.333 -32.333 -194.833 -97 -262.5s-145 -101.5 -241 -101.5s-176.333 33.833 -241 101.5s-97 155.167 -97 262.5s32.333 194.833 97 262.5s145 101.5 241 101.5s176.333 -33.833 241 -101.5s97 -155.167 97 -262.5zM394 60
c72.667 0 132.834 27 180.501 81s71.5 123.667 71.5 209s-23.833 155 -71.5 209s-107.834 81 -180.501 81s-132.834 -27 -180.501 -81s-71.5 -123.667 -71.5 -209s23.833 -155 71.5 -209s107.834 -81 180.501 -81z" />
    <glyph glyph-name="P" unicode="P" horiz-adv-x="678" 
d="M88 0v700h294c74 0 132.833 -19.833 176.5 -59.5s65.5 -92.5 65.5 -158.5s-21.833 -118.833 -65.5 -158.5s-102.5 -59.5 -176.5 -59.5h-210v-264h-84zM172 626v-287.998h206c51.333 0 91.166 12.167 119.499 36.5s42.5 60.166 42.5 107.499s-14.167 83.166 -42.5 107.499
s-68.166 36.5 -119.499 36.5h-206z" />
    <glyph glyph-name="Q" unicode="Q" horiz-adv-x="788" 
d="M599 -91l-61.999 -54.001c-42.667 42.667 -77.667 87.334 -105 134.001c-8.66699 -2 -21.334 -3 -38.001 -3c-96 0 -176.333 33.833 -241 101.5s-97 155.167 -97 262.5s32.333 194.833 97 262.5s145 101.5 241 101.5s176.333 -33.833 241 -101.5s97 -155.167 97 -262.5
c0 -82 -19.833 -153.167 -59.5 -213.5s-91.5 -102.833 -155.5 -127.5c22.667 -34.667 50 -68 82 -100zM394.001 59.999c72.667 0 132.834 27 180.501 81s71.5 123.667 71.5 209s-23.833 155 -71.5 209s-107.834 81 -180.501 81s-132.834 -27 -180.501 -81
s-71.5 -123.667 -71.5 -209s23.833 -155 71.5 -209s107.834 -81 180.501 -81z" />
    <glyph glyph-name="R" unicode="R" horiz-adv-x="640" 
d="M502 0l-172.001 304.001h-158v-304h-84v700h279c68 0 122.5 -18.667 163.5 -56s61.5 -84.666 61.5 -141.999c0 -48.667 -15.167 -90.334 -45.5 -125.001s-72.166 -57.334 -125.499 -68.001l175 -309h-94zM171.999 626.001v-248h180c50 0 88.5 10.667 115.5 32
s40.5 52 40.5 92s-13.5 70.667 -40.5 92s-65.5 32 -115.5 32h-180z" />
    <glyph glyph-name="S" unicode="S" horiz-adv-x="649" 
d="M168 532c0 -34 15.334 -61.6689 46.001 -83.002s79 -38 145 -50c76.667 -14 133.5 -37.667 170.5 -71s55.5 -77.666 55.5 -132.999c0 -59.333 -23.5 -109 -70.5 -149s-107.833 -60 -182.5 -60c-76.667 0 -139.5 20.333 -188.5 61s-79.167 92.667 -90.5 156l74 39
c9.33301 -60 32 -105.333 68 -136s81.667 -46 137 -46c52 0 93.167 12.5 123.5 37.5s45.5 55.5 45.5 91.5c0 39.333 -15 69.833 -45 91.5s-76.667 38.5 -140 50.5c-153.333 27.333 -230 94.333 -230 201c0 53.333 22 97 66 131s100 51 168 51
c60.667 0 113.5 -15.167 158.5 -45.5s76.5 -71.166 94.5 -122.499l-68 -40c-14.667 43.333 -37.834 76.833 -69.501 100.5s-70.167 35.5 -115.5 35.5s-82 -9.66699 -110 -29s-42 -46.333 -42 -81z" />
    <glyph glyph-name="T" unicode="T" horiz-adv-x="558" 
d="M19 626v74h520v-74h-218v-626h-84v626h-218z" />
    <glyph glyph-name="U" unicode="U" horiz-adv-x="670" 
d="M594 700v-465c0 -77.333 -23.833 -138.166 -71.5 -182.499s-110.167 -66.5 -187.5 -66.5s-139.833 22.167 -187.5 66.5s-71.5 105.166 -71.5 182.499v465h84v-470c0 -48.667 15.167 -89.167 45.5 -121.5s73.5 -48.5 129.5 -48.5s99.167 16.167 129.5 48.5
s45.5 72.833 45.5 121.5v470h84z" />
    <glyph glyph-name="V" unicode="V" horiz-adv-x="608" 
d="M260 0l-258.001 699.999h84l192 -529l9 -28c0 -0.666992 2.16699 -8.16699 6.5 -22.5s7.83301 -25.166 10.5 -32.499c0.666992 2.66699 6.33398 21 17.001 55l9 28l192 529h84l-258 -700h-88z" />
    <glyph glyph-name="W" unicode="W" horiz-adv-x="892" 
d="M202 0l-196.998 699.999h83l142 -527c1.33301 -8.66699 3.33301 -17.667 6 -27c1.33301 -6.66699 5 -22 11 -46l4.5 21.5c2.33301 11 4.16602 19.167 5.49902 24.5c2 6.66699 4.33301 16 7 28l137 526h90l137 -526c2.66699 -11.333 5 -20.666 7 -27.999
c1.33301 -5.33301 3.16602 -13.5 5.49902 -24.5l4.5 -21.5l11 46l6 27l142 527h83l-197 -700h-87l-157 596l-157 -596h-87z" />
    <glyph glyph-name="X" unicode="X" horiz-adv-x="577" 
d="M135 700l153 -258l159 258h93l-202 -319l235 -381h-95l-190 310l-189 -310h-96l237 376l-202 324h97z" />
    <glyph glyph-name="Y" unicode="Y" horiz-adv-x="552" 
d="M234 0v287l-230 413h91l159 -296l8 -16l14 -33c1.33301 4 6 15 14 33l8 16l159 296h91l-230 -413v-287h-84z" />
    <glyph glyph-name="Z" unicode="Z" horiz-adv-x="598" 
d="M57 626v74h479v-74l-400 -552h417v-74h-511v72l403 554h-388z" />
    <glyph glyph-name="bracketleft" unicode="[" horiz-adv-x="323" 
d="M88 -150v850h181v-70h-103v-710h103v-70h-181z" />
    <glyph glyph-name="backslash" unicode="\" horiz-adv-x="496" 
d="M90 730l400 -760h-84l-400 760h84z" />
    <glyph glyph-name="bracketright" unicode="]" horiz-adv-x="323" 
d="M235 700v-850h-181v70h103v710h-103v70h181z" />
    <glyph glyph-name="asciicircum" unicode="^" horiz-adv-x="456" 
d="M186 700h84l165 -255h-79l-128 197l-128 -197h-79z" />
    <glyph glyph-name="underscore" unicode="_" horiz-adv-x="437" 
d="M8 -69v62h421v-62h-421z" />
    <glyph glyph-name="grave" unicode="`" horiz-adv-x="297" 
d="M170 700l64 -138h-71l-100 138h107z" />
    <glyph glyph-name="a" unicode="a" horiz-adv-x="543" 
d="M496 0l-78.001 -0.00195312c-20 25.333 -30 58 -30 98c-15.333 -36 -37.833 -63.667 -67.5 -83s-63.5 -29 -101.5 -29c-50 0 -90.333 14.167 -121 42.5s-46 64.5 -46 108.5c0 45.333 15.667 81.5 47 108.5s72.666 44.833 123.999 53.5l165 27v22c0 64 -39 96 -117 96
c-37.333 0 -66.166 -7.33301 -86.499 -22s-30.5 -33 -30.5 -55c0 -6.66699 0.666992 -11.667 2 -15l-68 -23c-5.33301 14 -8 27.333 -8 40c0 38.667 17.5 71.834 52.5 99.501s81.167 41.5 138.5 41.5c64.667 0 113.334 -14.167 146.001 -42.5s49 -68.166 49 -119.499v-224
c0 -28.667 2 -51.5 6 -68.5s12 -35.5 24 -55.5zM227.999 55.998c50 0 89.167 18.833 117.5 56.5s42.5 83.167 42.5 136.5v15l-151 -26c-70 -12 -105 -44.333 -105 -97c0 -26 8.5 -46.667 25.5 -62s40.5 -23 70.5 -23z" />
    <glyph glyph-name="b" unicode="b" horiz-adv-x="607" 
d="M76 0l0.000976562 700h78v-294c18.667 32 44 57.333 76 76s67.333 28 106 28c65.333 0 119.833 -24.667 163.5 -74s65.5 -112 65.5 -188s-22.5 -138.667 -67.5 -188s-101.833 -74 -170.5 -74c-38.667 0 -73.334 9.66699 -104.001 29s-53.667 44 -69 74v-89h-78z
M316.001 58c48 0 88.167 17.5 120.5 52.5s48.5 80.833 48.5 137.5s-16.167 102.5 -48.5 137.5s-72.5 52.5 -120.5 52.5s-88 -17.5 -120 -52.5s-48 -80.833 -48 -137.5s16 -102.5 48 -137.5s72 -52.5 120 -52.5z" />
    <glyph glyph-name="c" unicode="c" horiz-adv-x="557" 
d="M463 165l56.002 -36.002c-48.667 -95.333 -123 -143 -223 -143c-72 0 -132.333 24.667 -181 74s-73 112 -73 188c0 75.333 24.833 137.833 74.5 187.5s109.5 74.5 179.5 74.5c53.333 0 98.833 -11.833 136.5 -35.5s65.5 -57.167 83.5 -100.5l-59 -39
c-32.667 70 -86 105 -160 105c-50.667 0 -92.834 -17.667 -126.501 -53s-50.5 -81.666 -50.5 -138.999s16.667 -103.666 50 -138.999s75.666 -53 126.999 -53c39.333 0 72 9.16699 98 27.5s48.667 45.5 68 81.5z" />
    <glyph glyph-name="d" unicode="d" horiz-adv-x="607" 
d="M531 700l-0.000976562 -700h-78v89c-39.333 -68.667 -96.333 -103 -171 -103c-69.333 0 -126.666 24.5 -171.999 73.5s-68 111.833 -68 188.5c0 74.667 23.333 137 70 187s101.667 75 165 75c84 0 142.667 -34.667 176 -104v294h78zM290.999 58c48 0 88 17.5 120 52.5
s48 80.833 48 137.5s-16 102.5 -48 137.5s-72 52.5 -120 52.5s-88.167 -17.5 -120.5 -52.5s-48.5 -80.833 -48.5 -137.5s16.167 -102.5 48.5 -137.5s72.5 -52.5 120.5 -52.5z" />
    <glyph glyph-name="e" unicode="e" horiz-adv-x="574" 
d="M530 235l-410 -0.000976562c2.66699 -53.333 19.334 -97.166 50.001 -131.499s71 -51.5 121 -51.5c42 0 75.833 9.83301 101.5 29.5s47.5 47.5 65.5 83.5l57 -34c-50 -96.667 -125.667 -145 -227 -145c-68.667 0 -126.834 24.833 -174.501 74.5
s-71.5 112.167 -71.5 187.5c0 76 24 138.667 72 188s107 74 177 74c73.333 0 131.5 -23 174.5 -69s64.5 -105.667 64.5 -179v-27zM291 443.999c-43.333 0 -79.166 -13.167 -107.499 -39.5s-47.5 -61.5 -57.5 -105.5h326c-2.66699 44 -19.834 79.167 -51.501 105.5
s-68.167 39.5 -109.5 39.5z" />
    <glyph glyph-name="f" unicode="f" horiz-adv-x="316" 
d="M23 434l0.000976562 62h78v99c0 47.333 13.167 85 39.5 113s64.166 42 113.499 42c20 0 36 -2.33301 48 -7l-12 -66c-11.333 3.33301 -22.333 5 -33 5c-52 0 -78 -29.333 -78 -88v-98h114v-62h-114v-434h-78v434h-78z" />
    <glyph glyph-name="g" unicode="g" horiz-adv-x="587" 
d="M80 -23l73.999 -20.999c-4.66699 -10 -7 -21 -7 -33c0 -22 11.667 -39.333 35 -52s56.666 -19 99.999 -19c54.667 0 94.834 14.333 120.501 43s38.5 72 38.5 130v85c-16.667 -32 -39.5 -57 -68.5 -75s-61.833 -27 -98.5 -27c-66 0 -121.167 23.167 -165.5 69.5
s-66.5 106.833 -66.5 181.5c0 77.333 22 138.5 66 183.5s98.333 67.5 163 67.5c40 0 75 -9.16699 105 -27.5s51.667 -43.5 65 -75.5v89h78v-470c0 -77.333 -20.5 -137.333 -61.5 -180s-99.5 -64 -175.5 -64c-69.333 0 -122.166 13.167 -158.499 39.5
s-54.5 61.166 -54.5 104.499c0 22.667 3.66699 39.667 11 51zM282.999 440.001c-47.333 0 -86 -16.333 -116 -49s-45 -76.667 -45 -132s15 -99.333 45 -132s68.667 -49 116 -49s86.5 16.333 117.5 49s46.5 76.667 46.5 132s-15.5 99.333 -46.5 132s-70.167 49 -117.5 49z
" />
    <glyph glyph-name="h" unicode="h" horiz-adv-x="577" 
d="M501 335v-334.999h-78v321c0 38.667 -11 68.167 -33 88.5s-51.333 30.5 -88 30.5c-40 0 -74.667 -15.333 -104 -46s-44 -70.334 -44 -119.001v-275h-78v700h78v-291c16 30.667 39.333 55.167 70 73.5s63.667 27.5 99 27.5c50 0 92.167 -15 126.5 -45
s51.5 -73.333 51.5 -130z" />
    <glyph glyph-name="i" unicode="i" horiz-adv-x="230" 
d="M76 0v496h78v-496h-78zM68 582v98h94v-98h-94z" />
    <glyph glyph-name="j" unicode="j" horiz-adv-x="230" 
d="M-29 -203l10 70c14 -5.33301 27 -8 39 -8c20.667 0 35.167 5.33301 43.5 16s12.5 28.667 12.5 54v567h78v-554c0 -102 -45 -153 -135 -153c-12.667 0 -28.667 2.66699 -48 8zM68 582v98h94v-98h-94z" />
    <glyph glyph-name="k" unicode="k" horiz-adv-x="495" 
d="M154 700v-390l189 186h93l-171 -169l205 -327h-89l-170 272l-57 -57v-215h-78v700h78z" />
    <glyph glyph-name="l" unicode="l" horiz-adv-x="230" 
d="M76 0v700h78v-700h-78z" />
    <glyph glyph-name="m" unicode="m" horiz-adv-x="816" 
d="M740 377l0.00195312 -377h-78v349c0 28.667 -7.83301 51 -23.5 67s-38.834 24 -69.501 24c-35.333 0 -64.5 -14.167 -87.5 -42.5s-34.5 -71.5 -34.5 -129.5v-268h-78v340c0 66.667 -30.333 100 -91 100c-35.333 0 -64.833 -14.5 -88.5 -43.5s-35.5 -72.5 -35.5 -130.5
v-266h-78v496h78v-79c13.333 26 33 48 59 66s55.333 27 88 27c32 0 60.167 -7.83301 84.5 -23.5s41.166 -39.167 50.499 -70.5c34.667 62.667 87 94 157 94c44 0 79.5 -12.167 106.5 -36.5s40.5 -56.5 40.5 -96.5z" />
    <glyph glyph-name="n" unicode="n" horiz-adv-x="571" 
d="M495 337l-0.00195312 -337h-78v323c0 38.667 -10.667 67.834 -32 87.501s-50.333 29.5 -87 29.5c-39.333 0 -73.166 -15.333 -101.499 -46s-42.5 -70.334 -42.5 -119.001v-275h-78v496h78v-87c18 32 41.5 56.833 70.5 74.5s61.167 26.5 96.5 26.5
c48.667 0 89.834 -14.5 123.501 -43.5s50.5 -72.167 50.5 -129.5z" />
    <glyph glyph-name="o" unicode="o" horiz-adv-x="602" 
d="M560 248c0 -54 -13.167 -101.333 -39.5 -142s-58.833 -70.834 -97.5 -90.501s-79.334 -29.5 -122.001 -29.5s-83.334 9.83301 -122.001 29.5s-71.167 49.834 -97.5 90.501s-39.5 88 -39.5 142s13.167 101.333 39.5 142s58.833 70.834 97.5 90.501
s79.334 29.5 122.001 29.5s83.334 -9.83301 122.001 -29.5s71.167 -49.834 97.5 -90.501s39.5 -88 39.5 -142zM301 56c50.667 0 93.167 18.167 127.5 54.5s51.5 82.166 51.5 137.499s-17.167 101.166 -51.5 137.499s-76.833 54.5 -127.5 54.5s-93.167 -18.167 -127.5 -54.5
s-51.5 -82.166 -51.5 -137.499s17.167 -101.166 51.5 -137.499s76.833 -54.5 127.5 -54.5z" />
    <glyph glyph-name="p" unicode="p" horiz-adv-x="608" 
d="M76 -204l-0.000976562 700h78v-89c16 30.667 39.833 55.5 71.5 74.5s67.167 28.5 106.5 28.5c66.667 0 122.334 -24 167.001 -72s67 -111.333 67 -190c0 -78 -23 -141.167 -69 -189.5s-102.667 -72.5 -170 -72.5c-78 0 -135.667 31 -173 93v-283h-78zM316.999 438
c-48.667 0 -89 -17.5 -121 -52.5s-48 -80.833 -48 -137.5s16 -102.5 48 -137.5s72.333 -52.5 121 -52.5s89 17.5 121 52.5s48 80.833 48 137.5s-16 102.5 -48 137.5s-72.333 52.5 -121 52.5z" />
    <glyph glyph-name="q" unicode="q" horiz-adv-x="608" 
d="M532 496l0.000976562 -700.001h-78v289c-16 -29.333 -39.167 -53.166 -69.5 -71.499s-64.166 -27.5 -101.499 -27.5c-68 0 -125.167 24.167 -171.5 72.5s-69.5 111.5 -69.5 189.5s23.333 141.167 70 189.5s104 72.5 172 72.5c39.333 0 74.166 -9.16699 104.499 -27.5
s52.166 -43.5 65.499 -75.5v89h78zM291.001 437.999c-48.667 0 -89 -17.333 -121 -52s-48 -80.667 -48 -138s16 -103.333 48 -138s72.333 -52 121 -52s89 17.333 121 52s48 80.667 48 138s-16 103.333 -48 138s-72.333 52 -121 52z" />
    <glyph glyph-name="r" unicode="r" horiz-adv-x="348" 
d="M332 505l-12.999 -73c-12 4 -25 6 -39 6c-34.667 0 -64.334 -15.5 -89.001 -46.5s-37 -71.167 -37 -120.5v-271h-78v496h78v-90c31.333 69.333 79.333 104 144 104c10.667 0 22 -1.66699 34 -5z" />
    <glyph glyph-name="s" unicode="s" horiz-adv-x="491" 
d="M148 379c0 -24 11 -42.665 33 -55.998s55 -24 99 -32c54.667 -10.667 96.167 -27.5 124.5 -50.5s42.5 -54.833 42.5 -95.5c0 -44.667 -16.667 -82.334 -50 -113.001s-79.333 -46 -138 -46c-52 0 -96.167 13.5 -132.5 40.5s-62.5 61.5 -78.5 103.5l65 40
c28.667 -77.333 77.334 -116 146.001 -116c34 0 60.833 7.66699 80.5 23s29.5 37 29.5 65c0 24 -10 42.833 -30 56.5s-52.333 24.5 -97 32.5c-49.333 8.66699 -89.333 25.167 -120 49.5s-46 56.166 -46 95.499c0 40.667 16.667 73.167 50 97.5s73.666 36.5 120.999 36.5
c96 0 160.333 -40 193 -120l-60 -35c-24 59.333 -68 89 -132 89c-29.333 0 -53.333 -5.5 -72 -16.5s-28 -27.167 -28 -48.5z" />
    <glyph glyph-name="t" unicode="t" horiz-adv-x="340" 
d="M29 434v62h83v134h78v-134h114v-62h-114v-300c0 -28.667 4.5 -49.167 13.5 -61.5s27.167 -18.5 54.5 -18.5c10 0 22.333 2 37 6l7 -65c-14.667 -6 -36.667 -9 -66 -9c-36 0 -65.667 10.5 -89 31.5s-35 54.833 -35 101.5v315h-83z" />
    <glyph glyph-name="u" unicode="u" horiz-adv-x="571" 
d="M76 169l0.000976562 327h78v-323c0 -38 10.667 -67 32 -87s49.666 -30 84.999 -30c40 0 74.333 15 103 45s43 69 43 117v278h78v-496h-78v87c-34.667 -67.333 -89.667 -101 -165 -101c-50 0 -91.833 15 -125.5 45s-50.5 76 -50.5 138z" />
    <glyph glyph-name="v" unicode="v" horiz-adv-x="494" 
d="M486 496l-200 -496h-78l-200 496h84l155 -406l155 406h84z" />
    <glyph glyph-name="w" unicode="w" horiz-adv-x="682" 
d="M382 496l112 -398l101 398h80l-140 -496h-84l-110 404l-110 -404h-84l-140 496h80l101 -398l112 398h82z" />
    <glyph glyph-name="x" unicode="x" horiz-adv-x="434" 
d="M108 496l109 -173l110 173h89l-154 -230l171 -266h-88l-128 202l-129 -202h-89l176 264l-156 232h89z" />
    <glyph glyph-name="y" unicode="y" horiz-adv-x="493" 
d="M56 -201l12.001 70c14.667 -6.66699 28 -10 40 -10c15.333 0 27.166 3.66699 35.499 11s16.5 20 24.5 38l37 94l-200 494h86l157 -389l155 389h84l-249 -613c-14 -34.667 -31.167 -59 -51.5 -73s-46.5 -21 -78.5 -21c-18.667 0 -36 3.33301 -52 10z" />
    <glyph glyph-name="z" unicode="z" horiz-adv-x="484" 
d="M129 70h312v-70h-398v70l295 356h-282v70h370v-70z" />
    <glyph glyph-name="braceleft" unicode="{" horiz-adv-x="368" 
d="M58 240l0.000976562 69.9961c25.333 0 44.166 6.83301 56.499 20.5s18.5 37.834 18.5 72.501v117c0 64.667 11.833 110.834 35.5 138.501s61.834 41.5 114.501 41.5h31v-70h-32c-47.333 0 -71 -29 -71 -87v-145c0 -36.667 -5 -63.5 -15 -80.5s-28 -31.167 -54 -42.5
c25.333 -11.333 43.166 -25.5 53.499 -42.5s15.5 -43.833 15.5 -80.5v-145c0 -58 23.667 -87 71 -87h32v-70h-31c-52.667 0 -90.834 13.833 -114.501 41.5s-35.5 73.834 -35.5 138.501v117c0 34.667 -6.16699 58.834 -18.5 72.501s-31.166 20.5 -56.499 20.5z" />
    <glyph glyph-name="bar" unicode="|" horiz-adv-x="256" 
d="M88 -110v850h80v-850h-80z" />
    <glyph glyph-name="braceright" unicode="}" horiz-adv-x="368" 
d="M310 310l0.000976562 -69.9961c-25.333 0 -44.166 -6.83301 -56.499 -20.5s-18.5 -37.834 -18.5 -72.501v-117c0 -64.667 -11.833 -110.834 -35.5 -138.501s-61.834 -41.5 -114.501 -41.5h-31v70h32c47.333 0 71 29 71 87v145c0 36.667 5.16699 63.5 15.5 80.5
s28.166 31.167 53.499 42.5c-26 11.333 -44 25.5 -54 42.5s-15 43.833 -15 80.5v145c0 58 -23.667 87 -71 87h-32v70h31c52.667 0 90.834 -13.833 114.501 -41.5s35.5 -73.834 35.5 -138.501v-117c0 -34.667 6.16699 -58.834 18.5 -72.501s31.166 -20.5 56.499 -20.5z" />
    <glyph glyph-name="asciitilde" unicode="~" horiz-adv-x="447" 
d="M148 332c-8 0 -14.833 -2.66699 -20.5 -8s-8.5 -11.666 -8.5 -18.999s2.33301 -16 7 -26l-66 -12c-8 12.667 -12 26.667 -12 42c0 28 9.33301 50 28 66s41.667 24 69 24c20 0 38.167 -3.5 54.5 -10.5s28.833 -14.667 37.5 -23s18.5 -16 29.5 -23s21.833 -10.5 32.5 -10.5
c8 0 14.833 2.66699 20.5 8s8.5 11.666 8.5 18.999s-2.33301 16 -7 26l66 12c8 -12.667 12 -26.667 12 -42c0 -28 -9.33301 -50 -28 -66s-41.667 -24 -69 -24c-20 0 -38.167 3.5 -54.5 10.5s-28.833 14.667 -37.5 23s-18.5 16 -29.5 23s-21.833 10.5 -32.5 10.5z" />
    <glyph glyph-name="uni00A0" unicode="&#xa0;" horiz-adv-x="276" 
 />
    <glyph glyph-name="exclamdown" unicode="&#xa1;" horiz-adv-x="268" 
d="M176 19v-223h-84v223l11 289h62zM180 496v-100h-92v100h92z" />
    <glyph glyph-name="cent" unicode="&#xa2;" horiz-adv-x="569" 
d="M268 -110v99.002c-63.333 8 -115.5 35.833 -156.5 83.5s-61.5 106.167 -61.5 175.5c0 68 21 126.167 63 174.5s93.667 76.5 155 84.5v113h72v-112c90.667 -11.333 152 -56 184 -134l-59 -39c-28 58 -69.667 92 -125 102v-378c54 9.33301 97.667 44.666 131 105.999
l56 -36c-42 -82.667 -104.333 -129.334 -187 -140.001v-99h-72zM128 248.002c0 -51.333 12.667 -93.667 38 -127s59.333 -54 102 -62v377c-42 -8 -75.833 -28.667 -101.5 -62s-38.5 -75.333 -38.5 -126z" />
    <glyph glyph-name="sterling" unicode="&#xa3;" horiz-adv-x="565" 
d="M33 316v64h73c-12.667 40 -19 79.333 -19 118c0 64.667 21.5 116.834 64.5 156.501s94.833 59.5 155.5 59.5c63.333 0 114.5 -16 153.5 -48s58.5 -73 58.5 -123c0 -24.667 -5.33301 -48 -16 -70l-74 13c6.66699 18 10 35.333 10 52c0 30.667 -12.5 55.334 -37.5 74.001
s-56.833 28 -95.5 28c-42 0 -75 -12.833 -99 -38.5s-36 -59.834 -36 -102.501c0 -24.667 7 -64.334 21 -119.001h191v-64h-178c4 -18.667 6 -41.667 6 -69c0 -62 -19.333 -119.667 -58 -173h355v-74h-435v58c37.333 62 56 123.667 56 185c0 30 -2 54.333 -6 73h-90z" />
    <glyph glyph-name="currency" unicode="&#xa4;" horiz-adv-x="636" 
d="M540 350c0 -49.333 -13.333 -92.666 -40 -129.999l66 -66l-52 -52l-66 66c-39.333 -27.333 -82.666 -41 -129.999 -41s-90.666 13.667 -129.999 41l-66 -66l-52 52l66 66c-26.667 37.333 -40 80.666 -40 129.999s13.333 92.666 40 129.999l-66 66l52 52l66 -66
c39.333 27.333 82.666 41 129.999 41s90.666 -13.667 129.999 -41l66 66l52 -52l-66 -66c26.667 -37.333 40 -80.666 40 -129.999zM318 195c43.333 0 78.833 14.5 106.5 43.5s41.5 66.167 41.5 111.5s-13.833 82.5 -41.5 111.5s-63.167 43.5 -106.5 43.5
s-78.833 -14.5 -106.5 -43.5s-41.5 -66.167 -41.5 -111.5s13.833 -82.5 41.5 -111.5s63.167 -43.5 106.5 -43.5z" />
    <glyph glyph-name="yen" unicode="&#xa5;" horiz-adv-x="552" 
d="M85 287v62h116l-185 351h90l170 -340l170 340h90l-185 -351h116v-62h-149v-79h149v-62h-149v-146h-84v146h-149v62h149v79h-149z" />
    <glyph glyph-name="brokenbar" unicode="&#xa6;" horiz-adv-x="256" 
d="M168 382h-80v358h80v-358zM88 248h80v-358h-80v358z" />
    <glyph glyph-name="section" unicode="&#xa7;" horiz-adv-x="523" 
d="M460 288c0 -39.333 -18.332 -74.332 -54.999 -104.999c34 -30.667 51 -69 51 -115c0 -50.667 -18.333 -90.167 -55 -118.5s-81.667 -42.5 -135 -42.5c-50.667 0 -93.834 12.333 -129.501 37s-62.167 56.334 -79.5 95.001l65 47c29.333 -71.333 78 -107 146 -107
c30.667 0 56.334 7.33301 77.001 22s31 36 31 64c0 27.333 -11.5 50.666 -34.5 69.999s-62.833 35.333 -119.5 48c-106 23.333 -159 73.333 -159 150c0 39.333 18 74.333 54 105c-33.333 31.333 -50 69.666 -50 114.999c0 50.667 18.333 90.167 55 118.5
s81.667 42.5 135 42.5c50 0 93 -12.333 129 -37s62.667 -56.334 80 -95.001l-65 -47c-29.333 71.333 -78 107 -146 107c-30.667 0 -56.334 -7.33301 -77.001 -22s-31 -36 -31 -64c0 -27.333 11.5 -50.666 34.5 -69.999s62.833 -35.333 119.5 -48
c106 -23.333 159 -73.333 159 -150zM255.001 373.001c-33.333 7.33301 -61.667 16.998 -85 28.998c-19.333 -17.333 -29 -36.666 -29 -57.999c0 -23.333 9.5 -42.666 28.5 -57.999s51.833 -28 98.5 -38c32.667 -7.33301 60.667 -17 84 -29c20 18 30 37.333 30 58
c0 22.667 -9.5 41.667 -28.5 57s-51.833 28.333 -98.5 39z" />
    <glyph glyph-name="dieresis" unicode="&#xa8;" horiz-adv-x="390" 
d="M228 588v92h92v-92h-92zM70 588v92h92v-92h-92z" />
    <glyph glyph-name="copyright" unicode="&#xa9;" horiz-adv-x="848" 
d="M60 350c0 100.667 35.5 186.5 106.5 257.5s156.833 106.5 257.5 106.5c100 0 185.667 -35.5 257 -106.5s107 -156.833 107 -257.5s-35.667 -186.5 -107 -257.5s-157 -106.5 -257 -106.5c-100.667 0 -186.5 35.5 -257.5 106.5s-106.5 156.833 -106.5 257.5zM120 350
c0 -84.667 29.5 -156.834 88.5 -216.501s130.833 -89.5 215.5 -89.5s156.5 29.833 215.5 89.5s88.5 131.834 88.5 216.501s-29.5 156.834 -88.5 216.501s-130.833 89.5 -215.5 89.5s-156.5 -29.833 -215.5 -89.5s-88.5 -131.834 -88.5 -216.501zM555 285l43.998 -28.001
c-37.333 -74 -95.333 -111 -174 -111c-56.667 0 -103.667 19.167 -141 57.5s-56 87.166 -56 146.499c0 58.667 19.333 107.334 58 146.001s85 58 139 58c85.333 0 142.333 -35.333 171 -106l-46 -30c-25.333 54.667 -66.666 82 -123.999 82
c-39.333 0 -72.166 -13.667 -98.499 -41s-39.5 -63.666 -39.5 -108.999s13 -81.5 39 -108.5s59 -40.5 99 -40.5c56 0 99 28 129 84z" />
    <glyph glyph-name="ordfeminine" unicode="&#xaa;" horiz-adv-x="385" 
d="M364 300l-62.001 -0.00292969c-14 16.667 -21 39 -21 67c-20 -49.333 -58.333 -74 -115 -74c-34.667 0 -62.667 9.83301 -84 29.5s-32 44.834 -32 75.501c0 62.667 39.667 100.334 119 113.001l112 18v11c0 46 -25.667 69 -77 69c-24.667 0 -43.5 -4.66699 -56.5 -14
s-19.5 -21.333 -19.5 -36c0 -4.66699 0.333008 -8 1 -10l-55 -18c-3.33301 8 -5 17 -5 27c0 26.667 12.833 49.834 38.5 69.501s57.834 29.5 96.501 29.5c45.333 0 79.833 -10 103.5 -30s35.5 -48.333 35.5 -85v-153c0 -36 7 -65.667 21 -89zM173.999 347.997
c32.667 0 58.667 11.832 78 35.499s29 52.834 29 87.501v10l-102 -16c-44.667 -8 -67 -28.667 -67 -62c0 -17.333 5.66699 -30.833 17 -40.5s26.333 -14.5 45 -14.5z" />
    <glyph glyph-name="guillemotleft" unicode="&#xab;" horiz-adv-x="505" 
d="M376 474h93l-152 -199l152 -199h-93l-156 199zM204 474h93l-152 -199l152 -199h-93l-156 199z" />
    <glyph glyph-name="logicalnot" unicode="&#xac;" horiz-adv-x="534" 
d="M458 200h-78v134h-332v62h410v-196z" />
    <glyph glyph-name="registered" unicode="&#xae;" horiz-adv-x="848" 
d="M60 350c0 100.667 35.5 186.5 106.5 257.5s156.833 106.5 257.5 106.5c100 0 185.667 -35.5 257 -106.5s107 -156.833 107 -257.5s-35.667 -186.5 -107 -257.5s-157 -106.5 -257 -106.5c-100.667 0 -186.5 35.5 -257.5 106.5s-106.5 156.833 -106.5 257.5zM120 350
c0 -84.667 29.5 -156.834 88.5 -216.501s130.833 -89.5 215.5 -89.5s156.5 29.833 215.5 89.5s88.5 131.834 88.5 216.501s-29.5 156.834 -88.5 216.501s-130.833 89.5 -215.5 89.5s-156.5 -29.833 -215.5 -89.5s-88.5 -131.834 -88.5 -216.501zM510 151l-98 173h-66v-173
h-60v398h162c39.333 0 70.5 -10.5 93.5 -31.5s34.5 -48.167 34.5 -81.5c0 -28.667 -9 -52.5 -27 -71.5s-41.333 -31.5 -70 -37.5l99 -176h-68zM346 496v-121h93c52 0 78 20.333 78 61c0 40 -26 60 -78 60h-93z" />
    <glyph glyph-name="macron" unicode="&#xaf;" horiz-adv-x="316" 
d="M48 600v70h220v-70h-220z" />
    <glyph glyph-name="degree" unicode="&#xb0;" horiz-adv-x="360" 
d="M44 579c0 38 13 70 39 96s58.333 39 97 39s71 -13 97 -39s39 -58 39 -96s-13 -70 -39 -96s-58.333 -39 -97 -39s-71 13 -97 39s-39 58 -39 96zM106 579c0 -22 6.83301 -40 20.5 -54s31.5 -21 53.5 -21s39.833 7 53.5 21s20.5 32 20.5 54s-6.83301 40 -20.5 54
s-31.5 21 -53.5 21s-39.833 -7 -53.5 -21s-20.5 -32 -20.5 -54z" />
    <glyph glyph-name="plusminus" unicode="&#xb1;" horiz-adv-x="506" 
d="M48 334v62h174v174h62v-174h174v-62h-174v-174h-62v174h-174zM48 0v62h410v-62h-410z" />
    <glyph glyph-name="twosuperior" unicode="&#xb2;" horiz-adv-x="339" 
d="M62 392l129 126c28.667 28.667 43 57.667 43 87c0 13.333 -5 25 -15 35s-24 15 -42 15s-32.333 -4.83301 -43 -14.5s-16 -23.5 -16 -41.5c0 -8.66699 1.33301 -15.667 4 -21l-54 -7c-4 8.66699 -6 19.667 -6 33c0 27.333 10.667 51.333 32 72s49 31 83 31
c36 0 64.5 -9.33301 85.5 -28s31.5 -42.667 31.5 -72c0 -42 -21.667 -83.667 -65 -125l-79 -78h148v-54h-236v42z" />
    <glyph glyph-name="threesuperior" unicode="&#xb3;" horiz-adv-x="346" 
d="M60 477l53 -11.998c-2 -6 -3 -12.333 -3 -19c0 -16 6.33301 -28.5 19 -37.5s29 -13.5 49 -13.5c44 0 66 20.333 66 61c0 19.333 -8.66699 34 -26 44s-40 15 -68 15v45c50.667 0 76 19 76 57c0 13.333 -5 23.666 -15 30.999s-23 11 -39 11s-29.5 -4.33301 -40.5 -13
s-16.5 -20.667 -16.5 -36c0 -4 0.666992 -9.33301 2 -16l-49 -6c-3.33301 10 -5 20.333 -5 31c0 24.667 10.167 45.5 30.5 62.5s46.5 25.5 78.5 25.5c34 0 61.333 -8.16699 82 -24.5s31 -36.5 31 -60.5c0 -34.667 -17.333 -61 -52 -79c20 -6 36.5 -16.833 49.5 -32.5
s19.5 -34.5 19.5 -56.5c0 -34 -11.833 -61 -35.5 -81s-53.167 -30 -88.5 -30c-38 0 -68.5 10.167 -91.5 30.5s-34.5 43.5 -34.5 69.5c0 13.333 2.66699 24.666 8 33.999z" />
    <glyph glyph-name="acute" unicode="&#xb4;" horiz-adv-x="297" 
d="M63 562l64 138h107l-100 -138h-71z" />
    <glyph glyph-name="mu" unicode="&#xb5;" horiz-adv-x="571" 
d="M76 -204l0.000976562 700h78v-323c0 -38 10.667 -67 32 -87s49.666 -30 84.999 -30c40 0 74.333 15 103 45s43 69 43 117v278h78v-496h-78v87c-34.667 -67.333 -89.667 -101 -165 -101c-40.667 0 -74 10.667 -100 32c1.33301 -30.667 2 -55.667 2 -75v-147h-78z" />
    <glyph glyph-name="paragraph" unicode="&#xb6;" horiz-adv-x="623" 
d="M375 626v-746h-84v428h-28c-63.333 0 -115.666 17.833 -156.999 53.5s-62 83.167 -62 142.5c0 58.667 20.667 106 62 142s93.666 54 156.999 54h323v-74h-51v-746h-84v746h-76z" />
    <glyph glyph-name="periodcentered" unicode="&#xb7;" horiz-adv-x="190" 
d="M48 310v98h94v-98h-94z" />
    <glyph glyph-name="cedilla" unicode="&#xb8;" horiz-adv-x="304" 
d="M100 -104l-31.001 28l34 92h54l-37 -71c12.667 7.33301 27.334 11 44.001 11c22 0 40.167 -7 54.5 -21s21.5 -32.667 21.5 -56c0 -26 -8.66699 -46.333 -26 -61s-39 -22 -65 -22c-22 0 -40.5 5.33301 -55.5 16s-24.833 25.667 -29.5 45l48 12c6 -18 18.333 -27 37 -27
c23.333 0 35 12.333 35 37c0 10.667 -3.33301 19.167 -10 25.5s-15.667 9.5 -27 9.5c-17.333 0 -33 -6 -47 -18z" />
    <glyph glyph-name="onesuperior" unicode="&#xb9;" horiz-adv-x="251" 
d="M46 604v53c21.333 0 38 3.33301 50 10s21.667 17.667 29 33h56v-350h-60v273c-15.333 -12.667 -40.333 -19 -75 -19z" />
    <glyph glyph-name="ordmasculine" unicode="&#xba;" horiz-adv-x="458" 
d="M409 475c0 -55.333 -18.333 -99.5 -55 -132.5s-78.334 -49.5 -125.001 -49.5s-88.334 16.5 -125.001 49.5s-55 77.167 -55 132.5s18.333 99.5 55 132.5s78.334 49.5 125.001 49.5s88.334 -16.5 125.001 -49.5s55 -77.167 55 -132.5zM229 349c33.333 0 61.333 12 84 36
s34 54 34 90s-11.333 66 -34 90s-50.667 36 -84 36s-61.333 -12 -84 -36s-34 -54 -34 -90s11.333 -66 34 -90s50.667 -36 84 -36z" />
    <glyph glyph-name="guillemotright" unicode="&#xbb;" horiz-adv-x="505" 
d="M36 474h93l156 -199l-156 -199h-93l152 199zM208 474h93l156 -199l-156 -199h-93l152 199z" />
    <glyph glyph-name="onequarter" unicode="&#xbc;" horiz-adv-x="750" 
d="M46 604v53c21.333 0 38 3.33301 50 10s21.667 17.667 29 33h56v-350h-60v273c-15.333 -12.667 -40.333 -19 -75 -19zM175 0l-52 35l435 665l52 -35zM425 66v52l165 232h62v-232h39v-52h-39v-66h-62v66h-165zM590 262l-105 -144h105v144z" />
    <glyph glyph-name="onehalf" unicode="&#xbd;" horiz-adv-x="775" 
d="M46 604v53c21.333 0 38 3.33301 50 10s21.667 17.667 29 33h56v-350h-60v273c-15.333 -12.667 -40.333 -19 -75 -19zM175 0l-52 35l435 665l52 -35zM484 42l129 126c28.667 28.667 43 57.667 43 87c0 13.333 -5 25 -15 35s-24 15 -42 15s-32.333 -4.83301 -43 -14.5
s-16 -23.5 -16 -41.5c0 -8.66699 1.33301 -15.667 4 -21l-54 -7c-4 8.66699 -6 19.667 -6 33c0 27.333 10.667 51.333 32 72s49 31 83 31c36 0 64.5 -9.33301 85.5 -28s31.5 -42.667 31.5 -72c0 -42 -21.667 -83.667 -65 -125l-79 -78h148v-54h-236v42z" />
    <glyph glyph-name="threequarters" unicode="&#xbe;" horiz-adv-x="819" 
d="M232 0l-52 35l435 665l52 -35zM494 66v52l165 232h62v-232h39v-52h-39v-66h-62v66h-165zM659 262l-105 -144h105v144zM60 477l53 -11.998c-2 -6 -3 -12.333 -3 -19c0 -16 6.33301 -28.5 19 -37.5s29 -13.5 49 -13.5c44 0 66 20.333 66 61c0 19.333 -8.66699 34 -26 44
s-40 15 -68 15v45c50.667 0 76 19 76 57c0 13.333 -5 23.666 -15 30.999s-23 11 -39 11s-29.5 -4.33301 -40.5 -13s-16.5 -20.667 -16.5 -36c0 -4 0.666992 -9.33301 2 -16l-49 -6c-3.33301 10 -5 20.333 -5 31c0 24.667 10.167 45.5 30.5 62.5s46.5 25.5 78.5 25.5
c34 0 61.333 -8.16699 82 -24.5s31 -36.5 31 -60.5c0 -34.667 -17.333 -61 -52 -79c20 -6 36.5 -16.833 49.5 -32.5s19.5 -34.5 19.5 -56.5c0 -34 -11.833 -61 -35.5 -81s-53.167 -30 -88.5 -30c-38 0 -68.5 10.167 -91.5 30.5s-34.5 43.5 -34.5 69.5
c0 13.333 2.66699 24.666 8 33.999z" />
    <glyph glyph-name="questiondown" unicode="&#xbf;" horiz-adv-x="536" 
d="M235 301l85.999 0.00195312v-22c0 -24.667 -6.83301 -48.334 -20.5 -71.001s-37.5 -48.334 -71.5 -77.001c-37.333 -32 -62.166 -58.667 -74.499 -80s-18.5 -48.333 -18.5 -81c0 -34.667 12.5 -63 37.5 -85s57.833 -33 98.5 -33c38 0 69.833 11.167 95.5 33.5
s38.5 54.833 38.5 97.5c0 11.333 -1.66699 25.333 -5 42l73 13c8 -18.667 12 -41.667 12 -69c0 -50 -20.333 -93.667 -61 -131s-91.667 -56 -153 -56c-66.667 0 -119.667 17.333 -159 52s-59 78.667 -59 132c0 42 9 78 27 108s50.667 65.333 98 106
c21.333 18 36 35.667 44 53s12 40 12 68zM322.999 496.002v-100h-92v100h92z" />
    <glyph glyph-name="Agrave" unicode="&#xc0;" horiz-adv-x="656" 
d="M6 0l278 700h88l278 -700h-86l-81 207h-310l-81 -207h-86zM307 549l-107.001 -272h255l-106 272l-8 21c-0.666992 2.66699 -2.66699 8.5 -6 17.5s-5.66602 15.5 -6.99902 19.5l-13 -37zM295.999 904l64 -138h-71l-100 138h107z" />
    <glyph glyph-name="Aacute" unicode="&#xc1;" horiz-adv-x="656" 
d="M6 0l278 700h88l278 -700h-86l-81 207h-310l-81 -207h-86zM307 549l-107.001 -272h255l-106 272l-8 21c-0.666992 2.66699 -2.66699 8.5 -6 17.5s-5.66602 15.5 -6.99902 19.5l-13 -37zM296.999 766l64 138h107l-100 -138h-71z" />
    <glyph glyph-name="Acircumflex" unicode="&#xc2;" horiz-adv-x="656" 
d="M6 0l278 700h88l278 -700h-86l-81 207h-310l-81 -207h-86zM307 549l-107.001 -272h255l-106 272l-8 21c-0.666992 2.66699 -2.66699 8.5 -6 17.5s-5.66602 15.5 -6.99902 19.5l-13 -37zM193.999 766l100 138h68l100 -138h-68l-66 68l-66 -68h-68z" />
    <glyph glyph-name="Atilde" unicode="&#xc3;" horiz-adv-x="656" 
d="M6 0l278 700h88l278 -700h-86l-81 207h-310l-81 -207h-86zM307 549l-107.001 -272h255l-106 272l-8 21c-0.666992 2.66699 -2.66699 8.5 -6 17.5s-5.66602 15.5 -6.99902 19.5l-13 -37zM255.999 832c-8 0 -14.832 -2.66699 -20.499 -8s-8.5 -11.666 -8.5 -18.999
s2.33301 -16 7 -26l-60 -12c-8 12 -12 27.333 -12 46c0 24.667 9 44.167 27 58.5s39 21.5 63 21.5c20.667 0 38.667 -3.5 54 -10.5s26.666 -14.667 33.999 -23s16.166 -16 26.499 -23s21.5 -10.5 33.5 -10.5c8 0 14.833 2.66699 20.5 8s8.5 11.666 8.5 18.999
s-2.33301 16 -7 26l60 12c8 -12 12 -27.333 12 -46c0 -25.333 -9 -45 -27 -59s-39 -21 -63 -21c-20.667 0 -38.667 3.5 -54 10.5s-26.833 14.667 -34.5 23s-16.667 16 -27 23s-21.166 10.5 -32.499 10.5z" />
    <glyph glyph-name="Adieresis" unicode="&#xc4;" horiz-adv-x="656" 
d="M6 0l278 700h88l278 -700h-86l-81 207h-310l-81 -207h-86zM307 549l-107.001 -272h255l-106 272l-8 21c-0.666992 2.66699 -2.66699 8.5 -6 17.5s-5.66602 15.5 -6.99902 19.5l-13 -37zM360.999 792v92h92v-92h-92zM202.999 792v92h92v-92h-92z" />
    <glyph glyph-name="Aring" unicode="&#xc5;" horiz-adv-x="656" 
d="M6 0l278 700h88l278 -700h-86l-81 207h-310l-81 -207h-86zM307 549l-107.001 -272h255l-106 272l-8 21c-0.666992 2.66699 -2.66699 8.5 -6 17.5s-5.66602 15.5 -6.99902 19.5l-13 -37zM281.999 839c0 -13.333 4.33301 -24.5 13 -33.5s19.667 -13.5 33 -13.5
s24.333 4.5 33 13.5s13 20.167 13 33.5s-4.33301 24.5 -13 33.5s-19.667 13.5 -33 13.5s-24.333 -4.5 -33 -13.5s-13 -20.167 -13 -33.5zM231.999 839c0 26.667 9.16895 49.167 27.502 67.5s41.166 27.5 68.499 27.5s50.166 -9.16699 68.499 -27.5s27.5 -40.833 27.5 -67.5
s-9 -49.167 -27 -67.5s-41 -27.5 -69 -27.5s-51 9.16699 -69 27.5s-27 40.833 -27 67.5z" />
    <glyph glyph-name="AE" unicode="&#xc6;" horiz-adv-x="932" 
d="M423 0v207h-241l-90 -207h-86l308 700h547v-74h-354v-227h326v-74h-326v-251h357v-74h-441zM366 626l-153 -349h210v349h-57z" />
    <glyph glyph-name="Ccedilla" unicode="&#xc7;" horiz-adv-x="748" 
d="M352 -104l-31.002 28l24 65c-85.333 12 -154.833 51.333 -208.5 118s-80.5 147.667 -80.5 243c0 103.333 33.333 189.833 100 259.5s147.334 104.5 242.001 104.5c68 0 127.333 -16 178 -48s88.667 -76 114 -132l-65 -46c-49.333 101.333 -125.666 152 -228.999 152
c-71.333 0 -131.5 -28 -180.5 -84s-73.5 -124.667 -73.5 -206c0 -83.333 23.5 -152.5 70.5 -207.5s107.833 -82.5 182.5 -82.5c52.667 0 97.5 11.833 134.5 35.5s69.167 62.167 96.5 115.5l63 -46c-62.667 -119.333 -161.334 -179 -296.001 -179l-21 -41
c12.667 7.33301 27.334 11 44.001 11c22 0 40.167 -7 54.5 -21s21.5 -32.667 21.5 -56c0 -26 -8.66699 -46.333 -26 -61s-39 -22 -65 -22c-22 0 -40.5 5.33301 -55.5 16s-24.833 25.667 -29.5 45l48 12c6 -18 18.333 -27 37 -27c23.333 0 35 12.333 35 37
c0 10.667 -3.5 19.167 -10.5 25.5s-16.167 9.5 -27.5 9.5c-16.667 0 -32 -6 -46 -18z" />
    <glyph glyph-name="Egrave" unicode="&#xc8;" horiz-adv-x="597" 
d="M88 0v700h438v-74h-354v-227h326v-74h-326v-251h357v-74h-441zM308 904l64 -138h-71l-100 138h107z" />
    <glyph glyph-name="Eacute" unicode="&#xc9;" horiz-adv-x="597" 
d="M88 0v700h438v-74h-354v-227h326v-74h-326v-251h357v-74h-441zM251 766l64 138h107l-100 -138h-71z" />
    <glyph glyph-name="Ecircumflex" unicode="&#xca;" horiz-adv-x="597" 
d="M88 0v700h438v-74h-354v-227h326v-74h-326v-251h357v-74h-441zM176 766l100 138h68l100 -138h-68l-66 68l-66 -68h-68z" />
    <glyph glyph-name="Edieresis" unicode="&#xcb;" horiz-adv-x="597" 
d="M88 0v700h438v-74h-354v-227h326v-74h-326v-251h357v-74h-441zM343 792v92h92v-92h-92zM185 792v92h92v-92h-92z" />
    <glyph glyph-name="Igrave" unicode="&#xcc;" horiz-adv-x="260" 
d="M88 0v700h84v-700h-84zM108 904l64 -138h-71l-100 138h107z" />
    <glyph glyph-name="Iacute" unicode="&#xcd;" horiz-adv-x="260" 
d="M88 0v700h84v-700h-84zM88 766l64 138h107l-100 -138h-71z" />
    <glyph glyph-name="Icircumflex" unicode="&#xce;" horiz-adv-x="260" 
d="M88 0v700h84v-700h-84zM-4 766l100 138h68l100 -138h-68l-66 68l-66 -68h-68z" />
    <glyph glyph-name="Idieresis" unicode="&#xcf;" horiz-adv-x="260" 
d="M88 0v700h84v-700h-84zM163 792v92h92v-92h-92zM5 792v92h92v-92h-92z" />
    <glyph glyph-name="Eth" unicode="&#xd0;" horiz-adv-x="717" 
d="M40 315v70h72v315h193c106 0 191.833 -31 257.5 -93s98.5 -147.667 98.5 -257s-32.833 -195 -98.5 -257s-151.5 -93 -257.5 -93h-193v315h-72zM196 74l104 0.00195312c84.667 0 151.667 23.167 201 69.5s74 115.166 74 206.499s-24.667 160.166 -74 206.499
s-116.333 69.5 -201 69.5h-104v-241h154v-70h-154v-241z" />
    <glyph glyph-name="Ntilde" unicode="&#xd1;" horiz-adv-x="708" 
d="M88 0l0.000976562 700h89l333 -527c1.33301 -2 5.66602 -9.33301 12.999 -22c7.33301 -12 13 -23 17 -33v582h80v-700h-89l-333 527c-1.33301 2 -5.66602 9.33301 -12.999 22c-8.66699 14.667 -14.334 25.667 -17.001 33v-582h-80zM282.001 832
c-8 0 -14.832 -2.66699 -20.499 -8s-8.5 -11.666 -8.5 -18.999s2.33301 -16 7 -26l-60 -12c-8 12 -12 27.333 -12 46c0 24.667 9 44.167 27 58.5s39 21.5 63 21.5c20.667 0 38.667 -3.5 54 -10.5s26.666 -14.667 33.999 -23s16.166 -16 26.499 -23s21.5 -10.5 33.5 -10.5
c8 0 14.833 2.66699 20.5 8s8.5 11.666 8.5 18.999s-2.33301 16 -7 26l60 12c8 -12 12 -27.333 12 -46c0 -25.333 -9 -45 -27 -59s-39 -21 -63 -21c-20.667 0 -38.667 3.5 -54 10.5s-26.833 14.667 -34.5 23s-16.667 16 -27 23s-21.166 10.5 -32.499 10.5z" />
    <glyph glyph-name="Ograve" unicode="&#xd2;" horiz-adv-x="788" 
d="M732 350c0 -107.333 -32.333 -194.833 -97 -262.5s-145 -101.5 -241 -101.5s-176.333 33.833 -241 101.5s-97 155.167 -97 262.5s32.333 194.833 97 262.5s145 101.5 241 101.5s176.333 -33.833 241 -101.5s97 -155.167 97 -262.5zM394 60
c72.667 0 132.834 27 180.501 81s71.5 123.667 71.5 209s-23.833 155 -71.5 209s-107.834 81 -180.501 81s-132.834 -27 -180.501 -81s-71.5 -123.667 -71.5 -209s23.833 -155 71.5 -209s107.834 -81 180.501 -81zM386 904l64 -138h-71l-100 138h107z" />
    <glyph glyph-name="Oacute" unicode="&#xd3;" horiz-adv-x="788" 
d="M732 350c0 -107.333 -32.333 -194.833 -97 -262.5s-145 -101.5 -241 -101.5s-176.333 33.833 -241 101.5s-97 155.167 -97 262.5s32.333 194.833 97 262.5s145 101.5 241 101.5s176.333 -33.833 241 -101.5s97 -155.167 97 -262.5zM394 60
c72.667 0 132.834 27 180.501 81s71.5 123.667 71.5 209s-23.833 155 -71.5 209s-107.834 81 -180.501 81s-132.834 -27 -180.501 -81s-71.5 -123.667 -71.5 -209s23.833 -155 71.5 -209s107.834 -81 180.501 -81zM339 766l64 138h107l-100 -138h-71z" />
    <glyph glyph-name="Ocircumflex" unicode="&#xd4;" horiz-adv-x="788" 
d="M732 350c0 -107.333 -32.333 -194.833 -97 -262.5s-145 -101.5 -241 -101.5s-176.333 33.833 -241 101.5s-97 155.167 -97 262.5s32.333 194.833 97 262.5s145 101.5 241 101.5s176.333 -33.833 241 -101.5s97 -155.167 97 -262.5zM394 60
c72.667 0 132.834 27 180.501 81s71.5 123.667 71.5 209s-23.833 155 -71.5 209s-107.834 81 -180.501 81s-132.834 -27 -180.501 -81s-71.5 -123.667 -71.5 -209s23.833 -155 71.5 -209s107.834 -81 180.501 -81zM260 766l100 138h68l100 -138h-68l-66 68l-66 -68h-68z" />
    <glyph glyph-name="Otilde" unicode="&#xd5;" horiz-adv-x="788" 
d="M732 350c0 -107.333 -32.333 -194.833 -97 -262.5s-145 -101.5 -241 -101.5s-176.333 33.833 -241 101.5s-97 155.167 -97 262.5s32.333 194.833 97 262.5s145 101.5 241 101.5s176.333 -33.833 241 -101.5s97 -155.167 97 -262.5zM394 60
c72.667 0 132.834 27 180.501 81s71.5 123.667 71.5 209s-23.833 155 -71.5 209s-107.834 81 -180.501 81s-132.834 -27 -180.501 -81s-71.5 -123.667 -71.5 -209s23.833 -155 71.5 -209s107.834 -81 180.501 -81zM319 832c-8 0 -14.832 -2.66699 -20.499 -8
s-8.5 -11.666 -8.5 -18.999s2.33301 -16 7 -26l-60 -12c-8 12 -12 27.333 -12 46c0 24.667 9 44.167 27 58.5s39 21.5 63 21.5c20.667 0 38.667 -3.5 54 -10.5s26.666 -14.667 33.999 -23s16.166 -16 26.499 -23s21.5 -10.5 33.5 -10.5c8 0 14.833 2.66699 20.5 8
s8.5 11.666 8.5 18.999s-2.33301 16 -7 26l60 12c8 -12 12 -27.333 12 -46c0 -25.333 -9 -45 -27 -59s-39 -21 -63 -21c-20.667 0 -38.667 3.5 -54 10.5s-26.833 14.667 -34.5 23s-16.667 16 -27 23s-21.166 10.5 -32.499 10.5z" />
    <glyph glyph-name="Odieresis" unicode="&#xd6;" horiz-adv-x="788" 
d="M732 350c0 -107.333 -32.333 -194.833 -97 -262.5s-145 -101.5 -241 -101.5s-176.333 33.833 -241 101.5s-97 155.167 -97 262.5s32.333 194.833 97 262.5s145 101.5 241 101.5s176.333 -33.833 241 -101.5s97 -155.167 97 -262.5zM394 60
c72.667 0 132.834 27 180.501 81s71.5 123.667 71.5 209s-23.833 155 -71.5 209s-107.834 81 -180.501 81s-132.834 -27 -180.501 -81s-71.5 -123.667 -71.5 -209s23.833 -155 71.5 -209s107.834 -81 180.501 -81zM427 792v92h92v-92h-92zM269 792v92h92v-92h-92z" />
    <glyph glyph-name="multiply" unicode="&#xd7;" horiz-adv-x="506" 
d="M130 198l-44 44l123 123l-123 123l44 44l123 -123l123 123l44 -44l-123 -123l123 -123l-44 -44l-123 123z" />
    <glyph glyph-name="Oslash" unicode="&#xd8;" horiz-adv-x="788" 
d="M732 350c0 -107.333 -32.333 -194.833 -97 -262.5s-145 -101.5 -241 -101.5c-48.667 0 -94 9.33301 -136 28l-25 -48l-62 34l26 49c-94 69.333 -141 169.666 -141 300.999c0 107.333 32.333 194.833 97 262.5s145 101.5 241 101.5c48.667 0 94 -9.33301 136 -28l25 48
l62 -34l-26 -49c94 -69.333 141 -169.666 141 -300.999zM394 60c72.667 0 132.833 26.999 180.5 80.999s71.5 123.667 71.5 209c0 98.667 -30.667 175.334 -92 230.001l-261 -499c30 -14 63.667 -21 101 -21zM141.999 349.999c0 -98.667 30.668 -175.333 92.001 -230
l261 499c-30 14 -63.667 21 -101 21c-72.667 0 -132.834 -27 -180.501 -81s-71.5 -123.667 -71.5 -209z" />
    <glyph glyph-name="Ugrave" unicode="&#xd9;" horiz-adv-x="670" 
d="M594 700v-465c0 -77.333 -23.833 -138.166 -71.5 -182.499s-110.167 -66.5 -187.5 -66.5s-139.833 22.167 -187.5 66.5s-71.5 105.166 -71.5 182.499v465h84v-470c0 -48.667 15.167 -89.167 45.5 -121.5s73.5 -48.5 129.5 -48.5s99.167 16.167 129.5 48.5
s45.5 72.833 45.5 121.5v470h84zM327 904l64 -138h-71l-100 138h107z" />
    <glyph glyph-name="Uacute" unicode="&#xda;" horiz-adv-x="670" 
d="M594 700v-465c0 -77.333 -23.833 -138.166 -71.5 -182.499s-110.167 -66.5 -187.5 -66.5s-139.833 22.167 -187.5 66.5s-71.5 105.166 -71.5 182.499v465h84v-470c0 -48.667 15.167 -89.167 45.5 -121.5s73.5 -48.5 129.5 -48.5s99.167 16.167 129.5 48.5
s45.5 72.833 45.5 121.5v470h84zM280 766l64 138h107l-100 -138h-71z" />
    <glyph glyph-name="Ucircumflex" unicode="&#xdb;" horiz-adv-x="670" 
d="M594 700v-465c0 -77.333 -23.833 -138.166 -71.5 -182.499s-110.167 -66.5 -187.5 -66.5s-139.833 22.167 -187.5 66.5s-71.5 105.166 -71.5 182.499v465h84v-470c0 -48.667 15.167 -89.167 45.5 -121.5s73.5 -48.5 129.5 -48.5s99.167 16.167 129.5 48.5
s45.5 72.833 45.5 121.5v470h84zM201 766l100 138h68l100 -138h-68l-66 68l-66 -68h-68z" />
    <glyph glyph-name="Udieresis" unicode="&#xdc;" horiz-adv-x="670" 
d="M594 700v-465c0 -77.333 -23.833 -138.166 -71.5 -182.499s-110.167 -66.5 -187.5 -66.5s-139.833 22.167 -187.5 66.5s-71.5 105.166 -71.5 182.499v465h84v-470c0 -48.667 15.167 -89.167 45.5 -121.5s73.5 -48.5 129.5 -48.5s99.167 16.167 129.5 48.5
s45.5 72.833 45.5 121.5v470h84zM368 792v92h92v-92h-92zM210 792v92h92v-92h-92z" />
    <glyph glyph-name="Yacute" unicode="&#xdd;" horiz-adv-x="552" 
d="M234 0v287l-230 413h91l159 -296l8 -16l14 -33c1.33301 4 6 15 14 33l8 16l159 296h91l-230 -413v-287h-84zM211 766l64 138h107l-100 -138h-71z" />
    <glyph glyph-name="Thorn" unicode="&#xde;" horiz-adv-x="678" 
d="M88 0v700h84v-132h210c74 0 132.833 -19.833 176.5 -59.5s65.5 -92.5 65.5 -158.5s-21.833 -118.833 -65.5 -158.5s-102.5 -59.5 -176.5 -59.5h-210v-132h-84zM172 494v-287.998h206c51.333 0 91.166 12.167 119.499 36.5s42.5 60.166 42.5 107.499
s-14.167 83.166 -42.5 107.499s-68.166 36.5 -119.499 36.5h-206z" />
    <glyph glyph-name="germandbls" unicode="&#xdf;" horiz-adv-x="594" 
d="M249 349l0.00195312 66.001h23c46 0 82.833 11 110.5 33s41.5 52.667 41.5 92c0 32 -12 57.667 -36 77s-52.333 29 -85 29c-34 0 -62.833 -11 -86.5 -33s-35.5 -55 -35.5 -99v-514h-78v434h-78v62h78v14c0 66 19.833 116.5 59.5 151.5s86.5 52.5 140.5 52.5
c57.333 0 104.166 -15.667 140.499 -47s54.5 -71 54.5 -119c0 -40.667 -12 -74.334 -36 -101.001s-53.667 -45.334 -89 -56.001c114 -31.333 171 -96.666 171 -195.999c0 -59.333 -18.333 -109 -55 -149s-82.667 -60 -138 -60s-105 17.667 -149 53l38 61
c35.333 -30.667 71.666 -46 108.999 -46c34 0 62 13.167 84 39.5s33 59.833 33 100.5c0 50 -18.667 88.333 -56 115s-83 40 -137 40h-24z" />
    <glyph glyph-name="agrave" unicode="&#xe0;" horiz-adv-x="543" 
d="M496 0l-78.001 -0.00195312c-20 25.333 -30 58 -30 98c-15.333 -36 -37.833 -63.667 -67.5 -83s-63.5 -29 -101.5 -29c-50 0 -90.333 14.167 -121 42.5s-46 64.5 -46 108.5c0 45.333 15.667 81.5 47 108.5s72.666 44.833 123.999 53.5l165 27v22c0 64 -39 96 -117 96
c-37.333 0 -66.166 -7.33301 -86.499 -22s-30.5 -33 -30.5 -55c0 -6.66699 0.666992 -11.667 2 -15l-68 -23c-5.33301 14 -8 27.333 -8 40c0 38.667 17.5 71.834 52.5 99.501s81.167 41.5 138.5 41.5c64.667 0 113.334 -14.167 146.001 -42.5s49 -68.166 49 -119.499v-224
c0 -28.667 2 -51.5 6 -68.5s12 -35.5 24 -55.5zM227.999 55.998c50 0 89.167 18.833 117.5 56.5s42.5 83.167 42.5 136.5v15l-151 -26c-70 -12 -105 -44.333 -105 -97c0 -26 8.5 -46.667 25.5 -62s40.5 -23 70.5 -23zM252.999 699.998l64 -138h-71l-100 138h107z" />
    <glyph glyph-name="aacute" unicode="&#xe1;" horiz-adv-x="543" 
d="M496 0l-78.001 -0.00195312c-20 25.333 -30 58 -30 98c-15.333 -36 -37.833 -63.667 -67.5 -83s-63.5 -29 -101.5 -29c-50 0 -90.333 14.167 -121 42.5s-46 64.5 -46 108.5c0 45.333 15.667 81.5 47 108.5s72.666 44.833 123.999 53.5l165 27v22c0 64 -39 96 -117 96
c-37.333 0 -66.166 -7.33301 -86.499 -22s-30.5 -33 -30.5 -55c0 -6.66699 0.666992 -11.667 2 -15l-68 -23c-5.33301 14 -8 27.333 -8 40c0 38.667 17.5 71.834 52.5 99.501s81.167 41.5 138.5 41.5c64.667 0 113.334 -14.167 146.001 -42.5s49 -68.166 49 -119.499v-224
c0 -28.667 2 -51.5 6 -68.5s12 -35.5 24 -55.5zM227.999 55.998c50 0 89.167 18.833 117.5 56.5s42.5 83.167 42.5 136.5v15l-151 -26c-70 -12 -105 -44.333 -105 -97c0 -26 8.5 -46.667 25.5 -62s40.5 -23 70.5 -23zM215.999 561.998l64 138h107l-100 -138h-71z" />
    <glyph glyph-name="acircumflex" unicode="&#xe2;" horiz-adv-x="543" 
d="M496 0l-78.001 -0.00195312c-20 25.333 -30 58 -30 98c-15.333 -36 -37.833 -63.667 -67.5 -83s-63.5 -29 -101.5 -29c-50 0 -90.333 14.167 -121 42.5s-46 64.5 -46 108.5c0 45.333 15.667 81.5 47 108.5s72.666 44.833 123.999 53.5l165 27v22c0 64 -39 96 -117 96
c-37.333 0 -66.166 -7.33301 -86.499 -22s-30.5 -33 -30.5 -55c0 -6.66699 0.666992 -11.667 2 -15l-68 -23c-5.33301 14 -8 27.333 -8 40c0 38.667 17.5 71.834 52.5 99.501s81.167 41.5 138.5 41.5c64.667 0 113.334 -14.167 146.001 -42.5s49 -68.166 49 -119.499v-224
c0 -28.667 2 -51.5 6 -68.5s12 -35.5 24 -55.5zM227.999 55.998c50 0 89.167 18.833 117.5 56.5s42.5 83.167 42.5 136.5v15l-151 -26c-70 -12 -105 -44.333 -105 -97c0 -26 8.5 -46.667 25.5 -62s40.5 -23 70.5 -23zM136.999 561.998l100 138h68l100 -138h-68l-66 68
l-66 -68h-68z" />
    <glyph glyph-name="atilde" unicode="&#xe3;" horiz-adv-x="543" 
d="M496 0l-78.001 -0.00195312c-20 25.333 -30 58 -30 98c-15.333 -36 -37.833 -63.667 -67.5 -83s-63.5 -29 -101.5 -29c-50 0 -90.333 14.167 -121 42.5s-46 64.5 -46 108.5c0 45.333 15.667 81.5 47 108.5s72.666 44.833 123.999 53.5l165 27v22c0 64 -39 96 -117 96
c-37.333 0 -66.166 -7.33301 -86.499 -22s-30.5 -33 -30.5 -55c0 -6.66699 0.666992 -11.667 2 -15l-68 -23c-5.33301 14 -8 27.333 -8 40c0 38.667 17.5 71.834 52.5 99.501s81.167 41.5 138.5 41.5c64.667 0 113.334 -14.167 146.001 -42.5s49 -68.166 49 -119.499v-224
c0 -28.667 2 -51.5 6 -68.5s12 -35.5 24 -55.5zM227.999 55.998c50 0 89.167 18.833 117.5 56.5s42.5 83.167 42.5 136.5v15l-151 -26c-70 -12 -105 -44.333 -105 -97c0 -26 8.5 -46.667 25.5 -62s40.5 -23 70.5 -23zM192.999 627.998c-8 0 -14.832 -2.66699 -20.499 -8
s-8.5 -11.666 -8.5 -18.999s2.33301 -16 7 -26l-60 -12c-8 12 -12 27.333 -12 46c0 24.667 9 44.167 27 58.5s39 21.5 63 21.5c20.667 0 38.667 -3.5 54 -10.5s26.666 -14.667 33.999 -23s16.166 -16 26.499 -23s21.5 -10.5 33.5 -10.5c8 0 14.833 2.66699 20.5 8
s8.5 11.666 8.5 18.999s-2.33301 16 -7 26l60 12c8 -12 12 -27.333 12 -46c0 -25.333 -9 -45 -27 -59s-39 -21 -63 -21c-20.667 0 -38.667 3.5 -54 10.5s-26.833 14.667 -34.5 23s-16.667 16 -27 23s-21.166 10.5 -32.499 10.5z" />
    <glyph glyph-name="adieresis" unicode="&#xe4;" horiz-adv-x="543" 
d="M496 0l-78.001 -0.00195312c-20 25.333 -30 58 -30 98c-15.333 -36 -37.833 -63.667 -67.5 -83s-63.5 -29 -101.5 -29c-50 0 -90.333 14.167 -121 42.5s-46 64.5 -46 108.5c0 45.333 15.667 81.5 47 108.5s72.666 44.833 123.999 53.5l165 27v22c0 64 -39 96 -117 96
c-37.333 0 -66.166 -7.33301 -86.499 -22s-30.5 -33 -30.5 -55c0 -6.66699 0.666992 -11.667 2 -15l-68 -23c-5.33301 14 -8 27.333 -8 40c0 38.667 17.5 71.834 52.5 99.501s81.167 41.5 138.5 41.5c64.667 0 113.334 -14.167 146.001 -42.5s49 -68.166 49 -119.499v-224
c0 -28.667 2 -51.5 6 -68.5s12 -35.5 24 -55.5zM227.999 55.998c50 0 89.167 18.833 117.5 56.5s42.5 83.167 42.5 136.5v15l-151 -26c-70 -12 -105 -44.333 -105 -97c0 -26 8.5 -46.667 25.5 -62s40.5 -23 70.5 -23zM303.999 587.998v92h92v-92h-92zM145.999 587.998v92h92
v-92h-92z" />
    <glyph glyph-name="aring" unicode="&#xe5;" horiz-adv-x="543" 
d="M496 0l-78.001 -0.00195312c-20 25.333 -30 58 -30 98c-15.333 -36 -37.833 -63.667 -67.5 -83s-63.5 -29 -101.5 -29c-50 0 -90.333 14.167 -121 42.5s-46 64.5 -46 108.5c0 45.333 15.667 81.5 47 108.5s72.666 44.833 123.999 53.5l165 27v22c0 64 -39 96 -117 96
c-37.333 0 -66.166 -7.33301 -86.499 -22s-30.5 -33 -30.5 -55c0 -6.66699 0.666992 -11.667 2 -15l-68 -23c-5.33301 14 -8 27.333 -8 40c0 38.667 17.5 71.834 52.5 99.501s81.167 41.5 138.5 41.5c64.667 0 113.334 -14.167 146.001 -42.5s49 -68.166 49 -119.499v-224
c0 -28.667 2 -51.5 6 -68.5s12 -35.5 24 -55.5zM227.999 55.998c50 0 89.167 18.833 117.5 56.5s42.5 83.167 42.5 136.5v15l-151 -26c-70 -12 -105 -44.333 -105 -97c0 -26 8.5 -46.667 25.5 -62s40.5 -23 70.5 -23zM224.999 634.998c0 -13.333 4.33301 -24.5 13 -33.5
s19.667 -13.5 33 -13.5s24.333 4.5 33 13.5s13 20.167 13 33.5s-4.33301 24.5 -13 33.5s-19.667 13.5 -33 13.5s-24.333 -4.5 -33 -13.5s-13 -20.167 -13 -33.5zM174.999 634.998c0 26.667 9.16895 49.167 27.502 67.5s41.166 27.5 68.499 27.5
s50.166 -9.16699 68.499 -27.5s27.5 -40.833 27.5 -67.5s-9 -49.167 -27 -67.5s-41 -27.5 -69 -27.5s-51 9.16699 -69 27.5s-27 40.833 -27 67.5z" />
    <glyph glyph-name="ae" unicode="&#xe6;" horiz-adv-x="920" 
d="M876 235l-410.003 -0.000976562c2.66699 -53.333 19.334 -97.166 50.001 -131.499s71 -51.5 121 -51.5c42 0 75.833 9.83301 101.5 29.5s47.5 47.5 65.5 83.5l57 -34c-50 -96.667 -125.667 -145 -227 -145c-46 0 -87.667 11.667 -125 35s-65.666 55 -84.999 95
c-20.667 -43.333 -49.167 -75.833 -85.5 -97.5s-76.166 -32.5 -119.499 -32.5c-48 0 -87.833 14.333 -119.5 43s-47.5 64.667 -47.5 108c0 94 62 146.667 186 158c35.333 2.66699 70.666 4 105.999 4h44v31c0 41.333 -9.66699 70.666 -29 87.999s-48.666 26 -87.999 26
c-38 0 -67 -7.33301 -87 -22s-30 -33 -30 -55c0 -6.66699 0.666992 -11.667 2 -15l-68 -23c-5.33301 14 -8 27.333 -8 40c0 38.667 17.5 71.834 52.5 99.501s80.5 41.5 136.5 41.5c88 0 146.667 -31.667 176 -95c20.667 28 48.5 50.833 83.5 68.5s71.167 26.5 108.5 26.5
c72 0 129.833 -23.167 173.5 -69.5s65.5 -105.833 65.5 -178.5v-27zM636.997 443.999c-43.333 0 -79.166 -13.167 -107.499 -39.5s-47.5 -61.5 -57.5 -105.5h326c-2.66699 44 -19.834 79.167 -51.501 105.5s-68.167 39.5 -109.5 39.5zM226.997 55.999
c50.667 0 90.167 16.999 118.5 50.999s42.5 75 42.5 123v5h-102c-102.667 0 -154 -31.667 -154 -95c0 -25.333 8.66699 -45.666 26 -60.999s40.333 -23 69 -23z" />
    <glyph glyph-name="ccedilla" unicode="&#xe7;" horiz-adv-x="557" 
d="M255 -104l-30.999 27.998l24 66c-60.667 10.667 -110.167 39.5 -148.5 86.5s-57.5 104.167 -57.5 171.5c0 75.333 24.833 137.833 74.5 187.5s109.5 74.5 179.5 74.5c53.333 0 98.833 -11.833 136.5 -35.5s65.5 -57.167 83.5 -100.5l-59 -39c-32.667 70 -86 105 -160 105
c-50.667 0 -92.834 -17.667 -126.501 -53s-50.5 -81.666 -50.5 -138.999s16.667 -103.666 50 -138.999s75.666 -53 126.999 -53c39.333 0 72 9.16699 98 27.5s48.667 45.5 68 81.5l56 -36c-48.667 -95.333 -123 -143 -223 -143l-21 -41c12.667 7.33301 27.334 11 44.001 11
c22 0 40.167 -7 54.5 -21s21.5 -32.667 21.5 -56c0 -26 -8.66699 -46.333 -26 -61s-39 -22 -65 -22c-22 0 -40.5 5.33301 -55.5 16s-24.833 25.667 -29.5 45l48 12c6 -18 18.333 -27 37 -27c23.333 0 35 12.333 35 37c0 10.667 -3.33301 19.167 -10 25.5
s-15.667 9.5 -27 9.5c-17.333 0 -33 -6 -47 -18z" />
    <glyph glyph-name="egrave" unicode="&#xe8;" horiz-adv-x="574" 
d="M530 235l-410 -0.000976562c2.66699 -53.333 19.334 -97.166 50.001 -131.499s71 -51.5 121 -51.5c42 0 75.833 9.83301 101.5 29.5s47.5 47.5 65.5 83.5l57 -34c-50 -96.667 -125.667 -145 -227 -145c-68.667 0 -126.834 24.833 -174.501 74.5
s-71.5 112.167 -71.5 187.5c0 76 24 138.667 72 188s107 74 177 74c73.333 0 131.5 -23 174.5 -69s64.5 -105.667 64.5 -179v-27zM291 443.999c-43.333 0 -79.166 -13.167 -107.499 -39.5s-47.5 -61.5 -57.5 -105.5h326c-2.66699 44 -19.834 79.167 -51.501 105.5
s-68.167 39.5 -109.5 39.5zM279 699.999l64 -138h-71l-100 138h107z" />
    <glyph glyph-name="eacute" unicode="&#xe9;" horiz-adv-x="574" 
d="M530 235l-410 -0.000976562c2.66699 -53.333 19.334 -97.166 50.001 -131.499s71 -51.5 121 -51.5c42 0 75.833 9.83301 101.5 29.5s47.5 47.5 65.5 83.5l57 -34c-50 -96.667 -125.667 -145 -227 -145c-68.667 0 -126.834 24.833 -174.501 74.5
s-71.5 112.167 -71.5 187.5c0 76 24 138.667 72 188s107 74 177 74c73.333 0 131.5 -23 174.5 -69s64.5 -105.667 64.5 -179v-27zM291 443.999c-43.333 0 -79.166 -13.167 -107.499 -39.5s-47.5 -61.5 -57.5 -105.5h326c-2.66699 44 -19.834 79.167 -51.501 105.5
s-68.167 39.5 -109.5 39.5zM232 561.999l64 138h107l-100 -138h-71z" />
    <glyph glyph-name="ecircumflex" unicode="&#xea;" horiz-adv-x="574" 
d="M530 235l-410 -0.000976562c2.66699 -53.333 19.334 -97.166 50.001 -131.499s71 -51.5 121 -51.5c42 0 75.833 9.83301 101.5 29.5s47.5 47.5 65.5 83.5l57 -34c-50 -96.667 -125.667 -145 -227 -145c-68.667 0 -126.834 24.833 -174.501 74.5
s-71.5 112.167 -71.5 187.5c0 76 24 138.667 72 188s107 74 177 74c73.333 0 131.5 -23 174.5 -69s64.5 -105.667 64.5 -179v-27zM291 443.999c-43.333 0 -79.166 -13.167 -107.499 -39.5s-47.5 -61.5 -57.5 -105.5h326c-2.66699 44 -19.834 79.167 -51.501 105.5
s-68.167 39.5 -109.5 39.5zM153 561.999l100 138h68l100 -138h-68l-66 68l-66 -68h-68z" />
    <glyph glyph-name="edieresis" unicode="&#xeb;" horiz-adv-x="574" 
d="M530 235l-410 -0.000976562c2.66699 -53.333 19.334 -97.166 50.001 -131.499s71 -51.5 121 -51.5c42 0 75.833 9.83301 101.5 29.5s47.5 47.5 65.5 83.5l57 -34c-50 -96.667 -125.667 -145 -227 -145c-68.667 0 -126.834 24.833 -174.501 74.5
s-71.5 112.167 -71.5 187.5c0 76 24 138.667 72 188s107 74 177 74c73.333 0 131.5 -23 174.5 -69s64.5 -105.667 64.5 -179v-27zM291 443.999c-43.333 0 -79.166 -13.167 -107.499 -39.5s-47.5 -61.5 -57.5 -105.5h326c-2.66699 44 -19.834 79.167 -51.501 105.5
s-68.167 39.5 -109.5 39.5zM320 587.999v92h92v-92h-92zM162 587.999v92h92v-92h-92z" />
    <glyph glyph-name="igrave" unicode="&#xec;" horiz-adv-x="230" 
d="M76 0v496h78v-496h-78zM90 700l64 -138h-71l-100 138h107z" />
    <glyph glyph-name="iacute" unicode="&#xed;" horiz-adv-x="230" 
d="M76 0v496h78v-496h-78zM76 562l64 138h107l-100 -138h-71z" />
    <glyph glyph-name="icircumflex" unicode="&#xee;" horiz-adv-x="230" 
d="M76 0v496h78v-496h-78zM-19 562l100 138h68l100 -138h-68l-66 68l-66 -68h-68z" />
    <glyph glyph-name="idieresis" unicode="&#xef;" horiz-adv-x="230" 
d="M76 0v496h78v-496h-78zM148 588v92h92v-92h-92zM-10 588v92h92v-92h-92z" />
    <glyph glyph-name="eth" unicode="&#xf0;" horiz-adv-x="580" 
d="M223 510l-23.002 61.0029l93 36c-42.667 32.667 -87.667 58.334 -135 77.001l36 58c68 -33.333 125 -69 171 -107l99 38l24 -61l-71 -27c76 -84.667 114 -188.334 114 -311.001c0 -50.667 -7 -95.334 -21 -134.001s-32.833 -68.834 -56.5 -90.501
s-49.167 -37.667 -76.5 -48s-56.333 -15.5 -87 -15.5c-64 0 -120.167 20.667 -168.5 62s-72.5 100 -72.5 176c0 75.333 24 133.833 72 175.5s102.333 62.5 163 62.5c36.667 0 70.334 -8.33301 101.001 -25s53.334 -38.334 68.001 -65.001
c-15.333 69.333 -50.333 131.333 -105 186zM289.998 56.0029c43.333 0 81 14.833 113 44.5s48 70.834 48 123.501s-16 93.834 -48 123.501s-69.667 44.5 -113 44.5s-81 -14.833 -113 -44.5s-48 -70.834 -48 -123.501s16 -93.834 48 -123.501s69.667 -44.5 113 -44.5z" />
    <glyph glyph-name="ntilde" unicode="&#xf1;" horiz-adv-x="571" 
d="M495 337l-0.00195312 -337h-78v323c0 38.667 -10.667 67.834 -32 87.501s-50.333 29.5 -87 29.5c-39.333 0 -73.166 -15.333 -101.499 -46s-42.5 -70.334 -42.5 -119.001v-275h-78v496h78v-87c18 32 41.5 56.833 70.5 74.5s61.167 26.5 96.5 26.5
c48.667 0 89.834 -14.5 123.501 -43.5s50.5 -72.167 50.5 -129.5zM212.998 628c-8 0 -14.832 -2.66699 -20.499 -8s-8.5 -11.666 -8.5 -18.999s2.33301 -16 7 -26l-60 -12c-8 12 -12 27.333 -12 46c0 24.667 9 44.167 27 58.5s39 21.5 63 21.5
c20.667 0 38.667 -3.5 54 -10.5s26.666 -14.667 33.999 -23s16.166 -16 26.499 -23s21.5 -10.5 33.5 -10.5c8 0 14.833 2.66699 20.5 8s8.5 11.666 8.5 18.999s-2.33301 16 -7 26l60 12c8 -12 12 -27.333 12 -46c0 -25.333 -9 -45 -27 -59s-39 -21 -63 -21
c-20.667 0 -38.667 3.5 -54 10.5s-26.833 14.667 -34.5 23s-16.667 16 -27 23s-21.166 10.5 -32.499 10.5z" />
    <glyph glyph-name="ograve" unicode="&#xf2;" horiz-adv-x="602" 
d="M560 248c0 -54 -13.167 -101.333 -39.5 -142s-58.833 -70.834 -97.5 -90.501s-79.334 -29.5 -122.001 -29.5s-83.334 9.83301 -122.001 29.5s-71.167 49.834 -97.5 90.501s-39.5 88 -39.5 142s13.167 101.333 39.5 142s58.833 70.834 97.5 90.501
s79.334 29.5 122.001 29.5s83.334 -9.83301 122.001 -29.5s71.167 -49.834 97.5 -90.501s39.5 -88 39.5 -142zM301 56c50.667 0 93.167 18.167 127.5 54.5s51.5 82.166 51.5 137.499s-17.167 101.166 -51.5 137.499s-76.833 54.5 -127.5 54.5s-93.167 -18.167 -127.5 -54.5
s-51.5 -82.166 -51.5 -137.499s17.167 -101.166 51.5 -137.499s76.833 -54.5 127.5 -54.5zM282 700l64 -138h-71l-100 138h107z" />
    <glyph glyph-name="oacute" unicode="&#xf3;" horiz-adv-x="602" 
d="M560 248c0 -54 -13.167 -101.333 -39.5 -142s-58.833 -70.834 -97.5 -90.501s-79.334 -29.5 -122.001 -29.5s-83.334 9.83301 -122.001 29.5s-71.167 49.834 -97.5 90.501s-39.5 88 -39.5 142s13.167 101.333 39.5 142s58.833 70.834 97.5 90.501
s79.334 29.5 122.001 29.5s83.334 -9.83301 122.001 -29.5s71.167 -49.834 97.5 -90.501s39.5 -88 39.5 -142zM301 56c50.667 0 93.167 18.167 127.5 54.5s51.5 82.166 51.5 137.499s-17.167 101.166 -51.5 137.499s-76.833 54.5 -127.5 54.5s-93.167 -18.167 -127.5 -54.5
s-51.5 -82.166 -51.5 -137.499s17.167 -101.166 51.5 -137.499s76.833 -54.5 127.5 -54.5zM257 562l64 138h107l-100 -138h-71z" />
    <glyph glyph-name="ocircumflex" unicode="&#xf4;" horiz-adv-x="602" 
d="M560 248c0 -54 -13.167 -101.333 -39.5 -142s-58.833 -70.834 -97.5 -90.501s-79.334 -29.5 -122.001 -29.5s-83.334 9.83301 -122.001 29.5s-71.167 49.834 -97.5 90.501s-39.5 88 -39.5 142s13.167 101.333 39.5 142s58.833 70.834 97.5 90.501
s79.334 29.5 122.001 29.5s83.334 -9.83301 122.001 -29.5s71.167 -49.834 97.5 -90.501s39.5 -88 39.5 -142zM301 56c50.667 0 93.167 18.167 127.5 54.5s51.5 82.166 51.5 137.499s-17.167 101.166 -51.5 137.499s-76.833 54.5 -127.5 54.5s-93.167 -18.167 -127.5 -54.5
s-51.5 -82.166 -51.5 -137.499s17.167 -101.166 51.5 -137.499s76.833 -54.5 127.5 -54.5zM167 562l100 138h68l100 -138h-68l-66 68l-66 -68h-68z" />
    <glyph glyph-name="otilde" unicode="&#xf5;" horiz-adv-x="602" 
d="M560 248c0 -54 -13.167 -101.333 -39.5 -142s-58.833 -70.834 -97.5 -90.501s-79.334 -29.5 -122.001 -29.5s-83.334 9.83301 -122.001 29.5s-71.167 49.834 -97.5 90.501s-39.5 88 -39.5 142s13.167 101.333 39.5 142s58.833 70.834 97.5 90.501
s79.334 29.5 122.001 29.5s83.334 -9.83301 122.001 -29.5s71.167 -49.834 97.5 -90.501s39.5 -88 39.5 -142zM301 56c50.667 0 93.167 18.167 127.5 54.5s51.5 82.166 51.5 137.499s-17.167 101.166 -51.5 137.499s-76.833 54.5 -127.5 54.5s-93.167 -18.167 -127.5 -54.5
s-51.5 -82.166 -51.5 -137.499s17.167 -101.166 51.5 -137.499s76.833 -54.5 127.5 -54.5zM229 628c-8 0 -14.832 -2.66699 -20.499 -8s-8.5 -11.666 -8.5 -18.999s2.33301 -16 7 -26l-60 -12c-8 12 -12 27.333 -12 46c0 24.667 9 44.167 27 58.5s39 21.5 63 21.5
c20.667 0 38.667 -3.5 54 -10.5s26.666 -14.667 33.999 -23s16.166 -16 26.499 -23s21.5 -10.5 33.5 -10.5c8 0 14.833 2.66699 20.5 8s8.5 11.666 8.5 18.999s-2.33301 16 -7 26l60 12c8 -12 12 -27.333 12 -46c0 -25.333 -9 -45 -27 -59s-39 -21 -63 -21
c-20.667 0 -38.667 3.5 -54 10.5s-26.833 14.667 -34.5 23s-16.667 16 -27 23s-21.166 10.5 -32.499 10.5z" />
    <glyph glyph-name="odieresis" unicode="&#xf6;" horiz-adv-x="602" 
d="M560 248c0 -54 -13.167 -101.333 -39.5 -142s-58.833 -70.834 -97.5 -90.501s-79.334 -29.5 -122.001 -29.5s-83.334 9.83301 -122.001 29.5s-71.167 49.834 -97.5 90.501s-39.5 88 -39.5 142s13.167 101.333 39.5 142s58.833 70.834 97.5 90.501
s79.334 29.5 122.001 29.5s83.334 -9.83301 122.001 -29.5s71.167 -49.834 97.5 -90.501s39.5 -88 39.5 -142zM301 56c50.667 0 93.167 18.167 127.5 54.5s51.5 82.166 51.5 137.499s-17.167 101.166 -51.5 137.499s-76.833 54.5 -127.5 54.5s-93.167 -18.167 -127.5 -54.5
s-51.5 -82.166 -51.5 -137.499s17.167 -101.166 51.5 -137.499s76.833 -54.5 127.5 -54.5zM334 588v92h92v-92h-92zM176 588v92h92v-92h-92z" />
    <glyph glyph-name="divide" unicode="&#xf7;" horiz-adv-x="506" 
d="M206 0v98h94v-98h-94zM206 378v98h94v-98h-94zM48 207v62h410v-62h-410z" />
    <glyph glyph-name="oslash" unicode="&#xf8;" horiz-adv-x="602" 
d="M560 248c0 -54 -13.167 -101.333 -39.5 -142s-58.833 -70.834 -97.5 -90.501s-79.334 -29.5 -122.001 -29.5c-32.667 0 -66 6.66699 -100 20l-23 -40l-61 34l24 41c-66 49.333 -99 118.333 -99 207c0 54 13.167 101.333 39.5 142s58.833 70.834 97.5 90.501
s79.334 29.5 122.001 29.5c32.667 0 66 -6.66699 100 -20l23 40l61 -34l-24 -41c66 -49.333 99 -118.333 99 -207zM122 248c0 -57.333 18.667 -104.668 56 -142.001l187 322c-20 8 -41.333 12 -64 12c-50.667 0 -93.167 -18.167 -127.5 -54.5s-51.5 -82.166 -51.5 -137.499z
M301 55.998c50.667 0 93.167 18.1689 127.5 54.502s51.5 82.166 51.5 137.499c0 57.333 -18.667 104.666 -56 141.999l-187 -322c20 -8 41.333 -12 64 -12z" />
    <glyph glyph-name="ugrave" unicode="&#xf9;" horiz-adv-x="571" 
d="M76 169l0.000976562 327h78v-323c0 -38 10.667 -67 32 -87s49.666 -30 84.999 -30c40 0 74.333 15 103 45s43 69 43 117v278h78v-496h-78v87c-34.667 -67.333 -89.667 -101 -165 -101c-50 0 -91.833 15 -125.5 45s-50.5 76 -50.5 138zM277.001 700l64 -138h-71l-100 138
h107z" />
    <glyph glyph-name="uacute" unicode="&#xfa;" horiz-adv-x="571" 
d="M76 169l0.000976562 327h78v-323c0 -38 10.667 -67 32 -87s49.666 -30 84.999 -30c40 0 74.333 15 103 45s43 69 43 117v278h78v-496h-78v87c-34.667 -67.333 -89.667 -101 -165 -101c-50 0 -91.833 15 -125.5 45s-50.5 76 -50.5 138zM230.001 562l64 138h107l-100 -138
h-71z" />
    <glyph glyph-name="ucircumflex" unicode="&#xfb;" horiz-adv-x="571" 
d="M76 169l0.000976562 327h78v-323c0 -38 10.667 -67 32 -87s49.666 -30 84.999 -30c40 0 74.333 15 103 45s43 69 43 117v278h78v-496h-78v87c-34.667 -67.333 -89.667 -101 -165 -101c-50 0 -91.833 15 -125.5 45s-50.5 76 -50.5 138zM151.001 562l100 138h68l100 -138
h-68l-66 68l-66 -68h-68z" />
    <glyph glyph-name="udieresis" unicode="&#xfc;" horiz-adv-x="571" 
d="M76 169l0.000976562 327h78v-323c0 -38 10.667 -67 32 -87s49.666 -30 84.999 -30c40 0 74.333 15 103 45s43 69 43 117v278h78v-496h-78v87c-34.667 -67.333 -89.667 -101 -165 -101c-50 0 -91.833 15 -125.5 45s-50.5 76 -50.5 138zM318.001 588v92h92v-92h-92z
M160.001 588v92h92v-92h-92z" />
    <glyph glyph-name="yacute" unicode="&#xfd;" horiz-adv-x="493" 
d="M56 -201l12.001 70c14.667 -6.66699 28 -10 40 -10c15.333 0 27.166 3.66699 35.499 11s16.5 20 24.5 38l37 94l-200 494h86l157 -389l155 389h84l-249 -613c-14 -34.667 -31.167 -59 -51.5 -73s-46.5 -21 -78.5 -21c-18.667 0 -36 3.33301 -52 10zM192.001 562l64 138
h107l-100 -138h-71z" />
    <glyph glyph-name="thorn" unicode="&#xfe;" horiz-adv-x="608" 
d="M76 -204l-0.000976562 904h78v-293c16 30.667 39.833 55.5 71.5 74.5s67.167 28.5 106.5 28.5c66.667 0 122.334 -24 167.001 -72s67 -111.333 67 -190c0 -78 -23 -141.167 -69 -189.5s-102.667 -72.5 -170 -72.5c-78 0 -135.667 31 -173 93v-283h-78zM316.999 438
c-48.667 0 -89 -17.5 -121 -52.5s-48 -80.833 -48 -137.5s16 -102.5 48 -137.5s72.333 -52.5 121 -52.5s89 17.5 121 52.5s48 80.833 48 137.5s-16 102.5 -48 137.5s-72.333 52.5 -121 52.5z" />
    <glyph glyph-name="ydieresis" unicode="&#xff;" horiz-adv-x="493" 
d="M56 -201l12.001 70c14.667 -6.66699 28 -10 40 -10c15.333 0 27.166 3.66699 35.499 11s16.5 20 24.5 38l37 94l-200 494h86l157 -389l155 389h84l-249 -613c-14 -34.667 -31.167 -59 -51.5 -73s-46.5 -21 -78.5 -21c-18.667 0 -36 3.33301 -52 10zM280.001 588v92h92
v-92h-92zM122.001 588v92h92v-92h-92z" />
    <glyph glyph-name="Amacron" unicode="&#x100;" horiz-adv-x="656" 
d="M6 0l278 700h88l278 -700h-86l-81 207h-310l-81 -207h-86zM307 549l-107.001 -272h255l-106 272l-8 21c-0.666992 2.66699 -2.66699 8.5 -6 17.5s-5.66602 15.5 -6.99902 19.5l-13 -37zM217.999 804v70h220v-70h-220z" />
    <glyph glyph-name="amacron" unicode="&#x101;" horiz-adv-x="543" 
d="M496 0l-78.001 -0.00195312c-20 25.333 -30 58 -30 98c-15.333 -36 -37.833 -63.667 -67.5 -83s-63.5 -29 -101.5 -29c-50 0 -90.333 14.167 -121 42.5s-46 64.5 -46 108.5c0 45.333 15.667 81.5 47 108.5s72.666 44.833 123.999 53.5l165 27v22c0 64 -39 96 -117 96
c-37.333 0 -66.166 -7.33301 -86.499 -22s-30.5 -33 -30.5 -55c0 -6.66699 0.666992 -11.667 2 -15l-68 -23c-5.33301 14 -8 27.333 -8 40c0 38.667 17.5 71.834 52.5 99.501s81.167 41.5 138.5 41.5c64.667 0 113.334 -14.167 146.001 -42.5s49 -68.166 49 -119.499v-224
c0 -28.667 2 -51.5 6 -68.5s12 -35.5 24 -55.5zM227.999 55.998c50 0 89.167 18.833 117.5 56.5s42.5 83.167 42.5 136.5v15l-151 -26c-70 -12 -105 -44.333 -105 -97c0 -26 8.5 -46.667 25.5 -62s40.5 -23 70.5 -23zM160.999 599.998v70h220v-70h-220z" />
    <glyph glyph-name="Abreve" unicode="&#x102;" horiz-adv-x="656" 
d="M6 0l278 700h88l278 -700h-86l-81 207h-310l-81 -207h-86zM307 549l-107.001 -272h255l-106 272l-8 21c-0.666992 2.66699 -2.66699 8.5 -6 17.5s-5.66602 15.5 -6.99902 19.5l-13 -37zM366.999 876h64c0 -31.333 -9.66699 -56.5 -29 -75.5s-44 -28.5 -74 -28.5
s-54.667 9.5 -74 28.5s-29 44.167 -29 75.5h64c0 -29.333 13 -44 39 -44s39 14.667 39 44z" />
    <glyph glyph-name="abreve" unicode="&#x103;" horiz-adv-x="543" 
d="M496 0l-78.001 -0.00195312c-20 25.333 -30 58 -30 98c-15.333 -36 -37.833 -63.667 -67.5 -83s-63.5 -29 -101.5 -29c-50 0 -90.333 14.167 -121 42.5s-46 64.5 -46 108.5c0 45.333 15.667 81.5 47 108.5s72.666 44.833 123.999 53.5l165 27v22c0 64 -39 96 -117 96
c-37.333 0 -66.166 -7.33301 -86.499 -22s-30.5 -33 -30.5 -55c0 -6.66699 0.666992 -11.667 2 -15l-68 -23c-5.33301 14 -8 27.333 -8 40c0 38.667 17.5 71.834 52.5 99.501s81.167 41.5 138.5 41.5c64.667 0 113.334 -14.167 146.001 -42.5s49 -68.166 49 -119.499v-224
c0 -28.667 2 -51.5 6 -68.5s12 -35.5 24 -55.5zM227.999 55.998c50 0 89.167 18.833 117.5 56.5s42.5 83.167 42.5 136.5v15l-151 -26c-70 -12 -105 -44.333 -105 -97c0 -26 8.5 -46.667 25.5 -62s40.5 -23 70.5 -23zM309.999 671.998h64
c0 -31.333 -9.66699 -56.5 -29 -75.5s-44 -28.5 -74 -28.5s-54.667 9.5 -74 28.5s-29 44.167 -29 75.5h64c0 -29.333 13 -44 39 -44s39 14.667 39 44z" />
    <glyph glyph-name="Aogonek" unicode="&#x104;" horiz-adv-x="656" 
d="M508 -105c0 36.667 18.668 71.668 56.001 105.001l-81 207h-310l-81 -207h-86l278 700h88l278 -700c-47.333 -26 -71 -53.667 -71 -83c0 -14 4.33301 -25 13 -33s20.667 -12 36 -12c3.33301 0 9.66602 0.666992 18.999 2l9 -66c-14 -4 -29 -6 -45 -6
c-28 0 -52.167 8.16699 -72.5 24.5s-30.5 39.166 -30.5 68.499zM307.001 549.001l-107.001 -272h255l-106 272l-8 21c-0.666992 2.66699 -2.66699 8.5 -6 17.5s-5.66602 15.5 -6.99902 19.5l-13 -37z" />
    <glyph glyph-name="aogonek" unicode="&#x105;" horiz-adv-x="543" 
d="M354 -105c0 41.333 21.333 76.332 64 104.999c-20 25.333 -30 58 -30 98c-15.333 -36 -37.833 -63.667 -67.5 -83s-63.5 -29 -101.5 -29c-50 0 -90.333 14.167 -121 42.5s-46 64.5 -46 108.5c0 45.333 15.667 81.5 47 108.5s72.666 44.833 123.999 53.5l165 27v22
c0 64 -39 96 -117 96c-37.333 0 -66.166 -7.33301 -86.499 -22s-30.5 -33 -30.5 -55c0 -6.66699 0.666992 -11.667 2 -15l-68 -23c-5.33301 14 -8 27.333 -8 40c0 38.667 17.5 71.834 52.5 99.501s81.167 41.5 138.5 41.5c64.667 0 113.334 -14.167 146.001 -42.5
s49 -68.166 49 -119.499v-224c0 -28.667 2 -51.5 6 -68.5s12 -35.5 24 -55.5c-47.333 -26 -71 -53.667 -71 -83c0 -14 4.33301 -25 13 -33s20.667 -12 36 -12c3.33301 0 9.66602 0.666992 18.999 2l9 -66c-14 -4 -29 -6 -45 -6c-28 0 -52.167 8.16699 -72.5 24.5
s-30.5 39.166 -30.5 68.499zM228 55.999c50 0 89.167 18.833 117.5 56.5s42.5 83.167 42.5 136.5v15l-151 -26c-70 -12 -105 -44.333 -105 -97c0 -26 8.5 -46.667 25.5 -62s40.5 -23 70.5 -23z" />
    <glyph glyph-name="Cacute" unicode="&#x106;" horiz-adv-x="748" 
d="M626 211l62.999 -46c-62.667 -119.333 -161.334 -179 -296.001 -179c-96.667 0 -177 34.5 -241 103.5s-96 155.833 -96 260.5c0 103.333 33.333 189.833 100 259.5s147.334 104.5 242.001 104.5c68 0 127.333 -16 178 -48s88.667 -76 114 -132l-65 -46
c-49.333 101.333 -125.666 152 -228.999 152c-71.333 0 -131.5 -28 -180.5 -84s-73.5 -124.667 -73.5 -206c0 -83.333 23.5 -152.5 70.5 -207.5s107.833 -82.5 182.5 -82.5c52.667 0 97.5 11.833 134.5 35.5s69.167 62.167 96.5 115.5zM328.999 766l64 138h107l-100 -138
h-71z" />
    <glyph glyph-name="cacute" unicode="&#x107;" horiz-adv-x="557" 
d="M463 165l56.002 -36.002c-48.667 -95.333 -123 -143 -223 -143c-72 0 -132.333 24.667 -181 74s-73 112 -73 188c0 75.333 24.833 137.833 74.5 187.5s109.5 74.5 179.5 74.5c53.333 0 98.833 -11.833 136.5 -35.5s65.5 -57.167 83.5 -100.5l-59 -39
c-32.667 70 -86 105 -160 105c-50.667 0 -92.834 -17.667 -126.501 -53s-50.5 -81.666 -50.5 -138.999s16.667 -103.666 50 -138.999s75.666 -53 126.999 -53c39.333 0 72 9.16699 98 27.5s48.667 45.5 68 81.5zM233.002 561.998l64 138h107l-100 -138h-71z" />
    <glyph glyph-name="Ccircumflex" unicode="&#x108;" horiz-adv-x="748" 
d="M626 211l62.999 -46c-62.667 -119.333 -161.334 -179 -296.001 -179c-96.667 0 -177 34.5 -241 103.5s-96 155.833 -96 260.5c0 103.333 33.333 189.833 100 259.5s147.334 104.5 242.001 104.5c68 0 127.333 -16 178 -48s88.667 -76 114 -132l-65 -46
c-49.333 101.333 -125.666 152 -228.999 152c-71.333 0 -131.5 -28 -180.5 -84s-73.5 -124.667 -73.5 -206c0 -83.333 23.5 -152.5 70.5 -207.5s107.833 -82.5 182.5 -82.5c52.667 0 97.5 11.833 134.5 35.5s69.167 62.167 96.5 115.5zM259.999 766l100 138h68l100 -138h-68
l-66 68l-66 -68h-68z" />
    <glyph glyph-name="ccircumflex" unicode="&#x109;" horiz-adv-x="557" 
d="M463 165l56.002 -36.002c-48.667 -95.333 -123 -143 -223 -143c-72 0 -132.333 24.667 -181 74s-73 112 -73 188c0 75.333 24.833 137.833 74.5 187.5s109.5 74.5 179.5 74.5c53.333 0 98.833 -11.833 136.5 -35.5s65.5 -57.167 83.5 -100.5l-59 -39
c-32.667 70 -86 105 -160 105c-50.667 0 -92.834 -17.667 -126.501 -53s-50.5 -81.666 -50.5 -138.999s16.667 -103.666 50 -138.999s75.666 -53 126.999 -53c39.333 0 72 9.16699 98 27.5s48.667 45.5 68 81.5zM159.002 561.998l100 138h68l100 -138h-68l-66 68l-66 -68
h-68z" />
    <glyph glyph-name="Cdotaccent" unicode="&#x10a;" horiz-adv-x="748" 
d="M626 211l62.999 -46c-62.667 -119.333 -161.334 -179 -296.001 -179c-96.667 0 -177 34.5 -241 103.5s-96 155.833 -96 260.5c0 103.333 33.333 189.833 100 259.5s147.334 104.5 242.001 104.5c68 0 127.333 -16 178 -48s88.667 -76 114 -132l-65 -46
c-49.333 101.333 -125.666 152 -228.999 152c-71.333 0 -131.5 -28 -180.5 -84s-73.5 -124.667 -73.5 -206c0 -83.333 23.5 -152.5 70.5 -207.5s107.833 -82.5 182.5 -82.5c52.667 0 97.5 11.833 134.5 35.5s69.167 62.167 96.5 115.5zM346.999 786v98h94v-98h-94z" />
    <glyph glyph-name="cdotaccent" unicode="&#x10b;" horiz-adv-x="557" 
d="M463 165l56.002 -36.002c-48.667 -95.333 -123 -143 -223 -143c-72 0 -132.333 24.667 -181 74s-73 112 -73 188c0 75.333 24.833 137.833 74.5 187.5s109.5 74.5 179.5 74.5c53.333 0 98.833 -11.833 136.5 -35.5s65.5 -57.167 83.5 -100.5l-59 -39
c-32.667 70 -86 105 -160 105c-50.667 0 -92.834 -17.667 -126.501 -53s-50.5 -81.666 -50.5 -138.999s16.667 -103.666 50 -138.999s75.666 -53 126.999 -53c39.333 0 72 9.16699 98 27.5s48.667 45.5 68 81.5zM246.002 581.998v98h94v-98h-94z" />
    <glyph glyph-name="Ccaron" unicode="&#x10c;" horiz-adv-x="748" 
d="M626 211l62.999 -46c-62.667 -119.333 -161.334 -179 -296.001 -179c-96.667 0 -177 34.5 -241 103.5s-96 155.833 -96 260.5c0 103.333 33.333 189.833 100 259.5s147.334 104.5 242.001 104.5c68 0 127.333 -16 178 -48s88.667 -76 114 -132l-65 -46
c-49.333 101.333 -125.666 152 -228.999 152c-71.333 0 -131.5 -28 -180.5 -84s-73.5 -124.667 -73.5 -206c0 -83.333 23.5 -152.5 70.5 -207.5s107.833 -82.5 182.5 -82.5c52.667 0 97.5 11.833 134.5 35.5s69.167 62.167 96.5 115.5zM359.999 766l-100 138h68l66 -68
l66 68h68l-100 -138h-68z" />
    <glyph glyph-name="ccaron" unicode="&#x10d;" horiz-adv-x="557" 
d="M463 165l56.002 -36.002c-48.667 -95.333 -123 -143 -223 -143c-72 0 -132.333 24.667 -181 74s-73 112 -73 188c0 75.333 24.833 137.833 74.5 187.5s109.5 74.5 179.5 74.5c53.333 0 98.833 -11.833 136.5 -35.5s65.5 -57.167 83.5 -100.5l-59 -39
c-32.667 70 -86 105 -160 105c-50.667 0 -92.834 -17.667 -126.501 -53s-50.5 -81.666 -50.5 -138.999s16.667 -103.666 50 -138.999s75.666 -53 126.999 -53c39.333 0 72 9.16699 98 27.5s48.667 45.5 68 81.5zM259.002 561.998l-100 138h68l66 -68l66 68h68l-100 -138h-68
z" />
    <glyph glyph-name="Dcaron" unicode="&#x10e;" horiz-adv-x="693" 
d="M88 0v700h193c106 0 191.833 -31 257.5 -93s98.5 -147.667 98.5 -257s-32.833 -195 -98.5 -257s-151.5 -93 -257.5 -93h-193zM172 74l104 0.00195312c84.667 0 151.667 23.167 201 69.5s74 115.166 74 206.499s-24.667 160.166 -74 206.499s-116.333 69.5 -201 69.5h-104
v-552zM222 766.002l-100 138h68l66 -68l66 68h68l-100 -138h-68z" />
    <glyph glyph-name="dcaron" unicode="&#x10f;" horiz-adv-x="693" 
d="M628 505l-22 13l36 94h-35v88h86v-88zM531 700l-0.000976562 -700h-78v89c-39.333 -68.667 -96.333 -103 -171 -103c-69.333 0 -126.666 24.5 -171.999 73.5s-68 111.833 -68 188.5c0 74.667 23.333 137 70 187s101.667 75 165 75c84 0 142.667 -34.667 176 -104v294h78z
M290.999 58c48 0 88 17.5 120 52.5s48 80.833 48 137.5s-16 102.5 -48 137.5s-72 52.5 -120 52.5s-88.167 -17.5 -120.5 -52.5s-48.5 -80.833 -48.5 -137.5s16.167 -102.5 48.5 -137.5s72.5 -52.5 120.5 -52.5z" />
    <glyph glyph-name="Dcroat" unicode="&#x110;" horiz-adv-x="717" 
d="M40 315v70h72v315h193c106 0 191.833 -31 257.5 -93s98.5 -147.667 98.5 -257s-32.833 -195 -98.5 -257s-151.5 -93 -257.5 -93h-193v315h-72zM196 74l104 0.00195312c84.667 0 151.667 23.167 201 69.5s74 115.166 74 206.499s-24.667 160.166 -74 206.499
s-116.333 69.5 -201 69.5h-104v-241h154v-70h-154v-241z" />
    <glyph glyph-name="dcroat" unicode="&#x111;" horiz-adv-x="605" 
d="M531 700l-0.000976562 -68h66v-64h-66v-568h-78v89c-39.333 -68.667 -96.333 -103 -171 -103c-69.333 0 -126.666 24.5 -171.999 73.5s-68 111.833 -68 188.5c0 74.667 23.333 137 70 187s101.667 75 165 75c84 0 142.667 -34.667 176 -104v162h-162v64h162v68h78z
M290.999 58c48 0 88 17.5 120 52.5s48 80.833 48 137.5s-16 102.5 -48 137.5s-72 52.5 -120 52.5s-88.167 -17.5 -120.5 -52.5s-48.5 -80.833 -48.5 -137.5s16.167 -102.5 48.5 -137.5s72.5 -52.5 120.5 -52.5z" />
    <glyph glyph-name="Emacron" unicode="&#x112;" horiz-adv-x="597" 
d="M88 0v700h438v-74h-354v-227h326v-74h-326v-251h357v-74h-441zM198 804v70h220v-70h-220z" />
    <glyph glyph-name="emacron" unicode="&#x113;" horiz-adv-x="574" 
d="M530 235l-410 -0.000976562c2.66699 -53.333 19.334 -97.166 50.001 -131.499s71 -51.5 121 -51.5c42 0 75.833 9.83301 101.5 29.5s47.5 47.5 65.5 83.5l57 -34c-50 -96.667 -125.667 -145 -227 -145c-68.667 0 -126.834 24.833 -174.501 74.5
s-71.5 112.167 -71.5 187.5c0 76 24 138.667 72 188s107 74 177 74c73.333 0 131.5 -23 174.5 -69s64.5 -105.667 64.5 -179v-27zM291 443.999c-43.333 0 -79.166 -13.167 -107.499 -39.5s-47.5 -61.5 -57.5 -105.5h326c-2.66699 44 -19.834 79.167 -51.501 105.5
s-68.167 39.5 -109.5 39.5zM179 599.999v70h220v-70h-220z" />
    <glyph glyph-name="Ebreve" unicode="&#x114;" horiz-adv-x="597" 
d="M88 0v700h438v-74h-354v-227h326v-74h-326v-251h357v-74h-441zM347 876h64c0 -31.333 -9.66699 -56.5 -29 -75.5s-44 -28.5 -74 -28.5s-54.667 9.5 -74 28.5s-29 44.167 -29 75.5h64c0 -29.333 13 -44 39 -44s39 14.667 39 44z" />
    <glyph glyph-name="ebreve" unicode="&#x115;" horiz-adv-x="574" 
d="M530 235l-410 -0.000976562c2.66699 -53.333 19.334 -97.166 50.001 -131.499s71 -51.5 121 -51.5c42 0 75.833 9.83301 101.5 29.5s47.5 47.5 65.5 83.5l57 -34c-50 -96.667 -125.667 -145 -227 -145c-68.667 0 -126.834 24.833 -174.501 74.5
s-71.5 112.167 -71.5 187.5c0 76 24 138.667 72 188s107 74 177 74c73.333 0 131.5 -23 174.5 -69s64.5 -105.667 64.5 -179v-27zM291 443.999c-43.333 0 -79.166 -13.167 -107.499 -39.5s-47.5 -61.5 -57.5 -105.5h326c-2.66699 44 -19.834 79.167 -51.501 105.5
s-68.167 39.5 -109.5 39.5zM328 671.999h64c0 -31.333 -9.66699 -56.5 -29 -75.5s-44 -28.5 -74 -28.5s-54.667 9.5 -74 28.5s-29 44.167 -29 75.5h64c0 -29.333 13 -44 39 -44s39 14.667 39 44z" />
    <glyph glyph-name="Edotaccent" unicode="&#x116;" horiz-adv-x="597" 
d="M88 0v700h438v-74h-354v-227h326v-74h-326v-251h357v-74h-441zM261 786v98h94v-98h-94z" />
    <glyph glyph-name="edotaccent" unicode="&#x117;" horiz-adv-x="574" 
d="M530 235l-410 -0.000976562c2.66699 -53.333 19.334 -97.166 50.001 -131.499s71 -51.5 121 -51.5c42 0 75.833 9.83301 101.5 29.5s47.5 47.5 65.5 83.5l57 -34c-50 -96.667 -125.667 -145 -227 -145c-68.667 0 -126.834 24.833 -174.501 74.5
s-71.5 112.167 -71.5 187.5c0 76 24 138.667 72 188s107 74 177 74c73.333 0 131.5 -23 174.5 -69s64.5 -105.667 64.5 -179v-27zM291 443.999c-43.333 0 -79.166 -13.167 -107.499 -39.5s-47.5 -61.5 -57.5 -105.5h326c-2.66699 44 -19.834 79.167 -51.501 105.5
s-68.167 39.5 -109.5 39.5zM242 581.999v98h94v-98h-94z" />
    <glyph glyph-name="Eogonek" unicode="&#x118;" horiz-adv-x="597" 
d="M88 0l0.000976562 700.001h438v-74h-354v-227h326v-74h-326v-251h357v-74c-47.333 -26 -71 -53.667 -71 -83c0 -14 4.33301 -25 13 -33s20.667 -12 36 -12c3.33301 0 9.66602 0.666992 18.999 2l9 -66c-14 -4 -29 -6 -45 -6c-28 0 -52.167 8.16699 -72.5 24.5
s-30.5 39.166 -30.5 68.499c0 41.333 20.667 76.333 62 105h-361z" />
    <glyph glyph-name="eogonek" unicode="&#x119;" horiz-adv-x="574" 
d="M235 -105c0 34.667 15 64.998 45 90.998c-66.667 1.33301 -123 26.833 -169 76.5s-69 111.5 -69 185.5c0 76 24 138.667 72 188s107 74 177 74c73.333 0 131.5 -23 174.5 -69s64.5 -105.667 64.5 -179v-27h-410c2.66699 -53.333 19.334 -97.166 50.001 -131.499
s71 -51.5 121 -51.5c42 0 75.833 9.83301 101.5 29.5s47.5 47.5 65.5 83.5l57 -34c-17.333 -33.333 -36.5 -60.166 -57.5 -80.499s-47.833 -37.166 -80.5 -50.499c-21.333 -8.66699 -38.5 -20 -51.5 -34s-19.5 -29.333 -19.5 -46c0 -32 16.333 -48 49 -48
c3.33301 0 9.66602 0.666992 18.999 2l9 -66c-14 -4 -29 -6 -45 -6c-28 0 -52.167 8.16699 -72.5 24.5s-30.5 39.166 -30.5 68.499zM291 443.998c-43.333 0 -79.166 -13.167 -107.499 -39.5s-47.5 -61.5 -57.5 -105.5h326c-2.66699 44 -19.834 79.167 -51.501 105.5
s-68.167 39.5 -109.5 39.5z" />
    <glyph glyph-name="Ecaron" unicode="&#x11a;" horiz-adv-x="597" 
d="M88 0v700h438v-74h-354v-227h326v-74h-326v-251h357v-74h-441zM274 766l-100 138h68l66 -68l66 68h68l-100 -138h-68z" />
    <glyph glyph-name="ecaron" unicode="&#x11b;" horiz-adv-x="574" 
d="M530 235l-410 -0.000976562c2.66699 -53.333 19.334 -97.166 50.001 -131.499s71 -51.5 121 -51.5c42 0 75.833 9.83301 101.5 29.5s47.5 47.5 65.5 83.5l57 -34c-50 -96.667 -125.667 -145 -227 -145c-68.667 0 -126.834 24.833 -174.501 74.5
s-71.5 112.167 -71.5 187.5c0 76 24 138.667 72 188s107 74 177 74c73.333 0 131.5 -23 174.5 -69s64.5 -105.667 64.5 -179v-27zM291 443.999c-43.333 0 -79.166 -13.167 -107.499 -39.5s-47.5 -61.5 -57.5 -105.5h326c-2.66699 44 -19.834 79.167 -51.501 105.5
s-68.167 39.5 -109.5 39.5zM255 561.999l-100 138h68l66 -68l66 68h68l-100 -138h-68z" />
    <glyph glyph-name="Gcircumflex" unicode="&#x11c;" horiz-adv-x="766" 
d="M637 0l-24.002 121c-44 -90 -118.667 -135 -224 -135c-97.333 0 -177.166 34.333 -239.499 103s-93.5 155.667 -93.5 261c0 103.333 33.5 189.833 100.5 259.5s147.5 104.5 241.5 104.5c67.333 0 126 -15 176 -45s88.667 -71.667 116 -125l-64 -46
c-29.333 50.667 -62.5 87 -99.5 109s-80.167 33 -129.5 33c-70 0 -130 -27.333 -180 -82s-75 -124 -75 -208c0 -86 22.833 -155.833 68.5 -209.5s106.167 -80.5 181.5 -80.5c62.667 0 112.334 19.667 149.001 59s60 93.333 70 162h-246v70h330v-351h-58zM258.998 766
l100 138h68l100 -138h-68l-66 68l-66 -68h-68z" />
    <glyph glyph-name="gcircumflex" unicode="&#x11d;" horiz-adv-x="587" 
d="M80 -23l73.999 -20.999c-4.66699 -10 -7 -21 -7 -33c0 -22 11.667 -39.333 35 -52s56.666 -19 99.999 -19c54.667 0 94.834 14.333 120.501 43s38.5 72 38.5 130v85c-16.667 -32 -39.5 -57 -68.5 -75s-61.833 -27 -98.5 -27c-66 0 -121.167 23.167 -165.5 69.5
s-66.5 106.833 -66.5 181.5c0 77.333 22 138.5 66 183.5s98.333 67.5 163 67.5c40 0 75 -9.16699 105 -27.5s51.667 -43.5 65 -75.5v89h78v-470c0 -77.333 -20.5 -137.333 -61.5 -180s-99.5 -64 -175.5 -64c-69.333 0 -122.166 13.167 -158.499 39.5
s-54.5 61.166 -54.5 104.499c0 22.667 3.66699 39.667 11 51zM282.999 440.001c-47.333 0 -86 -16.333 -116 -49s-45 -76.667 -45 -132s15 -99.333 45 -132s68.667 -49 116 -49s86.5 16.333 117.5 49s46.5 76.667 46.5 132s-15.5 99.333 -46.5 132s-70.167 49 -117.5 49z
M168.999 562.001l100 138h68l100 -138h-68l-66 68l-66 -68h-68z" />
    <glyph glyph-name="Gbreve" unicode="&#x11e;" horiz-adv-x="766" 
d="M637 0l-24.002 121c-44 -90 -118.667 -135 -224 -135c-97.333 0 -177.166 34.333 -239.499 103s-93.5 155.667 -93.5 261c0 103.333 33.5 189.833 100.5 259.5s147.5 104.5 241.5 104.5c67.333 0 126 -15 176 -45s88.667 -71.667 116 -125l-64 -46
c-29.333 50.667 -62.5 87 -99.5 109s-80.167 33 -129.5 33c-70 0 -130 -27.333 -180 -82s-75 -124 -75 -208c0 -86 22.833 -155.833 68.5 -209.5s106.167 -80.5 181.5 -80.5c62.667 0 112.334 19.667 149.001 59s60 93.333 70 162h-246v70h330v-351h-58zM436.998 876h64
c0 -31.333 -9.66699 -56.5 -29 -75.5s-44 -28.5 -74 -28.5s-54.667 9.5 -74 28.5s-29 44.167 -29 75.5h64c0 -29.333 13 -44 39 -44s39 14.667 39 44z" />
    <glyph glyph-name="gbreve" unicode="&#x11f;" horiz-adv-x="587" 
d="M80 -23l73.999 -20.999c-4.66699 -10 -7 -21 -7 -33c0 -22 11.667 -39.333 35 -52s56.666 -19 99.999 -19c54.667 0 94.834 14.333 120.501 43s38.5 72 38.5 130v85c-16.667 -32 -39.5 -57 -68.5 -75s-61.833 -27 -98.5 -27c-66 0 -121.167 23.167 -165.5 69.5
s-66.5 106.833 -66.5 181.5c0 77.333 22 138.5 66 183.5s98.333 67.5 163 67.5c40 0 75 -9.16699 105 -27.5s51.667 -43.5 65 -75.5v89h78v-470c0 -77.333 -20.5 -137.333 -61.5 -180s-99.5 -64 -175.5 -64c-69.333 0 -122.166 13.167 -158.499 39.5
s-54.5 61.166 -54.5 104.499c0 22.667 3.66699 39.667 11 51zM282.999 440.001c-47.333 0 -86 -16.333 -116 -49s-45 -76.667 -45 -132s15 -99.333 45 -132s68.667 -49 116 -49s86.5 16.333 117.5 49s46.5 76.667 46.5 132s-15.5 99.333 -46.5 132s-70.167 49 -117.5 49z
M331.999 672.001h64c0 -31.333 -9.66699 -56.5 -29 -75.5s-44 -28.5 -74 -28.5s-54.667 9.5 -74 28.5s-29 44.167 -29 75.5h64c0 -29.333 13 -44 39 -44s39 14.667 39 44z" />
    <glyph glyph-name="Gdotaccent" unicode="&#x120;" horiz-adv-x="766" 
d="M637 0l-24.002 121c-44 -90 -118.667 -135 -224 -135c-97.333 0 -177.166 34.333 -239.499 103s-93.5 155.667 -93.5 261c0 103.333 33.5 189.833 100.5 259.5s147.5 104.5 241.5 104.5c67.333 0 126 -15 176 -45s88.667 -71.667 116 -125l-64 -46
c-29.333 50.667 -62.5 87 -99.5 109s-80.167 33 -129.5 33c-70 0 -130 -27.333 -180 -82s-75 -124 -75 -208c0 -86 22.833 -155.833 68.5 -209.5s106.167 -80.5 181.5 -80.5c62.667 0 112.334 19.667 149.001 59s60 93.333 70 162h-246v70h330v-351h-58zM350.998 786v98h94
v-98h-94z" />
    <glyph glyph-name="gdotaccent" unicode="&#x121;" horiz-adv-x="587" 
d="M80 -23l73.999 -20.999c-4.66699 -10 -7 -21 -7 -33c0 -22 11.667 -39.333 35 -52s56.666 -19 99.999 -19c54.667 0 94.834 14.333 120.501 43s38.5 72 38.5 130v85c-16.667 -32 -39.5 -57 -68.5 -75s-61.833 -27 -98.5 -27c-66 0 -121.167 23.167 -165.5 69.5
s-66.5 106.833 -66.5 181.5c0 77.333 22 138.5 66 183.5s98.333 67.5 163 67.5c40 0 75 -9.16699 105 -27.5s51.667 -43.5 65 -75.5v89h78v-470c0 -77.333 -20.5 -137.333 -61.5 -180s-99.5 -64 -175.5 -64c-69.333 0 -122.166 13.167 -158.499 39.5
s-54.5 61.166 -54.5 104.499c0 22.667 3.66699 39.667 11 51zM282.999 440.001c-47.333 0 -86 -16.333 -116 -49s-45 -76.667 -45 -132s15 -99.333 45 -132s68.667 -49 116 -49s86.5 16.333 117.5 49s46.5 76.667 46.5 132s-15.5 99.333 -46.5 132s-70.167 49 -117.5 49z
M245.999 582.001v98h94v-98h-94z" />
    <glyph glyph-name="uni0122" unicode="&#x122;" horiz-adv-x="766" 
d="M346 -158v98h94v-98l-70 -127l-24 9l33 118h-33zM637 0l-24.002 121c-44 -90 -118.667 -135 -224 -135c-97.333 0 -177.166 34.333 -239.499 103s-93.5 155.667 -93.5 261c0 103.333 33.5 189.833 100.5 259.5s147.5 104.5 241.5 104.5c67.333 0 126 -15 176 -45
s88.667 -71.667 116 -125l-64 -46c-29.333 50.667 -62.5 87 -99.5 109s-80.167 33 -129.5 33c-70 0 -130 -27.333 -180 -82s-75 -124 -75 -208c0 -86 22.833 -155.833 68.5 -209.5s106.167 -80.5 181.5 -80.5c62.667 0 112.334 19.667 149.001 59s60 93.333 70 162h-246v70
h330v-351h-58z" />
    <glyph glyph-name="uni0123" unicode="&#x123;" horiz-adv-x="587" 
d="M324 772l20 -15l-49 -96h37v-98h-94v98zM80 -23l73.999 -20.999c-4.66699 -10 -7 -21 -7 -33c0 -22 11.667 -39.333 35 -52s56.666 -19 99.999 -19c54.667 0 94.834 14.333 120.501 43s38.5 72 38.5 130v85c-16.667 -32 -39.5 -57 -68.5 -75s-61.833 -27 -98.5 -27
c-66 0 -121.167 23.167 -165.5 69.5s-66.5 106.833 -66.5 181.5c0 77.333 22 138.5 66 183.5s98.333 67.5 163 67.5c40 0 75 -9.16699 105 -27.5s51.667 -43.5 65 -75.5v89h78v-470c0 -77.333 -20.5 -137.333 -61.5 -180s-99.5 -64 -175.5 -64
c-69.333 0 -122.166 13.167 -158.499 39.5s-54.5 61.166 -54.5 104.499c0 22.667 3.66699 39.667 11 51zM282.999 440.001c-47.333 0 -86 -16.333 -116 -49s-45 -76.667 -45 -132s15 -99.333 45 -132s68.667 -49 116 -49s86.5 16.333 117.5 49s46.5 76.667 46.5 132
s-15.5 99.333 -46.5 132s-70.167 49 -117.5 49z" />
    <glyph glyph-name="Hcircumflex" unicode="&#x124;" horiz-adv-x="690" 
d="M88 0v700h84v-306h346v306h84v-700h-84v320h-346v-320h-84zM211 766l100 138h68l100 -138h-68l-66 68l-66 -68h-68z" />
    <glyph glyph-name="hcircumflex" unicode="&#x125;" horiz-adv-x="577" 
d="M501 335v-334.999h-78v321c0 38.667 -11 68.167 -33 88.5s-51.333 30.5 -88 30.5c-40 0 -74.667 -15.333 -104 -46s-44 -70.334 -44 -119.001v-275h-78v700h78v-291c16 30.667 39.333 55.167 70 73.5s63.667 27.5 99 27.5c50 0 92.167 -15 126.5 -45
s51.5 -73.333 51.5 -130zM56 766.001l100 138h68l100 -138h-68l-66 68l-66 -68h-68z" />
    <glyph glyph-name="Hbar" unicode="&#x126;" horiz-adv-x="736" 
d="M11 496v70h100v134h84v-134h346v134h84v-134h100v-70h-100v-496h-84v320h-346v-320h-84v496h-100zM195 394h346v102h-346v-102z" />
    <glyph glyph-name="hbar" unicode="&#x127;" horiz-adv-x="577" 
d="M10 568v64.001h66v68h78v-68h163v-64h-163v-159c16 30.667 39.333 55.167 70 73.5s63.667 27.5 99 27.5c50 0 92.167 -15 126.5 -45s51.5 -73.333 51.5 -130v-335h-78v321c0 38.667 -11 68.167 -33 88.5s-51.333 30.5 -88 30.5c-40 0 -74.667 -15.333 -104 -46
s-44 -70.334 -44 -119.001v-275h-78v568h-66z" />
    <glyph glyph-name="Itilde" unicode="&#x128;" horiz-adv-x="260" 
d="M88 0v700h84v-700h-84zM58 832c-8 0 -14.832 -2.66699 -20.499 -8s-8.5 -11.666 -8.5 -18.999s2.33301 -16 7 -26l-60 -12c-8 12 -12 27.333 -12 46c0 24.667 9 44.167 27 58.5s39 21.5 63 21.5c20.667 0 38.667 -3.5 54 -10.5s26.666 -14.667 33.999 -23
s16.166 -16 26.499 -23s21.5 -10.5 33.5 -10.5c8 0 14.833 2.66699 20.5 8s8.5 11.666 8.5 18.999s-2.33301 16 -7 26l60 12c8 -12 12 -27.333 12 -46c0 -25.333 -9 -45 -27 -59s-39 -21 -63 -21c-20.667 0 -38.667 3.5 -54 10.5s-26.833 14.667 -34.5 23s-16.667 16 -27 23
s-21.166 10.5 -32.499 10.5z" />
    <glyph glyph-name="itilde" unicode="&#x129;" horiz-adv-x="230" 
d="M76 0v496h78v-496h-78zM43 628c-8 0 -14.832 -2.66699 -20.499 -8s-8.5 -11.666 -8.5 -18.999s2.33301 -16 7 -26l-60 -12c-8 12 -12 27.333 -12 46c0 24.667 9 44.167 27 58.5s39 21.5 63 21.5c20.667 0 38.667 -3.5 54 -10.5s26.666 -14.667 33.999 -23
s16.166 -16 26.499 -23s21.5 -10.5 33.5 -10.5c8 0 14.833 2.66699 20.5 8s8.5 11.666 8.5 18.999s-2.33301 16 -7 26l60 12c8 -12 12 -27.333 12 -46c0 -25.333 -9 -45 -27 -59s-39 -21 -63 -21c-20.667 0 -38.667 3.5 -54 10.5s-26.833 14.667 -34.5 23s-16.667 16 -27 23
s-21.166 10.5 -32.499 10.5z" />
    <glyph glyph-name="Imacron" unicode="&#x12a;" horiz-adv-x="260" 
d="M88 0v700h84v-700h-84zM20 804v70h220v-70h-220z" />
    <glyph glyph-name="imacron" unicode="&#x12b;" horiz-adv-x="230" 
d="M76 0v496h78v-496h-78zM5 600v70h220v-70h-220z" />
    <glyph glyph-name="Ibreve" unicode="&#x12c;" horiz-adv-x="260" 
d="M88 0v700h84v-700h-84zM169 876h64c0 -31.333 -9.66699 -56.5 -29 -75.5s-44 -28.5 -74 -28.5s-54.667 9.5 -74 28.5s-29 44.167 -29 75.5h64c0 -29.333 13 -44 39 -44s39 14.667 39 44z" />
    <glyph glyph-name="ibreve" unicode="&#x12d;" horiz-adv-x="230" 
d="M76 0v496h78v-496h-78zM154 672h64c0 -31.333 -9.66699 -56.5 -29 -75.5s-44 -28.5 -74 -28.5s-54.667 9.5 -74 28.5s-29 44.167 -29 75.5h64c0 -29.333 13 -44 39 -44s39 14.667 39 44z" />
    <glyph glyph-name="Iogonek" unicode="&#x12e;" horiz-adv-x="260" 
d="M88 0l0.000976562 700.001h84v-700c-47.333 -26 -71 -53.667 -71 -83c0 -14 4.33301 -25 13 -33s20.667 -12 36 -12c3.33301 0 9.66602 0.666992 18.999 2l9 -66c-14 -4 -29 -6 -45 -6c-28 0 -52.167 8.16699 -72.5 24.5s-30.5 39.166 -30.5 68.499
c0 40.667 19.333 75.667 58 105z" />
    <glyph glyph-name="iogonek" unicode="&#x12f;" horiz-adv-x="230" 
d="M12 -105c0 40.667 21.334 75.668 64.001 105.001v496h78v-496c-47.333 -26 -71 -53.667 -71 -83c0 -14 4.33301 -25 13 -33s20.667 -12 36 -12c3.33301 0 9.66602 0.666992 18.999 2l9 -66c-14 -4 -29 -6 -45 -6c-28 0 -52.167 8.16699 -72.5 24.5
s-30.5 39.166 -30.5 68.499zM68.001 582.001v98h94v-98h-94z" />
    <glyph glyph-name="Idotaccent" unicode="&#x130;" horiz-adv-x="260" 
d="M88 0v700h84v-700h-84zM83 786v98h94v-98h-94z" />
    <glyph glyph-name="dotlessi" unicode="&#x131;" horiz-adv-x="230" 
d="M76 0v496h78v-496h-78z" />
    <glyph glyph-name="IJ" unicode="&#x132;" horiz-adv-x="782" 
d="M88 0v700h84v-700h-84zM716 700l0.00195312 -502.001c0 -64 -18.833 -115.333 -56.5 -154s-87.167 -58 -148.5 -58c-64 0 -115.833 17.333 -155.5 52s-59.5 87 -59.5 157l84 -9c1.33301 -43.333 14.166 -75.166 38.499 -95.499s55.166 -30.5 92.499 -30.5
c35.333 0 64.333 12 87 36s34 58.333 34 103v501h84z" />
    <glyph glyph-name="ij" unicode="&#x133;" horiz-adv-x="472" 
d="M76 0v496h78v-496h-78zM68 582v98h94v-98h-94zM213 -203l10 70c14 -5.33301 27 -8 39 -8c20.667 0 35.167 5.33301 43.5 16s12.5 28.667 12.5 54v567h78v-554c0 -102 -45 -153 -135 -153c-12.667 0 -28.667 2.66699 -48 8zM310 582v98h94v-98h-94z" />
    <glyph glyph-name="Jcircumflex" unicode="&#x134;" horiz-adv-x="537" 
d="M471 700l0.00195312 -502.001c0 -64 -18.833 -115.333 -56.5 -154s-87.167 -58 -148.5 -58c-64 0 -115.833 17.333 -155.5 52s-59.5 87 -59.5 157l84 -9c1.33301 -43.333 14.166 -75.166 38.499 -95.499s55.166 -30.5 92.499 -30.5c35.333 0 64.333 12 87 36
s34 58.333 34 103v501h84zM243.002 765.999l100 138h68l100 -138h-68l-66 68l-66 -68h-68z" />
    <glyph glyph-name="jcircumflex" unicode="&#x135;" horiz-adv-x="230" 
d="M-29 -203l10 70c14 -5.33301 27 -8 39 -8c20.667 0 35.167 5.5 43.5 16.5s12.5 29.167 12.5 54.5v566h78v-554c0 -102 -45 -153 -135 -153c-12.667 0 -28.667 2.66699 -48 8zM-18 562l100 138h68l100 -138h-68l-66 68l-66 -68h-68z" />
    <glyph glyph-name="uni0136" unicode="&#x136;" horiz-adv-x="619" 
d="M274 -158v98h94v-98l-70 -127l-24 9l33 118h-33zM88 0v700h84v-319c20 21.333 32.667 35.333 38 42l20 22l242 255h105l-244 -259l264 -441h-98l-226 378l-101 -107v-271h-84z" />
    <glyph glyph-name="uni0137" unicode="&#x137;" horiz-adv-x="495" 
d="M212 -158v98h94v-98l-70 -127l-24 9l33 118h-33zM154 700v-390l189 186h93l-171 -169l205 -327h-89l-170 272l-57 -57v-215h-78v700h78z" />
    <glyph glyph-name="kgreenlandic" unicode="&#x138;" horiz-adv-x="495" 
d="M154 496v-219l189 219h91l-171 -196l208 -300h-93l-168 239l-56 -65v-174h-78v496h78z" />
    <glyph glyph-name="Lacute" unicode="&#x139;" horiz-adv-x="573" 
d="M88 0v700h84v-626h351v-74h-435zM88 766l64 138h107l-100 -138h-71z" />
    <glyph glyph-name="lacute" unicode="&#x13a;" horiz-adv-x="230" 
d="M76 0v700h78v-700h-78zM76 766l64 138h107l-100 -138h-71z" />
    <glyph glyph-name="uni013B" unicode="&#x13b;" horiz-adv-x="573" 
d="M263 -158v98h94v-98l-70 -127l-24 9l33 118h-33zM88 0v700h84v-626h351v-74h-435z" />
    <glyph glyph-name="uni013C" unicode="&#x13c;" horiz-adv-x="230" 
d="M68 -158v98h94v-98l-70 -127l-24 9l33 118h-33zM76 0v700h78v-700h-78z" />
    <glyph glyph-name="Lcaron" unicode="&#x13d;" horiz-adv-x="573" 
d="M406 474l-20 15l60 113h-37v98h94v-98zM88 0v700h84v-626h351v-74h-435z" />
    <glyph glyph-name="lcaron" unicode="&#x13e;" horiz-adv-x="316" 
d="M251 505l-22 13l36 94h-35v88h86v-88zM76 0v700h78v-700h-78z" />
    <glyph glyph-name="Ldot" unicode="&#x13f;" horiz-adv-x="573" 
d="M88 0v700h84v-626h351v-74h-435zM369 301v98h94v-98h-94z" />
    <glyph glyph-name="ldot" unicode="&#x140;" horiz-adv-x="324" 
d="M76 0v700h78v-700h-78zM230 301v98h94v-98h-94z" />
    <glyph glyph-name="Lslash" unicode="&#x141;" horiz-adv-x="580" 
d="M11 158v84l84 53v405h84v-352l163 104v-84l-163 -104v-190h351v-74h-435v211z" />
    <glyph glyph-name="lslash" unicode="&#x142;" horiz-adv-x="262" 
d="M18 164v78l74 47v411h78v-362l74 47v-78l-74 -47v-260h-78v211z" />
    <glyph glyph-name="Nacute" unicode="&#x143;" horiz-adv-x="708" 
d="M88 0l0.000976562 700h89l333 -527c1.33301 -2 5.66602 -9.33301 12.999 -22c7.33301 -12 13 -23 17 -33v582h80v-700h-89l-333 527c-1.33301 2 -5.66602 9.33301 -12.999 22c-8.66699 14.667 -14.334 25.667 -17.001 33v-582h-80zM299.001 766l64 138h107l-100 -138h-71
z" />
    <glyph glyph-name="nacute" unicode="&#x144;" horiz-adv-x="571" 
d="M495 337l-0.00195312 -337h-78v323c0 38.667 -10.667 67.834 -32 87.501s-50.333 29.5 -87 29.5c-39.333 0 -73.166 -15.333 -101.499 -46s-42.5 -70.334 -42.5 -119.001v-275h-78v496h78v-87c18 32 41.5 56.833 70.5 74.5s61.167 26.5 96.5 26.5
c48.667 0 89.834 -14.5 123.501 -43.5s50.5 -72.167 50.5 -129.5zM229.998 562l64 138h107l-100 -138h-71z" />
    <glyph glyph-name="uni0145" unicode="&#x145;" horiz-adv-x="708" 
d="M307 -158v98h94v-98l-70 -127l-24 9l33 118h-33zM88 0l0.000976562 700h89l333 -527c1.33301 -2 5.66602 -9.33301 12.999 -22c7.33301 -12 13 -23 17 -33v582h80v-700h-89l-333 527c-1.33301 2 -5.66602 9.33301 -12.999 22c-8.66699 14.667 -14.334 25.667 -17.001 33
v-582h-80z" />
    <glyph glyph-name="uni0146" unicode="&#x146;" horiz-adv-x="571" 
d="M241 -158v98h94v-98l-70 -127l-24 9l33 118h-33zM495 337l-0.00195312 -337h-78v323c0 38.667 -10.667 67.834 -32 87.501s-50.333 29.5 -87 29.5c-39.333 0 -73.166 -15.333 -101.499 -46s-42.5 -70.334 -42.5 -119.001v-275h-78v496h78v-87
c18 32 41.5 56.833 70.5 74.5s61.167 26.5 96.5 26.5c48.667 0 89.834 -14.5 123.501 -43.5s50.5 -72.167 50.5 -129.5z" />
    <glyph glyph-name="Ncaron" unicode="&#x147;" horiz-adv-x="708" 
d="M88 0l0.000976562 700h89l333 -527c1.33301 -2 5.66602 -9.33301 12.999 -22c7.33301 -12 13 -23 17 -33v582h80v-700h-89l-333 527c-1.33301 2 -5.66602 9.33301 -12.999 22c-8.66699 14.667 -14.334 25.667 -17.001 33v-582h-80zM320.001 766l-100 138h68l66 -68l66 68
h68l-100 -138h-68z" />
    <glyph glyph-name="ncaron" unicode="&#x148;" horiz-adv-x="571" 
d="M495 337l-0.00195312 -337h-78v323c0 38.667 -10.667 67.834 -32 87.501s-50.333 29.5 -87 29.5c-39.333 0 -73.166 -15.333 -101.499 -46s-42.5 -70.334 -42.5 -119.001v-275h-78v496h78v-87c18 32 41.5 56.833 70.5 74.5s61.167 26.5 96.5 26.5
c48.667 0 89.834 -14.5 123.501 -43.5s50.5 -72.167 50.5 -129.5zM260.998 562l-100 138h68l66 -68l66 68h68l-100 -138h-68z" />
    <glyph glyph-name="napostrophe" unicode="&#x149;" horiz-adv-x="637" 
d="M75 524l-21 14l50 94h-37v98h94v-98zM561 337l-0.00195312 -337h-78v323c0 38.667 -10.667 67.834 -32 87.501s-50.333 29.5 -87 29.5c-39.333 0 -73.166 -15.333 -101.499 -46s-42.5 -70.334 -42.5 -119.001v-275h-78v496h78v-87c18 32 41.5 56.833 70.5 74.5
s61.167 26.5 96.5 26.5c48.667 0 89.834 -14.5 123.501 -43.5s50.5 -72.167 50.5 -129.5z" />
    <glyph glyph-name="Eng" unicode="&#x14a;" horiz-adv-x="708" 
d="M88 0l0.000976562 700h86l336 -514c1.33301 -2 5.66602 -9.33301 12.999 -22c7.33301 -12 13 -23 17 -33v569h80v-717c0 -64 -14.667 -113.5 -44 -148.5s-73.333 -52.5 -132 -52.5c-40 0 -70.333 6 -91 18l30 71c16 -10 37.667 -15 65 -15c61.333 0 92 39.667 92 119v25
l-342 520c-1.33301 2 -5.66602 9.33301 -12.999 22c-8.66699 14.667 -14.334 25.667 -17.001 33v-575h-80z" />
    <glyph glyph-name="eng" unicode="&#x14b;" horiz-adv-x="571" 
d="M495 337l-0.00195312 -395c0 -102 -45 -153 -135 -153c-12.667 0 -28.667 2.66699 -48 8l10 70c14 -5.33301 27 -8 39 -8c20.667 0 35.167 5.5 43.5 16.5s12.5 29.167 12.5 54.5v393c0 38.667 -10.667 67.834 -32 87.501s-50.333 29.5 -87 29.5
c-39.333 0 -73.166 -15.333 -101.499 -46s-42.5 -70.334 -42.5 -119.001v-275h-78v496h78v-87c18 32 41.5 56.833 70.5 74.5s61.167 26.5 96.5 26.5c48.667 0 89.834 -14.5 123.501 -43.5s50.5 -72.167 50.5 -129.5z" />
    <glyph glyph-name="Omacron" unicode="&#x14c;" horiz-adv-x="788" 
d="M732 350c0 -107.333 -32.333 -194.833 -97 -262.5s-145 -101.5 -241 -101.5s-176.333 33.833 -241 101.5s-97 155.167 -97 262.5s32.333 194.833 97 262.5s145 101.5 241 101.5s176.333 -33.833 241 -101.5s97 -155.167 97 -262.5zM394 60
c72.667 0 132.834 27 180.501 81s71.5 123.667 71.5 209s-23.833 155 -71.5 209s-107.834 81 -180.501 81s-132.834 -27 -180.501 -81s-71.5 -123.667 -71.5 -209s23.833 -155 71.5 -209s107.834 -81 180.501 -81zM284 804v70h220v-70h-220z" />
    <glyph glyph-name="omacron" unicode="&#x14d;" horiz-adv-x="602" 
d="M560 248c0 -54 -13.167 -101.333 -39.5 -142s-58.833 -70.834 -97.5 -90.501s-79.334 -29.5 -122.001 -29.5s-83.334 9.83301 -122.001 29.5s-71.167 49.834 -97.5 90.501s-39.5 88 -39.5 142s13.167 101.333 39.5 142s58.833 70.834 97.5 90.501
s79.334 29.5 122.001 29.5s83.334 -9.83301 122.001 -29.5s71.167 -49.834 97.5 -90.501s39.5 -88 39.5 -142zM301 56c50.667 0 93.167 18.167 127.5 54.5s51.5 82.166 51.5 137.499s-17.167 101.166 -51.5 137.499s-76.833 54.5 -127.5 54.5s-93.167 -18.167 -127.5 -54.5
s-51.5 -82.166 -51.5 -137.499s17.167 -101.166 51.5 -137.499s76.833 -54.5 127.5 -54.5zM191 600v70h220v-70h-220z" />
    <glyph glyph-name="Obreve" unicode="&#x14e;" horiz-adv-x="788" 
d="M732 350c0 -107.333 -32.333 -194.833 -97 -262.5s-145 -101.5 -241 -101.5s-176.333 33.833 -241 101.5s-97 155.167 -97 262.5s32.333 194.833 97 262.5s145 101.5 241 101.5s176.333 -33.833 241 -101.5s97 -155.167 97 -262.5zM394 60
c72.667 0 132.834 27 180.501 81s71.5 123.667 71.5 209s-23.833 155 -71.5 209s-107.834 81 -180.501 81s-132.834 -27 -180.501 -81s-71.5 -123.667 -71.5 -209s23.833 -155 71.5 -209s107.834 -81 180.501 -81zM433 876h64c0 -31.333 -9.66699 -56.5 -29 -75.5
s-44 -28.5 -74 -28.5s-54.667 9.5 -74 28.5s-29 44.167 -29 75.5h64c0 -29.333 13 -44 39 -44s39 14.667 39 44z" />
    <glyph glyph-name="obreve" unicode="&#x14f;" horiz-adv-x="602" 
d="M560 248c0 -54 -13.167 -101.333 -39.5 -142s-58.833 -70.834 -97.5 -90.501s-79.334 -29.5 -122.001 -29.5s-83.334 9.83301 -122.001 29.5s-71.167 49.834 -97.5 90.501s-39.5 88 -39.5 142s13.167 101.333 39.5 142s58.833 70.834 97.5 90.501
s79.334 29.5 122.001 29.5s83.334 -9.83301 122.001 -29.5s71.167 -49.834 97.5 -90.501s39.5 -88 39.5 -142zM301 56c50.667 0 93.167 18.167 127.5 54.5s51.5 82.166 51.5 137.499s-17.167 101.166 -51.5 137.499s-76.833 54.5 -127.5 54.5s-93.167 -18.167 -127.5 -54.5
s-51.5 -82.166 -51.5 -137.499s17.167 -101.166 51.5 -137.499s76.833 -54.5 127.5 -54.5zM340 672h64c0 -31.333 -9.66699 -56.5 -29 -75.5s-44 -28.5 -74 -28.5s-54.667 9.5 -74 28.5s-29 44.167 -29 75.5h64c0 -29.333 13 -44 39 -44s39 14.667 39 44z" />
    <glyph glyph-name="Ohungarumlaut" unicode="&#x150;" horiz-adv-x="788" 
d="M732 350c0 -107.333 -32.333 -194.833 -97 -262.5s-145 -101.5 -241 -101.5s-176.333 33.833 -241 101.5s-97 155.167 -97 262.5s32.333 194.833 97 262.5s145 101.5 241 101.5s176.333 -33.833 241 -101.5s97 -155.167 97 -262.5zM394 60
c72.667 0 132.834 27 180.501 81s71.5 123.667 71.5 209s-23.833 155 -71.5 209s-107.834 81 -180.501 81s-132.834 -27 -180.501 -81s-71.5 -123.667 -71.5 -209s23.833 -155 71.5 -209s107.834 -81 180.501 -81zM261 766l64 138h107l-100 -138h-71zM417 766l64 138h107
l-100 -138h-71z" />
    <glyph glyph-name="ohungarumlaut" unicode="&#x151;" horiz-adv-x="602" 
d="M560 248c0 -54 -13.167 -101.333 -39.5 -142s-58.833 -70.834 -97.5 -90.501s-79.334 -29.5 -122.001 -29.5s-83.334 9.83301 -122.001 29.5s-71.167 49.834 -97.5 90.501s-39.5 88 -39.5 142s13.167 101.333 39.5 142s58.833 70.834 97.5 90.501
s79.334 29.5 122.001 29.5s83.334 -9.83301 122.001 -29.5s71.167 -49.834 97.5 -90.501s39.5 -88 39.5 -142zM301 56c50.667 0 93.167 18.167 127.5 54.5s51.5 82.166 51.5 137.499s-17.167 101.166 -51.5 137.499s-76.833 54.5 -127.5 54.5s-93.167 -18.167 -127.5 -54.5
s-51.5 -82.166 -51.5 -137.499s17.167 -101.166 51.5 -137.499s76.833 -54.5 127.5 -54.5zM168 562l64 138h107l-100 -138h-71zM324 562l64 138h107l-100 -138h-71z" />
    <glyph glyph-name="OE" unicode="&#x152;" horiz-adv-x="1157" 
d="M648 0v126c-60.667 -93.333 -145.334 -140 -254.001 -140c-96 0 -176.333 33.833 -241 101.5s-97 155.167 -97 262.5s32.333 194.833 97 262.5s145 101.5 241 101.5c118.667 0 203.334 -44.667 254.001 -134v120h438v-74h-354v-227h326v-74h-326v-251h357v-74h-441z
M394 60c72.667 0 132.834 27 180.501 81s71.5 123.667 71.5 209s-23.833 155 -71.5 209s-107.834 81 -180.501 81s-132.834 -27 -180.501 -81s-71.5 -123.667 -71.5 -209s23.833 -155 71.5 -209s107.834 -81 180.501 -81z" />
    <glyph glyph-name="oe" unicode="&#x153;" horiz-adv-x="1014" 
d="M970 235l-410.003 -0.00292969c2.66699 -53.333 19.334 -97.166 50.001 -131.499s71 -51.5 121 -51.5c42 0 75.833 9.83301 101.5 29.5s47.5 47.5 65.5 83.5l57 -34c-50 -96.667 -125.667 -145 -227 -145c-44 0 -84.333 10.5 -121 31.5s-65.667 50.167 -87 87.5
c-24 -38 -55.667 -67.333 -95 -88s-80.666 -31 -123.999 -31c-42.667 0 -83.334 9.83301 -122.001 29.5s-71.167 49.834 -97.5 90.501s-39.5 88 -39.5 142s13.167 101.333 39.5 142s58.833 70.834 97.5 90.501s79.334 29.5 122.001 29.5s83.834 -10.5 123.501 -31.5
s71.5 -50.167 95.5 -87.5c22 36.667 51.667 65.667 89 87s78 32 122 32c73.333 0 131.5 -23 174.5 -69s64.5 -105.667 64.5 -179v-27zM300.997 55.9971c50.667 0 93.167 18.167 127.5 54.5s51.5 82.166 51.5 137.499s-17.167 101.166 -51.5 137.499
s-76.833 54.5 -127.5 54.5s-93.167 -18.167 -127.5 -54.5s-51.5 -82.166 -51.5 -137.499s17.167 -101.166 51.5 -137.499s76.833 -54.5 127.5 -54.5zM730.997 443.997c-43.333 0 -79.166 -13.167 -107.499 -39.5s-47.5 -61.5 -57.5 -105.5h326
c-2.66699 44 -19.834 79.167 -51.501 105.5s-68.167 39.5 -109.5 39.5z" />
    <glyph glyph-name="Racute" unicode="&#x154;" horiz-adv-x="640" 
d="M502 0l-172.001 304.001h-158v-304h-84v700h279c68 0 122.5 -18.667 163.5 -56s61.5 -84.666 61.5 -141.999c0 -48.667 -15.167 -90.334 -45.5 -125.001s-72.166 -57.334 -125.499 -68.001l175 -309h-94zM171.999 626.001v-248h180c50 0 88.5 10.667 115.5 32
s40.5 52 40.5 92s-13.5 70.667 -40.5 92s-65.5 32 -115.5 32h-180zM244.999 766.001l64 138h107l-100 -138h-71z" />
    <glyph glyph-name="racute" unicode="&#x155;" horiz-adv-x="348" 
d="M332 505l-12.999 -73c-12 4 -25 6 -39 6c-34.667 0 -64.334 -15.5 -89.001 -46.5s-37 -71.167 -37 -120.5v-271h-78v496h78v-90c31.333 69.333 79.333 104 144 104c10.667 0 22 -1.66699 34 -5zM143.001 562l64 138h107l-100 -138h-71z" />
    <glyph glyph-name="uni0156" unicode="&#x156;" horiz-adv-x="640" 
d="M278 -158v98h94v-98l-70 -127l-24 9l33 118h-33zM502 0l-172.001 304.001h-158v-304h-84v700h279c68 0 122.5 -18.667 163.5 -56s61.5 -84.666 61.5 -141.999c0 -48.667 -15.167 -90.334 -45.5 -125.001s-72.166 -57.334 -125.499 -68.001l175 -309h-94zM171.999 626.001
v-248h180c50 0 88.5 10.667 115.5 32s40.5 52 40.5 92s-13.5 70.667 -40.5 92s-65.5 32 -115.5 32h-180z" />
    <glyph glyph-name="uni0157" unicode="&#x157;" horiz-adv-x="348" 
d="M332 505l-12.999 -73c-12 4 -25 6 -39 6c-34.667 0 -64.334 -15.5 -89.001 -46.5s-37 -71.167 -37 -120.5v-271h-78v496h78v-90c31.333 69.333 79.333 104 144 104c10.667 0 22 -1.66699 34 -5zM68.001 -158v98h94v-98l-70 -127l-24 9l33 118h-33z" />
    <glyph glyph-name="Rcaron" unicode="&#x158;" horiz-adv-x="640" 
d="M502 0l-172.001 304.001h-158v-304h-84v700h279c68 0 122.5 -18.667 163.5 -56s61.5 -84.666 61.5 -141.999c0 -48.667 -15.167 -90.334 -45.5 -125.001s-72.166 -57.334 -125.499 -68.001l175 -309h-94zM171.999 626.001v-248h180c50 0 88.5 10.667 115.5 32
s40.5 52 40.5 92s-13.5 70.667 -40.5 92s-65.5 32 -115.5 32h-180zM275.999 766.001l-100 138h68l66 -68l66 68h68l-100 -138h-68z" />
    <glyph glyph-name="rcaron" unicode="&#x159;" horiz-adv-x="348" 
d="M332 505l-12.999 -73c-12 4 -25 6 -39 6c-34.667 0 -64.334 -15.5 -89.001 -46.5s-37 -71.167 -37 -120.5v-271h-78v496h78v-90c31.333 69.333 79.333 104 144 104c10.667 0 22 -1.66699 34 -5zM160.001 562l-100 138h68l66 -68l66 68h68l-100 -138h-68z" />
    <glyph glyph-name="Sacute" unicode="&#x15a;" horiz-adv-x="649" 
d="M168 532c0 -34 15.334 -61.6689 46.001 -83.002s79 -38 145 -50c76.667 -14 133.5 -37.667 170.5 -71s55.5 -77.666 55.5 -132.999c0 -59.333 -23.5 -109 -70.5 -149s-107.833 -60 -182.5 -60c-76.667 0 -139.5 20.333 -188.5 61s-79.167 92.667 -90.5 156l74 39
c9.33301 -60 32 -105.333 68 -136s81.667 -46 137 -46c52 0 93.167 12.5 123.5 37.5s45.5 55.5 45.5 91.5c0 39.333 -15 69.833 -45 91.5s-76.667 38.5 -140 50.5c-153.333 27.333 -230 94.333 -230 201c0 53.333 22 97 66 131s100 51 168 51
c60.667 0 113.5 -15.167 158.5 -45.5s76.5 -71.166 94.5 -122.499l-68 -40c-14.667 43.333 -37.834 76.833 -69.501 100.5s-70.167 35.5 -115.5 35.5s-82 -9.66699 -110 -29s-42 -46.333 -42 -81zM264.001 765.998l64 138h107l-100 -138h-71z" />
    <glyph glyph-name="sacute" unicode="&#x15b;" horiz-adv-x="491" 
d="M148 379c0 -24 11 -42.665 33 -55.998s55 -24 99 -32c54.667 -10.667 96.167 -27.5 124.5 -50.5s42.5 -54.833 42.5 -95.5c0 -44.667 -16.667 -82.334 -50 -113.001s-79.333 -46 -138 -46c-52 0 -96.167 13.5 -132.5 40.5s-62.5 61.5 -78.5 103.5l65 40
c28.667 -77.333 77.334 -116 146.001 -116c34 0 60.833 7.66699 80.5 23s29.5 37 29.5 65c0 24 -10 42.833 -30 56.5s-52.333 24.5 -97 32.5c-49.333 8.66699 -89.333 25.167 -120 49.5s-46 56.166 -46 95.499c0 40.667 16.667 73.167 50 97.5s73.666 36.5 120.999 36.5
c96 0 160.333 -40 193 -120l-60 -35c-24 59.333 -68 89 -132 89c-29.333 0 -53.333 -5.5 -72 -16.5s-28 -27.167 -28 -48.5zM190 562.002l64 138h107l-100 -138h-71z" />
    <glyph glyph-name="Scircumflex" unicode="&#x15c;" horiz-adv-x="649" 
d="M168 532c0 -34 15.334 -61.6689 46.001 -83.002s79 -38 145 -50c76.667 -14 133.5 -37.667 170.5 -71s55.5 -77.666 55.5 -132.999c0 -59.333 -23.5 -109 -70.5 -149s-107.833 -60 -182.5 -60c-76.667 0 -139.5 20.333 -188.5 61s-79.167 92.667 -90.5 156l74 39
c9.33301 -60 32 -105.333 68 -136s81.667 -46 137 -46c52 0 93.167 12.5 123.5 37.5s45.5 55.5 45.5 91.5c0 39.333 -15 69.833 -45 91.5s-76.667 38.5 -140 50.5c-153.333 27.333 -230 94.333 -230 201c0 53.333 22 97 66 131s100 51 168 51
c60.667 0 113.5 -15.167 158.5 -45.5s76.5 -71.166 94.5 -122.499l-68 -40c-14.667 43.333 -37.834 76.833 -69.501 100.5s-70.167 35.5 -115.5 35.5s-82 -9.66699 -110 -29s-42 -46.333 -42 -81zM190.001 765.998l100 138h68l100 -138h-68l-66 68l-66 -68h-68z" />
    <glyph glyph-name="scircumflex" unicode="&#x15d;" horiz-adv-x="491" 
d="M148 379c0 -24 11 -42.665 33 -55.998s55 -24 99 -32c54.667 -10.667 96.167 -27.5 124.5 -50.5s42.5 -54.833 42.5 -95.5c0 -44.667 -16.667 -82.334 -50 -113.001s-79.333 -46 -138 -46c-52 0 -96.167 13.5 -132.5 40.5s-62.5 61.5 -78.5 103.5l65 40
c28.667 -77.333 77.334 -116 146.001 -116c34 0 60.833 7.66699 80.5 23s29.5 37 29.5 65c0 24 -10 42.833 -30 56.5s-52.333 24.5 -97 32.5c-49.333 8.66699 -89.333 25.167 -120 49.5s-46 56.166 -46 95.499c0 40.667 16.667 73.167 50 97.5s73.666 36.5 120.999 36.5
c96 0 160.333 -40 193 -120l-60 -35c-24 59.333 -68 89 -132 89c-29.333 0 -53.333 -5.5 -72 -16.5s-28 -27.167 -28 -48.5zM111 562.002l100 138h68l100 -138h-68l-66 68l-66 -68h-68z" />
    <glyph glyph-name="Scedilla" unicode="&#x15e;" horiz-adv-x="649" 
d="M291 -104l-31.001 27.998l24 66c-64 8 -116.167 31.5 -156.5 70.5s-65.166 86.5 -74.499 142.5l74 39c9.33301 -60 32 -105.333 68 -136s81.667 -46 137 -46c52 0 93.167 12.5 123.5 37.5s45.5 55.5 45.5 91.5c0 39.333 -15 69.833 -45 91.5s-76.667 38.5 -140 50.5
c-153.333 27.333 -230 94.333 -230 201c0 53.333 22 97 66 131s100 51 168 51c60.667 0 113.5 -15.167 158.5 -45.5s76.5 -71.166 94.5 -122.499l-68 -40c-14.667 43.333 -37.834 76.833 -69.501 100.5s-70.167 35.5 -115.5 35.5s-82 -9.66699 -110 -29s-42 -46.333 -42 -81
c0 -34 15.333 -61.667 46 -83s79 -38 145 -50c76.667 -14 133.5 -37.667 170.5 -71s55.5 -77.666 55.5 -132.999c0 -59.333 -23.5 -109 -70.5 -149s-107.833 -60 -182.5 -60l-21 -41c12.667 7.33301 27.334 11 44.001 11c22 0 40.167 -7 54.5 -21s21.5 -32.667 21.5 -56
c0 -26 -8.66699 -46.333 -26 -61s-39 -22 -65 -22c-22 0 -40.5 5.33301 -55.5 16s-24.833 25.667 -29.5 45l48 12c6 -18 18.333 -27 37 -27c23.333 0 35 12.333 35 37c0 10.667 -3.33301 19.167 -10 25.5s-15.667 9.5 -27 9.5c-17.333 0 -33 -6 -47 -18z" />
    <glyph glyph-name="scedilla" unicode="&#x15f;" horiz-adv-x="491" 
d="M218 -104l-31.002 28.002l24 67c-39.333 8 -73.166 24.5 -101.499 49.5s-48.833 54.833 -61.5 89.5l65 40c28.667 -77.333 77.334 -116 146.001 -116c34 0 60.833 7.66699 80.5 23s29.5 37 29.5 65c0 24 -10 42.833 -30 56.5s-52.333 24.5 -97 32.5
c-49.333 8.66699 -89.333 25.167 -120 49.5s-46 56.166 -46 95.499c0 40.667 16.667 73.167 50 97.5s73.666 36.5 120.999 36.5c96 0 160.333 -40 193 -120l-60 -35c-24 59.333 -68 89 -132 89c-29.333 0 -53.333 -5.5 -72 -16.5s-28 -27.167 -28 -48.5
c0 -24 11 -42.667 33 -56s55 -24 99 -32c54.667 -10.667 96.167 -27.5 124.5 -50.5s42.5 -54.833 42.5 -95.5c0 -44.667 -16.667 -82.334 -50 -113.001s-79.333 -46 -138 -46l-21 -41c12.667 7.33301 27.334 11 44.001 11c22 0 40.167 -7 54.5 -21s21.5 -32.667 21.5 -56
c0 -26 -8.66699 -46.333 -26 -61s-39 -22 -65 -22c-22 0 -40.5 5.33301 -55.5 16s-24.833 25.667 -29.5 45l48 12c6 -18 18.333 -27 37 -27c23.333 0 35 12.333 35 37c0 10.667 -3.33301 19.167 -10 25.5s-15.667 9.5 -27 9.5c-17.333 0 -33 -6 -47 -18z" />
    <glyph glyph-name="Scaron" unicode="&#x160;" horiz-adv-x="649" 
d="M168 532c0 -34 15.334 -61.6689 46.001 -83.002s79 -38 145 -50c76.667 -14 133.5 -37.667 170.5 -71s55.5 -77.666 55.5 -132.999c0 -59.333 -23.5 -109 -70.5 -149s-107.833 -60 -182.5 -60c-76.667 0 -139.5 20.333 -188.5 61s-79.167 92.667 -90.5 156l74 39
c9.33301 -60 32 -105.333 68 -136s81.667 -46 137 -46c52 0 93.167 12.5 123.5 37.5s45.5 55.5 45.5 91.5c0 39.333 -15 69.833 -45 91.5s-76.667 38.5 -140 50.5c-153.333 27.333 -230 94.333 -230 201c0 53.333 22 97 66 131s100 51 168 51
c60.667 0 113.5 -15.167 158.5 -45.5s76.5 -71.166 94.5 -122.499l-68 -40c-14.667 43.333 -37.834 76.833 -69.501 100.5s-70.167 35.5 -115.5 35.5s-82 -9.66699 -110 -29s-42 -46.333 -42 -81zM290.001 765.998l-100 138h68l66 -68l66 68h68l-100 -138h-68z" />
    <glyph glyph-name="scaron" unicode="&#x161;" horiz-adv-x="491" 
d="M148 379c0 -24 11 -42.665 33 -55.998s55 -24 99 -32c54.667 -10.667 96.167 -27.5 124.5 -50.5s42.5 -54.833 42.5 -95.5c0 -44.667 -16.667 -82.334 -50 -113.001s-79.333 -46 -138 -46c-52 0 -96.167 13.5 -132.5 40.5s-62.5 61.5 -78.5 103.5l65 40
c28.667 -77.333 77.334 -116 146.001 -116c34 0 60.833 7.66699 80.5 23s29.5 37 29.5 65c0 24 -10 42.833 -30 56.5s-52.333 24.5 -97 32.5c-49.333 8.66699 -89.333 25.167 -120 49.5s-46 56.166 -46 95.499c0 40.667 16.667 73.167 50 97.5s73.666 36.5 120.999 36.5
c96 0 160.333 -40 193 -120l-60 -35c-24 59.333 -68 89 -132 89c-29.333 0 -53.333 -5.5 -72 -16.5s-28 -27.167 -28 -48.5zM211 562.002l-100 138h68l66 -68l66 68h68l-100 -138h-68z" />
    <glyph glyph-name="uni0162" unicode="&#x162;" horiz-adv-x="558" 
d="M256 -104l-31.001 28l28 76h-16v626h-218v74h520v-74h-218v-626h-17l-28 -55c12.667 7.33301 27.334 11 44.001 11c22 0 40.167 -7 54.5 -21s21.5 -32.667 21.5 -56c0 -26 -8.66699 -46.333 -26 -61s-39 -22 -65 -22c-22 0 -40.5 5.33301 -55.5 16
s-24.833 25.667 -29.5 45l48 12c6 -18 18.333 -27 37 -27c23.333 0 35 12.333 35 37c0 10.667 -3.33301 19.167 -10 25.5s-15.667 9.5 -27 9.5c-17.333 0 -33 -6 -47 -18z" />
    <glyph glyph-name="uni0163" unicode="&#x163;" horiz-adv-x="340" 
d="M162 -104l-31.001 28l30 82c-32.667 21.333 -49 59 -49 113v315h-83v62h83v134h78v-134h114v-62h-114v-300c0 -28.667 4.5 -49.167 13.5 -61.5s27.167 -18.5 54.5 -18.5c10 0 22.333 2 37 6l7 -65c-14.667 -6 -36.667 -9 -66 -9c-10.667 0 -21 1 -31 3l-23 -44
c12.667 7.33301 27.334 11 44.001 11c22 0 40.167 -7 54.5 -21s21.5 -32.667 21.5 -56c0 -26 -8.66699 -46.333 -26 -61s-39 -22 -65 -22c-22 0 -40.5 5.33301 -55.5 16s-24.833 25.667 -29.5 45l48 12c6 -18 18.333 -27 37 -27c23.333 0 35 12.333 35 37
c0 10.667 -3.33301 19.167 -10 25.5s-15.667 9.5 -27 9.5c-17.333 0 -33 -6 -47 -18z" />
    <glyph glyph-name="Tcaron" unicode="&#x164;" horiz-adv-x="558" 
d="M19 626v74h520v-74h-218v-626h-84v626h-218zM245 766l-100 138h68l66 -68l66 68h68l-100 -138h-68z" />
    <glyph glyph-name="tcaron" unicode="&#x165;" horiz-adv-x="340" 
d="M292 546l-22 13l36 95h-35v87h86v-89zM29 434v62h83v134h78v-134h114v-62h-114v-300c0 -28.667 4.5 -49.167 13.5 -61.5s27.167 -18.5 54.5 -18.5c10 0 22.333 2 37 6l7 -65c-14.667 -6 -36.667 -9 -66 -9c-36 0 -65.667 10.5 -89 31.5s-35 54.833 -35 101.5v315h-83z
" />
    <glyph glyph-name="Tbar" unicode="&#x166;" horiz-adv-x="558" 
d="M19 626v74h520v-74h-218v-200h148v-70h-148v-356h-84v356h-148v70h148v200h-218z" />
    <glyph glyph-name="tbar" unicode="&#x167;" horiz-adv-x="340" 
d="M29 434v62h83v134h78v-134h114v-62h-114v-141h104v-62h-104v-97c0 -28.667 4.5 -49.167 13.5 -61.5s27.167 -18.5 54.5 -18.5c10 0 22.333 2 37 6l7 -65c-14.667 -6 -36.667 -9 -66 -9c-36 0 -65.667 10.5 -89 31.5s-35 54.833 -35 101.5v112h-73v62h73v141h-83z" />
    <glyph glyph-name="Utilde" unicode="&#x168;" horiz-adv-x="670" 
d="M594 700v-465c0 -77.333 -23.833 -138.166 -71.5 -182.499s-110.167 -66.5 -187.5 -66.5s-139.833 22.167 -187.5 66.5s-71.5 105.166 -71.5 182.499v465h84v-470c0 -48.667 15.167 -89.167 45.5 -121.5s73.5 -48.5 129.5 -48.5s99.167 16.167 129.5 48.5
s45.5 72.833 45.5 121.5v470h84zM263 832c-8 0 -14.832 -2.66699 -20.499 -8s-8.5 -11.666 -8.5 -18.999s2.33301 -16 7 -26l-60 -12c-8 12 -12 27.333 -12 46c0 24.667 9 44.167 27 58.5s39 21.5 63 21.5c20.667 0 38.667 -3.5 54 -10.5s26.666 -14.667 33.999 -23
s16.166 -16 26.499 -23s21.5 -10.5 33.5 -10.5c8 0 14.833 2.66699 20.5 8s8.5 11.666 8.5 18.999s-2.33301 16 -7 26l60 12c8 -12 12 -27.333 12 -46c0 -25.333 -9 -45 -27 -59s-39 -21 -63 -21c-20.667 0 -38.667 3.5 -54 10.5s-26.833 14.667 -34.5 23s-16.667 16 -27 23
s-21.166 10.5 -32.499 10.5z" />
    <glyph glyph-name="utilde" unicode="&#x169;" horiz-adv-x="571" 
d="M76 169l0.000976562 327h78v-323c0 -38 10.667 -67 32 -87s49.666 -30 84.999 -30c40 0 74.333 15 103 45s43 69 43 117v278h78v-496h-78v87c-34.667 -67.333 -89.667 -101 -165 -101c-50 0 -91.833 15 -125.5 45s-50.5 76 -50.5 138zM213.001 628
c-8 0 -14.832 -2.66699 -20.499 -8s-8.5 -11.666 -8.5 -18.999s2.33301 -16 7 -26l-60 -12c-8 12 -12 27.333 -12 46c0 24.667 9 44.167 27 58.5s39 21.5 63 21.5c20.667 0 38.667 -3.5 54 -10.5s26.666 -14.667 33.999 -23s16.166 -16 26.499 -23s21.5 -10.5 33.5 -10.5
c8 0 14.833 2.66699 20.5 8s8.5 11.666 8.5 18.999s-2.33301 16 -7 26l60 12c8 -12 12 -27.333 12 -46c0 -25.333 -9 -45 -27 -59s-39 -21 -63 -21c-20.667 0 -38.667 3.5 -54 10.5s-26.833 14.667 -34.5 23s-16.667 16 -27 23s-21.166 10.5 -32.499 10.5z" />
    <glyph glyph-name="Umacron" unicode="&#x16a;" horiz-adv-x="670" 
d="M594 700v-465c0 -77.333 -23.833 -138.166 -71.5 -182.499s-110.167 -66.5 -187.5 -66.5s-139.833 22.167 -187.5 66.5s-71.5 105.166 -71.5 182.499v465h84v-470c0 -48.667 15.167 -89.167 45.5 -121.5s73.5 -48.5 129.5 -48.5s99.167 16.167 129.5 48.5
s45.5 72.833 45.5 121.5v470h84zM225 804v70h220v-70h-220z" />
    <glyph glyph-name="umacron" unicode="&#x16b;" horiz-adv-x="571" 
d="M76 169l0.000976562 327h78v-323c0 -38 10.667 -67 32 -87s49.666 -30 84.999 -30c40 0 74.333 15 103 45s43 69 43 117v278h78v-496h-78v87c-34.667 -67.333 -89.667 -101 -165 -101c-50 0 -91.833 15 -125.5 45s-50.5 76 -50.5 138zM175.001 600v70h220v-70h-220z" />
    <glyph glyph-name="Ubreve" unicode="&#x16c;" horiz-adv-x="670" 
d="M594 700v-465c0 -77.333 -23.833 -138.166 -71.5 -182.499s-110.167 -66.5 -187.5 -66.5s-139.833 22.167 -187.5 66.5s-71.5 105.166 -71.5 182.499v465h84v-470c0 -48.667 15.167 -89.167 45.5 -121.5s73.5 -48.5 129.5 -48.5s99.167 16.167 129.5 48.5
s45.5 72.833 45.5 121.5v470h84zM374 876h64c0 -31.333 -9.66699 -56.5 -29 -75.5s-44 -28.5 -74 -28.5s-54.667 9.5 -74 28.5s-29 44.167 -29 75.5h64c0 -29.333 13 -44 39 -44s39 14.667 39 44z" />
    <glyph glyph-name="ubreve" unicode="&#x16d;" horiz-adv-x="571" 
d="M76 169l0.000976562 327h78v-323c0 -38 10.667 -67 32 -87s49.666 -30 84.999 -30c40 0 74.333 15 103 45s43 69 43 117v278h78v-496h-78v87c-34.667 -67.333 -89.667 -101 -165 -101c-50 0 -91.833 15 -125.5 45s-50.5 76 -50.5 138zM324.001 672h64
c0 -31.333 -9.66699 -56.5 -29 -75.5s-44 -28.5 -74 -28.5s-54.667 9.5 -74 28.5s-29 44.167 -29 75.5h64c0 -29.333 13 -44 39 -44s39 14.667 39 44z" />
    <glyph glyph-name="Uring" unicode="&#x16e;" horiz-adv-x="670" 
d="M594 700v-465c0 -77.333 -23.833 -138.166 -71.5 -182.499s-110.167 -66.5 -187.5 -66.5s-139.833 22.167 -187.5 66.5s-71.5 105.166 -71.5 182.499v465h84v-470c0 -48.667 15.167 -89.167 45.5 -121.5s73.5 -48.5 129.5 -48.5s99.167 16.167 129.5 48.5
s45.5 72.833 45.5 121.5v470h84zM289 839c0 -13.333 4.33301 -24.5 13 -33.5s19.667 -13.5 33 -13.5s24.333 4.5 33 13.5s13 20.167 13 33.5s-4.33301 24.5 -13 33.5s-19.667 13.5 -33 13.5s-24.333 -4.5 -33 -13.5s-13 -20.167 -13 -33.5zM239 839
c0 26.667 9.16895 49.167 27.502 67.5s41.166 27.5 68.499 27.5s50.166 -9.16699 68.499 -27.5s27.5 -40.833 27.5 -67.5s-9 -49.167 -27 -67.5s-41 -27.5 -69 -27.5s-51 9.16699 -69 27.5s-27 40.833 -27 67.5z" />
    <glyph glyph-name="uring" unicode="&#x16f;" horiz-adv-x="571" 
d="M76 169l0.000976562 327h78v-323c0 -38 10.667 -67 32 -87s49.666 -30 84.999 -30c40 0 74.333 15 103 45s43 69 43 117v278h78v-496h-78v87c-34.667 -67.333 -89.667 -101 -165 -101c-50 0 -91.833 15 -125.5 45s-50.5 76 -50.5 138zM239.001 635
c0 -13.333 4.33301 -24.5 13 -33.5s19.667 -13.5 33 -13.5s24.333 4.5 33 13.5s13 20.167 13 33.5s-4.33301 24.5 -13 33.5s-19.667 13.5 -33 13.5s-24.333 -4.5 -33 -13.5s-13 -20.167 -13 -33.5zM189.001 635c0 26.667 9.16895 49.167 27.502 67.5
s41.166 27.5 68.499 27.5s50.166 -9.16699 68.499 -27.5s27.5 -40.833 27.5 -67.5s-9 -49.167 -27 -67.5s-41 -27.5 -69 -27.5s-51 9.16699 -69 27.5s-27 40.833 -27 67.5z" />
    <glyph glyph-name="Uhungarumlaut" unicode="&#x170;" horiz-adv-x="670" 
d="M594 700v-465c0 -77.333 -23.833 -138.166 -71.5 -182.499s-110.167 -66.5 -187.5 -66.5s-139.833 22.167 -187.5 66.5s-71.5 105.166 -71.5 182.499v465h84v-470c0 -48.667 15.167 -89.167 45.5 -121.5s73.5 -48.5 129.5 -48.5s99.167 16.167 129.5 48.5
s45.5 72.833 45.5 121.5v470h84zM212 766l64 138h107l-100 -138h-71zM368 766l64 138h107l-100 -138h-71z" />
    <glyph glyph-name="uhungarumlaut" unicode="&#x171;" horiz-adv-x="571" 
d="M76 169l0.000976562 327h78v-323c0 -38 10.667 -67 32 -87s49.666 -30 84.999 -30c40 0 74.333 15 103 45s43 69 43 117v278h78v-496h-78v87c-34.667 -67.333 -89.667 -101 -165 -101c-50 0 -91.833 15 -125.5 45s-50.5 76 -50.5 138zM152.001 562l64 138h107l-100 -138
h-71zM308.001 562l64 138h107l-100 -138h-71z" />
    <glyph glyph-name="Uogonek" unicode="&#x172;" horiz-adv-x="670" 
d="M289 -105c0 34.667 15 65.002 45 91.002c-77.333 0 -139.666 22.167 -186.999 66.5s-71 105.166 -71 182.499v465h84v-470c0 -48.667 15.167 -89.167 45.5 -121.5s73.5 -48.5 129.5 -48.5s99.167 16.167 129.5 48.5s45.5 72.833 45.5 121.5v470h84v-465
c0 -60.667 -14.5 -111 -43.5 -151s-69.167 -68 -120.5 -84c-21.333 -7.33301 -38.333 -18.5 -51 -33.5s-19 -29.833 -19 -44.5c0 -15.333 4.33301 -27.5 13 -36.5s20.667 -13.5 36 -13.5c3.33301 0 9.66602 0.666992 18.999 2l9 -66c-14 -4 -29 -6 -45 -6
c-28 0 -52.167 8.16699 -72.5 24.5s-30.5 39.166 -30.5 68.499z" />
    <glyph glyph-name="uogonek" unicode="&#x173;" horiz-adv-x="571" 
d="M353 -105c0 42.667 21.335 77.668 64.002 105.001v87c-34.667 -67.333 -89.667 -101 -165 -101c-50 0 -91.833 15 -125.5 45s-50.5 76 -50.5 138v327h78v-323c0 -38 10.667 -67 32 -87s49.666 -30 84.999 -30c40 0 74.333 15 103 45s43 69 43 117v278h78v-496
c-47.333 -26 -71 -53.667 -71 -83c0 -14 4.33301 -25 13 -33s20.667 -12 36 -12c3.33301 0 9.66602 0.666992 18.999 2l9 -66c-14 -4 -29 -6 -45 -6c-28 0 -52.167 8.16699 -72.5 24.5s-30.5 39.166 -30.5 68.499z" />
    <glyph glyph-name="Wcircumflex" unicode="&#x174;" horiz-adv-x="892" 
d="M202 0l-196.998 699.999h83l142 -527c1.33301 -8.66699 3.33301 -17.667 6 -27c1.33301 -6.66699 5 -22 11 -46l4.5 21.5c2.33301 11 4.16602 19.167 5.49902 24.5c2 6.66699 4.33301 16 7 28l137 526h90l137 -526c2.66699 -11.333 5 -20.666 7 -27.999
c1.33301 -5.33301 3.16602 -13.5 5.49902 -24.5l4.5 -21.5l11 46l6 27l142 527h83l-197 -700h-87l-157 596l-157 -596h-87zM312.002 765.999l100 138h68l100 -138h-68l-66 68l-66 -68h-68z" />
    <glyph glyph-name="wcircumflex" unicode="&#x175;" horiz-adv-x="682" 
d="M382 496l112 -398l101 398h80l-140 -496h-84l-110 404l-110 -404h-84l-140 496h80l101 -398l112 398h82zM207 562l100 138h68l100 -138h-68l-66 68l-66 -68h-68z" />
    <glyph glyph-name="Ycircumflex" unicode="&#x176;" horiz-adv-x="552" 
d="M234 0v287l-230 413h91l159 -296l8 -16l14 -33c1.33301 4 6 15 14 33l8 16l159 296h91l-230 -413v-287h-84zM142 766l100 138h68l100 -138h-68l-66 68l-66 -68h-68z" />
    <glyph glyph-name="ycircumflex" unicode="&#x177;" horiz-adv-x="493" 
d="M56 -201l12.001 70c14.667 -6.66699 28 -10 40 -10c15.333 0 27.166 3.66699 35.499 11s16.5 20 24.5 38l37 94l-200 494h86l157 -389l155 389h84l-249 -613c-14 -34.667 -31.167 -59 -51.5 -73s-46.5 -21 -78.5 -21c-18.667 0 -36 3.33301 -52 10zM113.001 562l100 138
h68l100 -138h-68l-66 68l-66 -68h-68z" />
    <glyph glyph-name="Ydieresis" unicode="&#x178;" horiz-adv-x="552" 
d="M234 0v287l-230 413h91l159 -296l8 -16l14 -33c1.33301 4 6 15 14 33l8 16l159 296h91l-230 -413v-287h-84zM309 792v92h92v-92h-92zM151 792v92h92v-92h-92z" />
    <glyph glyph-name="Zacute" unicode="&#x179;" horiz-adv-x="598" 
d="M57 626v74h479v-74l-400 -552h417v-74h-511v72l403 554h-388zM234 766l64 138h107l-100 -138h-71z" />
    <glyph glyph-name="zacute" unicode="&#x17a;" horiz-adv-x="484" 
d="M129 70h312v-70h-398v70l295 356h-282v70h370v-70zM177 562l64 138h107l-100 -138h-71z" />
    <glyph glyph-name="Zdotaccent" unicode="&#x17b;" horiz-adv-x="598" 
d="M57 626v74h479v-74l-400 -552h417v-74h-511v72l403 554h-388zM252 786v98h94v-98h-94z" />
    <glyph glyph-name="zdotaccent" unicode="&#x17c;" horiz-adv-x="484" 
d="M129 70h312v-70h-398v70l295 356h-282v70h370v-70zM195 582v98h94v-98h-94z" />
    <glyph glyph-name="Zcaron" unicode="&#x17d;" horiz-adv-x="598" 
d="M57 626v74h479v-74l-400 -552h417v-74h-511v72l403 554h-388zM265 766l-100 138h68l66 -68l66 68h68l-100 -138h-68z" />
    <glyph glyph-name="zcaron" unicode="&#x17e;" horiz-adv-x="484" 
d="M129 70h312v-70h-398v70l295 356h-282v70h370v-70zM208 562l-100 138h68l66 -68l66 68h68l-100 -138h-68z" />
    <glyph glyph-name="longs" unicode="&#x17f;" horiz-adv-x="319" 
d="M23 434l-0.000976562 62.001h78v95c0 49.333 13.833 88.166 41.5 116.499s66.834 42.5 117.501 42.5c18 0 33 -2.33301 45 -7l-12 -66c-11.333 3.33301 -22.333 5 -33 5c-54 0 -81 -31 -81 -93v-589h-78v434h-78z" />
    <glyph glyph-name="uni018E" unicode="&#x18e;" horiz-adv-x="597" 
d="M509 700v-700h-438v74h354v227h-326v74h326v251h-357v74h441z" />
    <glyph glyph-name="uni018F" unicode="&#x18f;" horiz-adv-x="574" 
d="M44 261l410 0.000976562c-2.66699 53.333 -19.334 97.166 -50.001 131.499s-71 51.5 -121 51.5c-42 0 -75.833 -9.83301 -101.5 -29.5s-47.5 -47.5 -65.5 -83.5l-57 34c48 96.667 123.667 145 227 145c68.667 0 126.834 -24.833 174.501 -74.5s71.5 -112.167 71.5 -187.5
s-24 -137.833 -72 -187.5s-107 -74.5 -177 -74.5c-73.333 0 -131.5 23 -174.5 69s-64.5 105.667 -64.5 179v27zM283 52.001c43.333 0 79.166 13.167 107.499 39.5s47.5 61.5 57.5 105.5h-326c2.66699 -44 19.834 -79.167 51.501 -105.5s68.167 -39.5 109.5 -39.5z" />
    <glyph glyph-name="florin" unicode="&#x192;" horiz-adv-x="316" 
d="M179 434v-507.999c0 -46.667 -11.167 -82.334 -33.5 -107.001s-55.166 -37 -98.499 -37c-23.333 0 -41 2.33301 -53 7l12 66c10 -3.33301 20.333 -5 31 -5c22 0 38.167 6 48.5 18s15.5 31.667 15.5 59v507h-78v62h78v99c0 47.333 13.167 85 39.5 113
s64.166 42 113.499 42c20 0 36 -2.33301 48 -7l-12 -66c-11.333 3.33301 -22.333 5 -33 5c-52 0 -78 -29.333 -78 -88v-98h114v-62h-114z" />
    <glyph glyph-name="uni01B5" unicode="&#x1b5;" horiz-adv-x="598" 
d="M57 626v74h479v-74l-172 -237h156v-70h-207l-177 -245h417v-74h-511v72l179 247h-151v70h202l173 237h-388z" />
    <glyph glyph-name="uni01B6" unicode="&#x1b6;" horiz-adv-x="484" 
d="M76 226v64h149l113 136h-282v70h370v-70l-113 -136h97v-64h-151l-130 -156h312v-70h-398v70l129 156h-96z" />
    <glyph glyph-name="AEacute" unicode="&#x1fc;" horiz-adv-x="932" 
d="M519 766l64 138h107l-100 -138h-71zM423 0v207h-241l-90 -207h-86l308 700h547v-74h-354v-227h326v-74h-326v-251h357v-74h-441zM366 626l-153 -349h210v349h-57z" />
    <glyph glyph-name="aeacute" unicode="&#x1fd;" horiz-adv-x="920" 
d="M420 562l64 138h107l-100 -138h-71zM876 235l-410.003 -0.000976562c2.66699 -53.333 19.334 -97.166 50.001 -131.499s71 -51.5 121 -51.5c42 0 75.833 9.83301 101.5 29.5s47.5 47.5 65.5 83.5l57 -34c-50 -96.667 -125.667 -145 -227 -145
c-46 0 -87.667 11.667 -125 35s-65.666 55 -84.999 95c-20.667 -43.333 -49.167 -75.833 -85.5 -97.5s-76.166 -32.5 -119.499 -32.5c-48 0 -87.833 14.333 -119.5 43s-47.5 64.667 -47.5 108c0 94 62 146.667 186 158c35.333 2.66699 70.666 4 105.999 4h44v31
c0 41.333 -9.66699 70.666 -29 87.999s-48.666 26 -87.999 26c-38 0 -67 -7.33301 -87 -22s-30 -33 -30 -55c0 -6.66699 0.666992 -11.667 2 -15l-68 -23c-5.33301 14 -8 27.333 -8 40c0 38.667 17.5 71.834 52.5 99.501s80.5 41.5 136.5 41.5c88 0 146.667 -31.667 176 -95
c20.667 28 48.5 50.833 83.5 68.5s71.167 26.5 108.5 26.5c72 0 129.833 -23.167 173.5 -69.5s65.5 -105.833 65.5 -178.5v-27zM636.997 443.999c-43.333 0 -79.166 -13.167 -107.499 -39.5s-47.5 -61.5 -57.5 -105.5h326c-2.66699 44 -19.834 79.167 -51.501 105.5
s-68.167 39.5 -109.5 39.5zM226.997 55.999c50.667 0 90.167 16.999 118.5 50.999s42.5 75 42.5 123v5h-102c-102.667 0 -154 -31.667 -154 -95c0 -25.333 8.66699 -45.666 26 -60.999s40.333 -23 69 -23z" />
    <glyph glyph-name="Scommaaccent" unicode="&#x218;" horiz-adv-x="649" 
d="M287 -158v98h94v-98l-70 -127l-24 9l33 118h-33zM168 532c0 -34 15.334 -61.6689 46.001 -83.002s79 -38 145 -50c76.667 -14 133.5 -37.667 170.5 -71s55.5 -77.666 55.5 -132.999c0 -59.333 -23.5 -109 -70.5 -149s-107.833 -60 -182.5 -60
c-76.667 0 -139.5 20.333 -188.5 61s-79.167 92.667 -90.5 156l74 39c9.33301 -60 32 -105.333 68 -136s81.667 -46 137 -46c52 0 93.167 12.5 123.5 37.5s45.5 55.5 45.5 91.5c0 39.333 -15 69.833 -45 91.5s-76.667 38.5 -140 50.5c-153.333 27.333 -230 94.333 -230 201
c0 53.333 22 97 66 131s100 51 168 51c60.667 0 113.5 -15.167 158.5 -45.5s76.5 -71.166 94.5 -122.499l-68 -40c-14.667 43.333 -37.834 76.833 -69.501 100.5s-70.167 35.5 -115.5 35.5s-82 -9.66699 -110 -29s-42 -46.333 -42 -81z" />
    <glyph glyph-name="scommaaccent" unicode="&#x219;" horiz-adv-x="491" 
d="M221 -158v98h94v-98l-70 -127l-24 9l33 118h-33zM148 379c0 -24 11 -42.665 33 -55.998s55 -24 99 -32c54.667 -10.667 96.167 -27.5 124.5 -50.5s42.5 -54.833 42.5 -95.5c0 -44.667 -16.667 -82.334 -50 -113.001s-79.333 -46 -138 -46c-52 0 -96.167 13.5 -132.5 40.5
s-62.5 61.5 -78.5 103.5l65 40c28.667 -77.333 77.334 -116 146.001 -116c34 0 60.833 7.66699 80.5 23s29.5 37 29.5 65c0 24 -10 42.833 -30 56.5s-52.333 24.5 -97 32.5c-49.333 8.66699 -89.333 25.167 -120 49.5s-46 56.166 -46 95.499c0 40.667 16.667 73.167 50 97.5
s73.666 36.5 120.999 36.5c96 0 160.333 -40 193 -120l-60 -35c-24 59.333 -68 89 -132 89c-29.333 0 -53.333 -5.5 -72 -16.5s-28 -27.167 -28 -48.5z" />
    <glyph glyph-name="uni021A" unicode="&#x21a;" horiz-adv-x="558" 
d="M232 -158v98h94v-98l-70 -127l-24 9l33 118h-33zM19 626v74h520v-74h-218v-626h-84v626h-218z" />
    <glyph glyph-name="uni021B" unicode="&#x21b;" horiz-adv-x="340" 
d="M166 -158v98h94v-98l-70 -127l-24 9l33 118h-33zM29 434v62h83v134h78v-134h114v-62h-114v-300c0 -28.667 4.5 -49.167 13.5 -61.5s27.167 -18.5 54.5 -18.5c10 0 22.333 2 37 6l7 -65c-14.667 -6 -36.667 -9 -66 -9c-36 0 -65.667 10.5 -89 31.5s-35 54.833 -35 101.5
v315h-83z" />
    <glyph glyph-name="circumflex" unicode="&#x2c6;" horiz-adv-x="378" 
d="M55 562l100 138h68l100 -138h-68l-66 68l-66 -68h-68z" />
    <glyph glyph-name="caron" unicode="&#x2c7;" horiz-adv-x="378" 
d="M155 562l-100 138h68l66 -68l66 68h68l-100 -138h-68z" />
    <glyph glyph-name="breve" unicode="&#x2d8;" horiz-adv-x="286" 
d="M182 672h64c0 -31.333 -9.66699 -56.5 -29 -75.5s-44 -28.5 -74 -28.5s-54.667 9.5 -74 28.5s-29 44.167 -29 75.5h64c0 -29.333 13 -44 39 -44s39 14.667 39 44z" />
    <glyph glyph-name="dotaccent" unicode="&#x2d9;" horiz-adv-x="230" 
d="M68 582v98h94v-98h-94z" />
    <glyph glyph-name="ring" unicode="&#x2da;" horiz-adv-x="292" 
d="M100 635c0 -13.333 4.33301 -24.5 13 -33.5s19.667 -13.5 33 -13.5s24.333 4.5 33 13.5s13 20.167 13 33.5s-4.33301 24.5 -13 33.5s-19.667 13.5 -33 13.5s-24.333 -4.5 -33 -13.5s-13 -20.167 -13 -33.5zM50 635c0 26.667 9.16895 49.167 27.502 67.5
s41.166 27.5 68.499 27.5s50.166 -9.16699 68.499 -27.5s27.5 -40.833 27.5 -67.5s-9 -49.167 -27 -67.5s-41 -27.5 -69 -27.5s-51 9.16699 -69 27.5s-27 40.833 -27 67.5z" />
    <glyph glyph-name="ogonek" unicode="&#x2db;" horiz-adv-x="208" 
d="M34 -105c0 46.667 25.668 84.668 77.001 114.001l65 -9c-47.333 -26 -71 -53.667 -71 -83c0 -14 4.33301 -25 13 -33s20.667 -12 36 -12c3.33301 0 9.66602 0.666992 18.999 2l9 -66c-14 -4 -29 -6 -45 -6c-28 0 -52.167 8.16699 -72.5 24.5s-30.5 39.166 -30.5 68.499z
" />
    <glyph glyph-name="tilde" unicode="&#x2dc;" horiz-adv-x="472" 
d="M164 628c-8 0 -14.832 -2.66699 -20.499 -8s-8.5 -11.666 -8.5 -18.999s2.33301 -16 7 -26l-60 -12c-8 12 -12 27.333 -12 46c0 24.667 9 44.167 27 58.5s39 21.5 63 21.5c20.667 0 38.667 -3.5 54 -10.5s26.666 -14.667 33.999 -23s16.166 -16 26.499 -23
s21.5 -10.5 33.5 -10.5c8 0 14.833 2.66699 20.5 8s8.5 11.666 8.5 18.999s-2.33301 16 -7 26l60 12c8 -12 12 -27.333 12 -46c0 -25.333 -9 -45 -27 -59s-39 -21 -63 -21c-20.667 0 -38.667 3.5 -54 10.5s-26.833 14.667 -34.5 23s-16.667 16 -27 23
s-21.166 10.5 -32.499 10.5z" />
    <glyph glyph-name="hungarumlaut" unicode="&#x2dd;" horiz-adv-x="455" 
d="M64 562l64 138h107l-100 -138h-71zM220 562l64 138h107l-100 -138h-71z" />
    <glyph glyph-name="uni0374" unicode="&#x374;" horiz-adv-x="274" 
d="M60 460l57 240h97l-93 -240h-61z" />
    <glyph glyph-name="uni0375" unicode="&#x375;" horiz-adv-x="274" 
d="M214 130l-57 -240h-97l93 240h61z" />
    <glyph glyph-name="uni037A" unicode="&#x37a;" horiz-adv-x="210" 
d="M43 -98v78h70v-64c0 -29.333 16.333 -44 49 -44c10.667 0 18.334 1 23.001 3v-68c-14.667 -3.33301 -29 -5 -43 -5c-30.667 0 -54.834 8.33301 -72.501 25s-26.5 41.667 -26.5 75z" />
    <glyph glyph-name="uni037E" unicode="&#x37e;" horiz-adv-x="190" 
d="M48 0v98h94v-98l-70 -127l-24 9l33 118h-33zM48 378v98h94v-98h-94z" />
    <glyph glyph-name="tonos" unicode="&#x384;" horiz-adv-x="283" 
d="M66 562l44 138h107l-80 -138h-71z" />
    <glyph glyph-name="dieresistonos" unicode="&#x385;" horiz-adv-x="412" 
d="M300 588v92h92v-92h-92zM20 588v92h92v-92h-92zM137 562l42 138h100l-78 -138h-64z" />
    <glyph glyph-name="Alphatonos" unicode="&#x386;" horiz-adv-x="656" 
d="M6 0l278 700h88l278 -700h-86l-81 207h-310l-81 -207h-86zM307 549l-107.001 -272h255l-106 272l-8 21c-0.666992 2.66699 -2.66699 8.5 -6 17.5s-5.66602 15.5 -6.99902 19.5l-13 -37zM48.999 562l44 138h107l-80 -138h-71z" />
    <glyph glyph-name="anoteleia" unicode="&#x387;" horiz-adv-x="190" 
d="M48 310v98h94v-98h-94z" />
    <glyph glyph-name="Epsilontonos" unicode="&#x388;" horiz-adv-x="700" 
d="M191 0v700h438v-74h-354v-227h326v-74h-326v-251h357v-74h-441zM0 562l44 138h107l-80 -138h-71z" />
    <glyph glyph-name="Etatonos" unicode="&#x389;" horiz-adv-x="793" 
d="M191 0v700h84v-306h346v306h84v-700h-84v320h-346v-320h-84zM0 562l44 138h107l-80 -138h-71z" />
    <glyph glyph-name="Iotatonos" unicode="&#x38a;" horiz-adv-x="363" 
d="M191 0v700h84v-700h-84zM0 562l44 138h107l-80 -138h-71z" />
    <glyph glyph-name="Omicrontonos" unicode="&#x38c;" horiz-adv-x="825" 
d="M769 350c0 -107.333 -32.333 -194.833 -97 -262.5s-145 -101.5 -241 -101.5s-176.333 33.833 -241 101.5s-97 155.167 -97 262.5s32.333 194.833 97 262.5s145 101.5 241 101.5s176.333 -33.833 241 -101.5s97 -155.167 97 -262.5zM431 60
c72.667 0 132.834 27 180.501 81s71.5 123.667 71.5 209s-23.833 155 -71.5 209s-107.834 81 -180.501 81s-132.834 -27 -180.501 -81s-71.5 -123.667 -71.5 -209s23.833 -155 71.5 -209s107.834 -81 180.501 -81zM0 562l44 138h107l-80 -138h-71z" />
    <glyph glyph-name="Upsilontonos" unicode="&#x38e;" horiz-adv-x="719" 
d="M401 0v287l-230 413h91l159 -296l8 -16l14 -33c1.33301 4 6 15 14 33l8 16l159 296h91l-230 -413v-287h-84zM0 562l44 138h107l-80 -138h-71z" />
    <glyph glyph-name="Omegatonos" unicode="&#x38f;" horiz-adv-x="833" 
d="M756 74l0.00195312 -74h-257v88c51.333 21.333 96.166 57.166 134.499 107.499s57.5 111.166 57.5 182.499c0 75.333 -23.5 137.833 -70.5 187.5s-107.5 74.5 -181.5 74.5s-134.5 -24.833 -181.5 -74.5s-70.5 -112.167 -70.5 -187.5
c0 -71.333 19.167 -132.166 57.5 -182.499s83.166 -86.166 134.499 -107.499v-88h-257v74h157c-48 27.333 -89.667 69.166 -125 125.499s-53 117.5 -53 183.5c0 95.333 32.333 174.333 97 237s145 94 241 94s176.333 -31.333 241 -94s97 -141.667 97 -237
c0 -66 -17.667 -127.167 -53 -183.5s-77 -98.166 -125 -125.499h157zM0.00195312 562l44 138h107l-80 -138h-71z" />
    <glyph glyph-name="iotadieresistonos" unicode="&#x390;" horiz-adv-x="288" 
d="M238 588v92h92v-92h-92zM-42 588v92h92v-92h-92zM75 562l42 138h100l-78 -138h-64zM68 496h78v-372c0 -23.333 4.5 -40.833 13.5 -52.5s24.833 -17.5 47.5 -17.5c10 0 22.333 2 37 6l7 -65c-20.667 -6 -42.667 -9 -66 -9c-78 0 -117 44.333 -117 133v377z" />
    <glyph glyph-name="Alpha" unicode="&#x391;" horiz-adv-x="656" 
d="M6 0l278 700h88l278 -700h-86l-81 207h-310l-81 -207h-86zM307 549l-107.001 -272h255l-106 272l-8 21c-0.666992 2.66699 -2.66699 8.5 -6 17.5s-5.66602 15.5 -6.99902 19.5l-13 -37z" />
    <glyph glyph-name="Beta" unicode="&#x392;" horiz-adv-x="645" 
d="M88 0l-0.00195312 700h256c66.667 0 120 -15.667 160 -47s60 -72 60 -122c0 -74 -40.667 -125.333 -122 -154c46.667 -16 82.834 -37.667 108.501 -65s38.5 -64.333 38.5 -111c0 -60 -23.667 -108.5 -71 -145.5s-104.666 -55.5 -171.999 -55.5h-258zM171.998 336v-266
h161c52.667 0 95.167 10.5 127.5 31.5s48.5 54.833 48.5 101.5c0 46 -16.167 79.667 -48.5 101s-74.833 32 -127.5 32h-161zM171.998 630v-224h166c44 0 79.333 9 106 27s40 46.333 40 85c0 37.333 -13.333 65.333 -40 84s-62 28 -106 28h-166z" />
    <glyph glyph-name="Gamma" unicode="&#x393;" horiz-adv-x="555" 
d="M88 0v700h448v-74h-364v-626h-84z" />
    <glyph glyph-name="uni0394" unicode="&#x394;" horiz-adv-x="656" 
d="M6 0l278 700h88l278 -700h-644zM307 549l-188 -479.002h417l-187 479c-2 4.66699 -4.83301 11.834 -8.5 21.501s-6.16699 16.5 -7.5 20.5c-2 4 -3.66699 9.33301 -5 16c0 -1.33301 -1.66699 -6.66602 -5 -15.999z" />
    <glyph glyph-name="Epsilon" unicode="&#x395;" horiz-adv-x="597" 
d="M88 0v700h438v-74h-354v-227h326v-74h-326v-251h357v-74h-441z" />
    <glyph glyph-name="Zeta" unicode="&#x396;" horiz-adv-x="598" 
d="M57 626v74h479v-74l-400 -552h417v-74h-511v72l403 554h-388z" />
    <glyph glyph-name="Eta" unicode="&#x397;" horiz-adv-x="690" 
d="M88 0v700h84v-306h346v306h84v-700h-84v320h-346v-320h-84z" />
    <glyph glyph-name="Theta" unicode="&#x398;" horiz-adv-x="692" 
d="M636 350c0 -106 -26.667 -193.167 -80 -261.5s-123.333 -102.5 -210 -102.5s-156.667 34.167 -210 102.5s-80 155.5 -80 261.5s26.667 193.167 80 261.5s123.333 102.5 210 102.5s156.667 -34.167 210 -102.5s80 -155.5 80 -261.5zM346 60
c60.667 0 108.667 22.667 144 68s55.333 107.666 60 186.999h-408c4.66699 -79.333 24.667 -141.666 60 -186.999s83.333 -68 144 -68zM346 640c-60.667 0 -108.667 -22.667 -144 -68s-55.333 -107.666 -60 -186.999h408c-4.66699 79.333 -24.667 141.666 -60 186.999
s-83.333 68 -144 68z" />
    <glyph glyph-name="Iota" unicode="&#x399;" horiz-adv-x="260" 
d="M88 0v700h84v-700h-84z" />
    <glyph glyph-name="Kappa" unicode="&#x39a;" horiz-adv-x="619" 
d="M88 0v700h84v-319c20 21.333 32.667 35.333 38 42l20 22l242 255h105l-244 -259l264 -441h-98l-226 378l-101 -107v-271h-84z" />
    <glyph glyph-name="Lambda" unicode="&#x39b;" horiz-adv-x="608" 
d="M6 0l252.001 699.999h92l252 -700h-86l-186 529l-9 27c-10.667 34 -16.334 52.333 -17.001 55c-2.66699 -7.33301 -6.16699 -18.166 -10.5 -32.499s-6.5 -21.833 -6.5 -22.5l-9 -27l-186 -529h-86z" />
    <glyph glyph-name="Mu" unicode="&#x39c;" horiz-adv-x="860" 
d="M88 0v700h90l252 -630l252 630h90v-700h-80v540l-20 -56l-16 -42l-183 -442h-86l-183 442l-16 42l-20 56v-540h-80z" />
    <glyph glyph-name="Nu" unicode="&#x39d;" horiz-adv-x="708" 
d="M88 0l0.000976562 700h86l336 -520c1.33301 -2 5.66602 -9.33301 12.999 -22c7.33301 -12 13 -23 17 -33v575h80v-700h-86l-336 520c-1.33301 2 -5.66602 9.33301 -12.999 22c-8.66699 14.667 -14.334 25.667 -17.001 33v-575h-80z" />
    <glyph glyph-name="Xi" unicode="&#x39e;" horiz-adv-x="597" 
d="M526 626h-455v74h455v-74zM68 74h461v-74h-461v74zM498 325h-399v74h399v-74z" />
    <glyph glyph-name="Omicron" unicode="&#x39f;" horiz-adv-x="788" 
d="M732 350c0 -107.333 -32.333 -194.833 -97 -262.5s-145 -101.5 -241 -101.5s-176.333 33.833 -241 101.5s-97 155.167 -97 262.5s32.333 194.833 97 262.5s145 101.5 241 101.5s176.333 -33.833 241 -101.5s97 -155.167 97 -262.5zM394 60
c72.667 0 132.834 27 180.501 81s71.5 123.667 71.5 209s-23.833 155 -71.5 209s-107.834 81 -180.501 81s-132.834 -27 -180.501 -81s-71.5 -123.667 -71.5 -209s23.833 -155 71.5 -209s107.834 -81 180.501 -81z" />
    <glyph glyph-name="Pi" unicode="&#x3a0;" horiz-adv-x="670" 
d="M88 0v700h494v-700h-84v626h-326v-626h-84z" />
    <glyph glyph-name="Rho" unicode="&#x3a1;" horiz-adv-x="678" 
d="M88 0v700h294c74 0 132.833 -19.833 176.5 -59.5s65.5 -92.5 65.5 -158.5s-21.833 -118.833 -65.5 -158.5s-102.5 -59.5 -176.5 -59.5h-210v-264h-84zM172 626v-287.998h206c51.333 0 91.166 12.167 119.499 36.5s42.5 60.166 42.5 107.499s-14.167 83.166 -42.5 107.499
s-68.166 36.5 -119.499 36.5h-206z" />
    <glyph glyph-name="Sigma" unicode="&#x3a3;" horiz-adv-x="585" 
d="M269 350l-213 276v74h475v-74h-378l209 -276l-220 -276h401v-74h-495v74z" />
    <glyph glyph-name="Tau" unicode="&#x3a4;" horiz-adv-x="558" 
d="M19 626v74h520v-74h-218v-626h-84v626h-218z" />
    <glyph glyph-name="Upsilon" unicode="&#x3a5;" horiz-adv-x="552" 
d="M234 0v287l-230 413h91l159 -296l8 -16l14 -33c1.33301 4 6 15 14 33l8 16l159 296h91l-230 -413v-287h-84z" />
    <glyph glyph-name="Phi" unicode="&#x3a6;" horiz-adv-x="766" 
d="M425 76v-76h-84v76h-8c-80 0 -147.333 25.333 -202 76s-82 116.667 -82 198s27.333 147.333 82 198s122 76 202 76h8v76h84v-76h8c80 0 147.333 -25.333 202 -76s82 -116.667 82 -198s-27.333 -147.333 -82 -198s-122 -76 -202 -76h-8zM425 550v-400h9
c57.333 0 104.833 17.667 142.5 53s56.5 84.333 56.5 147c0 62 -18.833 110.833 -56.5 146.5s-85.167 53.5 -142.5 53.5h-9zM341 150v400h-9c-57.333 0 -104.833 -17.833 -142.5 -53.5s-56.5 -84.5 -56.5 -146.5c0 -62.667 18.833 -111.667 56.5 -147s85.167 -53 142.5 -53
h9z" />
    <glyph glyph-name="Chi" unicode="&#x3a7;" horiz-adv-x="577" 
d="M135 700l153 -258l159 258h93l-202 -319l235 -381h-95l-190 310l-189 -310h-96l237 376l-202 324h97z" />
    <glyph glyph-name="Psi" unicode="&#x3a8;" horiz-adv-x="744" 
d="M330 0v172c-80 0 -142.667 23.167 -188 69.5s-68 109.833 -68 190.5v268h84v-263c0 -58.667 14.5 -105.167 43.5 -139.5s71.833 -51.5 128.5 -51.5v454h84v-454c56.667 0 99.5 17.167 128.5 51.5s43.5 80.833 43.5 139.5v263h84v-268
c0 -80.667 -22.667 -144.167 -68 -190.5s-108 -69.5 -188 -69.5v-172h-84z" />
    <glyph glyph-name="uni03A9" unicode="&#x3a9;" horiz-adv-x="788" 
d="M711 74l0.00195312 -74h-257v88c51.333 21.333 96.166 57.166 134.499 107.499s57.5 111.166 57.5 182.499c0 75.333 -23.5 137.833 -70.5 187.5s-107.5 74.5 -181.5 74.5s-134.5 -24.833 -181.5 -74.5s-70.5 -112.167 -70.5 -187.5
c0 -71.333 19.167 -132.166 57.5 -182.499s83.166 -86.166 134.499 -107.499v-88h-257v74h157c-48 27.333 -89.667 69.166 -125 125.499s-53 117.5 -53 183.5c0 95.333 32.333 174.333 97 237s145 94 241 94s176.333 -31.333 241 -94s97 -141.667 97 -237
c0 -66 -17.667 -127.167 -53 -183.5s-77 -98.166 -125 -125.499h157z" />
    <glyph glyph-name="Iotadieresis" unicode="&#x3aa;" horiz-adv-x="260" 
d="M88 0v700h84v-700h-84zM163 792v92h92v-92h-92zM5 792v92h92v-92h-92z" />
    <glyph glyph-name="Upsilondieresis" unicode="&#x3ab;" horiz-adv-x="552" 
d="M309 792v92h92v-92h-92zM151 792v92h92v-92h-92zM234 0v287l-230 413h91l159 -296l8 -16l14 -33c1.33301 4 6 15 14 33l8 16l159 296h91l-230 -413v-287h-84z" />
    <glyph glyph-name="alphatonos" unicode="&#x3ac;" horiz-adv-x="649" 
d="M493 496h78l-58 -295c7.33301 -95.333 32.333 -143 75 -143c10 0 18.667 1.66699 26 5l13 -68c-17.333 -6 -34 -9 -50 -9c-55.333 0 -93.333 32.667 -114 98c-42.667 -65.333 -104 -98 -184 -98c-66.667 0 -122.834 24.667 -168.501 74s-68.5 112 -68.5 188
s22.833 138.667 68.5 188s101.834 74 168.501 74c46.667 0 87 -11.667 121 -35s58.333 -54.333 73 -93zM281 58c44.667 0 82.5 17.667 113.5 53s46.5 81 46.5 137s-15.5 101.667 -46.5 137s-68.833 53 -113.5 53s-82.334 -17.667 -113.001 -53s-46 -81 -46 -137
s15.333 -101.667 46 -137s68.334 -53 113.001 -53zM249 562l44 138h107l-80 -138h-71z" />
    <glyph glyph-name="epsilontonos" unicode="&#x3ad;" horiz-adv-x="471" 
d="M253 293l-0.000976562 -59.998c-38 0 -68.333 -7.5 -91 -22.5s-34 -36.833 -34 -65.5s9.33301 -51 28 -67s46.334 -24 83.001 -24c31.333 0 57.833 6.83301 79.5 20.5s32.5 33.5 32.5 59.5c0 10 -1.66699 20 -5 30l67 23c6.66699 -15.333 10 -33 10 -53
c0 -43.333 -16.167 -78.833 -48.5 -106.5s-76.833 -41.5 -133.5 -41.5c-62.667 0 -110.167 15.167 -142.5 45.5s-48.5 66.833 -48.5 109.5c0 32.667 9.66699 59.667 29 81s42 35.666 68 42.999c-57.333 21.333 -86 59.333 -86 114c0 36 15.833 66.833 47.5 92.5
s74.167 38.5 127.5 38.5c55.333 0 98 -11.833 128 -35.5s45 -55.834 45 -96.501c0 -16 -3.66699 -30.667 -11 -44l-62 24c2 6.66699 3 13.667 3 21c0 20.667 -9.83301 37 -29.5 49s-44.167 18 -73.5 18c-32 0 -56.833 -6.16699 -74.5 -18.5s-26.5 -29.5 -26.5 -51.5
c0 -55.333 39.333 -83 118 -83zM199.999 562.002l44 138h107l-80 -138h-71z" />
    <glyph glyph-name="etatonos" unicode="&#x3ae;" horiz-adv-x="571" 
d="M495 337l-0.00195312 -541h-78v527c0 38.667 -10.667 67.834 -32 87.501s-50.333 29.5 -87 29.5c-39.333 0 -73.166 -15.333 -101.499 -46s-42.5 -70.334 -42.5 -119.001v-275h-78v496h78v-87c18 32 41.5 56.833 70.5 74.5s61.167 26.5 96.5 26.5
c48.667 0 89.834 -14.5 123.501 -43.5s50.5 -72.167 50.5 -129.5zM249.998 562l44 138h107l-80 -138h-71z" />
    <glyph glyph-name="iotatonos" unicode="&#x3af;" horiz-adv-x="288" 
d="M76 496h78v-372c0 -23.333 4.5 -40.833 13.5 -52.5s24.833 -17.5 47.5 -17.5c10 0 22.333 2 37 6l7 -65c-20.667 -6 -42.667 -9 -66 -9c-78 0 -117 44.333 -117 133v377zM81 562l44 138h107l-80 -138h-71z" />
    <glyph glyph-name="upsilondieresistonos" unicode="&#x3b0;" horiz-adv-x="562" 
d="M486 496v-312c0 -63.333 -19.167 -112.166 -57.5 -146.499s-87.5 -51.5 -147.5 -51.5s-109.167 17.167 -147.5 51.5s-57.5 83.166 -57.5 146.499v312h78v-315c0 -38.667 11.167 -69.167 33.5 -91.5s53.5 -33.5 93.5 -33.5s71.167 11.167 93.5 33.5s33.5 52.833 33.5 91.5
v315h78zM375 588v92h92v-92h-92zM95 588v92h92v-92h-92zM212 562l42 138h100l-78 -138h-64z" />
    <glyph glyph-name="alpha" unicode="&#x3b1;" horiz-adv-x="649" 
d="M493 496h78l-58 -295c7.33301 -95.333 32.333 -143 75 -143c10 0 18.667 1.66699 26 5l13 -68c-17.333 -6 -34 -9 -50 -9c-55.333 0 -93.333 32.667 -114 98c-42.667 -65.333 -104 -98 -184 -98c-66.667 0 -122.834 24.667 -168.501 74s-68.5 112 -68.5 188
s22.833 138.667 68.5 188s101.834 74 168.501 74c46.667 0 87 -11.667 121 -35s58.333 -54.333 73 -93zM281 58c44.667 0 82.5 17.667 113.5 53s46.5 81 46.5 137s-15.5 101.667 -46.5 137s-68.833 53 -113.5 53s-82.334 -17.667 -113.001 -53s-46 -81 -46 -137
s15.333 -101.667 46 -137s68.334 -53 113.001 -53z" />
    <glyph glyph-name="beta" unicode="&#x3b2;" horiz-adv-x="559" 
d="M302 -14c-30.667 0 -59.832 7.00098 -87.499 21.001s-47.834 32 -60.501 54v-265h-78v707c0 69.333 19.833 121.833 59.5 157.5s86.5 53.5 140.5 53.5c56.667 0 102.167 -15.833 136.5 -47.5s51.5 -70.834 51.5 -117.501c0 -74 -37.667 -126.667 -113 -158
c48 -14 86.5 -37.333 115.5 -70s43.5 -73 43.5 -121c0 -63.333 -20.5 -114.833 -61.5 -154.5s-89.833 -59.5 -146.5 -59.5zM227.002 349.001l0.000976562 66.0029h23c40 0 73.333 11.667 100 35s40 53.666 40 90.999c0 31.333 -11 56.666 -33 75.999s-49 29 -81 29
c-33.333 0 -62 -11.333 -86 -34s-36 -55.334 -36 -98.001v-312c0 -47.333 13.667 -83.833 41 -109.5s60.666 -38.5 99.999 -38.5c38.667 0 71.167 12.833 97.5 38.5s39.5 60.5 39.5 104.5c0 48 -18 85.333 -54 112s-78.333 40 -127 40h-24z" />
    <glyph glyph-name="gamma" unicode="&#x3b3;" horiz-adv-x="504" 
d="M213 -204v216l-197 484h89l147 -391l147 391h89l-197 -484v-216h-78z" />
    <glyph glyph-name="delta" unicode="&#x3b4;" horiz-adv-x="574" 
d="M207 634l212 -197c22.667 -20.667 40.5 -38.667 53.5 -54s25 -37 36 -65s16.5 -59.333 16.5 -94c0 -69.333 -23.667 -126.333 -71 -171s-103 -67 -167 -67c-66.667 0 -123 21 -169 63s-69 100.333 -69 175c0 66.667 23 122 69 166s104.667 66 176 66l-202 178v66h334v-66
h-219zM287 56c46.667 0 85.667 15.667 117 47s47 71.666 47 120.999c0 48.667 -15.833 88.834 -47.5 120.501s-70.5 47.5 -116.5 47.5s-84.833 -15.833 -116.5 -47.5s-47.5 -71.834 -47.5 -120.501c0 -49.333 15.667 -89.666 47 -120.999s70.333 -47 117 -47z" />
    <glyph glyph-name="epsilon" unicode="&#x3b5;" horiz-adv-x="471" 
d="M253 293l-0.000976562 -59.998c-38 0 -68.333 -7.5 -91 -22.5s-34 -36.833 -34 -65.5s9.33301 -51 28 -67s46.334 -24 83.001 -24c31.333 0 57.833 6.83301 79.5 20.5s32.5 33.5 32.5 59.5c0 10 -1.66699 20 -5 30l67 23c6.66699 -15.333 10 -33 10 -53
c0 -43.333 -16.167 -78.833 -48.5 -106.5s-76.833 -41.5 -133.5 -41.5c-62.667 0 -110.167 15.167 -142.5 45.5s-48.5 66.833 -48.5 109.5c0 32.667 9.66699 59.667 29 81s42 35.666 68 42.999c-57.333 21.333 -86 59.333 -86 114c0 36 15.833 66.833 47.5 92.5
s74.167 38.5 127.5 38.5c55.333 0 98 -11.833 128 -35.5s45 -55.834 45 -96.501c0 -16 -3.66699 -30.667 -11 -44l-62 24c2 6.66699 3 13.667 3 21c0 20.667 -9.83301 37 -29.5 49s-44.167 18 -73.5 18c-32 0 -56.833 -6.16699 -74.5 -18.5s-26.5 -29.5 -26.5 -51.5
c0 -55.333 39.333 -83 118 -83z" />
    <glyph glyph-name="zeta" unicode="&#x3b6;" horiz-adv-x="470" 
d="M412 -113l-55 42.999c8 10 12 21 12 33c0 24.667 -18 37 -54 37c-177.333 0 -266 79.667 -266 239c0 142.667 80.667 275.667 242 399h-237v62h335v-62c-90.667 -66.667 -157 -130.5 -199 -191.5s-63 -124.833 -63 -191.5c0 -123.333 61.333 -185 184 -185
c42.667 0 76 -8.66699 100 -26s36 -43.333 36 -78c0 -29.333 -11.667 -55.666 -35 -78.999z" />
    <glyph glyph-name="eta" unicode="&#x3b7;" horiz-adv-x="571" 
d="M495 337l-0.00195312 -541h-78v527c0 38.667 -10.667 67.834 -32 87.501s-50.333 29.5 -87 29.5c-39.333 0 -73.166 -15.333 -101.499 -46s-42.5 -70.334 -42.5 -119.001v-275h-78v496h78v-87c18 32 41.5 56.833 70.5 74.5s61.167 26.5 96.5 26.5
c48.667 0 89.834 -14.5 123.501 -43.5s50.5 -72.167 50.5 -129.5z" />
    <glyph glyph-name="theta" unicode="&#x3b8;" horiz-adv-x="624" 
d="M575 350c0 -113.333 -23.667 -202.333 -71 -267s-111.333 -97 -192 -97s-144.667 32.333 -192 97s-71 153.667 -71 267s23.667 202.333 71 267s111.333 97 192 97s144.667 -32.333 192 -97s71 -153.667 71 -267zM312 56c52 0 94.3311 22 126.998 66
s51.334 108.333 56.001 193h-366c4.66699 -84.667 23.334 -149 56.001 -193s75 -66 127 -66zM311.998 644c-51.333 0 -93.668 -22.333 -127.001 -67s-52 -108.667 -56 -192h366c-4 83.333 -22.667 147.333 -56 192s-75.666 67 -126.999 67z" />
    <glyph glyph-name="iota" unicode="&#x3b9;" horiz-adv-x="288" 
d="M76 496h78v-372c0 -23.333 4.5 -40.833 13.5 -52.5s24.833 -17.5 47.5 -17.5c10 0 22.333 2 37 6l7 -65c-20.667 -6 -42.667 -9 -66 -9c-78 0 -117 44.333 -117 133v377z" />
    <glyph glyph-name="kappa" unicode="&#x3ba;" horiz-adv-x="495" 
d="M154 496v-219l189 219h91l-171 -196l208 -300h-93l-168 239l-56 -65v-174h-78v496h78z" />
    <glyph glyph-name="lambda" unicode="&#x3bb;" horiz-adv-x="495" 
d="M69 626l-12.001 70c16 7.33301 33.333 11 52 11c32 0 58.5 -7.16699 79.5 -21.5s38.5 -38.833 52.5 -73.5l248 -612h-85l-155 389l-154 -389h-89l200 494l-37 93c-8 18 -16.167 30.667 -24.5 38s-20.166 11 -35.499 11c-12 0 -25.333 -3.33301 -40 -10z" />
    <glyph glyph-name="uni03BC" unicode="&#x3bc;" horiz-adv-x="571" 
d="M76 -204l0.000976562 700h78v-323c0 -38 10.667 -67 32 -87s49.666 -30 84.999 -30c40 0 74.333 15 103 45s43 69 43 117v278h78v-496h-78v87c-34.667 -67.333 -89.667 -101 -165 -101c-40.667 0 -74 10.667 -100 32c1.33301 -30.667 2 -55.667 2 -75v-147h-78z" />
    <glyph glyph-name="nu" unicode="&#x3bd;" horiz-adv-x="494" 
d="M486 496l-200 -496h-78l-200 496h84l155 -406l155 406h84z" />
    <glyph glyph-name="xi" unicode="&#x3be;" horiz-adv-x="506" 
d="M129 209c0 -45.333 16.6689 -79.833 50.002 -103.5s79.666 -35.5 138.999 -35.5c92.667 0 139 -34 139 -102c0 -28 -13 -54 -39 -78l-51 40c8 10 12 21 12 33c0 24.667 -18 37 -54 37c-86 0 -153.167 16.5 -201.5 49.5s-72.5 84.833 -72.5 155.5
c0 84.667 45.333 144.334 136 179.001c-36 13.333 -63.833 34.5 -83.5 63.5s-29.5 60.167 -29.5 93.5c0 50 19.167 91.333 57.5 124s87.166 49 146.499 49c60 0 107 -13.333 141 -40s51 -62.334 51 -107.001c0 -19.333 -2.66699 -36.333 -8 -51l-73 11c3.33301 10 5 19 5 27
c0 30 -10.333 52.5 -31 67.5s-49 22.5 -85 22.5c-38.667 0 -69.334 -9.83301 -92.001 -29.5s-34 -46.167 -34 -79.5c0 -36 12.833 -65.833 38.5 -89.5s67.167 -35.5 124.5 -35.5v-68c-55.333 0 -100.166 -10.833 -134.499 -32.5s-51.5 -55.167 -51.5 -100.5z" />
    <glyph glyph-name="omicron" unicode="&#x3bf;" horiz-adv-x="602" 
d="M560 248c0 -54 -13.167 -101.333 -39.5 -142s-58.833 -70.834 -97.5 -90.501s-79.334 -29.5 -122.001 -29.5s-83.334 9.83301 -122.001 29.5s-71.167 49.834 -97.5 90.501s-39.5 88 -39.5 142s13.167 101.333 39.5 142s58.833 70.834 97.5 90.501
s79.334 29.5 122.001 29.5s83.334 -9.83301 122.001 -29.5s71.167 -49.834 97.5 -90.501s39.5 -88 39.5 -142zM301 56c50.667 0 93.167 18.167 127.5 54.5s51.5 82.166 51.5 137.499s-17.167 101.166 -51.5 137.499s-76.833 54.5 -127.5 54.5s-93.167 -18.167 -127.5 -54.5
s-51.5 -82.166 -51.5 -137.499s17.167 -101.166 51.5 -137.499s76.833 -54.5 127.5 -54.5z" />
    <glyph glyph-name="pi" unicode="&#x3c0;" horiz-adv-x="649" 
d="M212 434v-433.999h-78v434h-104v62h579v-62h-104v-308c0 -26.667 4.83301 -45.334 14.5 -56.001s26.167 -16 49.5 -16c10 0 22.333 2 37 6l7 -65c-14.667 -6 -36.667 -9 -66 -9c-80 0 -120 41.667 -120 125v323h-215z" />
    <glyph glyph-name="rho" unicode="&#x3c1;" horiz-adv-x="608" 
d="M76 -204l-0.000976562 451.999c0 78 23.5 141.167 70.5 189.5s104.833 72.5 173.5 72.5c74.667 0 134.334 -23.667 179.001 -71s67 -111 67 -191c0 -78 -22.5 -141.167 -67.5 -189.5s-101.167 -72.5 -168.5 -72.5c-38 0 -73 8.33301 -105 25s-55.667 39.334 -71 68.001
v-283h-78zM319.999 437.999c-48.667 0 -88.5 -17.5 -119.5 -52.5s-46.5 -80.833 -46.5 -137.5s15.5 -102.5 46.5 -137.5s70.833 -52.5 119.5 -52.5s88.5 17.5 119.5 52.5s46.5 80.833 46.5 137.5s-15.5 102.5 -46.5 137.5s-70.833 52.5 -119.5 52.5z" />
    <glyph glyph-name="sigma1" unicode="&#x3c2;" horiz-adv-x="549" 
d="M371 -147l-46.999 46.999c19.333 15.333 29 30.333 29 45c0 23.333 -19 37 -57 41c-72 6.66699 -132.333 33.834 -181 81.501s-73 107.834 -73 180.501c0 75.333 24.833 137.833 74.5 187.5s109.5 74.5 179.5 74.5c106 0 177.667 -45.333 215 -136l-60 -39
c-32.667 70 -84 105 -154 105c-50.667 0 -92.834 -17.333 -126.501 -52s-50.5 -80 -50.5 -136c0 -58.667 17.333 -104.167 52 -136.5s79.667 -52.833 135 -61.5c46.667 -8 79 -19.833 97 -35.5s27 -38.167 27 -67.5c0 -32.667 -20 -65.334 -60 -98.001z" />
    <glyph glyph-name="sigma" unicode="&#x3c3;" horiz-adv-x="633" 
d="M560 248c0 -54 -13.165 -101.334 -39.498 -142.001s-58.833 -70.834 -97.5 -90.501s-79.334 -29.5 -122.001 -29.5s-83.334 9.83301 -122.001 29.5s-71.167 49.834 -97.5 90.501s-39.5 88 -39.5 142c0 80.667 26.5 144.5 79.5 191.5s115.833 70.5 188.5 70.5h293v-70
h-147c32 -20 57.333 -46.667 76 -80s28 -70.666 28 -111.999zM301.002 439.999c-50.667 0 -93.167 -18.167 -127.5 -54.5s-51.5 -82.166 -51.5 -137.499s17.167 -101.166 51.5 -137.499s76.833 -54.5 127.5 -54.5s93.167 18.167 127.5 54.5s51.5 82.166 51.5 137.499
s-17.167 101.166 -51.5 137.499s-76.833 54.5 -127.5 54.5z" />
    <glyph glyph-name="tau" unicode="&#x3c4;" horiz-adv-x="430" 
d="M21 428l0.000976562 68h374v-68h-148v-297c0 -27.333 4.16699 -47 12.5 -59s25.166 -18 50.499 -18c10 0 22.333 2 37 6l7 -65c-14.667 -6 -36.667 -9 -66 -9c-35.333 0 -64 10.333 -86 31s-33 54.667 -33 102v309h-148z" />
    <glyph glyph-name="upsilon" unicode="&#x3c5;" horiz-adv-x="562" 
d="M486 496v-312c0 -63.333 -19.167 -112.166 -57.5 -146.499s-87.5 -51.5 -147.5 -51.5s-109.167 17.167 -147.5 51.5s-57.5 83.166 -57.5 146.499v312h78v-315c0 -38.667 11.167 -69.167 33.5 -91.5s53.5 -33.5 93.5 -33.5s71.167 11.167 93.5 33.5s33.5 52.833 33.5 91.5
v315h78z" />
    <glyph glyph-name="phi" unicode="&#x3c6;" horiz-adv-x="698" 
d="M388 0v-204h-78v204h-23c-66.667 0 -124.167 22.667 -172.5 68s-72.5 105.333 -72.5 180c0 76 24.333 136.333 73 181s110 67 184 67h100c74 0 135.333 -22.333 184 -67s73 -105 73 -181c0 -74.667 -24.167 -134.667 -72.5 -180s-105.833 -68 -172.5 -68h-23zM122 248
c0 -56.667 16.667 -100.167 50 -130.5s74 -45.5 122 -45.5h16v352h-16c-48 0 -88.667 -15.167 -122 -45.5s-50 -73.833 -50 -130.5zM576 248c0 56.667 -16.667 100.167 -50 130.5s-74 45.5 -122 45.5h-16v-352h16c48 0 88.667 15.167 122 45.5s50 73.833 50 130.5z" />
    <glyph glyph-name="chi" unicode="&#x3c7;" horiz-adv-x="526" 
d="M194 444l83.998 -190.999l115 243h85l-161 -326l118 -268c8 -16.667 15.5 -28.334 22.5 -35.001s16.833 -10 29.5 -10c10.667 0 23.334 4.33301 38.001 13l18 -64c-19.333 -11.333 -41.666 -17 -66.999 -17c-26.667 0 -48.5 6.5 -65.5 19.5s-31.5 33.833 -43.5 62.5
l-93 214l-145 -289h-84l191 366l-106 243c-8 18.667 -20.667 28 -38 28c-12.667 0 -25.667 -5.66699 -39 -17l-27 57c25.333 20 52.333 30 81 30c22.667 0 40.667 -4.66699 54 -14s24.333 -24.333 33 -45z" />
    <glyph glyph-name="psi" unicode="&#x3c8;" horiz-adv-x="666" 
d="M294 -204v190c-67.333 0 -120.5 19.5 -159.5 58.5s-58.5 91.833 -58.5 158.5v293h78v-296c0 -42.667 12.5 -77.334 37.5 -104.001s59.167 -40 102.5 -40v440h78v-440c43.333 0 77.5 13.333 102.5 40s37.5 61.334 37.5 104.001v296h78v-293
c0 -66.667 -19.5 -119.5 -58.5 -158.5s-92.167 -58.5 -159.5 -58.5v-190h-78z" />
    <glyph glyph-name="omega" unicode="&#x3c9;" horiz-adv-x="790" 
d="M575 476l71.002 34c50.667 -94 76 -188 76 -282c0 -73.333 -15.333 -132 -46 -176s-76.334 -66 -137.001 -66c-71.333 0 -119.333 39.333 -144 118c-24.667 -78.667 -72.667 -118 -144 -118c-60.667 0 -106.334 22 -137.001 66s-46 102.667 -46 176
c0 94 25.333 188 76 282l71 -34c-46 -88.667 -69 -175.667 -69 -261c0 -47.333 10 -85.666 30 -114.999s48.333 -44 85 -44c30 0 53.333 11.333 70 34s25 54 25 94v160h78v-160c0 -40 8.33301 -71.333 25 -94s40 -34 70 -34c36.667 0 65 14.667 85 44s30 67.666 30 114.999
c0 85.333 -23 172.333 -69 261z" />
    <glyph glyph-name="iotadieresis" unicode="&#x3ca;" horiz-adv-x="288" 
d="M148 588v92h92v-92h-92zM-10 588v92h92v-92h-92zM76 496h78v-372c0 -23.333 4.5 -40.833 13.5 -52.5s24.833 -17.5 47.5 -17.5c10 0 22.333 2 37 6l7 -65c-20.667 -6 -42.667 -9 -66 -9c-78 0 -117 44.333 -117 133v377z" />
    <glyph glyph-name="upsilondieresis" unicode="&#x3cb;" horiz-adv-x="562" 
d="M486 496v-312c0 -63.333 -19.167 -112.166 -57.5 -146.499s-87.5 -51.5 -147.5 -51.5s-109.167 17.167 -147.5 51.5s-57.5 83.166 -57.5 146.499v312h78v-315c0 -38.667 11.167 -69.167 33.5 -91.5s53.5 -33.5 93.5 -33.5s71.167 11.167 93.5 33.5s33.5 52.833 33.5 91.5
v315h78zM314 588v92h92v-92h-92zM156 588v92h92v-92h-92z" />
    <glyph glyph-name="omicrontonos" unicode="&#x3cc;" horiz-adv-x="602" 
d="M560 248c0 -54 -13.167 -101.333 -39.5 -142s-58.833 -70.834 -97.5 -90.501s-79.334 -29.5 -122.001 -29.5s-83.334 9.83301 -122.001 29.5s-71.167 49.834 -97.5 90.501s-39.5 88 -39.5 142s13.167 101.333 39.5 142s58.833 70.834 97.5 90.501
s79.334 29.5 122.001 29.5s83.334 -9.83301 122.001 -29.5s71.167 -49.834 97.5 -90.501s39.5 -88 39.5 -142zM301 56c50.667 0 93.167 18.167 127.5 54.5s51.5 82.166 51.5 137.499s-17.167 101.166 -51.5 137.499s-76.833 54.5 -127.5 54.5s-93.167 -18.167 -127.5 -54.5
s-51.5 -82.166 -51.5 -137.499s17.167 -101.166 51.5 -137.499s76.833 -54.5 127.5 -54.5zM266 562l44 138h107l-80 -138h-71z" />
    <glyph glyph-name="upsilontonos" unicode="&#x3cd;" horiz-adv-x="562" 
d="M486 496v-312c0 -63.333 -19.167 -112.166 -57.5 -146.499s-87.5 -51.5 -147.5 -51.5s-109.167 17.167 -147.5 51.5s-57.5 83.166 -57.5 146.499v312h78v-315c0 -38.667 11.167 -69.167 33.5 -91.5s53.5 -33.5 93.5 -33.5s71.167 11.167 93.5 33.5s33.5 52.833 33.5 91.5
v315h78zM246 562l44 138h107l-80 -138h-71z" />
    <glyph glyph-name="omegatonos" unicode="&#x3ce;" horiz-adv-x="790" 
d="M575 476l71.002 34c50.667 -94 76 -188 76 -282c0 -73.333 -15.333 -132 -46 -176s-76.334 -66 -137.001 -66c-71.333 0 -119.333 39.333 -144 118c-24.667 -78.667 -72.667 -118 -144 -118c-60.667 0 -106.334 22 -137.001 66s-46 102.667 -46 176
c0 94 25.333 188 76 282l71 -34c-46 -88.667 -69 -175.667 -69 -261c0 -47.333 10 -85.666 30 -114.999s48.333 -44 85 -44c30 0 53.333 11.333 70 34s25 54 25 94v160h78v-160c0 -40 8.33301 -71.333 25 -94s40 -34 70 -34c36.667 0 65 14.667 85 44s30 67.666 30 114.999
c0 85.333 -23 172.333 -69 261zM360.002 562l44 138h107l-80 -138h-71z" />
    <glyph glyph-name="uni0400" unicode="&#x400;" horiz-adv-x="597" 
d="M88 0v700h438v-74h-354v-227h326v-74h-326v-251h357v-74h-441zM300 904l64 -138h-71l-100 138h107z" />
    <glyph glyph-name="uni0401" unicode="&#x401;" horiz-adv-x="597" 
d="M88 0v700h438v-74h-354v-227h326v-74h-326v-251h357v-74h-441zM341 792v92h92v-92h-92zM183 792v92h92v-92h-92z" />
    <glyph glyph-name="uni0402" unicode="&#x402;" horiz-adv-x="748" 
d="M19 626v73.999h520v-74h-239v-220h164c72 0 129.333 -17.5 172 -52.5s64 -85.167 64 -150.5s-21 -116.666 -63 -153.999s-97.667 -56 -167 -56c-32 0 -61 4 -87 12l12 70c22 -8 47.667 -12 77 -12c43.333 0 78.833 11.667 106.5 35s41.5 58.333 41.5 105
c0 88.667 -56.333 133 -169 133h-151v-336h-84v626h-197z" />
    <glyph glyph-name="uni0403" unicode="&#x403;" horiz-adv-x="555" 
d="M88 0v700h448v-74h-364v-626h-84zM255 766l64 138h107l-100 -138h-71z" />
    <glyph glyph-name="uni0404" unicode="&#x404;" horiz-adv-x="739" 
d="M527 394l0.000976562 -74h-385c6.66699 -80 32.834 -143.333 78.501 -190s103.834 -70 174.501 -70c52.667 0 96.667 13.5 132 40.5s65.666 66.833 90.999 119.5l63 -40c-30.667 -61.333 -68.834 -109 -114.501 -143s-103.5 -51 -173.5 -51
c-98.667 0 -179.5 33.333 -242.5 100s-94.5 154.667 -94.5 264c0 108 32.667 195.667 98 263s146 101 242 101c135.333 0 228.666 -62 279.999 -186l-67 -36c-25.333 52.667 -55 90.5 -89 113.5s-75.333 34.5 -124 34.5c-66 0 -122.5 -22 -169.5 -66
s-75.167 -104 -84.5 -180h385z" />
    <glyph glyph-name="uni0405" unicode="&#x405;" horiz-adv-x="649" 
d="M168 532c0 -34 15.334 -61.6689 46.001 -83.002s79 -38 145 -50c76.667 -14 133.5 -37.667 170.5 -71s55.5 -77.666 55.5 -132.999c0 -59.333 -23.5 -109 -70.5 -149s-107.833 -60 -182.5 -60c-76.667 0 -139.5 20.333 -188.5 61s-79.167 92.667 -90.5 156l74 39
c9.33301 -60 32 -105.333 68 -136s81.667 -46 137 -46c52 0 93.167 12.5 123.5 37.5s45.5 55.5 45.5 91.5c0 39.333 -15 69.833 -45 91.5s-76.667 38.5 -140 50.5c-153.333 27.333 -230 94.333 -230 201c0 53.333 22 97 66 131s100 51 168 51
c60.667 0 113.5 -15.167 158.5 -45.5s76.5 -71.166 94.5 -122.499l-68 -40c-14.667 43.333 -37.834 76.833 -69.501 100.5s-70.167 35.5 -115.5 35.5s-82 -9.66699 -110 -29s-42 -46.333 -42 -81z" />
    <glyph glyph-name="uni0406" unicode="&#x406;" horiz-adv-x="260" 
d="M88 0v700h84v-700h-84z" />
    <glyph glyph-name="uni0407" unicode="&#x407;" horiz-adv-x="260" 
d="M88 0v700h84v-700h-84zM163 792v92h92v-92h-92zM5 792v92h92v-92h-92z" />
    <glyph glyph-name="uni0408" unicode="&#x408;" horiz-adv-x="537" 
d="M471 700l0.00195312 -502.001c0 -64 -18.833 -115.333 -56.5 -154s-87.167 -58 -148.5 -58c-64 0 -115.833 17.333 -155.5 52s-59.5 87 -59.5 157l84 -9c1.33301 -43.333 14.166 -75.166 38.499 -95.499s55.166 -30.5 92.499 -30.5c35.333 0 64.333 12 87 36
s34 58.333 34 103v501h84z" />
    <glyph glyph-name="uni0409" unicode="&#x409;" horiz-adv-x="1033" 
d="M276 626l-53.999 -489c-6 -52 -19.5 -89 -40.5 -111s-51.167 -33 -90.5 -33c-19.333 0 -37 2 -53 6l15 80c11.333 -4 20.666 -6 27.999 -6c34 0 53.333 21.333 58 64l61 563h360v-294h174c72.667 0 131.334 -17.667 176.001 -53s67 -85.333 67 -150
s-22.333 -114.667 -67 -150s-103.334 -53 -176.001 -53h-258v626h-200zM560.001 336v-266h161c52.667 0 95.167 10.5 127.5 31.5s48.5 54.833 48.5 101.5c0 46 -16.167 79.667 -48.5 101s-74.833 32 -127.5 32h-161z" />
    <glyph glyph-name="uni040A" unicode="&#x40a;" horiz-adv-x="1031" 
d="M88 0v700h84v-306h314v306h84v-306h162c73.333 0 132.166 -17 176.499 -51s66.5 -83.333 66.5 -148c0 -64 -22.167 -112.5 -66.5 -145.5s-103.166 -49.5 -176.499 -49.5h-246v320h-314v-320h-84zM570 320v-250h149c117.333 0 176 41.667 176 125s-58.667 125 -176 125
h-149z" />
    <glyph glyph-name="uni040B" unicode="&#x40b;" horiz-adv-x="706" 
d="M550 0l0.000976562 285c0 36 -9.83301 63.833 -29.5 83.5s-46.834 29.5 -81.501 29.5c-38.667 0 -71.5 -15.167 -98.5 -45.5s-40.5 -67.833 -40.5 -112.5v-240h-84v626h-197v74h520v-74h-239v-255c35.333 64.667 89 97 161 97c50 0 90.667 -14.667 122 -44
s47 -69 47 -119v-305h-80z" />
    <glyph glyph-name="uni040C" unicode="&#x40c;" horiz-adv-x="619" 
d="M88 0v700h84v-319c20 21.333 32.667 35.333 38 42l20 22l242 255h105l-244 -259l264 -441h-98l-226 378l-101 -107v-271h-84zM254 766l64 138h107l-100 -138h-71z" />
    <glyph glyph-name="uni040D" unicode="&#x40d;" horiz-adv-x="708" 
d="M346 904l64 -138h-71l-100 138h107zM88 0l0.000976562 700h80v-582c4 10 9.66699 21 17 33c7.33301 12.667 11.666 20 12.999 22l333 527h89v-700h-80v582c-2.66699 -7.33301 -8.33398 -18.333 -17.001 -33c-7.33301 -12.667 -11.666 -20 -12.999 -22l-333 -527h-89z" />
    <glyph glyph-name="uni040E" unicode="&#x40e;" horiz-adv-x="516" 
d="M174 93l57.002 144l-218 463h86l170 -367l148 367h84l-257 -635c-21.333 -52.667 -54.333 -79 -99 -79c-22.667 0 -42.334 4 -59.001 12l17 72c10.667 -6.66699 21 -10 31 -10c17.333 0 30.666 11 39.999 33zM306.002 876h64c0 -31.333 -9.66699 -56.5 -29 -75.5
s-44 -28.5 -74 -28.5s-54.667 9.5 -74 28.5s-29 44.167 -29 75.5h64c0 -29.333 13 -44 39 -44s39 14.667 39 44z" />
    <glyph glyph-name="uni040F" unicode="&#x40f;" horiz-adv-x="670" 
d="M88 0v700h84v-626h326v626h84v-700h-207v-116h-80v116h-207z" />
    <glyph glyph-name="uni0410" unicode="&#x410;" horiz-adv-x="656" 
d="M6 0l278 700h88l278 -700h-86l-81 207h-310l-81 -207h-86zM307 549l-107.001 -272h255l-106 272l-8 21c-0.666992 2.66699 -2.66699 8.5 -6 17.5s-5.66602 15.5 -6.99902 19.5l-13 -37z" />
    <glyph glyph-name="uni0411" unicode="&#x411;" horiz-adv-x="645" 
d="M172 336v-266h161c52.667 0 95.167 10.5 127.5 31.5s48.5 54.833 48.5 101.5c0 46 -16.167 79.667 -48.5 101s-74.833 32 -127.5 32h-161zM172 406h174c68.667 0 126.334 -17.833 173.001 -53.5s70 -85.5 70 -149.5s-23.333 -113.833 -70 -149.5
s-104.334 -53.5 -173.001 -53.5h-258v700h419v-70h-335v-224z" />
    <glyph glyph-name="uni0412" unicode="&#x412;" horiz-adv-x="645" 
d="M88 0l-0.00195312 700h256c66.667 0 120 -15.667 160 -47s60 -72 60 -122c0 -74 -40.667 -125.333 -122 -154c46.667 -16 82.834 -37.667 108.501 -65s38.5 -64.333 38.5 -111c0 -60 -23.667 -108.5 -71 -145.5s-104.666 -55.5 -171.999 -55.5h-258zM171.998 336v-266
h161c52.667 0 95.167 10.5 127.5 31.5s48.5 54.833 48.5 101.5c0 46 -16.167 79.667 -48.5 101s-74.833 32 -127.5 32h-161zM171.998 630v-224h166c44 0 79.333 9 106 27s40 46.333 40 85c0 37.333 -13.333 65.333 -40 84s-62 28 -106 28h-166z" />
    <glyph glyph-name="uni0413" unicode="&#x413;" horiz-adv-x="555" 
d="M88 0v700h448v-74h-364v-626h-84z" />
    <glyph glyph-name="uni0414" unicode="&#x414;" horiz-adv-x="677" 
d="M98 0v-116h-80v190h66c24.667 48.667 43 95.167 55 139.5s22 102.833 30 175.5l35 311h385v-626h66v-190h-80v116h-477zM505 74v552h-223l-28 -250c-7.33301 -71.333 -16.833 -128 -28.5 -170s-28.167 -86 -49.5 -132h329z" />
    <glyph glyph-name="uni0415" unicode="&#x415;" horiz-adv-x="597" 
d="M88 0v700h438v-74h-354v-227h326v-74h-326v-251h357v-74h-441z" />
    <glyph glyph-name="uni0416" unicode="&#x416;" horiz-adv-x="964" 
d="M440 0l-0.00292969 271.001l-101 109l-223 -380h-94l259 441l-240 259h105l248 -270c0.666992 -0.666992 6.33398 -7.33398 17.001 -20.001c8.66699 -8.66699 18.334 -20.334 29.001 -35.001v325h84v-325c7.33301 11.333 17 23 29 35
c10.667 12.667 16.334 19.334 17.001 20.001l248 270h105l-240 -259l259 -441h-94l-223 380l-101 -109v-271h-84z" />
    <glyph glyph-name="uni0417" unicode="&#x417;" horiz-adv-x="577" 
d="M70 244l77 -18.9971c-2 -8.66699 -3 -20 -3 -34c0 -39.333 13.5 -71 40.5 -95s62.5 -36 106.5 -36c47.333 0 83.5 12.333 108.5 37s37.5 60 37.5 106c0 46.667 -17.167 81.5 -51.5 104.5s-80.166 34.5 -137.499 34.5v68c57.333 0 98.333 11.667 123 35s37 53.333 37 90
c0 33.333 -11.333 59.833 -34 79.5s-53 29.5 -91 29.5c-37.333 0 -67.333 -10.167 -90 -30.5s-34 -48.166 -34 -83.499c0 -10.667 1.66699 -21 5 -31l-73 -11c-5.33301 14.667 -8 31.667 -8 51c0 48.667 19 90 57 124s86 51 144 51c63.333 0 113.5 -16 150.5 -48
s55.5 -72.333 55.5 -121c0 -34.667 -10 -67.334 -30 -98.001s-49 -51.667 -87 -63c44 -12.667 79.667 -34.334 107 -65.001s41 -68.334 41 -113.001c0 -67.333 -21.333 -120.833 -64 -160.5s-98 -59.5 -166 -59.5c-72.667 0 -129.334 19.667 -170.001 59
s-61 84.666 -61 135.999c0 24 3.33301 45 10 63z" />
    <glyph glyph-name="uni0418" unicode="&#x418;" horiz-adv-x="708" 
d="M88 0l0.000976562 700h80v-582c4 10 9.66699 21 17 33c7.33301 12.667 11.666 20 12.999 22l333 527h89v-700h-80v582c-2.66699 -7.33301 -8.33398 -18.333 -17.001 -33c-7.33301 -12.667 -11.666 -20 -12.999 -22l-333 -527h-89z" />
    <glyph glyph-name="uni0419" unicode="&#x419;" horiz-adv-x="708" 
d="M620 700l0.000976562 -700h-80v582c-2.66699 -7.33301 -8.33398 -18.333 -17.001 -33c-7.33301 -12.667 -11.666 -20 -12.999 -22l-333 -527h-89v700h80v-582c4 10 9.66699 21 17 33c7.33301 12.667 11.666 20 12.999 22l333 527h89zM393.001 876h64
c0 -31.333 -9.66699 -56.5 -29 -75.5s-44 -28.5 -74 -28.5s-54.667 9.5 -74 28.5s-29 44.167 -29 75.5h64c0 -29.333 13 -44 39 -44s39 14.667 39 44z" />
    <glyph glyph-name="uni041A" unicode="&#x41a;" horiz-adv-x="619" 
d="M88 0v700h84v-319c20 21.333 32.667 35.333 38 42l20 22l242 255h105l-244 -259l264 -441h-98l-226 378l-101 -107v-271h-84z" />
    <glyph glyph-name="uni041B" unicode="&#x41b;" horiz-adv-x="673" 
d="M38 -2l15.001 80c11.333 -4 20.666 -6 27.999 -6c34 0 53.333 21.333 58 64l61 564h385v-700h-84v626h-225l-54 -490c-6 -52 -19.5 -89 -40.5 -111s-51.167 -33 -90.5 -33c-19.333 0 -37 2 -53 6z" />
    <glyph glyph-name="uni041C" unicode="&#x41c;" horiz-adv-x="860" 
d="M88 0v700h90l252 -630l252 630h90v-700h-80v540l-20 -56l-16 -42l-183 -442h-86l-183 442l-16 42l-20 56v-540h-80z" />
    <glyph glyph-name="uni041D" unicode="&#x41d;" horiz-adv-x="690" 
d="M88 0v700h84v-306h346v306h84v-700h-84v320h-346v-320h-84z" />
    <glyph glyph-name="uni041E" unicode="&#x41e;" horiz-adv-x="788" 
d="M732 350c0 -107.333 -32.333 -194.833 -97 -262.5s-145 -101.5 -241 -101.5s-176.333 33.833 -241 101.5s-97 155.167 -97 262.5s32.333 194.833 97 262.5s145 101.5 241 101.5s176.333 -33.833 241 -101.5s97 -155.167 97 -262.5zM394 60
c72.667 0 132.834 27 180.501 81s71.5 123.667 71.5 209s-23.833 155 -71.5 209s-107.834 81 -180.501 81s-132.834 -27 -180.501 -81s-71.5 -123.667 -71.5 -209s23.833 -155 71.5 -209s107.834 -81 180.501 -81z" />
    <glyph glyph-name="uni041F" unicode="&#x41f;" horiz-adv-x="670" 
d="M88 0v700h494v-700h-84v626h-326v-626h-84z" />
    <glyph glyph-name="uni0420" unicode="&#x420;" horiz-adv-x="678" 
d="M88 0v700h294c74 0 132.833 -19.833 176.5 -59.5s65.5 -92.5 65.5 -158.5s-21.833 -118.833 -65.5 -158.5s-102.5 -59.5 -176.5 -59.5h-210v-264h-84zM172 626v-287.998h206c51.333 0 91.166 12.167 119.499 36.5s42.5 60.166 42.5 107.499s-14.167 83.166 -42.5 107.499
s-68.166 36.5 -119.499 36.5h-206z" />
    <glyph glyph-name="uni0421" unicode="&#x421;" horiz-adv-x="748" 
d="M626 211l62.999 -46c-62.667 -119.333 -161.334 -179 -296.001 -179c-96.667 0 -177 34.5 -241 103.5s-96 155.833 -96 260.5c0 103.333 33.333 189.833 100 259.5s147.334 104.5 242.001 104.5c68 0 127.333 -16 178 -48s88.667 -76 114 -132l-65 -46
c-49.333 101.333 -125.666 152 -228.999 152c-71.333 0 -131.5 -28 -180.5 -84s-73.5 -124.667 -73.5 -206c0 -83.333 23.5 -152.5 70.5 -207.5s107.833 -82.5 182.5 -82.5c52.667 0 97.5 11.833 134.5 35.5s69.167 62.167 96.5 115.5z" />
    <glyph glyph-name="uni0422" unicode="&#x422;" horiz-adv-x="558" 
d="M19 626v74h520v-74h-218v-626h-84v626h-218z" />
    <glyph glyph-name="uni0423" unicode="&#x423;" horiz-adv-x="516" 
d="M174 93l57.002 144l-218 463h86l170 -367l148 367h84l-257 -635c-21.333 -52.667 -54.333 -79 -99 -79c-22.667 0 -42.334 4 -59.001 12l17 72c10.667 -6.66699 21 -10 31 -10c17.333 0 30.666 11 39.999 33z" />
    <glyph glyph-name="uni0424" unicode="&#x424;" horiz-adv-x="766" 
d="M425 76v-76h-84v76h-8c-80 0 -147.333 25.333 -202 76s-82 116.667 -82 198s27.333 147.333 82 198s122 76 202 76h8v76h84v-76h8c80 0 147.333 -25.333 202 -76s82 -116.667 82 -198s-27.333 -147.333 -82 -198s-122 -76 -202 -76h-8zM425 550v-400h9
c57.333 0 104.833 17.667 142.5 53s56.5 84.333 56.5 147c0 62 -18.833 110.833 -56.5 146.5s-85.167 53.5 -142.5 53.5h-9zM341 150v400h-9c-57.333 0 -104.833 -17.833 -142.5 -53.5s-56.5 -84.5 -56.5 -146.5c0 -62.667 18.833 -111.667 56.5 -147s85.167 -53 142.5 -53
h9z" />
    <glyph glyph-name="uni0425" unicode="&#x425;" horiz-adv-x="577" 
d="M135 700l153 -258l159 258h93l-202 -319l235 -381h-95l-190 310l-189 -310h-96l237 376l-202 324h97z" />
    <glyph glyph-name="uni0426" unicode="&#x426;" horiz-adv-x="692" 
d="M88 0v700h84v-626h326v626h84v-626h66v-190h-80v116h-480z" />
    <glyph glyph-name="uni0427" unicode="&#x427;" horiz-adv-x="623" 
d="M451 469v230.999h84v-700h-84v329c-32.667 -62 -85.667 -93 -159 -93c-65.333 0 -117.5 20.833 -156.5 62.5s-58.5 100.5 -58.5 176.5v225h84v-230c0 -48 12.5 -86.667 37.5 -116s59.833 -44 104.5 -44c44 0 79.667 14.833 107 44.5s41 67.834 41 114.501z" />
    <glyph glyph-name="uni0428" unicode="&#x428;" horiz-adv-x="840" 
d="M88 0v700h84v-626h206v626h84v-626h206v626h84v-700h-664z" />
    <glyph glyph-name="uni0429" unicode="&#x429;" horiz-adv-x="862" 
d="M88 0v700h84v-626h206v626h84v-626h206v626h84v-626h66v-190h-80v116h-650z" />
    <glyph glyph-name="uni042A" unicode="&#x42a;" horiz-adv-x="703" 
d="M29 626v74h201v-294h174c72.667 0 131.334 -17.667 176.001 -53s67 -85.333 67 -150s-22.333 -114.667 -67 -150s-103.334 -53 -176.001 -53h-258v626h-117zM230 336v-266h161c52.667 0 95.167 10.5 127.5 31.5s48.5 54.833 48.5 101.5c0 46 -16.167 79.667 -48.5 101
s-74.833 32 -127.5 32h-161z" />
    <glyph glyph-name="uni042B" unicode="&#x42b;" horiz-adv-x="865" 
d="M172 336v-266h161c52.667 0 95.167 10.5 127.5 31.5s48.5 54.833 48.5 101.5c0 46 -16.167 79.667 -48.5 101s-74.833 32 -127.5 32h-161zM172 406h174c72.667 0 131.334 -17.667 176.001 -53s67 -85.333 67 -150s-22.333 -114.667 -67 -150s-103.334 -53 -176.001 -53
h-258v700h84v-294zM693 0v700h84v-700h-84z" />
    <glyph glyph-name="uni042C" unicode="&#x42c;" horiz-adv-x="645" 
d="M172 336v-266h161c52.667 0 95.167 10.5 127.5 31.5s48.5 54.833 48.5 101.5c0 46 -16.167 79.667 -48.5 101s-74.833 32 -127.5 32h-161zM172 406h174c72.667 0 131.334 -17.667 176.001 -53s67 -85.333 67 -150s-22.333 -114.667 -67 -150s-103.334 -53 -176.001 -53
h-258v700h84v-294z" />
    <glyph glyph-name="uni042D" unicode="&#x42d;" horiz-adv-x="725" 
d="M198 320l0.00195312 74.001h385c-8 76 -33.167 136 -75.5 180s-95.833 66 -160.5 66c-46.667 0 -88.667 -12.5 -126 -37.5s-68 -61.167 -92 -108.5l-65 35c28 60 66.5 105.833 115.5 137.5s104.833 47.5 167.5 47.5c96 0 173.667 -33.333 233 -100s89 -154.667 89 -264
s-29 -197.333 -87 -264s-135.333 -100 -232 -100c-69.333 0 -128.5 16.667 -177.5 50s-87.167 79.666 -114.5 138.999l65 44c47.333 -106 123.666 -159 228.999 -159c68 0 122.167 22.833 162.5 68.5s63.166 109.5 68.499 191.5h-385z" />
    <glyph glyph-name="uni042E" unicode="&#x42e;" horiz-adv-x="982" 
d="M926 350c0 -107.333 -32.333 -194.831 -97 -262.498s-145 -101.5 -241 -101.5c-90 0 -166.667 30.167 -230 90.5s-99 139.166 -107 236.499h-79v-313h-84v700h84v-313h79c8 97.333 43.667 176.166 107 236.499s140 90.5 230 90.5c96 0 176.333 -33.833 241 -101.5
s97 -155.167 97 -262.5zM588 60.002c72.667 0 132.834 27 180.501 81s71.5 123.667 71.5 209s-23.833 155 -71.5 209s-107.834 81 -180.501 81s-132.834 -27 -180.501 -81s-71.5 -123.667 -71.5 -209s23.833 -155 71.5 -209s107.834 -81 180.501 -81z" />
    <glyph glyph-name="uni042F" unicode="&#x42f;" horiz-adv-x="640" 
d="M309 304l-172.001 -304.001h-93l175 309c-53.333 10.667 -95.166 33.334 -125.499 68.001s-45.5 76.334 -45.5 125.001c0 57.333 20.5 104.666 61.5 141.999s95.5 56 163.5 56h279v-700h-84v304h-159zM467.999 377.999v248h-180c-50 0 -88.5 -10.667 -115.5 -32
s-40.5 -52 -40.5 -92s13.5 -70.667 40.5 -92s65.5 -32 115.5 -32h180z" />
    <glyph glyph-name="uni0430" unicode="&#x430;" horiz-adv-x="543" 
d="M496 0l-78.001 -0.00195312c-20 25.333 -30 58 -30 98c-15.333 -36 -37.833 -63.667 -67.5 -83s-63.5 -29 -101.5 -29c-50 0 -90.333 14.167 -121 42.5s-46 64.5 -46 108.5c0 45.333 15.667 81.5 47 108.5s72.666 44.833 123.999 53.5l165 27v22c0 64 -39 96 -117 96
c-37.333 0 -66.166 -7.33301 -86.499 -22s-30.5 -33 -30.5 -55c0 -6.66699 0.666992 -11.667 2 -15l-68 -23c-5.33301 14 -8 27.333 -8 40c0 38.667 17.5 71.834 52.5 99.501s81.167 41.5 138.5 41.5c64.667 0 113.334 -14.167 146.001 -42.5s49 -68.166 49 -119.499v-224
c0 -28.667 2 -51.5 6 -68.5s12 -35.5 24 -55.5zM227.999 55.998c50 0 89.167 18.833 117.5 56.5s42.5 83.167 42.5 136.5v15l-151 -26c-70 -12 -105 -44.333 -105 -97c0 -26 8.5 -46.667 25.5 -62s40.5 -23 70.5 -23z" />
    <glyph glyph-name="uni0431" unicode="&#x431;" horiz-adv-x="593" 
d="M436 714l22 -59.001c-28.667 -16.667 -61 -25 -97 -25c-68.667 0 -123 -22.667 -163 -68s-61.667 -109.666 -65 -192.999c18.667 35.333 44 63.666 76 84.999s67.333 32 106 32c66.667 0 121.5 -23.167 164.5 -69.5s64.5 -105.5 64.5 -177.5
c0 -72.667 -22.833 -133 -68.5 -181s-103.5 -72 -173.5 -72c-80.667 0 -143 30 -187 90s-66 141.667 -66 245c0 78.667 16.667 152.334 50 221.001c26.667 54 63.334 93.833 110.001 119.5s97 38.5 151 38.5c31.333 0 56.666 4.66699 75.999 14zM302 415.999
c-47.333 0 -86.166 -17 -116.499 -51s-45.5 -77 -45.5 -129s15.167 -95 45.5 -129s69.166 -51 116.499 -51s86.166 17 116.499 51s45.5 77 45.5 129s-15.167 95 -45.5 129s-69.166 51 -116.499 51z" />
    <glyph glyph-name="uni0432" unicode="&#x432;" horiz-adv-x="516" 
d="M76 0v495.997h211c48 0 86 -12.167 114 -36.5s42 -54.166 42 -89.499c0 -53.333 -28 -89.666 -84 -108.999c68 -18 102 -58 102 -120c0 -41.333 -15.667 -75.166 -47 -101.499s-73.333 -39.5 -126 -39.5h-212zM154 431.997v-142h134c24 0 43.5 6.16699 58.5 18.5
s22.5 29.833 22.5 52.5s-7.5 40.167 -22.5 52.5s-34.5 18.5 -58.5 18.5h-134zM154 225.997v-158h140c26.667 0 48.167 7.16699 64.5 21.5s24.5 33.5 24.5 57.5s-8.16699 43.167 -24.5 57.5s-37.833 21.5 -64.5 21.5h-140z" />
    <glyph glyph-name="uni0433" unicode="&#x433;" horiz-adv-x="415" 
d="M76 0v496h301v-68h-223v-428h-78z" />
    <glyph glyph-name="uni0434" unicode="&#x434;" horiz-adv-x="597" 
d="M545 68l-0.000976562 -174h-70v106h-360v-106h-70v174h46c26.667 51.333 43.334 107.333 50.001 168l26 260h332v-428h46zM238.999 428l-19 -197c-6 -58 -21 -112.333 -45 -163h246v360h-182z" />
    <glyph glyph-name="uni0435" unicode="&#x435;" horiz-adv-x="574" 
d="M530 235l-410 -0.000976562c2.66699 -53.333 19.334 -97.166 50.001 -131.499s71 -51.5 121 -51.5c42 0 75.833 9.83301 101.5 29.5s47.5 47.5 65.5 83.5l57 -34c-50 -96.667 -125.667 -145 -227 -145c-68.667 0 -126.834 24.833 -174.501 74.5
s-71.5 112.167 -71.5 187.5c0 76 24 138.667 72 188s107 74 177 74c73.333 0 131.5 -23 174.5 -69s64.5 -105.667 64.5 -179v-27zM291 443.999c-43.333 0 -79.166 -13.167 -107.499 -39.5s-47.5 -61.5 -57.5 -105.5h326c-2.66699 44 -19.834 79.167 -51.501 105.5
s-68.167 39.5 -109.5 39.5z" />
    <glyph glyph-name="uni0436" unicode="&#x436;" horiz-adv-x="760" 
d="M419 496v-216l187 216h93l-179 -199l216 -297h-86l-178 242l-53 -59v-183h-78v183l-53 59l-178 -242h-86l216 297l-179 199h93l187 -216v216h78z" />
    <glyph glyph-name="uni0437" unicode="&#x437;" horiz-adv-x="486" 
d="M217 233l-0.000976562 60c77.333 0 116 27.667 116 83c0 22 -8.5 39.167 -25.5 51.5s-40.5 18.5 -70.5 18.5c-28.667 0 -52.167 -6.33301 -70.5 -19s-27.5 -29.667 -27.5 -51c0 -6.66699 1 -13.667 3 -21l-62 -24c-7.33301 13.333 -11 28 -11 44
c0 40.667 14.833 73.334 44.5 98.001s70.834 37 123.501 37c53.333 0 95 -12.833 125 -38.5s45 -56.5 45 -92.5c0 -55.333 -28 -93.333 -84 -114c27.333 -8.66699 51.5 -23.5 72.5 -44.5s31.5 -47.5 31.5 -79.5c0 -42.667 -16.333 -79.167 -49 -109.5
s-79.334 -45.5 -140.001 -45.5c-57.333 0 -102.666 13.667 -135.999 41s-50 62.666 -50 105.999c0 20 4 38 12 54l67 -23c-3.33301 -10 -5 -20 -5 -30c0 -26.667 11 -46.667 33 -60s49.667 -20 83 -20c35.333 0 62 8.16699 80 24.5s27 38.5 27 66.5s-12.5 49.667 -37.5 65
s-56.5 23 -94.5 23z" />
    <glyph glyph-name="uni0438" unicode="&#x438;" horiz-adv-x="560" 
d="M154 496v-391l242 391h88v-496h-78v391l-242 -391h-88v496h78z" />
    <glyph glyph-name="uni0439" unicode="&#x439;" horiz-adv-x="560" 
d="M154 496v-391l242 391h88v-496h-78v391l-242 -391h-88v496h78zM319 672h64c0 -31.333 -9.66699 -56.5 -29 -75.5s-44 -28.5 -74 -28.5s-54.667 9.5 -74 28.5s-29 44.167 -29 75.5h64c0 -29.333 13 -44 39 -44s39 14.667 39 44z" />
    <glyph glyph-name="uni043A" unicode="&#x43a;" horiz-adv-x="495" 
d="M154 496v-219l189 219h91l-171 -196l208 -300h-93l-168 239l-56 -65v-174h-78v496h78z" />
    <glyph glyph-name="uni043B" unicode="&#x43b;" horiz-adv-x="544" 
d="M468 496l-0.000976562 -496h-78v428h-196l-33 -346c-3.33301 -29.333 -13.166 -51.5 -29.499 -66.5s-36.833 -22.5 -61.5 -22.5c-16 0 -32.667 2.33301 -50 7l11 68c8.66699 -3.33301 16.334 -5 23.001 -5c10 0 17.167 3 21.5 9s7.16602 15.333 8.49902 28l38 396h346z
" />
    <glyph glyph-name="uni043C" unicode="&#x43c;" horiz-adv-x="644" 
d="M362 0h-80l-128 346v-346h-78v496h86l160 -428l160 428h86v-496h-78v346z" />
    <glyph glyph-name="uni043D" unicode="&#x43d;" horiz-adv-x="550" 
d="M154 496v-200h242v200h78v-496h-78v228h-242v-228h-78v496h78z" />
    <glyph glyph-name="uni043E" unicode="&#x43e;" horiz-adv-x="602" 
d="M560 248c0 -54 -13.167 -101.333 -39.5 -142s-58.833 -70.834 -97.5 -90.501s-79.334 -29.5 -122.001 -29.5s-83.334 9.83301 -122.001 29.5s-71.167 49.834 -97.5 90.501s-39.5 88 -39.5 142s13.167 101.333 39.5 142s58.833 70.834 97.5 90.501
s79.334 29.5 122.001 29.5s83.334 -9.83301 122.001 -29.5s71.167 -49.834 97.5 -90.501s39.5 -88 39.5 -142zM301 56c50.667 0 93.167 18.167 127.5 54.5s51.5 82.166 51.5 137.499s-17.167 101.166 -51.5 137.499s-76.833 54.5 -127.5 54.5s-93.167 -18.167 -127.5 -54.5
s-51.5 -82.166 -51.5 -137.499s17.167 -101.166 51.5 -137.499s76.833 -54.5 127.5 -54.5z" />
    <glyph glyph-name="uni043F" unicode="&#x43f;" horiz-adv-x="550" 
d="M474 496v-496h-78v428h-242v-428h-78v496h398z" />
    <glyph glyph-name="uni0440" unicode="&#x440;" horiz-adv-x="608" 
d="M76 -204l-0.000976562 700h78v-89c16 30.667 39.833 55.5 71.5 74.5s67.167 28.5 106.5 28.5c66.667 0 122.334 -24 167.001 -72s67 -111.333 67 -190c0 -78 -23 -141.167 -69 -189.5s-102.667 -72.5 -170 -72.5c-78 0 -135.667 31 -173 93v-283h-78zM316.999 438
c-48.667 0 -89 -17.5 -121 -52.5s-48 -80.833 -48 -137.5s16 -102.5 48 -137.5s72.333 -52.5 121 -52.5s89 17.5 121 52.5s48 80.833 48 137.5s-16 102.5 -48 137.5s-72.333 52.5 -121 52.5z" />
    <glyph glyph-name="uni0441" unicode="&#x441;" horiz-adv-x="557" 
d="M463 165l56.002 -36.002c-48.667 -95.333 -123 -143 -223 -143c-72 0 -132.333 24.667 -181 74s-73 112 -73 188c0 75.333 24.833 137.833 74.5 187.5s109.5 74.5 179.5 74.5c53.333 0 98.833 -11.833 136.5 -35.5s65.5 -57.167 83.5 -100.5l-59 -39
c-32.667 70 -86 105 -160 105c-50.667 0 -92.834 -17.667 -126.501 -53s-50.5 -81.666 -50.5 -138.999s16.667 -103.666 50 -138.999s75.666 -53 126.999 -53c39.333 0 72 9.16699 98 27.5s48.667 45.5 68 81.5z" />
    <glyph glyph-name="uni0442" unicode="&#x442;" horiz-adv-x="438" 
d="M32 428v68h374v-68h-148v-428h-78v428h-148z" />
    <glyph glyph-name="uni0443" unicode="&#x443;" horiz-adv-x="493" 
d="M56 -201l12.001 70c14.667 -6.66699 28 -10 40 -10c15.333 0 27.166 3.66699 35.499 11s16.5 20 24.5 38l37 94l-200 494h86l157 -389l155 389h84l-249 -613c-14 -34.667 -31.167 -59 -51.5 -73s-46.5 -21 -78.5 -21c-18.667 0 -36 3.33301 -52 10z" />
    <glyph glyph-name="uni0444" unicode="&#x444;" horiz-adv-x="898" 
d="M410 -204l-0.000976562 276c-33.333 -57.333 -82.666 -86 -147.999 -86c-60 0 -111.667 24.667 -155 74s-65 112 -65 188c0 76.667 20.5 139.5 61.5 188.5s91.167 73.5 150.5 73.5c68.667 0 120.667 -29 156 -87v277h78v-277c35.333 58 88.333 87 159 87
c57.333 0 106.5 -24.667 147.5 -74s61.5 -112 61.5 -188s-21.667 -138.667 -65 -188s-95 -74 -155 -74c-68.667 0 -118 28.667 -148 86v-276h-78zM268.999 438c-44.667 0 -80.334 -16.833 -107.001 -50.5s-40 -80.167 -40 -139.5s13.333 -105.833 40 -139.5
s62.334 -50.5 107.001 -50.5s80.334 16.833 107.001 50.5s40 80.167 40 139.5s-13.333 105.833 -40 139.5s-62.334 50.5 -107.001 50.5zM628.999 438c-44.667 0 -80.334 -16.833 -107.001 -50.5s-40 -80.167 -40 -139.5s13.333 -105.833 40 -139.5
s62.334 -50.5 107.001 -50.5s80.334 16.833 107.001 50.5s40 80.167 40 139.5s-13.333 105.833 -40 139.5s-62.334 50.5 -107.001 50.5z" />
    <glyph glyph-name="uni0445" unicode="&#x445;" horiz-adv-x="434" 
d="M108 496l109 -173l110 173h89l-154 -230l171 -266h-88l-128 202l-129 -202h-89l176 264l-156 232h89z" />
    <glyph glyph-name="uni0446" unicode="&#x446;" horiz-adv-x="572" 
d="M154 496v-428h242v428h78v-428h46v-174h-70v106h-374v496h78z" />
    <glyph glyph-name="uni0447" unicode="&#x447;" horiz-adv-x="552" 
d="M76 334l-0.000976562 162h78v-165c0 -41.333 10 -72.333 30 -93s48.333 -31 85 -31c40 0 71.5 15 94.5 45s34.5 70 34.5 120v124h78v-496h-78v234c-12 -30.667 -31.167 -54.5 -57.5 -71.5s-57.166 -25.5 -92.499 -25.5c-49.333 0 -90.333 16.667 -123 50
s-49 82.333 -49 147z" />
    <glyph glyph-name="uni0448" unicode="&#x448;" horiz-adv-x="752" 
d="M415 496v-428h183v428h78v-496h-600v496h78v-428h183v428h78z" />
    <glyph glyph-name="uni0449" unicode="&#x449;" horiz-adv-x="774" 
d="M76 0v496h78v-428h183v428h78v-428h183v428h78v-428h46v-174h-70v106h-576z" />
    <glyph glyph-name="uni044A" unicode="&#x44a;" horiz-adv-x="552" 
d="M18 428v68h177v-206h134c54 0 96.333 -14 127 -42s46 -63.667 46 -107c0 -42 -15.833 -76 -47.5 -102s-73.5 -39 -125.5 -39h-212v428h-99zM195 226v-158h140c26.667 0 48.167 7.16699 64.5 21.5s24.5 33.5 24.5 57.5s-8.16699 43.167 -24.5 57.5
s-37.833 21.5 -64.5 21.5h-140z" />
    <glyph glyph-name="uni044B" unicode="&#x44b;" horiz-adv-x="705" 
d="M551 0v496h78v-496h-78zM154 290h134c54 0 96.333 -14 127 -42s46 -63.667 46 -107c0 -42 -15.833 -76 -47.5 -102s-73.5 -39 -125.5 -39h-212v496h78v-206zM154 226v-158h140c26.667 0 48.167 7.16699 64.5 21.5s24.5 33.5 24.5 57.5s-8.16699 43.167 -24.5 57.5
s-37.833 21.5 -64.5 21.5h-140z" />
    <glyph glyph-name="uni044C" unicode="&#x44c;" horiz-adv-x="511" 
d="M154 290h134c54 0 96.333 -14 127 -42s46 -63.667 46 -107c0 -42 -15.833 -76 -47.5 -102s-73.5 -39 -125.5 -39h-212v496h78v-206zM154 226v-158h140c26.667 0 48.167 7.16699 64.5 21.5s24.5 33.5 24.5 57.5s-8.16699 43.167 -24.5 57.5s-37.833 21.5 -64.5 21.5h-140z
" />
    <glyph glyph-name="uni044D" unicode="&#x44d;" horiz-adv-x="550" 
d="M164 213l-0.00195312 70h264c-5.33301 50 -22.166 88.667 -50.499 116s-65.5 41 -111.5 41c-71.333 0 -125.666 -35.667 -162.999 -107l-60 38c49.333 92.667 123.666 139 222.999 139c73.333 0 132 -24 176 -72s66 -111.333 66 -190
c0 -77.333 -22.5 -140.333 -67.5 -189s-101.833 -73 -170.5 -73c-52.667 0 -99.167 13.333 -139.5 40s-71.166 62.667 -92.499 108l61 42c37.333 -80 94.333 -120 171 -120c44 0 80 13.667 108 41s44.667 66 50 116h-264z" />
    <glyph glyph-name="uni044E" unicode="&#x44e;" horiz-adv-x="770" 
d="M728 248c0 -80 -25.502 -143.669 -76.502 -191.002s-109.833 -71 -176.5 -71c-61.333 0 -116.666 20.333 -165.999 61s-77.666 96.334 -84.999 167.001h-70v-214h-78v496h78v-214h70c7.33301 70.667 35.5 126.334 84.5 167.001s104.5 61 166.5 61
c66.667 0 125.5 -23.667 176.5 -71s76.5 -111 76.5 -191zM474.998 55.998c50 0 91.333 18.167 124 54.5s49 82.166 49 137.499s-16.333 101.166 -49 137.499s-74 54.5 -124 54.5s-91.333 -18.167 -124 -54.5s-49 -82.166 -49 -137.499s16.333 -101.166 49 -137.499
s74 -54.5 124 -54.5z" />
    <glyph glyph-name="uni044F" unicode="&#x44f;" horiz-adv-x="499" 
d="M345 0l0.000976562 218.001h-89l-122 -218h-84l123 221c-36.667 6.66699 -65.334 22.167 -86.001 46.5s-31 54.166 -31 89.499c0 40.667 14.333 74 43 100s67.667 39 117 39h207v-496h-78zM345.001 282.001v150h-133c-24.667 0 -44.5 -6.5 -59.5 -19.5
s-22.5 -31.5 -22.5 -55.5s7.5 -42.5 22.5 -55.5s34.833 -19.5 59.5 -19.5h133z" />
    </font>
</defs>
</svg>
