<?xml version="1.0" standalone="no"?>
<!DOCTYPE svg PUBLIC "-//W3C//DTD SVG 20010904//EN"
 "http://www.w3.org/TR/2001/REC-SVG-20010904/DTD/svg10.dtd">
<svg version="1.0" xmlns="http://www.w3.org/2000/svg"
 width="206.000000pt" height="226.000000pt" viewBox="0 0 206.000000 226.000000"
 preserveAspectRatio="xMidYMid meet">

<g transform="translate(0.000000,226.000000) scale(0.100000,-0.100000)"
fill="#000000" stroke="none">
<path d="M0 1130 l0 -1130 1030 0 1030 0 0 1130 0 1130 -1030 0 -1030 0 0
-1130z m1101 1009 c33 -23 38 -58 10 -66 -17 -4 -18 -9 -9 -32 6 -14 10 -63 9
-109 l-3 -84 28 18 c25 17 73 25 171 27 33 1 39 4 31 14 -8 10 -4 13 16 13 15
0 26 6 26 14 0 18 73 5 98 -17 12 -11 22 -13 34 -6 23 13 40 4 66 -36 26 -41
27 -45 8 -45 -25 0 13 -77 60 -123 40 -41 78 -109 66 -121 -11 -12 -46 -6 -64
11 -10 9 -18 11 -18 6 0 -6 7 -13 15 -17 25 -9 17 -26 -13 -26 -21 0 -32 7
-40 25 -10 21 -18 25 -58 25 l-46 0 7 -31 c8 -33 98 -213 120 -239 7 -8 31
-48 52 -87 l39 -73 54 34 c30 19 60 32 68 29 8 -3 22 -24 32 -47 10 -23 39
-65 64 -95 40 -46 46 -58 41 -83 -4 -16 -1 -58 6 -92 7 -35 9 -71 5 -81 -6
-16 -8 -16 -29 -2 -12 8 -30 28 -40 44 -17 29 -17 32 0 62 15 25 16 34 5 48
-6 10 -17 29 -23 43 -12 30 -68 90 -83 90 -6 0 -26 -22 -44 -48 l-32 -47 29
-7 c21 -6 34 -20 50 -53 12 -25 21 -47 21 -50 0 -3 16 -25 35 -51 25 -33 35
-56 35 -82 0 -20 8 -51 18 -67 11 -17 22 -47 26 -68 9 -46 -9 -57 -52 -32 -40
24 -55 51 -42 75 15 29 12 55 -9 74 -11 10 -23 32 -27 49 -10 48 -32 75 -70
87 -40 13 -48 11 -177 -46 -53 -24 -111 -44 -127 -44 -36 0 -37 -6 -6 -45 18
-23 32 -29 61 -30 34 0 39 -4 61 -45 15 -27 33 -47 47 -50 15 -4 31 -25 52
-67 17 -34 42 -71 58 -83 21 -17 27 -29 26 -58 -1 -37 -1 -37 -11 -9 -5 15
-14 27 -20 27 -6 0 -7 -8 -3 -17 14 -37 18 -83 6 -83 -6 0 -11 8 -11 18 0 10
-7 27 -15 38 -14 18 -14 17 -15 -14 0 -44 -32 -105 -70 -133 -49 -38 -81 -72
-77 -83 2 -6 26 -11 54 -11 47 0 83 -16 83 -37 0 -5 -8 -8 -17 -6 -11 2 -22
-6 -27 -19 -8 -17 -16 -21 -38 -16 -18 3 -28 1 -28 -6 0 -7 -9 -9 -25 -5 -19
5 -25 2 -25 -11 0 -14 -3 -15 -14 -6 -8 7 -57 13 -120 14 -58 1 -106 3 -106 4
0 10 48 43 64 44 19 0 19 1 -3 10 -16 6 -21 14 -17 25 5 14 1 16 -26 10 -17
-3 -40 -14 -50 -23 -17 -15 -18 -15 -18 5 0 16 -6 22 -22 22 -13 0 -54 11 -93
24 -75 26 -85 25 -85 -4 0 -21 20 -31 47 -24 12 4 32 -5 51 -21 33 -28 43 -51
17 -41 -9 3 -15 0 -15 -10 0 -8 -6 -14 -12 -13 -31 4 -48 -2 -48 -18 0 -14 -2
-15 -17 -1 -25 21 -43 12 -43 -22 0 -16 -5 -32 -10 -35 -5 -3 -10 1 -10 10 0
8 -10 20 -22 26 -13 5 -36 17 -52 26 -33 18 -165 26 -183 11 -15 -12 -18 9 -5
29 11 17 76 43 108 43 l27 0 -21 23 c-27 29 -28 58 -2 82 29 26 25 50 -16 93
-22 23 -31 29 -25 15 40 -81 -28 -183 -122 -183 -28 0 -46 8 -73 33 -32 29
-36 38 -39 92 l-4 60 -45 7 c-25 3 -50 9 -55 13 -24 14 -9 -58 24 -121 19 -36
35 -72 35 -80 0 -19 -59 -18 -88 2 -19 13 -22 24 -22 75 0 46 -5 67 -22 90
-19 25 -20 33 -10 49 10 16 7 26 -19 66 -44 64 -47 112 -15 209 19 55 24 88
20 112 l-7 34 -34 -33 c-49 -47 -57 -64 -63 -143 l-6 -70 -22 45 c-30 63 -30
152 2 224 l24 54 -30 29 c-38 36 -68 94 -68 131 0 35 34 82 60 82 12 0 20 9
22 23 4 21 5 20 24 -10 10 -18 21 -33 24 -33 3 0 14 17 25 37 28 51 78 83 131
83 23 0 80 -14 125 -31 81 -29 85 -30 154 -17 47 8 61 13 42 16 -22 3 -26 7
-22 25 5 18 -5 29 -57 61 -76 47 -133 55 -231 32 -38 -9 -72 -16 -78 -16 -15
0 -10 26 11 53 11 14 20 36 20 50 0 28 14 42 52 51 26 6 27 9 25 58 -2 58 8
68 89 88 46 11 59 29 41 54 -10 13 -18 14 -50 5 -20 -5 -42 -7 -47 -4 -16 10
16 49 59 73 l40 23 -25 52 c-13 29 -24 57 -24 64 0 7 -9 17 -20 23 -13 7 -20
21 -20 39 0 17 -13 44 -31 67 -17 22 -40 56 -50 77 -17 33 -18 38 -4 43 11 5
28 -8 53 -37 43 -52 124 -129 135 -129 4 0 7 -6 7 -14 0 -8 7 -16 15 -20 9 -3
15 -18 15 -34 0 -49 23 -59 74 -33 37 18 56 21 126 17 79 -4 81 -3 91 21 5 13
9 36 9 51 0 15 9 41 20 57 25 37 25 49 3 36 -10 -5 -39 -12 -64 -16 -37 -5
-53 -2 -90 17 l-44 23 40 5 c34 5 37 7 18 13 -44 16 -25 30 30 23 44 -5 58 -2
92 19 50 31 106 33 146 4z"/>
<path d="M1027 2024 c-8 -8 1 -24 14 -24 5 0 9 7 9 15 0 15 -12 20 -23 9z"/>
<path d="M1072 2011 c2 -7 7 -12 11 -12 12 1 9 15 -3 20 -7 2 -11 -2 -8 -8z"/>
<path d="M1040 1970 c-12 -8 -9 -10 13 -10 16 0 26 4 22 10 -8 12 -16 12 -35
0z"/>
<path d="M560 1962 c0 -5 7 -9 15 -9 8 0 12 4 9 9 -3 4 -9 8 -15 8 -5 0 -9 -4
-9 -8z"/>
<path d="M1000 1914 c0 -29 25 -33 33 -5 3 13 -1 21 -14 24 -15 4 -19 0 -19
-19z"/>
<path d="M1066 1905 c-3 -9 0 -15 8 -15 7 0 13 7 13 15 0 8 -4 15 -8 15 -4 0
-9 -7 -13 -15z"/>
<path d="M1417 1863 c-12 -3 -16 -11 -12 -22 3 -11 -4 -25 -20 -39 -14 -12
-25 -31 -25 -43 0 -15 -5 -19 -16 -15 -8 3 -12 2 -9 -4 3 -6 1 -10 -6 -10 -8
0 -7 -5 2 -17 12 -15 12 -16 -3 -10 -10 3 -18 4 -18 0 0 -3 8 -12 18 -20 16
-13 15 -13 -7 -7 -18 5 -22 3 -15 -7 4 -7 8 -26 9 -42 1 -16 8 -33 16 -39 10
-7 6 -8 -14 -3 -39 8 -25 -12 16 -24 l32 -9 -29 -1 c-16 -1 -26 -4 -23 -7 3
-4 2 -14 -3 -24 -5 -10 -6 -20 -3 -24 7 -7 11 -21 17 -63 4 -27 22 -50 50 -65
21 -11 21 -11 2 11 -18 20 -28 79 -15 87 4 2 14 -5 24 -16 10 -11 15 -20 11
-20 -4 0 2 -12 13 -26 12 -15 21 -32 21 -38 0 -6 -5 -4 -11 4 -9 12 -9 11 -3
-5 4 -11 6 -28 5 -37 -2 -33 -5 -58 -7 -58 0 0 -20 18 -43 41 -52 49 -48 63 5
17 30 -26 34 -28 19 -8 -10 14 -31 35 -47 48 -22 19 -27 20 -21 6 4 -11 3 -15
-4 -11 -13 8 -11 -6 5 -46 7 -16 12 -32 12 -37 0 -5 7 -7 15 -4 12 5 13 9 4
20 -7 8 -10 17 -7 20 7 6 68 -76 68 -91 0 -14 65 -35 107 -35 44 0 54 15 38
61 -8 21 -16 55 -18 76 -2 21 -9 49 -14 63 -7 15 -7 26 -1 29 5 1 2 12 -8 22
-9 10 -14 19 -9 19 4 0 2 7 -5 15 -7 8 -9 15 -5 15 5 0 1 8 -7 18 -8 9 -23 39
-32 66 -9 27 -23 58 -32 68 -20 22 -31 112 -15 122 6 4 11 0 11 -11 0 -32 37
-80 66 -87 16 -4 31 -12 35 -17 3 -5 16 -11 28 -14 13 -2 29 -9 36 -15 9 -8
14 -6 19 5 8 22 37 19 43 -5 3 -11 13 -20 22 -20 12 0 13 2 3 9 -7 4 -12 12
-10 18 2 6 -21 35 -49 66 -29 31 -53 54 -53 51 0 -2 -11 3 -24 12 -14 8 -27
15 -30 15 -4 -1 -6 2 -6 7 0 4 11 8 25 10 23 3 24 5 10 24 -12 19 -31 28 -95
50 -8 3 -23 4 -33 1z"/>
<path d="M1135 1830 c-3 -6 1 -7 9 -4 18 7 21 14 7 14 -6 0 -13 -4 -16 -10z"/>
<path d="M760 1823 c0 -15 143 -53 192 -52 l43 2 -50 7 c-27 4 -63 13 -80 20
-16 7 -34 14 -40 15 -5 2 -22 6 -37 10 -16 4 -28 3 -28 -2z"/>
<path d="M1098 1813 c7 -3 16 -2 19 1 4 3 -2 6 -13 5 -11 0 -14 -3 -6 -6z"/>
<path d="M1302 1770 c0 -14 2 -19 5 -12 2 6 2 18 0 25 -3 6 -5 1 -5 -13z"/>
<path d="M1185 1755 c-14 -13 -24 -34 -24 -47 1 -20 2 -21 6 -3 2 11 18 32 36
48 17 15 26 27 19 27 -7 0 -24 -11 -37 -25z"/>
<path d="M1275 1753 c-5 -10 -7 -24 -6 -30 1 -7 -3 -13 -9 -13 -16 0 -12 -27
6 -34 9 -3 12 -2 9 4 -4 6 -1 26 5 46 13 37 8 58 -5 27z"/>
<path d="M675 1726 c10 -14 19 -26 22 -26 7 0 -17 39 -28 46 -6 3 -3 -5 6 -20z"/>
<path d="M575 1716 c-19 -15 -18 -15 18 -16 27 0 37 4 35 13 -7 18 -31 20 -53
3z"/>
<path d="M760 1727 c3 -2 20 -9 38 -15 25 -8 32 -8 32 1 0 8 -16 14 -37 15
-21 2 -35 1 -33 -1z"/>
<path d="M1193 1723 c-18 -6 -16 -23 1 -23 17 0 30 16 19 23 -5 2 -14 2 -20 0z"/>
<path d="M1026 1713 c-4 -4 -37 -8 -74 -9 l-67 -1 -3 -41 c-3 -39 -2 -41 30
-46 18 -2 57 -4 86 -4 l52 1 0 53 c0 51 -7 64 -24 47z"/>
<path d="M1072 1661 c3 -63 20 -76 38 -30 13 31 4 69 -15 61 -4 -2 -12 2 -17
10 -5 8 -7 -7 -6 -41z"/>
<path d="M1156 1650 c-44 -48 -49 -69 -5 -22 16 17 32 32 35 32 3 0 -5 -15
-17 -32 l-23 -33 26 23 c16 14 25 33 24 48 0 13 -2 24 -2 24 -1 0 -18 -18 -38
-40z"/>
<path d="M1239 1615 c-3 -33 -2 -71 2 -85 6 -20 8 -16 9 20 1 25 3 52 4 60 2
8 0 26 -4 40 -5 19 -8 9 -11 -35z"/>
<path d="M665 1610 c-16 -4 -50 -8 -75 -9 -47 -1 -91 -18 -97 -38 -4 -10 12
-19 57 -31 30 -8 95 -9 100 -1 9 13 60 22 60 11 0 -6 -18 -24 -39 -41 -35 -28
-45 -31 -112 -31 -41 0 -81 -5 -89 -10 -12 -8 -9 -10 12 -10 15 0 29 -4 33 -9
3 -6 13 -10 23 -9 37 0 127 -14 136 -22 4 -4 21 -4 37 0 16 5 29 5 29 0 0 -5
9 -7 20 -5 32 6 64 33 65 54 1 18 0 19 -26 5 -16 -8 -36 -14 -46 -14 -14 1
-11 7 15 30 38 35 33 37 -23 10 -22 -11 -43 -19 -47 -20 -20 -1 -2 18 47 50
30 19 55 40 55 45 -1 38 -72 61 -135 45z"/>
<path d="M815 1596 c10 -14 19 -26 22 -26 7 0 -17 39 -28 46 -6 3 -3 -5 6 -20z"/>
<path d="M1169 1583 c-13 -16 -12 -17 4 -4 9 7 17 15 17 17 0 8 -8 3 -21 -13z"/>
<path d="M875 1510 c22 -30 100 -138 175 -240 75 -102 151 -205 168 -229 52
-73 36 -37 -20 47 -29 42 -56 81 -61 87 -4 5 -36 51 -72 100 -95 133 -187 254
-209 273 -10 9 -2 -8 19 -38z"/>
<path d="M1156 1513 c-16 -20 -23 -34 -16 -31 16 5 56 56 49 62 -3 3 -18 -11
-33 -31z"/>
<path d="M1242 1480 c0 -14 2 -19 5 -12 2 6 2 18 0 25 -3 6 -5 1 -5 -13z"/>
<path d="M1155 1464 c-39 -20 -58 -39 -61 -61 -1 -10 -5 -29 -9 -43 -4 -14 7
-1 24 28 31 51 50 69 37 35 -5 -12 2 -9 20 8 35 35 29 54 -11 33z"/>
<path d="M1165 1404 c-14 -15 -25 -32 -25 -38 0 -7 -4 -6 -8 2 -6 9 -13 1 -24
-27 l-16 -40 24 11 c13 6 26 20 30 32 3 12 17 36 31 54 29 39 22 42 -12 6z"/>
<path d="M1010 1411 c0 -13 26 -32 33 -24 8 7 -11 33 -24 33 -5 0 -9 -4 -9 -9z"/>
<path d="M443 1403 c-30 -12 -8 -18 65 -19 49 0 88 -6 107 -16 17 -8 53 -19
80 -23 28 -5 56 -10 64 -11 17 -3 51 13 51 25 0 4 -21 6 -47 4 -31 -3 -86 5
-154 21 -104 25 -141 30 -166 19z"/>
<path d="M856 1385 c-3 -11 -2 -23 2 -27 12 -12 77 7 77 22 0 8 -6 14 -12 13
-7 -2 -13 1 -13 6 0 18 -49 6 -54 -14z"/>
<path d="M1240 1401 c0 -6 4 -13 10 -16 6 -3 7 1 4 9 -7 18 -14 21 -14 7z"/>
<path d="M1162 1341 c-9 -17 -25 -32 -34 -35 -10 -2 -18 -13 -18 -25 0 -30 6
-26 36 19 15 22 29 38 33 36 4 -3 8 4 8 15 2 27 -5 24 -25 -10z"/>
<path d="M1306 1280 c-7 -35 4 -50 36 -50 12 0 15 5 11 17 -5 12 -3 14 7 8 9
-5 11 -4 6 4 -4 6 -11 9 -16 6 -5 -3 -15 6 -23 21 l-14 27 -7 -33z"/>
<path d="M405 1225 c-40 -14 -97 -63 -89 -76 3 -5 0 -18 -6 -29 -6 -11 -12
-67 -13 -124 -2 -65 -8 -110 -15 -119 -9 -11 -10 -25 -4 -49 8 -29 10 -30 17
-13 4 11 16 41 26 67 11 26 21 68 24 93 2 25 9 54 15 64 6 13 6 21 0 23 -6 2
-6 15 0 38 16 58 90 89 193 81 10 0 15 -5 12 -11 -4 -6 6 -10 22 -10 25 0 22
4 -26 30 -77 43 -111 50 -156 35z"/>
<path d="M1061 1195 c24 -25 45 -45 47 -45 8 0 -30 55 -50 73 -41 35 -39 16 3
-28z"/>
<path d="M1390 1230 c0 -5 5 -10 11 -10 5 0 7 5 4 10 -3 6 -8 10 -11 10 -2 0
-4 -4 -4 -10z"/>
<path d="M1610 1209 c0 -5 5 -7 10 -4 6 3 10 8 10 11 0 2 -4 4 -10 4 -5 0 -10
-5 -10 -11z"/>
<path d="M1787 1197 c-8 -13 -30 -28 -49 -34 -28 -9 -30 -11 -15 -18 24 -10
87 19 87 40 0 9 5 13 10 10 6 -3 10 1 10 9 0 24 -26 19 -43 -7z"/>
<path d="M1383 1174 c5 -27 -3 -30 -22 -11 -10 10 -11 5 -6 -21 3 -22 2 -31
-5 -27 -5 3 -10 1 -10 -6 0 -8 -4 -8 -15 1 -13 11 -14 10 -8 -6 6 -17 5 -17
-10 -5 -9 7 -17 10 -17 6 0 -5 -10 0 -22 11 l-22 19 18 -28 c10 -16 14 -32 10
-35 -4 -4 -9 -2 -11 4 -2 6 -11 20 -19 30 -14 18 -15 18 -5 -2 6 -12 8 -24 5
-27 -3 -3 15 -35 41 -72 26 -36 50 -64 53 -61 2 3 19 -5 36 -17 17 -12 39 -23
49 -23 9 -1 20 -3 25 -4 19 -6 38 -4 44 4 4 6 13 5 22 -3 9 -8 20 -9 28 -4 7
4 49 20 93 34 69 23 82 25 96 13 8 -8 25 -14 37 -14 12 0 22 -4 22 -10 0 -15
59 -104 75 -113 11 -6 15 -3 15 11 0 11 -7 22 -15 25 -8 4 -23 23 -34 44 -11
21 -29 44 -41 51 -14 9 -20 20 -17 32 3 11 -1 24 -9 31 -14 12 -23 11 -114
-16 -43 -13 -63 -14 -92 -5 -21 6 -38 14 -39 18 0 4 -2 18 -5 31 -5 26 13 54
27 45 5 -3 9 -2 8 3 -4 26 1 35 15 24 12 -10 14 -9 10 6 -10 37 -31 49 -112
70 l-84 21 5 -24z"/>
<path d="M779 1165 c-1 -3 -2 -10 -3 -15 0 -6 -24 -21 -52 -34 -31 -15 -62
-39 -80 -62 -41 -57 -44 -60 -44 -42 0 8 19 37 42 64 23 27 31 40 18 29 -42
-35 -59 -59 -71 -100 -20 -72 -20 -72 -29 -50 -7 16 -9 12 -9 -18 -1 -23 -5
-36 -11 -32 -6 3 -10 -4 -10 -17 0 -18 2 -20 10 -8 7 12 10 8 10 -15 0 -23 3
-27 10 -15 8 13 10 12 10 -4 0 -19 0 -19 14 -1 13 18 14 18 21 -5 5 -15 4 -25
-4 -28 -6 -2 -11 -12 -11 -23 0 -10 -4 -19 -10 -19 -5 0 -10 -7 -10 -15 0 -8
-4 -15 -9 -15 -5 0 -12 -14 -16 -31 -4 -17 -10 -28 -13 -25 -8 9 -82 -65 -82
-83 0 -10 7 -8 25 9 14 13 25 18 25 11 0 -8 10 -5 26 8 15 12 35 21 45 21 10
0 21 5 24 10 4 6 20 9 36 6 22 -3 33 1 42 15 13 21 33 25 39 8 2 -5 24 9 48
32 25 24 49 43 55 43 5 1 19 16 32 35 13 18 31 40 40 47 16 11 12 13 -30 11
-34 -1 -49 -7 -53 -19 -14 -46 -169 -147 -190 -125 -9 8 21 62 48 89 16 14 28
31 28 37 0 6 7 11 15 11 9 0 15 10 15 26 0 14 4 23 10 19 6 -3 10 2 10 12 0
14 2 15 9 4 12 -18 41 -7 42 16 1 10 7 0 15 -22 14 -38 14 -39 9 -6 -3 18 -5
87 -5 152 0 99 -3 119 -15 119 -8 0 -16 -2 -16 -5z m-44 -72 c-16 -8 -45 -29
-64 -47 -23 -21 -30 -25 -23 -11 14 27 42 52 72 64 39 15 48 12 15 -6z"/>
<path d="M1868 1125 c17 -22 32 -49 34 -60 3 -19 38 -35 38 -18 0 5 -23 34
-51 64 -38 41 -43 44 -21 14z"/>
<path d="M1112 1097 c-7 -18 -11 -33 -10 -33 2 -1 -5 -11 -15 -21 -9 -11 -15
-22 -13 -24 3 -2 -8 -31 -24 -64 -16 -32 -26 -63 -24 -67 9 -14 29 -8 42 12 9
15 9 20 1 20 -7 0 -4 8 6 20 10 11 14 20 10 20 -4 0 -1 8 7 18 8 9 14 29 13
45 -1 15 4 32 11 38 8 6 11 15 8 20 -3 5 0 9 5 9 13 0 15 26 3 34 -4 3 -13
-10 -20 -27z"/>
<path d="M495 1094 c-46 -29 -90 -87 -109 -141 -12 -34 -11 -41 7 -65 32 -43
38 -114 17 -206 -17 -78 -17 -132 1 -132 5 0 9 13 9 29 0 43 9 60 42 77 47 25
58 66 57 216 -1 110 3 143 19 191 24 66 17 71 -43 31z"/>
<path d="M190 1095 c-15 -18 -7 -53 21 -88 28 -37 39 -34 39 11 0 42 -14 62
-43 62 -16 0 -17 3 -7 15 7 8 10 15 7 15 -2 0 -10 -7 -17 -15z"/>
<path d="M594 1070 c-15 -22 -25 -42 -23 -44 2 -2 16 16 31 40 34 55 28 58 -8
4z"/>
<path d="M901 990 c-1 -27 -4 -31 -11 -20 -5 8 -10 12 -10 8 0 -3 -3 -13 -6
-22 -5 -13 1 -16 30 -16 29 0 36 4 36 20 0 13 -5 17 -14 14 -10 -4 -16 3 -19
23 -4 25 -4 25 -6 -7z"/>
<path d="M561 994 c0 -11 3 -14 6 -6 3 7 2 16 -1 19 -3 4 -6 -2 -5 -13z"/>
<path d="M1943 970 c0 -25 2 -35 4 -22 2 12 2 32 0 45 -2 12 -4 2 -4 -23z"/>
<path d="M1130 980 c-13 -8 -13 -10 2 -10 9 0 20 5 23 10 8 13 -5 13 -25 0z"/>
<path d="M1189 970 c-3 -18 -12 -26 -37 -31 -18 -4 -36 -10 -39 -13 -4 -3 9
-3 28 0 59 12 66 17 59 44 l-7 25 -4 -25z"/>
<path d="M1231 973 c7 -42 -2 -49 -66 -62 -66 -13 -73 -21 -52 -56 13 -21 28
-28 65 -29 12 -1 22 -8 23 -16 0 -9 4 -5 9 8 12 27 24 29 17 2 -3 -11 -1 -20
4 -20 5 0 9 5 9 10 0 6 3 9 8 9 25 -4 42 4 47 22 6 17 9 19 16 8 7 -11 9 -11
9 -1 0 7 -18 40 -40 73 -38 55 -52 70 -49 52z"/>
<path d="M1260 976 c0 -2 8 -10 18 -17 15 -13 16 -12 3 4 -13 16 -21 21 -21
13z"/>
<path d="M975 962 c-12 -12 -4 -20 15 -15 11 3 20 9 20 12 0 9 -27 10 -35 3z"/>
<path d="M1930 902 c0 -11 7 -25 15 -32 12 -10 15 -9 15 8 0 11 -7 25 -15 32
-12 10 -15 9 -15 -8z"/>
<path d="M840 895 c0 -8 5 -15 10 -15 6 0 10 7 10 15 0 8 -4 15 -10 15 -5 0
-10 -7 -10 -15z"/>
<path d="M940 900 c-21 -7 -21 -8 -5 -9 11 0 27 4 35 9 18 11 5 11 -30 0z"/>
<path d="M922 858 c-17 -17 -15 -41 3 -34 9 3 18 -1 22 -10 8 -21 23 1 23 34
0 24 -27 31 -48 10z"/>
<path d="M1054 835 c3 -21 16 -31 16 -12 0 9 -4 18 -9 21 -5 4 -8 -1 -7 -9z"/>
<path d="M223 825 c-9 -24 1 -27 15 -5 8 13 8 20 2 20 -6 0 -13 -7 -17 -15z"/>
<path d="M985 810 c3 -5 8 -10 11 -10 2 0 4 5 4 10 0 6 -5 10 -11 10 -5 0 -7
-4 -4 -10z"/>
<path d="M1265 764 c-55 -18 -110 -33 -123 -34 -32 0 -22 -12 51 -60 l62 -42
72 7 c69 6 72 6 89 -19 19 -31 14 -97 -11 -147 -22 -42 -11 -85 26 -105 28
-14 33 -14 67 3 46 23 66 80 39 111 -9 10 -22 34 -29 53 -6 19 -22 51 -36 71
-13 20 -21 41 -18 47 3 5 -6 19 -21 31 -18 14 -24 23 -16 26 9 4 4 19 -18 50
-16 24 -31 44 -32 43 -1 0 -47 -16 -102 -35z"/>
<path d="M376 765 c4 -8 8 -15 10 -15 2 0 4 7 4 15 0 8 -4 15 -10 15 -5 0 -7
-7 -4 -15z"/>
<path d="M1880 725 c0 -8 4 -15 10 -15 5 0 7 7 4 15 -4 8 -8 15 -10 15 -2 0
-4 -7 -4 -15z"/>
<path d="M983 688 c-66 -58 -116 -122 -112 -145 5 -32 20 -41 61 -36 24 3 45
7 47 10 3 2 -13 21 -34 43 -21 22 -36 42 -33 45 3 4 30 0 59 -9 30 -8 77 -17
104 -20 l50 -6 -25 21 c-23 19 -23 22 -7 34 22 16 21 44 -2 73 -27 31 -64 28
-108 -10z"/>
<path d="M745 660 c-28 -15 -86 -36 -130 -45 -69 -15 -85 -23 -117 -57 -55
-57 -56 -56 54 -78 49 -10 61 -9 80 4 12 9 30 16 40 16 9 0 40 5 67 11 l50 11
-26 22 -27 23 19 29 c10 16 25 35 32 42 10 11 20 55 11 51 -2 -1 -26 -14 -53
-29z"/>
<path d="M1530 675 c0 -9 10 -35 22 -58 18 -35 23 -38 26 -21 2 12 -7 38 -18
58 -24 40 -30 44 -30 21z"/>
<path d="M1884 670 c0 -19 31 -38 43 -26 6 6 -25 46 -36 46 -4 0 -7 -9 -7 -20z"/>
<path d="M347 640 c-3 -11 -2 -20 3 -20 12 0 21 28 11 35 -5 2 -11 -4 -14 -15z"/>
<path d="M1258 600 c9 -8 30 -21 46 -28 24 -11 31 -11 37 0 5 7 9 9 9 3 0 -5
5 -2 11 8 15 26 9 29 -59 30 -55 2 -59 1 -44 -13z"/>
<path d="M1602 595 c-15 -32 -15 -45 -2 -45 16 0 35 49 23 61 -6 6 -13 1 -21
-16z"/>
<path d="M1140 606 c0 -3 14 -12 30 -21 17 -9 30 -13 30 -11 0 3 -13 12 -30
21 -16 9 -30 13 -30 11z"/>
<path d="M337 565 c3 -14 9 -25 14 -25 12 0 5 43 -8 47 -6 2 -8 -7 -6 -22z"/>
<path d="M460 559 c-7 -11 -10 -23 -7 -25 2 -2 9 7 15 21 14 30 7 33 -8 4z"/>
<path d="M1571 543 c-1 -31 26 -72 38 -56 8 11 41 16 41 5 0 -4 7 -17 15 -28
14 -18 14 -17 5 9 -6 16 -8 33 -4 38 10 16 -7 31 -21 19 -19 -16 -54 -3 -65
23 -8 20 -9 18 -9 -10z"/>
<path d="M1033 553 c2 -1 44 -9 95 -17 51 -8 97 -18 102 -21 15 -9 12 -35 -3
-29 -7 2 -33 -2 -59 -10 -33 -10 -50 -10 -57 -3 -8 8 -22 5 -48 -8 -21 -10
-41 -18 -45 -17 -5 1 -8 -7 -8 -19 0 -15 5 -19 18 -15 50 15 143 35 187 42 45
6 49 5 37 -9 -8 -9 -22 -19 -33 -22 -10 -4 -19 -11 -19 -17 0 -5 16 -1 35 11
32 18 36 19 42 5 3 -9 0 -20 -8 -25 -8 -5 -10 -9 -6 -9 4 0 -21 -27 -55 -61
-62 -60 -62 -61 -20 -37 23 14 54 35 67 46 31 27 35 27 35 2 0 -11 -18 -38
-41 -61 -22 -22 -38 -43 -36 -46 3 -2 24 14 46 36 32 32 43 38 47 26 4 -8 3
-23 0 -32 -3 -10 7 -3 24 15 32 34 46 41 37 18 -3 -8 3 -23 14 -34 24 -27 24
-47 -1 -72 -12 -12 -18 -25 -15 -30 8 -13 55 42 55 63 0 9 -11 33 -25 53 -14
20 -25 42 -25 49 0 6 -11 22 -25 35 -32 30 -48 81 -40 128 4 26 2 42 -7 49
-11 9 -273 25 -265 16z"/>
<path d="M370 506 c0 -8 5 -18 10 -21 6 -3 10 1 10 9 0 8 -4 18 -10 21 -5 3
-10 -1 -10 -9z"/>
<path d="M1330 474 c0 -8 5 -12 10 -9 6 3 10 10 10 16 0 5 -4 9 -10 9 -5 0
-10 -7 -10 -16z"/>
<path d="M707 464 c-4 -4 -17 -9 -29 -11 -42 -6 -38 -23 7 -27 15 -2 29 2 32
10 7 18 0 37 -10 28z"/>
<path d="M785 460 c-3 -5 -13 -6 -22 -3 -11 4 -14 2 -11 -8 3 -8 11 -13 18
-11 7 2 16 -1 19 -6 12 -20 67 -16 104 7 39 24 49 38 20 26 -32 -13 -91 -16
-98 -5 -8 13 -22 13 -30 0z"/>
<path d="M975 460 c3 -5 1 -10 -6 -10 -10 0 -10 -3 -2 -11 6 -6 16 -8 22 -5
17 11 13 36 -5 36 -8 0 -12 -4 -9 -10z"/>
<path d="M412 453 c-20 -8 -35 -43 -24 -56 6 -7 11 -21 13 -31 2 -11 9 6 14
37 6 31 11 57 10 56 0 0 -6 -3 -13 -6z"/>
<path d="M440 449 c0 -5 5 -7 10 -4 6 3 10 8 10 11 0 2 -4 4 -10 4 -5 0 -10
-5 -10 -11z"/>
<path d="M476 441 c-7 -11 18 -33 27 -24 4 3 7 12 7 20 0 15 -26 18 -34 4z"/>
<path d="M537 434 c-11 -11 3 -24 18 -18 8 4 12 10 9 15 -6 11 -18 12 -27 3z"/>
<path d="M610 405 c-11 -13 -9 -15 15 -15 16 0 25 5 23 12 -7 19 -24 20 -38 3z"/>
<path d="M1150 395 c-7 -8 -16 -13 -20 -10 -4 2 -18 -7 -30 -20 -30 -32 -21
-31 41 4 34 19 45 30 35 34 -8 3 -20 -1 -26 -8z"/>
<path d="M990 366 c0 -19 27 -28 33 -11 7 15 -1 25 -20 25 -7 0 -13 -6 -13
-14z"/>
<path d="M587 353 c-11 -10 -8 -43 3 -43 6 0 10 3 11 8 0 4 2 15 4 25 3 17 -6
23 -18 10z"/>
<path d="M725 351 c-3 -6 4 -15 15 -21 20 -11 21 -10 10 9 -12 23 -16 25 -25
12z"/>
<path d="M1030 352 c0 -11 22 -32 32 -32 5 0 4 9 -2 20 -11 20 -30 28 -30 12z"/>
<path d="M660 319 c0 -5 5 -7 10 -4 6 3 10 8 10 11 0 2 -4 4 -10 4 -5 0 -10
-5 -10 -11z"/>
<path d="M920 319 c0 -5 5 -7 10 -4 6 3 10 8 10 11 0 2 -4 4 -10 4 -5 0 -10
-5 -10 -11z"/>
<path d="M410 297 c0 -15 4 -27 9 -27 17 0 19 15 5 35 -13 18 -14 18 -14 -8z"/>
<path d="M710 274 c0 -22 2 -25 15 -14 8 7 15 19 15 26 0 8 -7 14 -15 14 -10
0 -15 -10 -15 -26z"/>
<path d="M1090 295 c0 -3 9 -14 20 -25 11 -11 20 -16 20 -11 0 5 -7 17 -16 25
-16 16 -24 20 -24 11z"/>
<path d="M590 281 c0 -16 30 -33 47 -26 16 6 15 8 -7 20 -29 17 -40 18 -40 6z"/>
<path d="M667 249 c-3 -13 -1 -19 6 -16 15 5 22 37 9 37 -5 0 -12 -9 -15 -21z"/>
<path d="M450 231 c0 -6 5 -13 10 -16 6 -3 10 1 10 9 0 9 -4 16 -10 16 -5 0
-10 -4 -10 -9z"/>
<path d="M855 201 c-3 -5 -1 -12 5 -16 5 -3 10 1 10 9 0 18 -6 21 -15 7z"/>
<path d="M915 180 c3 -5 8 -10 11 -10 2 0 4 5 4 10 0 6 -5 10 -11 10 -5 0 -7
-4 -4 -10z"/>
<path d="M880 170 c0 -5 5 -10 10 -10 6 0 10 5 10 10 0 6 -4 10 -10 10 -5 0
-10 -4 -10 -10z"/>
<path d="M1405 170 c-8 -13 3 -30 21 -30 18 0 18 14 0 29 -10 8 -16 9 -21 1z"/>
<path d="M867 142 c-18 -4 -18 -4 0 -18 23 -17 43 -18 43 0 0 16 -18 24 -43
18z"/>
<path d="M1363 133 c-26 -10 -12 -18 35 -21 l47 -2 -29 15 c-30 16 -34 16 -53
8z"/>
</g>
</svg>
