<?xml version="1.0" encoding="UTF-8"?>
<svg width="2550px" height="861px" viewBox="0 0 2550 861" version="1.1" xmlns="http://www.w3.org/2000/svg" xmlns:xlink="http://www.w3.org/1999/xlink">
    <!-- Generator: Sketch 64 (93537) - https://sketch.com -->
    <title>Artboard 3</title>
    <desc>Created with Sketch.</desc>
    <defs>
        <polygon id="path-1" points="0 861 2550.483 861 2550.483 0.188 0 0.188"></polygon>
    </defs>
    <g id="Artboard-3" stroke="none" stroke-width="1" fill="none" fill-rule="evenodd">
        <polygon id="Fill-380" fill="#FDEAE3" points="533.013 301.3898 681.886 298.6298 431.001 0.8748"></polygon>
        <polygon id="Fill-381" fill="#F5CAC0" points="215.9544 146.9923 323.4774 290.3613 425.4884 0.8713"></polygon>
        <polygon id="Fill-382" fill="#E6EDF1" points="6.4261 301.3868 78.1101 552.2718 249.0461 488.8658"></polygon>
        <path d="M852.8001,303.5055 L853.1011,303.7205 L853.2731,303.4765 L852.8001,303.5055 Z M837.1461,304.3725 L847.5671,311.6555 L850.4341,307.5485 L845.2441,303.9285 L837.1461,304.3725 Z M821.4901,305.2475 L842.0271,319.5895 L844.8941,315.4835 L829.5901,304.7965 L821.4901,305.2475 Z M805.8361,306.1145 L836.4861,327.5245 L839.3531,323.4175 L813.9361,305.6635 L805.8361,306.1145 Z M790.1901,306.9895 L830.9381,335.4595 L833.8051,331.3525 L798.2811,306.5445 L790.1901,306.9895 Z M774.5281,307.8565 L825.4041,343.3865 L828.2651,339.2795 L782.6271,307.4125 L774.5281,307.8565 Z M758.8731,308.7305 L819.8631,351.3215 L822.7241,347.2215 L766.9661,308.2795 L758.8731,308.7305 Z M743.2191,309.5985 L814.3231,359.2635 L817.1831,355.1495 L751.3191,309.1465 L743.2191,309.5985 Z M727.5581,310.4725 L808.7761,367.1915 L811.6431,363.0835 L735.6641,310.0275 L727.5581,310.4725 Z M711.9101,311.3395 L803.2351,375.1255 L806.1091,371.0185 L720.0031,310.8955 L711.9101,311.3395 Z M696.2641,312.2145 L797.6951,383.0605 L800.5691,378.9455 L704.3561,311.7625 L696.2641,312.2145 Z M680.6021,313.0815 L792.1541,390.9955 L795.0211,386.8875 L688.7081,312.6305 L680.6021,313.0815 Z M664.9551,313.9565 L786.6121,398.9295 L789.4801,394.8225 L673.0471,313.5045 L664.9551,313.9565 Z M649.3001,314.8305 L781.0791,406.8645 L783.9391,402.7505 L657.3931,314.3795 L649.3001,314.8305 Z M633.6461,315.6975 L775.5381,414.7985 L778.3991,410.6845 L641.7381,315.2465 L633.6461,315.6975 Z M617.9911,316.5655 L769.9981,422.7265 L772.8581,418.6195 L626.0771,316.1135 L617.9911,316.5655 Z M602.3371,317.4395 L764.4501,430.6615 L767.3181,426.5545 L610.4301,316.9955 L602.3371,317.4395 Z M586.6761,318.3065 L758.9031,438.5955 L761.7831,434.4885 L594.7761,317.8555 L586.6761,318.3065 Z M571.0221,319.1815 L753.3681,446.5235 L756.2361,442.4305 L579.1211,318.7305 L571.0221,319.1815 Z M555.3741,320.0485 L747.8281,454.4645 L750.6961,450.3585 L563.4671,319.5975 L555.3741,320.0485 Z M539.7131,320.9235 L742.2871,462.4005 L745.1541,458.2925 L547.8201,320.4715 L539.7131,320.9235 Z M524.0661,321.7975 L736.7461,470.3275 L739.6131,466.2275 L532.1651,321.3385 L524.0661,321.7975 Z M508.4111,322.6645 L731.2061,478.2695 L734.0731,474.1625 L516.5041,322.2135 L508.4111,322.6645 Z M492.7571,323.5325 L725.6651,486.1965 L728.5261,482.0965 L500.8571,323.0885 L492.7571,323.5325 Z M477.1031,324.4065 L720.1251,494.1385 L722.9921,490.0315 L485.1961,323.9625 L477.1031,324.4065 Z M461.4481,325.2745 L714.5841,502.0665 L717.4511,497.9655 L469.5411,324.8225 L461.4481,325.2745 Z M445.7871,326.1485 L709.0431,510.0005 L711.9041,505.9015 L453.8941,325.6965 L445.7871,326.1485 Z M430.1401,327.0155 L703.4951,517.9355 L706.3701,513.8355 L438.2331,326.5645 L430.1401,327.0155 Z M414.4861,327.8905 L697.9551,525.8705 L700.8291,521.7635 L422.5781,327.4455 L414.4861,327.8905 Z M398.8311,328.7575 L692.4211,533.8045 L695.2881,529.6975 L406.9311,328.3055 L398.8311,328.7575 Z M383.1771,329.6315 L686.8811,541.7395 L689.7481,537.6325 L391.2771,329.1805 L383.1771,329.6315 Z M367.5231,330.4995 L681.3401,549.6675 L684.2071,545.5675 L375.6221,330.0545 L367.5231,330.4995 Z M351.8681,331.3735 L675.8001,557.6015 L678.6591,553.5085 L359.9681,330.9225 L351.8681,331.3735 Z M336.2141,332.2405 L670.2591,565.5365 L673.1261,561.4295 L344.3061,331.7895 L336.2141,332.2405 Z M320.5601,333.1155 L664.7181,573.4705 L667.5781,569.3715 L328.6521,332.6645 L320.5601,333.1155 Z M304.9051,333.9835 L659.1701,581.4055 L662.0451,577.3055 L312.9971,333.5385 L304.9051,333.9835 Z M289.2511,334.8645 L653.6301,589.3335 L656.5041,585.2335 L297.3431,334.4055 L289.2511,334.8645 Z M273.5971,335.7245 L648.0891,597.2755 L650.9631,593.1685 L281.6961,335.2735 L273.5971,335.7245 Z M257.9421,336.5985 L642.5561,605.2025 L645.4231,601.1025 L266.0421,336.1475 L257.9421,336.5985 Z M242.2881,337.4665 L637.0081,613.1375 L639.8821,609.0375 L250.3871,337.0225 L242.2881,337.4665 Z M226.6411,338.3485 L631.4741,621.0715 L634.3341,616.9715 L234.7331,337.8895 L226.6411,338.3485 Z M210.9791,339.2085 L625.9341,629.0065 L628.7931,624.9065 L219.0861,338.7565 L210.9791,339.2085 Z M195.2891,340.0825 L620.3711,636.9635 L623.2451,632.8555 L203.3881,339.6385 L195.2891,340.0825 Z" id="Fill-383" fill="#EEA5A4"></path>
        <path d="M677.1282,797.6627 L255.4942,517.6837 L252.7272,521.8557 L669.0362,798.3007 L677.1282,797.6627 Z M583.3532,805.0887 L223.3752,566.0517 L220.6012,570.2237 L575.2682,805.7337 L583.3532,805.0887 Z M598.9852,803.8487 L228.7222,557.9957 L225.9562,562.1667 L590.9002,804.4937 L598.9852,803.8487 Z M614.6112,802.6157 L234.0762,549.9317 L231.3102,554.1027 L606.5262,803.2537 L614.6112,802.6157 Z M630.2372,801.3757 L239.4312,541.8677 L236.6642,546.0397 L622.1512,802.0137 L630.2372,801.3757 Z M520.8362,810.0417 L201.9582,598.2997 L199.1912,602.4717 L512.7512,810.6867 L520.8362,810.0417 Z M536.4622,808.8017 L207.3122,590.2357 L204.5452,594.4077 L528.3762,809.4467 L536.4622,808.8017 Z M552.0872,807.5687 L212.6672,582.1797 L209.8992,586.3507 L544.0022,808.2067 L552.0872,807.5687 Z M567.7202,806.3287 L218.0212,574.1157 L215.2472,578.2877 L559.6422,806.9667 L567.7202,806.3287 Z M458.3122,814.9947 L180.5482,630.5547 L177.7742,634.7187 L450.2272,815.6327 L458.3122,814.9947 Z M473.9442,813.7547 L185.8952,622.4837 L183.1282,626.6627 L465.8592,814.3997 L473.9442,813.7547 Z M489.5702,812.5147 L191.2492,614.4267 L188.4822,618.5987 L481.4922,813.1597 L489.5702,812.5147 Z M505.2032,811.2817 L196.6042,606.3627 L193.8372,610.5347 L497.1182,811.9197 L505.2032,811.2817 Z M395.8022,819.9477 L159.1302,662.7947 L156.3642,666.9667 L387.7172,820.5847 L395.8022,819.9477 Z M411.4282,818.7067 L164.4922,654.7307 L161.7182,658.9027 L403.3432,819.3517 L411.4282,818.7067 Z M427.0542,817.4747 L169.8392,646.6667 L167.0662,650.8387 L418.9682,818.1127 L427.0542,817.4747 Z M442.6872,816.2267 L175.1932,638.6107 L172.4202,642.7827 L434.6012,816.8717 L442.6872,816.2267 Z M333.2782,824.8927 L137.7212,695.0357 L134.9542,699.2137 L325.1922,825.5377 L333.2782,824.8927 Z M348.9112,823.6607 L143.0752,686.9787 L140.3082,691.1507 L340.8252,824.2977 L348.9112,823.6607 Z M364.5362,822.4197 L148.4292,678.9217 L145.6552,683.0867 L356.4582,823.0647 L364.5362,822.4197 Z M380.1692,821.1867 L153.7842,670.8587 L151.0102,675.0227 L372.0842,821.8257 L380.1692,821.1867 Z M270.7612,829.8527 L116.3112,727.2897 L113.5372,731.4547 L262.6832,830.4907 L270.7612,829.8527 Z M286.3942,828.6127 L121.6652,719.2257 L118.8912,723.3977 L278.3092,829.2577 L286.3942,828.6127 Z M302.0202,827.3727 L127.0122,711.1627 L124.2452,715.3337 L293.9352,828.0177 L302.0202,827.3727 Z M317.6452,826.1407 L132.3662,703.1057 L129.6002,707.2777 L309.5672,826.7777 L317.6452,826.1407 Z M208.2442,834.8057 L94.9002,759.5377 L92.1272,763.7087 L200.1592,835.4437 L208.2442,834.8057 Z M223.8702,833.5657 L100.2482,751.4737 L97.4812,755.6457 L215.7842,834.2107 L223.8702,833.5657 Z M239.5032,832.3187 L105.6022,743.4107 L102.8352,747.5817 L231.4172,832.9637 L239.5032,832.3187 Z M255.1352,831.0857 L110.9562,735.3467 L108.1822,739.5177 L247.0502,831.7237 L255.1352,831.0857 Z M145.7272,839.7587 L73.4832,791.7857 L70.7172,795.9497 L137.6422,840.3897 L145.7272,839.7587 Z M161.3602,838.5187 L78.8372,783.7217 L76.0712,787.8927 L153.2742,839.1567 L161.3602,838.5187 Z M176.9852,837.2787 L84.1922,775.6577 L81.4252,779.8297 L168.9002,837.9237 L176.9852,837.2787 Z M192.6182,836.0457 L89.5462,767.5947 L86.7732,771.7657 L184.5332,836.6767 L192.6182,836.0457 Z M83.2102,844.7047 L52.0732,824.0257 L49.2992,828.1977 L75.1252,845.3497 L83.2102,844.7047 Z M98.8362,843.4647 L57.4202,815.9697 L54.6542,820.1407 L90.7512,844.1097 L98.8362,843.4647 Z M114.4682,842.2317 L62.7752,807.9127 L60.0082,812.0777 L106.3832,842.8697 L114.4682,842.2317 Z M130.0942,840.9917 L68.1292,799.8417 L65.3622,804.0137 L122.0092,841.6297 L130.0942,840.9917 Z M36.3192,848.4177 L36.0102,848.2097 L35.8532,848.4537 L36.3192,848.4177 Z M51.9522,847.1777 L41.3652,840.1457 L38.5912,844.3247 L43.8662,847.8227 L51.9522,847.1777 Z M67.5852,845.9447 L46.7192,832.0967 L43.9452,836.2607 L59.4992,846.5827 L67.5852,845.9447 Z M645.8702,800.1427 L244.7852,533.8047 L242.0182,537.9827 L637.7842,800.7737 L645.8702,800.1427 Z M692.7902,796.4227 L260.8562,509.6057 L258.0882,513.7697 L684.7052,797.0607 L692.7902,796.4227 Z M661.4952,798.8957 L250.1322,525.7477 L247.3732,529.9127 L653.4102,799.5407 L661.4952,798.8957 Z" id="Fill-384" fill="#99B1CB"></path>
        <path d="M532.1429,685.0592 L391.3189,198.9222 L386.5019,200.3122 L525.5559,680.3282 L532.1429,685.0592 Z M455.7789,630.1252 L335.5459,215.0712 L330.7369,216.4682 L449.1989,625.3942 L455.7789,630.1252 Z M468.5079,639.2792 L344.8359,212.3752 L340.0339,213.7732 L461.9209,634.5482 L468.5079,639.2792 Z M481.2309,648.4392 L354.1319,209.6872 L349.3309,211.0782 L474.6509,643.7012 L481.2309,648.4392 Z M493.9599,657.5922 L363.4289,206.9932 L358.6199,208.3832 L487.3729,652.8542 L493.9599,657.5922 Z M404.8659,593.5052 L298.3609,225.8442 L293.5579,227.2342 L398.2859,588.7672 L404.8659,593.5052 Z M417.5959,602.6592 L307.6639,223.1562 L302.8549,224.5462 L411.0159,597.9212 L417.5959,602.6592 Z M430.3259,611.8192 L316.9599,220.4612 L312.1509,221.8512 L423.7389,607.0742 L430.3259,611.8192 Z M443.0479,620.9652 L326.2569,217.7662 L321.4409,219.1632 L436.4679,616.2342 L443.0479,620.9652 Z M353.9539,556.8782 L261.1889,236.6172 L256.3789,238.0072 L347.3729,552.1412 L353.9539,556.8782 Z M366.6909,566.0322 L270.4849,233.9222 L265.6679,235.3202 L360.1029,561.3012 L366.6909,566.0322 Z M379.4139,575.1922 L279.7749,231.2262 L274.9649,232.6242 L372.8269,570.4542 L379.4139,575.1922 Z M392.1359,584.3452 L289.0709,228.5392 L284.2609,229.9292 L385.5559,579.6072 L392.1359,584.3452 Z M303.0479,520.2582 L224.0019,247.3832 L219.1999,248.7812 L296.4679,515.5202 L303.0479,520.2582 Z M315.7779,529.4122 L233.2989,244.6882 L228.4899,246.0852 L309.1909,524.6742 L315.7779,529.4122 Z M328.5079,538.5652 L242.5959,242.0002 L237.7859,243.3972 L321.9209,533.8342 L328.5079,538.5652 Z M341.2379,547.7182 L251.8919,239.3052 L247.0819,240.7032 L334.6509,542.9872 L341.2379,547.7182 Z M252.1429,483.6312 L186.8239,258.1562 L182.0209,259.5462 L245.5629,478.8932 L252.1429,483.6312 Z M264.8659,492.7852 L196.1199,255.4682 L191.3099,256.8592 L258.2859,488.0542 L264.8659,492.7852 Z M277.5959,501.9372 L205.4159,252.7662 L200.6069,254.1632 L271.0079,497.2072 L277.5959,501.9372 Z M290.3259,511.1052 L214.7129,250.0782 L209.9039,251.4682 L283.7389,506.3672 L290.3259,511.1052 Z M201.2299,447.0112 L149.6439,268.9292 L144.8419,270.3202 L194.6509,442.2732 L201.2299,447.0112 Z M213.9599,456.1642 L158.9409,266.2342 L154.1309,267.6242 L207.3729,451.4272 L213.9599,456.1642 Z M226.6829,465.3252 L168.2379,263.5392 L163.4279,264.9292 L220.1029,460.5872 L226.6829,465.3252 Z M239.4129,474.4782 L177.5269,260.8512 L172.7249,262.2422 L232.8329,469.7402 L239.4129,474.4782 Z M150.3249,410.3842 L112.4649,279.6952 L107.6559,281.0932 L143.7379,405.6542 L150.3249,410.3842 Z M163.0549,419.5442 L121.7549,277.0002 L116.9529,278.3972 L156.4679,414.8072 L163.0549,419.5442 Z M175.7779,428.6982 L131.0589,274.3052 L126.2489,275.7032 L169.1979,423.9602 L175.7779,428.6982 Z M188.5009,437.8582 L140.3479,271.6172 L135.5449,273.0152 L181.9209,433.1212 L188.5009,437.8582 Z M99.4129,373.7642 L75.2869,290.4682 L70.4769,291.8592 L92.8329,369.0262 L99.4129,373.7642 Z M112.1429,382.9252 L84.5829,287.7732 L79.7729,289.1632 L105.5559,378.1802 L112.1429,382.9252 Z M124.8729,392.0782 L93.8789,285.0852 L89.0699,286.4762 L118.2859,387.3402 L124.8729,392.0782 Z M137.5959,401.2312 L103.1759,282.3902 L98.3589,283.7812 L131.0159,396.4932 L137.5959,401.2312 Z M48.5079,337.1372 L38.1069,301.2412 L33.2979,302.6322 L41.9279,332.4062 L48.5079,337.1372 Z M61.2299,346.2982 L47.4039,298.5462 L42.5939,299.9362 L54.6499,341.5592 L61.2299,346.2982 Z M73.9599,355.4512 L56.6929,295.8512 L51.8839,297.2422 L67.3799,350.7132 L73.9599,355.4512 Z M86.6899,364.6042 L65.9899,293.1562 L61.1799,294.5542 L80.1099,359.8662 L86.6899,364.6042 Z M10.3249,309.6702 L10.2179,309.3122 L9.9379,309.3912 L10.3249,309.6702 Z M23.0479,318.8242 L19.5139,306.6242 L14.7119,308.0152 L16.4679,314.0932 L23.0479,318.8242 Z M35.7849,327.9842 L28.8109,303.9292 L24.0009,305.3202 L29.1979,323.2532 L35.7849,327.9842 Z M506.6909,666.7462 L372.7259,204.3052 L367.9229,205.6952 L500.1039,662.0072 L506.6909,666.7462 Z M544.9019,694.2412 L400.6289,196.2202 L395.8279,197.6102 L538.3149,689.4962 L544.9019,694.2412 Z M519.4139,675.9062 L382.0219,201.6172 L377.2119,203.0072 L512.8329,671.1682 L519.4139,675.9062 Z" id="Fill-385" fill="#EEA5A4"></path>
        <polygon id="Fill-386" fill="#FFFFFE" points="323.9325 293.6194 11.6775 304.4714 257.9245 496.7814 171.7395 797.1104 430.7395 622.3464 689.7455 797.1104 603.5605 496.7814 849.8075 304.4714 537.5525 293.6194 430.7395 0.0004"></polygon>
        <polygon id="Fill-387" fill="#99B1CB" points="14.4281 303.2735 168.8211 523.8315 168.8211 799.5315 257.0491 493.5045"></polygon>
        <polygon id="Fill-388" fill="#E6EDF1" points="483.0511 199.5543 475.3741 190.1003 473.8121 188.2933 472.0851 175.4563 462.8241 162.9843 461.9921 162.7763 419.2441 152.2253 417.7321 153.9823"></polygon>
        <polygon id="Fill-389" fill="#99B1CB" points="481.1116 201.5602 392.4326 179.3482 417.7346 153.9812 483.0476 199.5532 483.4916 200.0912"></polygon>
        <polygon id="Fill-390" fill="#E6EDF1" points="529.6155 361.7213 532.2315 355.3563 541.8005 332.0543 548.0645 320.1623 549.8205 313.0453 559.6985 295.7853 561.4755 288.2443 558.7165 281.8513 555.3465 276.0963 554.7385 275.2643 522.1105 300.7093 521.9735 300.7313"></polygon>
        <polygon id="Fill-391" fill="#99B1CB" points="554.7366 275.2648 522.1086 300.7028 521.9726 300.7238 521.9516 300.5528 521.4646 299.9578 521.5436 294.7968 519.6226 288.8758 521.3786 269.4588 530.3816 265.4738 534.1366 269.5158 543.3326 269.4728 544.9956 271.6948 552.5286 272.2758"></polygon>
        <polygon id="Fill-392" fill="#99B1CB" points="431.7503 313.3053 391.7113 318.8893 399.2443 331.2893 426.5033 376.1383 382.2713 419.8473 450.8023 457.0183 382.2713 419.8473 426.5033 376.1383 454.2423 348.7213"></polygon>
        <polygon id="Fill-393" fill="#E6EDF1" points="491.5032 311.8942 487.3392 305.5512 460.8902 309.2422 448.6192 310.9552 469.6062 333.5332"></polygon>
        <polygon id="Fill-394" fill="#99B1CB" points="515.3245 382.7189 528.2835 364.9719 529.6165 361.7249 521.9755 300.7269 521.4525 300.7989 521.1795 318.7539 502.3005 340.8309 501.1965 326.6459 491.4985 311.8949 469.6085 333.5339"></polygon>
        <polygon id="Fill-395" fill="#1D72A0" points="473.3138 378.7482 473.4348 378.3182 482.5388 383.9022 504.4718 397.3552 504.5218 397.1472 505.7108 395.8792 510.8228 388.8762 515.3238 382.7192 469.6078 333.5342 454.2478 348.7222"></polygon>
        <polygon id="Fill-396" fill="#E6EDF1" points="458.7103 429.1481 461.8703 418.0171 473.3113 378.7451 454.2443 348.7191 426.5053 376.1351"></polygon>
        <polygon id="Fill-397" fill="#5B8AB2" points="334.9398 300.9274 290.5718 332.9964 316.7338 329.3404 290.9648 369.5584 316.7338 329.3404"></polygon>
        <polygon id="Fill-398" fill="#0D5C80" points="364.9827 274.8971 362.0507 278.3371 353.6867 324.1891 391.7117 318.8851"></polygon>
        <polygon id="Fill-399" fill="#1D72A0" points="291.7903 370.7833 291.2023 369.9163 290.9593 369.5573 316.7343 329.3393 353.6843 324.1933 362.0563 278.3343 353.6843 324.1933 350.3573 342.3993 325.4853 350.4413 328.5673 356.5553 342.6673 384.5383 340.3733 397.1323 352.2653 403.5753 340.3733 397.1323"></polygon>
        <polygon id="Fill-400" fill="#5B8AB2" points="334.9456 426.8595 313.3776 402.8475 291.7886 370.7865 340.3716 397.1275"></polygon>
        <polygon id="Fill-401" fill="#B22146" points="550.6859 818.8068 550.6859 818.7998 550.1629 794.8808 544.0269 763.2858 531.2899 729.5548 513.5569 695.9738 512.8539 685.0208 537.7769 690.4758 584.6889 776.8538 562.4479 819.2868 562.4479 819.3018"></polygon>
        <polygon id="Fill-402" fill="#DD4458" points="665.0316 823.5441 664.6016 824.0741 644.2166 833.2131 627.0136 837.5431 605.2886 837.1771 576.2376 837.5861 574.1306 836.9981 601.5476 820.9141 562.4396 819.3011 550.6846 818.8061 562.4396 819.3011 601.5476 820.9141"></polygon>
        <polygon id="Fill-403" fill="#F5CAC0" points="628.3694 805.1754 630.3764 806.4944 658.0294 810.1924 665.0244 809.7054 667.0534 810.4724 670.5154 816.6794 665.0544 823.5174 665.0324 823.5394 601.5474 820.9154 601.5684 820.9014"></polygon>
        <polygon id="Fill-404" fill="#0D5C80" points="537.7747 690.4762 512.8517 685.0292 511.0597 657.1392 517.6187 653.3692"></polygon>
        <polygon id="Fill-405" fill="#F5CAC0" points="488.1536 521.2657 553.3296 598.4187 484.1826 599.2007"></polygon>
        <polygon id="Fill-406" fill="#1D72A0" points="461.9368 599.4518 483.4908 612.6618 484.1858 599.2018 553.3258 598.4198 484.1858 599.2018"></polygon>
        <polygon id="Fill-407" fill="#B72244" points="517.6175 653.3654 511.0595 657.1434 509.8975 639.1594"></polygon>
        <polygon id="Fill-408" fill="#DD8583" points="483.4935 612.6608 484.1815 599.1998 553.3215 598.4258 554.6545 599.9948 555.0275 609.4638 555.6085 623.9998 556.4465 630.9958 524.8515 649.1948 517.6195 653.3668 509.8995 639.1528 509.7845 637.3468 509.6055 634.5658 509.1335 633.9128 501.8435 623.8998"></polygon>
        <polygon id="Fill-409" fill="#F5CAC0" points="556.4456 630.9962 524.8496 649.1952 517.6176 653.3672 537.7736 690.4742 568.7886 697.2622 567.2326 690.3882 559.4636 656.1832"></polygon>
        <polygon id="Fill-410" fill="#B22146" points="601.5443 820.9127 574.1273 836.9967 555.8203 831.9297 562.4443 819.2997"></polygon>
        <polygon id="Fill-411" fill="#0D5C80" points="555.8196 831.9318 562.4426 819.3018 550.6796 818.8078 550.9386 830.5768"></polygon>
        <polygon id="Fill-412" fill="#DD8583" points="537.7747 690.4762 568.7897 697.2642 587.1527 778.1022 628.3677 805.1742 601.5667 820.9002 601.5457 820.9082 562.4457 819.2952 562.4457 819.2882 584.6867 776.8542"></polygon>
        <polygon id="Fill-413" fill="#1D72A0" points="349.0286 602.339 375.9146 618.001 387.9926 600.282 351.0856 600.698 349.6516 601.966 351.0856 600.698 349.6516 600.712 349.4946 601.107"></polygon>
        <polygon id="Fill-414" fill="#0D5C80" points="341.3958 555.6564 337.5178 533.8814 338.6578 531.5154 339.3528 530.0604 336.8868 487.9004 342.0768 476.4244 368.8048 519.1944"></polygon>
        <polygon id="Fill-415" fill="#5B8AB2" points="349.4954 601.1105 341.3954 555.6525 304.4174 604.8445 341.3954 555.6525 368.8054 519.1905 342.0834 476.4205 342.5424 475.4105 444.9194 477.7685 444.7184 478.4855 444.5104 479.2015 466.7664 498.4475 351.0864 600.6945 349.6454 600.7165"></polygon>
        <polygon id="Fill-416" fill="#DD8583" points="466.761 498.4454 351.081 600.6934 387.988 600.2844 404.517 576.0434 411.097 562.6754 441.653 587.0174 461.938 599.4534 484.179 599.1954 488.157 521.2674 474.61 505.2334"></polygon>
        <polygon id="Fill-417" fill="#B22146" points="349.0286 602.339 375.9146 618.001 362.2666 638.013 325.6186 675.701 322.0556 675.407 321.3896 675.35"></polygon>
        <polygon id="Fill-418" fill="#B22146" points="341.3958 555.6564 337.5178 533.8814 334.2278 540.7044 305.7648 599.8094 304.4168 604.8484"></polygon>
        <polygon id="Fill-419" fill="#EEA5A4" points="298.5638 620.6105 348.3928 601.9665 349.0238 602.3395 349.4978 601.1075 341.3908 555.6565 304.4188 604.8485 301.2148 616.8335"></polygon>
        <polygon id="Fill-420" fill="#0D5C80" points="450.804 457.0211 444.919 477.7651 342.535 475.4141 350.434 457.9671 349.316 452.4191 382.266 419.8501"></polygon>
        <polygon id="Fill-421" fill="#F5CAC0" points="340.3694 397.129 342.6704 384.535 352.2614 403.58"></polygon>
        <polygon id="Fill-422" fill="#DD4458" points="382.2669 419.8502 349.3169 452.4202 348.9219 450.4712 347.6249 440.9742 337.3609 429.5482 334.9459 426.8602 340.3709 397.1282 352.2629 403.5792 354.5419 408.1022 359.8389 418.6172 363.7879 423.5992 365.6449 426.0072 368.1819 428.0642 369.0639 412.6892"></polygon>
        <polygon id="Fill-423" fill="#5B8AB2" points="353.6839 324.1896 391.7159 318.8856 399.2419 331.2856 426.5009 376.1336 382.2689 419.8506 369.0589 412.6896 370.4559 388.2406 370.8429 381.5026 365.4599 343.3636 364.6719 337.7796 350.3579 342.4026"></polygon>
        <polygon id="Fill-424" fill="#99B1CB" points="426.5013 376.1363 382.2703 419.8523 450.8003 457.0243 458.7063 429.1493"></polygon>
        <polygon id="Fill-425" fill="#99B1CB" points="316.7337 329.3414 353.6827 324.1884 362.0547 278.3364 356.6077 284.7154 352.2997 289.7684 343.5047 294.7364 334.9397 300.9284"></polygon>
        <polygon id="Fill-426" fill="#0D5C80" points="290.5687 332.9913 316.7377 329.3433 290.9627 369.5543 278.9217 351.6633 283.9807 337.8373 284.2827 337.5353"></polygon>
        <polygon id="Fill-427" fill="#E6EDF1" points="480.8685 236.6407 478.7115 225.5447 476.7625 219.7747 479.1125 215.6897 478.5895 209.8547 486.5675 203.8697 485.2765 202.3007 481.1125 201.5617 396.5335 253.7147"></polygon>
        <polygon id="Fill-428" fill="#ACBED2" points="481.1116 201.5602 483.4916 200.0912 481.1116 201.5602 396.5326 253.7132 395.7086 253.8852 397.3136 252.7672 404.3526 245.3052 406.2016 227.3432 397.5286 207.0942 393.8306 191.7552 391.9596 179.0322"></polygon>
        <polygon id="Fill-429" fill="#0D5C80" points="395.1429 255.6647 397.3359 255.7797 448.6219 310.9567 431.7479 313.3007"></polygon>
        <polygon id="Fill-430" fill="#1D72A0" points="469.4476 259.5358 469.1616 259.1488 459.3416 252.0748 461.0906 248.3968 466.5516 244.8638 481.0236 237.4308 480.8656 236.6418 396.5376 253.7158 395.8206 254.1528 397.3406 255.7798"></polygon>
        <polygon id="Fill-431" fill="#DD4458" points="298.5638 620.6105 348.3928 601.9665 349.0238 602.3395 349.4978 601.1075 349.0238 602.3395 321.3928 675.3505"></polygon>
        <polygon id="Fill-432" fill="#1D72A0" points="307.4593 674.1984 293.5183 673.0444 246.3763 667.2674 199.8933 657.5334 214.4153 652.1004"></polygon>
        <polygon id="Fill-433" fill="#B22146" points="135.1385 633.2706 125.6625 631.0206 67.2385 659.9206 49.4195 656.7666 38.6175 676.0766 52.0425 681.4166 81.1075 663.3606 105.0985 658.9316 118.9245 656.3796 127.5835 660.9376 129.9775 662.1996 130.0345 661.1536 130.2785 656.6876 130.0635 656.7806 130.3505 655.4336 130.4575 653.5266 130.7655 653.5266"></polygon>
        <polygon id="Fill-434" fill="#DD4458" points="199.8939 657.5333 214.4089 652.1003 167.7389 641.0123 236.6649 612.1693 167.7389 641.0123 137.8139 653.5333 180.9499 653.5703"></polygon>
        <polygon id="Fill-435" fill="#EEA5A4" points="140.6029 607.9479 146.4369 615.0079 146.7389 615.3169 157.7979 619.9399 180.9999 618.5279 214.6669 616.4849 226.7239 615.9039 235.5609 612.0979 236.6649 612.1699 167.7329 641.0129 135.1339 633.2719 130.7619 653.5279 135.1339 633.2719"></polygon>
        <polygon id="Fill-436" fill="#EEA5A4" points="124.1468 631.7765 67.2418 659.9235 49.4158 656.7625 50.9068 654.0965 61.4718 635.2025 85.6778 622.0645 87.5128 620.5445"></polygon>
        <polygon id="Fill-437" fill="#DD4458" points="88.7894 620.9337 87.5134 620.5397 87.5574 620.5107 88.0224 620.1237 118.1054 595.2807 131.1654 596.5487 133.2444 599.0507"></polygon>
        <polygon id="Fill-438" fill="#FDEAE3" points="135.1385 633.2706 125.6625 631.0206 124.4015 631.6506 124.1425 631.7726 89.2285 621.0716 88.7915 620.9356 133.2385 599.0526 133.2965 599.1166 140.6075 607.9476"></polygon>
        <polygon id="Fill-439" fill="#0D5C80" points="167.7376 641.0128 135.1386 633.2718 130.7666 653.5348 137.8196 653.5348"></polygon>
        <polygon id="Fill-440" fill="#FDEAE3" points="214.4134 652.1012 167.7374 641.0132 236.6624 612.1692 268.9674 614.2912 292.1544 623.0072"></polygon>
        <polygon id="Fill-441" fill="#DD8583" points="321.3909 675.3512 307.4569 674.1972 214.4129 652.1062 292.1539 623.0122 295.8959 624.4172 298.5619 620.6112"></polygon>
        <polygon id="Fill-442" fill="#5B8AB2" points="431.7503 313.3053 448.6223 310.9543 469.6093 333.5333 454.2423 348.7213"></polygon>
        <polygon id="Fill-443" fill="#5B8AB2" points="395.1429 255.6647 393.5079 255.5787 391.1939 257.0047 390.6419 257.3927 388.8139 258.6607 383.5959 261.9217 378.9009 268.7597 365.9269 273.7847 364.9809 274.8957 391.7169 318.8837 431.7479 313.3007"></polygon>
        <polygon id="Fill-444" fill="#99B1CB" points="471.4339 262.2223 469.4489 259.5343 397.3339 255.7713 448.6259 310.9493 460.8899 309.2433 487.3319 305.5583 486.5939 304.4263 486.0989 300.2253 485.2469 293.0873 481.2969 281.5973 477.3979 270.2933"></polygon>
        <polygon id="Fill-445" fill="#1D72A0" points="392.3441 179.5123 423.2871 215.1643 406.9521 246.5813 397.5331 254.7443 404.4371 244.3733 405.6981 226.7833 395.0111 207.3083"></polygon>
        <polygon id="Fill-446" fill="#DD4458" points="280.4751 232.9738 324.5851 293.6198 430.7401 0.0008"></polygon>
        <polygon id="Fill-447" fill="#1D72A0" points="255.2918 490.7438 193.9498 504.5278 11.2948 304.6478"></polygon>
        <polygon id="Fill-448" fill="#DD4458" points="648.804 462.67 688.779 794.887 600.558 499.892"></polygon>
        <polygon id="Fill-449" fill="#FDEBE4" points="430.7581 0.8859 685.2991 302.9779 534.2531 305.7729"></polygon>
        <polygon id="Fill-450" fill="#F6CBC0" points="425.1644 0.8873 212.5834 149.1373 321.6694 294.5853"></polygon>
        <polygon id="Fill-451" fill="#E7ECF0" points="72.7236 560.3146 246.1476 495.9776 -0.0004 305.7736"></polygon>
        <path d="M223.4149,343.2687 L634.1479,630.1147 L637.0499,625.9497 L231.6289,342.8097 L223.4149,343.2687 Z M191.6119,345.0397 L622.8869,646.2347 L625.7969,642.0697 L199.8329,344.5807 L191.6119,345.0397 Z M239.2979,342.3877 L639.7669,622.0647 L642.6769,617.9007 L247.5129,341.9287 L239.2979,342.3877 Z M826.9309,309.6947 L847.7599,324.2457 L850.6699,320.0817 L835.1449,309.2367 L826.9309,309.6947 Z M842.8149,308.8137 L853.3869,316.1887 L856.2969,312.0317 L851.0289,308.3547 L842.8149,308.8137 Z M858.6979,307.9247 L859.0059,308.1397 L859.1779,307.8957 L858.6979,307.9247 Z M763.4029,313.2287 L825.2749,356.4357 L828.1849,352.2787 L771.6179,312.7697 L763.4029,313.2287 Z M779.2869,312.3477 L830.9019,348.3867 L833.8039,344.2287 L787.5009,311.8887 L779.2869,312.3477 Z M795.1699,311.4577 L836.5209,340.3367 L839.4309,336.1727 L803.3849,311.0067 L795.1699,311.4577 Z M811.0469,310.5767 L842.1409,332.2947 L845.0509,328.1227 L819.2609,310.1177 L811.0469,310.5767 Z M699.8749,316.7627 L802.7899,388.6337 L805.6999,384.4687 L708.0889,316.3037 L699.8749,316.7627 Z M715.7589,315.8737 L808.4159,380.5837 L811.3199,376.4197 L723.9729,315.4217 L715.7589,315.8737 Z M731.6429,314.9927 L814.0359,372.5347 L816.9389,368.3707 L739.8569,314.5397 L731.6429,314.9927 Z M747.5199,314.1107 L819.6559,364.4857 L822.5659,360.3277 L755.7409,313.6517 L747.5199,314.1107 Z M636.3479,320.2957 L780.3039,420.8377 L783.2139,416.6657 L644.5619,319.8377 L636.3479,320.2957 Z M652.2319,319.4147 L785.9239,412.7887 L788.8339,408.6167 L660.4459,318.9557 L652.2319,319.4147 Z M668.1159,318.5257 L791.5509,404.7317 L794.4539,400.5677 L676.3299,318.0667 L668.1159,318.5257 Z M683.9919,317.6437 L797.1699,396.6827 L800.0809,392.5257 L692.2129,317.1857 L683.9919,317.6437 Z M572.8209,323.8297 L757.8199,453.0287 L760.7299,448.8637 L581.0349,323.3717 L572.8209,323.8297 Z M588.7039,322.9487 L763.4389,444.9787 L766.3489,440.8147 L596.9179,322.4897 L588.7039,322.9487 Z M604.5809,322.0597 L769.0579,436.9297 L771.9679,432.7657 L612.8019,321.6077 L604.5809,322.0597 Z M620.4639,321.1777 L774.6849,428.8797 L777.5879,424.7157 L628.6779,320.7267 L620.4639,321.1777 Z M509.2919,327.3637 L735.3339,485.2257 L738.2449,481.0607 L517.5069,326.9047 L509.2919,327.3637 Z M525.1759,326.4817 L740.9539,477.1767 L743.8639,473.0187 L533.3899,326.0227 L525.1759,326.4817 Z M541.0529,325.6007 L746.5739,469.1267 L749.4839,464.9627 L549.2669,325.1417 L541.0529,325.6007 Z M556.9369,324.7117 L752.1999,461.0777 L755.1029,456.9137 L565.1509,324.2527 L556.9369,324.7117 Z M445.7649,330.8967 L712.8419,517.4227 L715.7519,513.2587 L453.9789,330.4387 L445.7649,330.8967 Z M461.6419,330.0157 L718.4679,509.3737 L721.3779,505.2087 L469.8629,329.5567 L461.6419,330.0157 Z M477.5249,329.1267 L724.0879,501.3317 L726.9979,497.1597 L485.7469,328.6757 L477.5249,329.1267 Z M493.4089,328.2457 L729.7069,493.2747 L732.6179,489.1107 L501.6229,327.7937 L493.4089,328.2457 Z M382.2379,334.4307 L690.3639,549.6207 L693.2669,545.4557 L390.4519,333.9727 L382.2379,334.4307 Z M398.1219,333.5497 L695.9839,541.5707 L698.8939,537.4067 L406.3349,333.0907 L398.1219,333.5497 Z M413.9979,332.6677 L701.6029,533.5217 L704.5129,529.3577 L422.2119,332.2087 L413.9979,332.6677 Z M429.8809,331.7857 L707.2219,525.4727 L710.1319,521.3087 L438.0949,331.3197 L429.8809,331.7857 Z M318.7089,337.9647 L667.8719,581.8177 L670.7819,577.6537 L326.9239,337.5137 L318.7089,337.9647 Z M334.5859,337.0827 L673.4979,573.7687 L676.4009,569.6037 L342.8079,336.6237 L334.5859,337.0827 Z M350.4699,336.2017 L679.1179,565.7197 L682.0279,561.5617 L358.6839,335.7427 L350.4699,336.2017 Z M366.3539,335.3197 L684.7379,557.6697 L687.6469,553.5127 L374.5679,334.8607 L366.3539,335.3197 Z M255.1819,341.4977 L645.3859,614.0157 L648.2959,609.8517 L263.3959,341.0467 L255.1819,341.4977 Z M271.0589,340.6167 L651.0129,605.9657 L653.9159,601.8017 L279.2729,340.1577 L271.0589,340.6167 Z M286.9429,339.7347 L656.6319,597.9167 L659.5419,593.7517 L295.1569,339.2767 L286.9429,339.7347 Z M302.8259,338.8527 L662.2519,589.8677 L665.1629,585.7027 L311.0399,338.3947 L302.8259,338.8527 Z M207.5309,344.1507 L628.5209,638.1637 L631.4309,633.9987 L215.7519,343.6917 L207.5309,344.1507 Z" id="Fill-452" fill="#EEA5A4"></path>
        <path d="M255.3228,521.2546 L688.1538,808.6666 L696.3608,808.0146 L258.1338,517.0266 L255.3228,521.2546 Z M249.8828,529.4546 L672.2628,809.9286 L680.4628,809.2766 L252.6928,525.2196 L249.8828,529.4546 Z M244.4498,537.6326 L656.4078,811.1826 L664.6078,810.5306 L247.2598,533.4046 L244.4498,537.6326 Z M239.0168,545.8116 L640.5458,812.4366 L648.7528,811.7846 L241.8268,541.5826 L239.0168,545.8116 Z M233.5828,553.9906 L624.6908,813.6916 L632.8978,813.0466 L236.3998,549.7616 L233.5828,553.9906 Z M228.1568,562.1676 L608.8368,814.9526 L617.0358,814.2996 L230.9668,557.9396 L228.1568,562.1676 Z M222.7248,570.3466 L592.9808,816.2076 L601.1808,815.5546 L225.5338,566.1176 L222.7248,570.3466 Z M217.2988,578.5256 L577.1188,817.4616 L585.3258,816.8096 L220.1018,574.2966 L217.2988,578.5256 Z M211.8658,586.7036 L561.2638,818.7166 L569.4718,818.0636 L214.6748,582.4746 L211.8658,586.7036 Z M206.4318,594.8886 L545.4078,819.9696 L553.6088,819.3256 L209.2418,590.6526 L206.4318,594.8886 Z M200.9988,603.0606 L529.5468,821.2316 L537.7538,820.5796 L203.8088,598.8306 L200.9988,603.0606 Z M195.5728,611.2386 L513.6918,822.4866 L521.8978,821.8336 L198.3828,607.0166 L195.5728,611.2386 Z M190.1408,619.4246 L497.8358,823.7406 L506.0368,823.0876 L192.9488,615.1886 L190.1408,619.4246 Z M184.7068,627.6036 L481.9818,824.9946 L490.1818,824.3426 L187.5168,623.3656 L184.7068,627.6036 Z M179.2738,635.7806 L466.1258,826.2566 L474.3258,825.6036 L182.0838,631.5456 L179.2738,635.7806 Z M173.8478,643.9586 L450.2638,827.5116 L458.4708,826.8586 L176.6578,639.7306 L173.8478,643.9586 Z M168.4138,652.1376 L434.4098,828.7646 L442.6088,828.1136 L171.2238,647.9086 L168.4138,652.1376 Z M162.9808,660.3166 L418.5538,830.0196 L426.7538,829.3746 L165.7908,656.0876 L162.9808,660.3166 Z M157.5558,668.4946 L402.6918,831.2736 L410.8988,830.6286 L160.3648,664.2656 L157.5558,668.4946 Z M152.1228,676.6726 L386.8368,832.5346 L395.0358,831.8836 L154.9318,672.4436 L152.1228,676.6726 Z M146.6888,684.8516 L370.9818,833.7896 L379.1818,833.1366 L149.4988,680.6226 L146.6888,684.8516 Z M141.2558,693.0296 L355.1268,835.0436 L363.3268,834.3916 L144.0658,688.8016 L141.2558,693.0296 Z M135.8298,701.2146 L339.2648,836.2986 L347.4718,835.6536 L138.6398,696.9786 L135.8298,701.2146 Z M130.3968,709.3936 L323.4098,837.5596 L331.6098,836.9066 L133.2058,705.1566 L130.3968,709.3936 Z M124.9638,717.5716 L307.5538,838.8146 L315.7538,838.1616 L127.7728,713.3356 L124.9638,717.5716 Z M119.5378,725.7506 L291.6998,840.0686 L299.8998,839.4236 L122.3478,721.5206 L119.5378,725.7506 Z M114.1048,733.9286 L275.8378,841.3226 L284.0448,840.6786 L116.9148,729.6996 L114.1048,733.9286 Z M108.6718,742.1076 L259.9818,842.5776 L268.1818,841.9316 L111.4808,737.8786 L108.6718,742.1076 Z M103.2378,750.2856 L244.1278,843.8386 L252.3268,843.1866 L106.0478,746.0566 L103.2378,750.2856 Z M97.8118,758.4636 L228.2728,845.0926 L236.4728,844.4406 L100.6218,754.2346 L97.8118,758.4636 Z M92.3798,766.6426 L212.4098,846.3476 L220.6168,845.7016 L95.1888,762.4136 L92.3798,766.6426 Z M86.9468,774.8206 L196.5548,847.6086 L204.7548,846.9566 L89.7558,770.5916 L86.9468,774.8206 Z M81.5128,782.9986 L180.6998,848.8636 L188.8998,848.2106 L84.3228,778.7696 L81.5128,782.9986 Z M76.0868,791.1846 L164.8378,850.1186 L173.0448,849.4656 L78.8968,786.9556 L76.0868,791.1846 Z M70.6538,799.3626 L148.9828,851.3716 L157.1898,850.7266 L73.4638,795.1276 L70.6538,799.3626 Z M65.2208,807.5406 L133.1278,852.6266 L141.3278,851.9816 L68.0378,803.3056 L65.2208,807.5406 Z M59.7948,815.7206 L117.2658,853.8806 L125.4728,853.2356 L62.6038,811.4836 L59.7948,815.7206 Z M54.3618,823.8986 L101.4098,855.1416 L109.6178,854.4896 L57.1718,819.6696 L54.3618,823.8986 Z M48.9288,832.0766 L85.5558,856.3966 L93.7548,855.7446 L51.7378,827.8476 L48.9288,832.0766 Z M43.5028,840.2546 L69.7008,857.6516 L77.9008,856.9986 L46.3118,836.0256 L43.5028,840.2546 Z M38.0688,848.4336 L53.8448,858.9126 L62.0448,858.2606 L40.8788,844.2046 L38.0688,848.4336 Z M32.6358,856.6116 L37.9838,860.1666 L46.1828,859.5146 L35.4458,852.3826 L32.6358,856.6116 Z M29.8548,860.8116 L30.3278,860.7686 L30.0118,860.5606 L29.8548,860.8116 Z" id="Fill-453" fill="#98B0CA"></path>
        <path d="M520.4573,685.7438 L381.0593,204.5448 L376.1853,205.9568 L513.7763,680.9408 L520.4573,685.7438 Z M546.3113,704.3438 L399.9453,199.0758 L395.0643,200.4878 L539.6303,699.5418 L546.3113,704.3438 Z M507.5403,676.4538 L371.6333,207.2758 L366.7523,208.6948 L500.8673,671.6518 L507.5403,676.4538 Z M29.7823,332.7548 L22.7073,308.3548 L17.8333,309.7668 L23.1023,327.9518 L29.7823,332.7548 Z M16.8663,323.4718 L13.2823,311.0858 L8.4013,312.4978 L10.1863,318.6698 L16.8663,323.4718 Z M3.9573,314.1828 L3.8503,313.8168 L3.5623,313.8958 L3.9573,314.1828 Z M81.4333,369.9188 L60.4323,297.4248 L55.5583,298.8438 L74.7523,365.1098 L81.4333,369.9188 Z M68.5173,360.6228 L50.9993,300.1628 L46.1243,301.5678 L61.8363,355.8198 L68.5173,360.6228 Z M55.6083,351.3328 L41.5733,302.8938 L36.6923,304.3058 L48.9273,346.5308 L55.6083,351.3328 Z M42.6913,342.0438 L32.1413,305.6248 L27.2673,307.0358 L36.0113,337.2418 L42.6913,342.0438 Z M133.0773,407.0698 L98.1553,286.5008 L93.2743,287.9128 L126.3963,402.2668 L133.0773,407.0698 Z M120.1673,397.7798 L88.7233,289.2318 L83.8413,290.6438 L113.4873,392.9778 L120.1673,397.7798 Z M107.2583,388.4978 L79.2973,291.9628 L74.4163,293.3748 L100.5783,383.6878 L107.2583,388.4978 Z M94.3423,379.2078 L69.8643,294.6938 L64.9833,296.1058 L87.6623,374.3988 L94.3423,379.2078 Z M184.7273,444.2268 L135.8723,275.5708 L130.9983,276.9898 L178.0543,439.4248 L184.7273,444.2268 Z M171.8183,434.9378 L126.4463,278.3008 L121.5653,279.7208 L165.1383,430.1358 L171.8183,434.9378 Z M158.9093,425.6478 L117.0143,281.0388 L112.1323,282.4518 L152.2283,420.8458 L158.9093,425.6478 Z M145.9933,416.3588 L107.5813,283.7698 L102.7073,285.1818 L139.3123,411.5568 L145.9933,416.3588 Z M236.3783,481.3848 L173.5963,264.6468 L168.7223,266.0588 L229.6983,476.5818 L236.3783,481.3848 Z M223.4693,472.0948 L164.1633,267.3778 L159.2893,268.7888 L216.7893,467.2928 L223.4693,472.0948 Z M210.5533,462.8058 L154.7373,270.1078 L149.8563,271.5208 L203.8723,458.0028 L210.5533,462.8058 Z M197.6443,453.5158 L145.3053,272.8388 L140.4233,274.2508 L190.9633,448.7138 L197.6443,453.5158 Z M288.0283,518.5418 L211.3193,253.7158 L206.4383,255.1348 L281.3493,513.7328 L288.0283,518.5418 Z M275.1193,509.2528 L201.8873,256.4538 L197.0133,257.8658 L268.4393,504.4428 L275.1193,509.2528 Z M262.2033,499.9628 L192.4543,259.1848 L187.5803,260.5968 L255.5303,495.1608 L262.2033,499.9628 Z M249.2943,490.6738 L183.0283,261.9158 L178.1473,263.3278 L242.6143,485.8708 L249.2943,490.6738 Z M339.6803,555.6918 L249.0363,242.7918 L244.1623,244.2038 L332.9993,550.8898 L339.6803,555.6918 Z M326.7703,546.4098 L239.6103,245.5228 L234.7293,246.9348 L320.0903,541.5998 L326.7703,546.4098 Z M313.8533,537.1208 L230.1783,248.2538 L225.2963,249.6658 L307.1743,532.3108 L313.8533,537.1208 Z M300.9453,527.8308 L220.7453,250.9848 L215.8713,252.4038 L294.2653,523.0218 L300.9453,527.8308 Z M391.3303,592.8568 L286.7603,231.8608 L281.8793,233.2808 L384.6493,588.0478 L391.3303,592.8568 Z M378.4213,583.5598 L277.3273,234.5928 L272.4533,236.0118 L371.7403,578.7578 L378.4213,583.5598 Z M365.5053,574.2708 L267.9013,237.3298 L263.0203,238.7428 L358.8243,569.4688 L365.5053,574.2708 Z M352.5963,564.9888 L258.4693,240.0608 L253.5873,241.4728 L345.9153,560.1798 L352.5963,564.9888 Z M442.9803,630.0078 L324.4833,220.9378 L319.6033,222.3498 L436.3003,625.2048 L442.9803,630.0078 Z M430.0713,620.7178 L315.0513,223.6688 L310.1703,225.0808 L423.3923,615.9158 L430.0713,620.7178 Z M417.1553,611.4288 L305.6183,226.3998 L300.7443,227.8118 L410.4753,606.6258 L417.1553,611.4288 Z M404.2463,602.1458 L296.1923,229.1308 L291.3113,230.5428 L397.5653,597.3368 L404.2463,602.1458 Z M494.6313,667.1648 L362.2003,210.0068 L357.3263,211.4188 L487.9513,662.3628 L494.6313,667.1648 Z M481.7233,657.8758 L352.7743,212.7448 L347.8943,214.1568 L475.0423,653.0728 L481.7233,657.8758 Z M468.8063,648.5858 L343.3423,215.4758 L338.4613,216.8878 L462.1263,643.7838 L468.8063,648.5858 Z M455.8963,639.2968 L333.9093,218.2068 L329.0353,219.6188 L449.2173,634.4938 L455.8963,639.2968 Z M533.3663,695.0328 L390.4913,201.8138 L385.6173,203.2258 L526.6923,690.2308 L533.3663,695.0328 Z" id="Fill-454" fill="#EEA5A4"></path>
        <polygon id="Fill-455" fill="#FFFFFE" points="430.4943 -0.0002 322.1323 297.8978 5.3253 308.9018 255.1633 504.0208 167.7253 808.7138 430.4943 631.4058 693.2623 808.7138 605.8233 504.0138 855.6623 308.9018 538.8563 297.8978"></polygon>
        <polygon id="Fill-456" fill="#98B0CA" points="8.119 307.6886 164.755 531.4586 164.755 811.1716 254.266 500.6946"></polygon>
        <polygon id="Fill-457" fill="#E7ECF0" points="483.5638 202.4591 475.7728 192.8691 474.1888 191.0271 472.4398 178.0101 463.0428 165.3591 462.1968 165.1441 418.8328 154.4431 417.2978 156.2201"></polygon>
        <polygon id="Fill-458" fill="#98B0CA" points="481.596 204.4957 391.627 181.9537 417.294 156.2207 483.56 202.4597 484.012 203.0047"></polygon>
        <polygon id="Fill-459" fill="#E7ECF0" points="530.8069 366.9879 533.4589 360.5229 543.1639 336.8839 549.5299 324.8279 551.3069 317.6099 561.3279 300.0919 563.1259 292.4369 560.3309 285.9569 556.9119 280.1149 556.2949 279.2699 523.1949 305.0809 523.0519 305.1019"></polygon>
        <polygon id="Fill-460" fill="#98B0CA" points="556.2923 279.2716 523.1913 305.0826 523.0553 305.1046 523.0333 304.9326 522.5393 304.3226 522.6183 299.0906 520.6683 293.0836 522.4533 273.3796 531.5853 269.3446 535.3913 273.4446 544.7163 273.3946 546.4073 275.6516 554.0563 276.2396"></polygon>
        <polygon id="Fill-461" fill="#98B0CA" points="431.5169 317.8668 390.8979 323.5298 398.5379 336.1088 426.1919 381.6098 381.3139 425.9638 450.8479 463.6728 381.3139 425.9638 426.1919 381.6098 454.3389 353.7988"></polygon>
        <polygon id="Fill-462" fill="#E7ECF0" points="492.14 316.4361 487.911 310.0071 461.082 313.7481 448.632 315.4831 469.927 338.3911"></polygon>
        <polygon id="Fill-463" fill="#98B0CA" points="516.306 388.2906 529.452 370.2856 530.807 366.9876 523.051 305.1016 522.528 305.1806 522.248 323.3946 503.096 345.7926 501.971 331.4006 492.137 316.4346 469.924 338.3886"></polygon>
        <polygon id="Fill-464" fill="#1C72A0" points="473.6829 384.2613 473.8119 383.8243 483.0439 389.4873 505.2999 403.1413 505.3429 402.9263 506.5539 401.6433 511.7439 394.5403 516.3029 388.2893 469.9269 338.3873 454.3369 353.7983"></polygon>
        <polygon id="Fill-465" fill="#E7ECF0" points="458.8685 435.3956 462.0725 424.1066 473.6835 384.2606 454.3385 353.7976 426.1905 381.6156"></polygon>
        <polygon id="Fill-466" fill="#5B89B1" points="333.2972 305.3082 288.2762 337.8352 314.8262 334.1372 288.6782 374.9432 314.8262 334.1372"></polygon>
        <polygon id="Fill-467" fill="#0F5C7F" points="363.7786 278.8981 360.8036 282.3811 352.3166 328.9071 390.8936 323.5311"></polygon>
        <polygon id="Fill-468" fill="#1C72A0" points="289.5179 376.1813 288.9229 375.3003 288.6799 374.9413 314.8279 334.1353 352.3149 328.9103 360.8009 282.3843 352.3149 328.9103 348.9389 347.3893 323.7079 355.5453 326.8329 361.7453 341.1399 390.1373 338.8039 402.9103 350.8739 409.4543 338.8039 402.9103"></polygon>
        <polygon id="Fill-469" fill="#5B89B1" points="333.3021 433.0729 311.4191 408.7179 289.5151 376.1829 338.8071 402.9109"></polygon>
        <polygon id="Fill-470" fill="#B32146" points="552.181 830.7286 552.181 830.7216 551.651 806.4516 545.429 774.3976 532.498 740.1716 514.514 706.1036 513.797 695.0006 539.085 700.5266 586.679 788.1666 564.115 831.2166 564.108 831.2236"></polygon>
        <polygon id="Fill-471" fill="#DD4459" points="668.1946 835.5328 667.7576 836.0778 647.0716 845.3528 629.6256 849.7398 607.5776 849.3598 578.1106 849.7748 575.9666 849.1798 603.7786 832.8658 564.1116 831.2248 552.1776 830.7308 564.1116 831.2248 603.7786 832.8658"></polygon>
        <polygon id="Fill-472" fill="#F6CBC0" points="630.9993 816.8976 633.0343 818.2306 661.0893 821.9866 668.1923 821.4916 670.2423 822.2726 673.7623 828.5736 668.2143 835.5046 668.1923 835.5336 603.7833 832.8676 603.8053 832.8526"></polygon>
        <polygon id="Fill-473" fill="#0F5C7F" points="539.0823 700.5299 513.7943 694.9969 511.9803 666.7129 518.6333 662.8779"></polygon>
        <polygon id="Fill-474" fill="#F6CBC0" points="488.7405 528.8546 554.8625 607.1336 484.7125 607.9216"></polygon>
        <polygon id="Fill-475" fill="#1C72A0" points="462.1429 608.1774 484.0109 621.5814 484.7059 607.9264 554.8649 607.1314 484.7059 607.9264"></polygon>
        <polygon id="Fill-476" fill="#B82144" points="518.6331 662.8766 511.9821 666.7106 510.8061 648.4616"></polygon>
        <polygon id="Fill-477" fill="#DD8483" points="484.014 621.5802 484.709 607.9252 554.868 607.1302 556.214 608.7282 556.595 618.3332 557.175 633.0842 558.028 640.1802 525.974 658.6442 518.634 662.8732 510.807 648.4592 510.685 646.6242 510.506 643.8002 510.019 643.1412 502.628 632.9842"></polygon>
        <polygon id="Fill-478" fill="#F6CBC0" points="558.0257 640.1818 525.9707 658.6458 518.6307 662.8748 539.0817 700.5268 570.5537 707.4148 568.9697 700.4408 561.0867 665.7348"></polygon>
        <polygon id="Fill-479" fill="#B32146" points="603.7816 832.8644 575.9706 849.1854 557.3916 844.0384 564.1086 831.2224"></polygon>
        <polygon id="Fill-480" fill="#0F5C7F" points="557.39 844.0406 564.114 831.2256 552.179 830.7306 552.437 842.6716"></polygon>
        <polygon id="Fill-481" fill="#DD8483" points="539.0823 700.5299 570.5493 707.4109 589.1853 789.4309 631.0013 816.8979 603.8003 832.8539 603.7783 832.8609 564.1113 831.2259 564.1113 831.2189 586.6763 788.1699"></polygon>
        <polygon id="Fill-482" fill="#1C72A0" points="347.5911 611.1095 374.8641 627.0005 387.1211 609.0245 349.6771 609.4395 348.2221 610.7295 349.6771 609.4395 348.2151 609.4615 348.0651 609.8625"></polygon>
        <polygon id="Fill-483" fill="#0F5C7F" points="339.847 563.7443 335.905 541.6533 337.066 539.2523 337.775 537.7763 335.274 495.0063 340.541 483.3583 367.658 526.7513"></polygon>
        <polygon id="Fill-484" fill="#5B89B1" points="348.0628 609.861 339.8488 563.744 302.3328 613.653 339.8488 563.744 367.6528 526.751 340.5368 483.365 341.0018 482.333 444.8768 484.719 444.6688 485.451 444.4618 486.174 467.0408 505.699 349.6758 609.438 348.2128 609.46"></polygon>
        <polygon id="Fill-485" fill="#DD8483" points="467.0374 505.7023 349.6804 609.4413 387.1174 609.0183 403.8904 584.4253 410.5624 570.8643 441.5624 595.5643 462.1414 608.1793 484.7134 607.9213 488.7414 528.8543 475.0004 512.5903"></polygon>
        <polygon id="Fill-486" fill="#B32146" points="347.5911 611.1095 374.8641 627.0005 361.0241 647.2995 323.8371 685.5395 320.2251 685.2385 319.5511 685.1805"></polygon>
        <polygon id="Fill-487" fill="#B32146" points="339.847 563.7443 335.905 541.6533 332.578 548.5703 303.7 608.5423 302.33 613.6533"></polygon>
        <polygon id="Fill-488" fill="#EEA5A4" points="296.3919 629.6466 346.9389 610.7306 347.5899 611.1106 348.0639 609.8636 339.8489 563.7466 302.3329 613.6556 299.0729 625.8126"></polygon>
        <polygon id="Fill-489" fill="#0F5C7F" points="450.847 463.6749 444.876 484.7189 341.001 482.3329 349.015 464.6349 347.882 459.0089 381.313 425.9659"></polygon>
        <polygon id="Fill-490" fill="#F6CBC0" points="338.8069 402.9112 341.1359 390.1382 350.8699 409.4552"></polygon>
        <polygon id="Fill-491" fill="#DD4459" points="381.3128 425.9635 347.8818 459.0065 347.4808 457.0355 346.1628 447.3955 335.7538 435.7975 333.3028 433.0735 338.8078 402.9125 350.8718 409.4565 353.1868 414.0435 358.5548 424.7095 362.5618 429.7625 364.4468 432.2135 367.0278 434.2995 367.9168 418.7025"></polygon>
        <polygon id="Fill-492" fill="#5B89B1" points="352.3138 328.9103 390.8978 323.5273 398.5388 336.1063 426.1918 381.6153 381.3138 425.9613 367.9178 418.7003 369.3298 393.8923 369.7238 387.0553 364.2618 348.3633 363.4598 342.6943 348.9378 347.3893"></polygon>
        <polygon id="Fill-493" fill="#98B0CA" points="426.1888 381.6129 381.3118 425.9599 450.8458 463.6759 458.8668 435.3929"></polygon>
        <polygon id="Fill-494" fill="#98B0CA" points="314.8255 334.1378 352.3125 328.9128 360.8055 282.3868 355.2805 288.8588 350.9155 293.9838 341.9915 299.0308 333.2965 305.3088"></polygon>
        <polygon id="Fill-495" fill="#0F5C7F" points="288.2796 337.8385 314.8216 334.1395 288.6806 374.9385 276.4606 356.7825 281.5926 342.7555 281.9006 342.4475"></polygon>
        <polygon id="Fill-496" fill="#E7ECF0" points="481.3499 240.087 479.1629 228.834 477.1859 222.971 479.5649 218.835 479.0419 212.907 487.1269 206.843 485.8229 205.237 481.5929 204.499 395.7879 257.412"></polygon>
        <polygon id="Fill-497" fill="#ABBED3" points="481.596 204.4957 484.012 203.0047 481.596 204.4957 395.784 257.4077 394.946 257.5797 396.573 256.4477 403.719 248.8777 405.597 230.6507 396.802 210.1077 393.046 194.5397 391.147 181.6377"></polygon>
        <polygon id="Fill-498" fill="#0F5C7F" points="394.3763 259.3859 396.6053 259.5009 448.6363 315.4809 431.5203 317.8679"></polygon>
        <polygon id="Fill-499" fill="#1C72A0" points="469.763 263.3155 469.469 262.9205 459.506 255.7465 461.291 252.0115 466.831 248.4355 481.504 240.8875 481.346 240.0845 395.785 257.4095 395.069 257.8535 396.602 259.5025"></polygon>
        <polygon id="Fill-500" fill="#DD4459" points="296.3919 629.6466 346.9389 610.7306 347.5899 611.1106 348.0639 609.8636 347.5899 611.1106 319.5499 685.1826"></polygon>
        <polygon id="Fill-501" fill="#1C72A0" points="305.4153 684.0138 291.2733 682.8458 243.4433 676.9828 196.2873 667.1058 211.0163 661.5938"></polygon>
        <polygon id="Fill-502" fill="#B32146" points="130.5867 642.4908 120.9747 640.2118 61.6977 669.5278 43.6207 666.3238 32.6607 685.9198 46.2797 691.3388 75.7747 673.0258 100.1097 668.5238 114.1367 665.9358 122.9177 670.5598 125.3547 671.8428 125.4117 670.7818 125.6627 666.2518 125.4407 666.3448 125.7337 664.9758 125.8417 663.0478 126.1497 663.0478"></polygon>
        <polygon id="Fill-503" fill="#DD4459" points="196.2855 667.1056 211.0145 661.5936 163.6585 650.3476 233.5865 621.0816 163.6585 650.3476 133.3095 663.0486 177.0615 663.0776"></polygon>
        <polygon id="Fill-504" fill="#EEA5A4" points="136.1302 616.7999 142.0502 623.9609 142.3522 624.2759 153.5762 628.9639 177.1222 627.5369 211.2762 625.4659 223.5122 624.8779 232.4722 621.0079 233.5902 621.0789 163.6612 650.3449 130.5892 642.4889 126.1522 663.0469 130.5892 642.4889"></polygon>
        <polygon id="Fill-505" fill="#EEA5A4" points="119.4329 640.9733 61.6969 669.5293 43.6199 666.3253 45.1319 663.6233 55.8479 644.4503 80.4049 631.1243 82.2679 629.5773"></polygon>
        <polygon id="Fill-506" fill="#DD4459" points="83.5614 629.9742 82.2714 629.5802 82.3074 629.5442 82.7804 629.1502 113.3004 603.9482 126.5614 605.2312 128.6674 607.7762"></polygon>
        <polygon id="Fill-507" fill="#FDEBE4" points="130.5867 642.4908 120.9747 640.2118 119.6917 640.8418 119.4337 640.9708 84.0037 630.1118 83.5597 629.9758 128.6657 607.7698 128.7227 607.8418 136.1277 616.8018"></polygon>
        <polygon id="Fill-508" fill="#0F5C7F" points="163.661 650.3458 130.589 642.4898 126.152 663.0468 133.306 663.0468"></polygon>
        <polygon id="Fill-509" fill="#FDEBE4" points="211.0159 661.5939 163.6589 650.3479 233.5869 621.0819 266.3579 623.2399 289.8819 632.0849"></polygon>
        <polygon id="Fill-510" fill="#DD8483" points="319.5501 685.1823 305.4151 684.0143 211.0161 661.5933 289.8831 632.0843 293.6891 633.5103 296.3921 629.6473"></polygon>
        <polygon id="Fill-511" fill="#5B89B1" points="431.5169 317.8668 448.6329 315.4798 469.9289 338.3878 454.3389 353.7988"></polygon>
        <polygon id="Fill-512" fill="#5B89B1" points="394.3763 259.3859 392.7213 259.2999 390.3693 260.7479 389.8113 261.1349 387.9543 262.4249 382.6573 265.7299 377.8973 272.6749 364.7373 277.7789 363.7773 278.8969 390.8933 323.5299 431.5203 317.8679"></polygon>
        <polygon id="Fill-513" fill="#98B0CA" points="471.7776 266.0397 469.7636 263.3157 396.6026 259.5027 448.6326 315.4827 461.0836 313.7477 487.9126 310.0067 487.1606 308.8597 486.6586 304.5957 485.7986 297.3557 481.7846 285.6937 477.8346 274.2257"></polygon>
        <polygon id="Fill-514" fill="#1C72A0" points="391.5374 182.1266 422.9324 218.2946 406.3604 250.1696 396.7984 258.4556 403.8084 247.9336 405.0844 230.0926 394.2464 210.3316"></polygon>
        <polygon id="Fill-515" fill="#DD4459" points="278.0433 236.3587 322.7993 297.8947 430.4863 0.0037"></polygon>
        <polygon id="Fill-516" fill="#1C72A0" points="252.4876 497.8888 190.2506 511.8728 4.9426 309.0838"></polygon>
        <polygon id="Fill-517" fill="#DD4459" points="651.7288 469.4054 692.2918 806.4614 602.7808 507.1654"></polygon>
        <polygon id="Fill-518" fill="#0F5C7F" points="991.012 634.7858 991.012 438.7268 954.578 438.7268 954.578 634.7858 918.811 634.7858 918.811 404.2858 1026.779 404.2858 1026.779 634.7858"></polygon>
        <g id="Group-553" transform="translate(0.000000, -0.188000)">
            <path d="M1145.2728,634.9738 L1136.3348,586.9568 L1093.9448,586.9568 C1092.3968,594.8988 1090.9058,602.9058 1089.4718,610.9618 C1088.0388,619.0258 1086.6558,627.0248 1085.3298,634.9738 L1048.9028,634.9738 C1056.6288,596.3398 1064.3568,557.9208 1072.0838,519.7238 C1079.8098,481.5268 1087.5368,443.1158 1095.2638,404.4738 L1135.0088,404.4738 L1181.7068,634.9738 L1145.2728,634.9738 Z M1114.1438,457.7948 C1111.9358,473.6928 1109.6208,489.5338 1107.1838,505.3168 C1104.7608,521.1078 1102.1088,537.1628 1099.2418,553.5058 L1130.7008,553.5058 L1115.7988,457.7948 L1114.1438,457.7948 Z" id="Fill-519" fill="#0F5C7F"></path>
            <polygon id="Fill-521" fill="#0F5C7F" points="1250.1947 437.922 1250.1947 634.97 1214.4277 634.97 1214.4277 437.922 1177.3357 437.922 1177.3357 404.47 1287.2877 404.47 1287.2877 437.922"></polygon>
            <path d="M1358.4252,404.4728 C1379.6192,404.4728 1395.1312,409.9988 1404.9572,421.0308 C1414.7782,432.0688 1419.6952,449.8448 1419.6952,474.3508 C1419.6952,485.1668 1418.6982,494.9938 1416.7132,503.8318 C1414.7282,512.6618 1411.3012,520.2238 1406.4422,526.5178 C1401.5892,532.8038 1395.2382,537.7208 1387.4042,541.2468 C1379.5632,544.7808 1369.6862,546.5518 1357.7582,546.5518 L1343.1942,546.5518 L1343.1942,634.9728 L1307.4262,634.9728 L1307.4262,404.4728 L1358.4252,404.4728 Z M1343.1942,437.9248 L1343.1942,512.4398 L1355.7732,512.4398 C1366.8112,512.4398 1374.4872,509.2938 1378.7882,502.9428 C1383.0962,496.6498 1385.2532,487.1598 1385.2532,474.5158 C1385.2532,463.2048 1383.2032,454.2598 1379.1252,447.7438 C1375.0392,441.1788 1367.4782,437.9248 1356.4402,437.9248 L1343.1942,437.9248 Z" id="Fill-523" fill="#0F5C7F"></path>
            <polygon id="Fill-525" fill="#0F5C7F" points="1526.5951 490.5792 1478.2411 634.9732 1443.8001 634.9732 1443.8001 404.4732 1478.5781 404.4732 1478.5781 550.5232 1479.8971 550.5232 1527.9211 404.4732 1562.6921 404.4732 1562.6921 634.9732 1527.5911 634.9732 1527.5911 490.5792"></polygon>
            <path d="M1670.9232,460.7736 C1670.9232,454.3726 1669.5462,448.6316 1666.7872,443.5496 C1664.0202,438.4746 1658.7802,435.9376 1651.0542,435.9376 C1646.8542,435.9376 1643.4352,436.8766 1640.7892,438.7546 C1638.1382,440.6256 1636.0952,442.9476 1634.6532,445.7076 C1633.2212,448.4666 1632.2322,451.5556 1631.6802,454.9816 C1631.1272,458.4006 1630.8482,461.5476 1630.8482,464.4146 L1630.8482,580.3316 C1630.8482,586.2876 1632.3392,591.6426 1635.3202,596.3946 C1638.3022,601.1396 1643.4352,603.5116 1650.7242,603.5116 C1658.0072,603.5116 1663.1952,601.0246 1666.2852,596.0646 C1669.3742,591.0896 1670.9232,585.0766 1670.9232,578.0086 L1670.9232,460.7736 Z M1706.6902,576.0236 C1706.6902,596.1146 1702.1672,611.2956 1693.1712,621.5606 C1684.1182,631.8316 1669.9262,636.9636 1650.5522,636.9636 C1631.1852,636.9636 1617.1082,632.0466 1608.2772,622.2196 C1599.4962,612.3996 1595.0812,598.2146 1595.0812,579.6646 L1595.0812,463.7556 C1595.0812,454.7026 1596.1272,446.4236 1598.2282,438.9126 C1600.3272,431.4076 1603.5822,424.9496 1607.9472,419.5446 C1612.3552,414.1336 1618.1532,409.9336 1625.2782,406.9586 C1632.4532,403.9766 1641.0052,402.4856 1650.8822,402.4856 C1661.4332,402.4856 1670.3142,403.8616 1677.4882,406.6286 C1684.6132,409.3886 1690.3552,413.4166 1694.6552,418.7136 C1698.9052,424.0106 1702.0022,430.4186 1703.8732,437.9226 C1705.7502,445.4276 1706.6902,453.9286 1706.6902,463.4256 L1706.6902,576.0236 Z" id="Fill-527" fill="#0F5C7F"></path>
            <polygon id="Fill-529" fill="#0F5C7F" points="1797.3685 437.922 1797.3685 634.97 1761.6005 634.97 1761.6005 437.922 1724.5085 437.922 1724.5085 404.47 1834.4615 404.47 1834.4615 437.922"></polygon>
            <mask id="mask-2" fill="white">
                <use xlink:href="#path-1"></use>
            </mask>
            <g id="Clip-532"></g>
            <polygon id="Fill-531" fill="#0F5C7F" mask="url(#mask-2)" points="1827.111 634.974 1864.204 634.974 1864.204 594.899 1827.111 594.899"></polygon>
            <path d="M1949.9877,402.4865 C1959.4777,402.4865 1967.6487,403.8125 1974.4947,406.4075 C1981.3397,409.0595 1987.0237,412.7005 1991.5527,417.3885 C1996.0767,422.0835 1999.3877,427.7095 2001.4877,434.1685 C2003.5817,440.6265 2004.6347,447.7435 2004.6347,455.4775 L1969.8567,464.4155 C1969.8567,456.0295 1968.2587,449.1845 1965.1117,443.8875 C1961.9077,438.5835 1956.8337,435.9385 1949.8227,435.9385 C1945.6797,435.9385 1942.2607,436.8195 1939.6667,438.5835 C1937.0137,440.3535 1934.9707,442.6115 1933.5377,445.3705 C1932.1617,448.1375 1931.1657,451.1695 1930.6137,454.3735 C1930.0617,457.5775 1929.7897,460.6095 1929.7897,463.4765 L1929.7897,580.6045 C1929.7897,582.8125 1930.0107,585.2425 1930.4487,587.8945 C1930.8857,590.5965 1931.8247,593.0835 1933.2087,595.3985 C1934.6417,597.7215 1936.6277,599.6495 1939.1727,601.1975 C1941.6517,602.7385 1944.9137,603.5125 1948.8267,603.5125 C1961.9657,603.5125 1968.6457,594.0225 1968.8677,575.0285 C1974.8247,576.1395 1980.7877,577.0705 1986.7517,577.8445 C1992.7077,578.6195 1998.6717,579.4505 2004.6347,580.3325 C2004.1897,597.7715 1999.3877,611.5695 1990.2277,621.7255 C1981.0667,631.8825 1967.5417,636.9645 1949.6587,636.9645 C1930.6717,636.9645 1916.6507,632.1625 1907.5977,622.5575 C1898.5457,612.9525 1894.0217,598.8755 1894.0217,580.3325 L1894.0217,465.4115 C1894.0217,456.7965 1894.9617,448.6825 1896.8327,441.0705 C1898.7097,433.4505 1901.8567,426.7705 1906.2717,421.0295 C1910.6867,415.2885 1916.4857,410.7655 1923.6607,407.4535 C1930.8357,404.1425 1939.6087,402.4865 1949.9877,402.4865" id="Fill-533" fill="#0F5C7F" mask="url(#mask-2)"></path>
            <polygon id="Fill-534" fill="#0F5C7F" mask="url(#mask-2)" points="2103.9182 634.9738 2103.9182 438.9148 2067.4922 438.9148 2067.4922 634.9738 2031.7182 634.9738 2031.7182 404.4738 2139.6862 404.4738 2139.6862 634.9738"></polygon>
            <path d="M2249.2424,460.7736 C2249.2424,454.3726 2247.8584,448.6316 2245.0984,443.5496 C2242.3404,438.4746 2237.0994,435.9376 2229.3734,435.9376 C2225.1734,435.9376 2221.7544,436.8766 2219.1014,438.7546 C2216.4574,440.6256 2214.4144,442.9476 2212.9724,445.7076 C2211.5404,448.4666 2210.5514,451.5556 2209.9994,454.9816 C2209.4464,458.4006 2209.1674,461.5476 2209.1674,464.4146 L2209.1674,580.3316 C2209.1674,586.2876 2210.6584,591.6426 2213.6394,596.3946 C2216.6214,601.1396 2221.7544,603.5116 2229.0364,603.5116 C2236.3264,603.5116 2241.5154,601.0246 2244.6044,596.0646 C2247.6934,591.0896 2249.2424,585.0766 2249.2424,578.0086 L2249.2424,460.7736 Z M2285.0094,576.0236 C2285.0094,596.1146 2280.4784,611.2956 2271.4834,621.5606 C2262.4304,631.8316 2248.2464,636.9636 2228.8714,636.9636 C2209.4974,636.9636 2195.4204,632.0466 2186.5894,622.2196 C2177.8154,612.3996 2173.4004,598.2146 2173.4004,579.6646 L2173.4004,463.7556 C2173.4004,454.7026 2174.4464,446.4236 2176.5474,438.9126 C2178.6464,431.4076 2181.9014,424.9496 2186.2594,419.5446 C2190.6744,414.1336 2196.4724,409.9336 2203.5914,406.9586 C2210.7724,403.9766 2219.3244,402.4856 2229.2014,402.4856 C2239.7454,402.4856 2248.6334,403.8616 2255.8074,406.6286 C2262.9254,409.3886 2268.6674,413.4166 2272.9744,418.7136 C2277.2244,424.0106 2280.3144,430.4186 2282.1924,437.9226 C2284.0704,445.4276 2285.0094,453.9286 2285.0094,463.4256 L2285.0094,576.0236 Z" id="Fill-535" fill="#0F5C7F" mask="url(#mask-2)"></path>
            <path d="M2370.0549,404.4728 C2391.2499,404.4728 2406.7609,409.9988 2416.5879,421.0308 C2426.4079,432.0688 2431.3249,449.8448 2431.3249,474.3508 C2431.3249,485.1668 2430.3279,494.9938 2428.3429,503.8318 C2426.3579,512.6618 2422.9319,520.2238 2418.0719,526.5178 C2413.2189,532.8038 2406.8679,537.7208 2399.0339,541.2468 C2391.1999,544.7808 2381.3159,546.5518 2369.3959,546.5518 L2354.8239,546.5518 L2354.8239,634.9728 L2319.0569,634.9728 L2319.0569,404.4728 L2370.0549,404.4728 Z M2354.8239,437.9248 L2354.8239,512.4398 L2367.4029,512.4398 C2378.4489,512.4398 2386.1179,509.2938 2390.4179,502.9428 C2394.7269,496.6498 2396.8839,487.1598 2396.8839,474.5158 C2396.8839,463.2048 2394.8339,454.2598 2390.7549,447.7438 C2386.6699,441.1788 2379.1079,437.9248 2368.0699,437.9248 L2354.8239,437.9248 Z" id="Fill-536" fill="#0F5C7F" mask="url(#mask-2)"></path>
            <polygon id="Fill-537" fill="#0F5C7F" mask="url(#mask-2)" points="2513.3899 437.922 2513.3899 634.97 2477.6219 634.97 2477.6219 437.922 2440.5299 437.922 2440.5299 404.47 2550.4829 404.47 2550.4829 437.922"></polygon>
            <polygon id="Fill-538" fill="#0F5C7F" mask="url(#mask-2)" points="1289.3724 324.2311 1300.8584 248.1151 1324.2904 248.1151 1324.2904 355.3211 1308.3634 355.3211 1308.3634 278.4391 1296.7244 355.3211 1280.7964 355.3211 1268.2374 279.5111 1268.2374 355.3211 1253.5354 355.3211 1253.5354 248.1151 1276.9674 248.1151"></polygon>
            <path d="M1352.0092,330.6637 C1352.0092,337.7087 1354.9192,341.2307 1360.7382,341.2307 C1366.5582,341.2307 1369.4682,337.7087 1369.4682,330.6637 L1369.4682,272.7727 C1369.4682,265.7277 1366.5582,262.2047 1360.7382,262.2047 C1354.9192,262.2047 1352.0092,265.7277 1352.0092,272.7727 L1352.0092,330.6637 Z M1335.1622,273.8447 C1335.1622,265.2677 1337.3572,258.6327 1341.7482,253.9347 C1346.1372,249.2397 1352.4682,246.8897 1360.7382,246.8897 C1369.0092,246.8897 1375.3382,249.2397 1379.7302,253.9347 C1384.1182,258.6327 1386.3152,265.2677 1386.3152,273.8447 L1386.3152,329.5917 C1386.3152,338.1677 1384.1182,344.8057 1379.7302,349.5007 C1375.3382,354.1987 1369.0092,356.5457 1360.7382,356.5457 C1352.4682,356.5457 1346.1372,354.1987 1341.7482,349.5007 C1337.3572,344.8057 1335.1622,338.1677 1335.1622,329.5917 L1335.1622,273.8447 Z" id="Fill-539" fill="#0F5C7F" mask="url(#mask-2)"></path>
            <path d="M1446.0433,315.3483 L1446.0433,329.5913 C1446.0433,347.5623 1437.6703,356.5463 1420.9263,356.5463 C1404.1803,356.5463 1395.8103,347.5623 1395.8103,329.5913 L1395.8103,273.8443 C1395.8103,255.8753 1404.1803,246.8903 1420.9263,246.8903 C1437.6703,246.8903 1446.0433,255.8753 1446.0433,273.8443 L1446.0433,284.2593 L1430.1153,284.2593 L1430.1153,272.7723 C1430.1153,265.7273 1427.2053,262.2043 1421.3863,262.2043 C1415.5663,262.2043 1412.6563,265.7273 1412.6563,272.7723 L1412.6563,330.6633 C1412.6563,337.6083 1415.5663,341.0773 1421.3863,341.0773 C1427.2053,341.0773 1430.1153,337.6083 1430.1153,330.6633 L1430.1153,315.3483 L1446.0433,315.3483 Z" id="Fill-540" fill="#0F5C7F" mask="url(#mask-2)"></path>
            <polygon id="Fill-541" fill="#0F5C7F" mask="url(#mask-2)" points="1478.3558 312.5914 1473.1488 322.3934 1473.1488 355.3204 1456.3018 355.3204 1456.3018 248.1144 1473.1488 248.1144 1473.1488 294.8264 1495.2028 248.1144 1512.0488 248.1144 1488.6178 295.8984 1512.0488 355.3204 1494.7428 355.3204"></polygon>
            <path d="M1535.1732,330.6637 C1535.1732,337.7087 1538.0832,341.2307 1543.9022,341.2307 C1549.7222,341.2307 1552.6322,337.7087 1552.6322,330.6637 L1552.6322,272.7727 C1552.6322,265.7277 1549.7222,262.2047 1543.9022,262.2047 C1538.0832,262.2047 1535.1732,265.7277 1535.1732,272.7727 L1535.1732,330.6637 Z M1518.3262,273.8447 C1518.3262,265.2677 1520.5212,258.6327 1524.9112,253.9347 C1529.3012,249.2397 1535.6322,246.8897 1543.9022,246.8897 C1552.1722,246.8897 1558.5022,249.2397 1562.8942,253.9347 C1567.2812,258.6327 1569.4792,265.2677 1569.4792,273.8447 L1569.4792,329.5917 C1569.4792,338.1677 1567.2812,344.8057 1562.8942,349.5007 C1558.5022,354.1987 1552.1722,356.5457 1543.9022,356.5457 C1535.6322,356.5457 1529.3012,354.1987 1524.9112,349.5007 C1520.5212,344.8057 1518.3262,338.1677 1518.3262,329.5917 L1518.3262,273.8447 Z" id="Fill-542" fill="#0F5C7F" mask="url(#mask-2)"></path>
            <path d="M1597.1986,307.0782 L1597.1986,340.0052 L1606.8466,340.0052 C1612.6666,340.0052 1615.5766,336.4832 1615.5766,329.4382 L1615.5766,320.0962 C1615.5766,315.1952 1614.7086,311.7752 1612.9726,309.8342 C1611.3386,307.9972 1608.5816,307.0782 1604.7026,307.0782 L1597.1986,307.0782 Z M1597.1986,263.4302 L1597.1986,291.7632 L1603.7846,291.7632 C1610.5226,291.7632 1613.8916,287.9872 1613.8916,280.4302 L1613.8916,274.4572 C1613.8916,267.1062 1611.0326,263.4302 1605.3156,263.4302 L1597.1986,263.4302 Z M1605.7746,248.1152 C1622.4166,248.1152 1630.7386,256.3342 1630.7386,272.7722 L1630.7386,276.6012 C1630.7386,287.6282 1627.1126,294.8262 1619.8646,298.1952 C1628.2356,301.4642 1632.4236,309.1212 1632.4236,321.1682 L1632.4236,329.8972 C1632.4236,346.8472 1623.8966,355.3212 1606.8466,355.3212 L1580.3516,355.3212 L1580.3516,248.1152 L1605.7746,248.1152 Z" id="Fill-543" fill="#0F5C7F" mask="url(#mask-2)"></path>
            <path d="M1691.3851,315.3483 L1691.3851,329.5913 C1691.3851,347.5623 1683.0121,356.5463 1666.2681,356.5463 C1649.5221,356.5463 1641.1521,347.5623 1641.1521,329.5913 L1641.1521,273.8443 C1641.1521,255.8753 1649.5221,246.8903 1666.2681,246.8903 C1683.0121,246.8903 1691.3851,255.8753 1691.3851,273.8443 L1691.3851,284.2593 L1675.4571,284.2593 L1675.4571,272.7723 C1675.4571,265.7273 1672.5471,262.2043 1666.7271,262.2043 C1660.9071,262.2043 1657.9971,265.7273 1657.9971,272.7723 L1657.9971,330.6633 C1657.9971,337.6083 1660.9071,341.0773 1666.7271,341.0773 C1672.5471,341.0773 1675.4571,337.6083 1675.4571,330.6633 L1675.4571,315.3483 L1691.3851,315.3483 Z" id="Fill-544" fill="#0F5C7F" mask="url(#mask-2)"></path>
            <polygon id="Fill-545" fill="#0F5C7F" mask="url(#mask-2)" points="1723.6976 312.5914 1718.4906 322.3934 1718.4906 355.3204 1701.6436 355.3204 1701.6436 248.1144 1718.4906 248.1144 1718.4906 294.8264 1740.5446 248.1144 1757.3906 248.1144 1733.9596 295.8984 1757.3906 355.3204 1740.0856 355.3204"></polygon>
            <polygon id="Fill-546" fill="#0F5C7F" mask="url(#mask-2)" points="1782.3519 355.3209 1765.0459 355.3209 1765.0459 248.1149 1780.0549 248.1149 1780.0549 315.9609 1786.1819 292.3759 1799.9649 248.1149 1818.4969 248.1149 1818.4969 355.3209 1803.3339 355.3209 1803.3339 279.8179 1796.4419 306.1589"></polygon>
            <path d="M1865.0521,224.2233 C1864.6431,228.9203 1862.0891,231.2683 1857.3941,231.2683 C1853.0031,231.2683 1850.6031,228.9203 1850.1971,224.2233 L1839.7811,224.2233 C1840.0881,235.5563 1845.9581,241.2233 1857.3941,241.2233 C1869.3401,241.2233 1875.3131,235.5563 1875.3131,224.2233 L1865.0521,224.2233 Z M1847.7451,355.3213 L1830.4401,355.3213 L1830.4401,248.1153 L1845.4481,248.1153 L1845.4481,315.9613 L1851.5741,292.3753 L1865.3591,248.1153 L1883.8901,248.1153 L1883.8901,355.3213 L1868.7281,355.3213 L1868.7281,279.8173 L1861.8351,306.1593 L1847.7451,355.3213 Z" id="Fill-547" fill="#0F5C7F" mask="url(#mask-2)"></path>
            <polygon id="Fill-548" fill="#0F5C7F" mask="url(#mask-2)" points="1919.8783 248.1149 1936.7253 248.1149 1936.7253 340.0059 1955.8683 340.0059 1955.8683 248.1149 1973.0223 248.1149 1973.0223 340.3119 1980.3723 340.3119 1980.3723 369.7169 1963.9853 369.7169 1963.9853 355.3209 1919.8783 355.3209"></polygon>
            <polygon id="Fill-549" fill="#0F5C7F" mask="url(#mask-2)" points="2006.4056 293.2946 2029.5316 293.2946 2029.5316 308.6096 2006.4056 308.6096 2006.4056 340.0056 2035.5046 340.0056 2035.5046 355.3206 1989.5586 355.3206 1989.5586 248.1146 2035.5046 248.1146 2035.5046 263.4296 2006.4056 263.4296"></polygon>
            <polygon id="Fill-550" fill="#0F5C7F" mask="url(#mask-2)" points="2062.7649 355.3209 2045.9179 355.3209 2045.9179 248.1149 2062.7649 248.1149 2062.7649 294.0599 2081.9089 294.0599 2081.9089 248.1149 2099.0619 248.1149 2099.0619 355.3209 2081.9089 355.3209 2081.9089 309.3759 2062.7649 309.3759"></polygon>
            <polygon id="Fill-551" fill="#0F5C7F" mask="url(#mask-2)" points="2106.4114 248.1149 2158.4824 248.1149 2158.4824 263.4299 2140.8694 263.4299 2140.8694 355.3209 2124.0234 355.3209 2124.0234 263.4299 2106.4114 263.4299"></polygon>
            <path d="M2182.678,263.4298 L2182.678,299.7268 L2190.642,299.7268 C2196.155,299.7268 2198.911,296.3578 2198.911,289.6188 L2198.911,273.5378 C2198.911,266.7998 2196.155,263.4298 2190.642,263.4298 L2182.678,263.4298 Z M2190.642,248.1148 C2207.385,248.1148 2215.759,256.9478 2215.759,274.6108 L2215.759,288.5468 C2215.759,306.2118 2207.385,315.0418 2190.642,315.0418 L2182.678,315.0418 L2182.678,355.3208 L2165.831,355.3208 L2165.831,248.1148 L2190.642,248.1148 Z" id="Fill-552" fill="#0F5C7F" mask="url(#mask-2)"></path>
        </g>
    </g>
</svg>