<svg width="227" height="73" viewBox="0 0 227 73" fill="none" xmlns="http://www.w3.org/2000/svg">
<g clip-path="url(#clip0_86_102)">
<path d="M108.8 6.20001L114.2 27.1C114.5 28.2 114.6 29.3 114.8 31H114.9C115.1 29.7 115.2 28.5 115.6 27L121 6.10001H126.4V33H123.4V10.9C123.4 9.70001 123.5 8.50001 123.5 7.50001H123.4C123 9.10001 122.8 10 122.5 11.1L116.6 33H113L107.3 10.8C107.1 9.90001 106.8 9.00001 106.5 7.50001H106.4C106.4 8.90001 106.5 9.80001 106.5 11V33H103.5V6.20001H108.8Z" fill="#867750"/>
<path d="M137.8 6.2L144.2 24.8L150 6.2H153.2L145.7 28.6C144.4 32.6 142.8 33.7 140.6 33.7C139.4 33.7 138.7 33.6 138.3 33.4V30.7C138.8 31 139.6 31 140.3 31C141.4 31 142 30.5 142.6 28.5L134.6 6.3H137.8V6.2Z" fill="#867750"/>
<path d="M200.1 6.2V8.9H189.4V17.6H199.4V20.3H189.4V30.4H200.1V33H186.4V6.2H200.1Z" fill="#867750"/>
<path d="M212.7 6.2V28.1C212.7 29.1 212.7 30.1 212.6 31.1H212.7C213.1 29.9 213.2 28.9 213.8 27.4L222.3 6.2H226.7V33H223.7V11.6C223.7 10.2 223.7 8.8 223.8 7.5H223.7C223.4 9.1 223.1 10.6 222.6 11.9L214 33H209.6V6.2H212.7ZM214.5 0C215 1.9 216.2 2.6 218 2.6C219.9 2.6 221 2 221.4 0H223C223 3.2 220.8 4.6 217.9 4.6C215.2 4.6 213 3.2 213 0H214.5Z" fill="#867750"/>
<path d="M119.2 39.8V66.6H116.3V42.5H106.3V66.6H103.4V39.8H119.2Z" fill="#867750"/>
<path d="M123.9 53.1C123.9 47 124.9 39.2 132.5 39.2C140.2 39.2 141.2 46.9 141.2 53.1C141.2 60.5 140.2 67.2 132.5 67.2C124.9 67.2 123.9 60.6 123.9 53.1ZM132.5 41.9C128 41.9 127 46.6 127 52.6C127 60.4 127.8 64.5 132.6 64.5C137.4 64.5 138.3 60.4 138.3 52.7C138.2 46.7 137.1 41.9 132.5 41.9Z" fill="#867750"/>
<path d="M159 39.8V42.5H148.9V51.2H152.4C157.1 51.2 160.9 52.8 160.9 59.1C160.9 64.4 157.8 66.7 153 66.7H146V39.8H159ZM148.9 63.9H152.2C155.7 63.9 157.8 62.8 157.8 59C157.8 54.7 155.4 53.8 151.4 53.8H148.9V63.9Z" fill="#867750"/>
<path d="M178.5 39.8V42.5H168.2V51.2H177.8V53.9H168.2V64H178.5V66.7H165.3V39.8H178.5Z" fill="#867750"/>
<path d="M199.4 39.8V63.9H201.5V72.8H198.7V66.5H183.7V72.8H181V63.9H182.8C185.3 59.5 185.6 54.6 185.6 46.6V39.8H199.4ZM188.4 42.5V49.5C188.4 55.8 187.6 60.4 185.8 64H196.5V42.5H188.4Z" fill="#867750"/>
<path d="M207.9 51.2H211.4C216.1 51.2 219.9 52.8 219.9 59.1C219.9 64.4 216.8 66.7 212 66.7H205V39.8H207.9V51.2ZM207.9 63.9H211.2C214.7 63.9 216.8 62.8 216.8 59C216.8 54.7 214.4 53.8 210.4 53.8H207.9V63.9ZM226.8 66.6H223.9V39.8H226.8V66.6Z" fill="#867750"/>
<path d="M17.9002 41L17.1002 40.2C15.7002 40.2 14.2002 40.2 12.7002 40.1C13.1002 39.6 14.7002 38 14.7002 37.9C14.7002 37.8 14.0002 36.8 14.0002 36.8C14.7002 35.3 14.6002 34.7 14.1002 33.7C14.1002 33.7 14.2002 33.5 14.5002 33.5C15.1002 33.6 15.5002 35 15.7002 35.5C15.9002 35.9 16.2002 36.1 16.6002 36.1C16.8002 36.1 17.0002 35.9 17.0002 35.9C17.0002 35.9 16.6002 35.7 16.4002 35.3C15.9002 34.2 16.1002 34.1 15.8002 33.2C15.6002 32.8 15.3002 32.4 14.7002 32.5C14.0002 32.5 13.6002 33.4 13.6002 33.4C12.8002 33 12.4002 33.1 11.7002 33.3V33.1C11.6002 32.6 11.5002 32.2 11.3002 31.8L11.1002 31.5C11.1002 31.5 11.1002 31.5 11.2002 31.4L11.3002 31.3C11.4002 31.2 11.4002 31.2 11.5002 31.1C11.6002 31 11.6002 31 11.7002 30.9C11.8002 30.8 11.8002 30.8 11.9002 30.7C12.0002 30.6 12.0002 30.5 12.1002 30.4C12.2002 30.3 12.2002 30.1 12.2002 30C12.2002 29.8 12.2002 29.7 12.2002 29.4C12.2002 29.2 12.1002 29 12.1002 28.9C12.0002 28.8 12.0002 28.7 11.9002 28.6C11.8002 28.5 11.8002 28.5 11.7002 28.5C11.6002 28.5 11.6002 28.5 11.6002 28.5L12.3002 28L12.6002 26.4C12.6002 26.4 12.8002 26.2 12.8002 26.1C12.8002 26 12.9002 25.6 12.9002 25.6L14.2002 25C14.2002 25 14.3002 24.9 14.2002 24.6C14.1002 24.4 14.0002 24.4 14.0002 24.3C13.9002 24.3 8.9002 27.5 8.9002 27.5C8.9002 27.5 8.6002 27.1 8.6002 27C8.6002 27 8.5002 26.9 8.2002 26.9C8.0002 26.9 7.9002 27.1 7.8002 27.1C7.7002 27.2 7.60019 27.5 7.60019 27.5C7.60019 27.5 7.0002 27.6 7.2002 28.1C7.3002 28.4 7.8002 28.2 7.8002 28.2L8.3002 28.4L8.5002 29.2C8.5002 29.2 8.1002 29.7 8.0002 29.9C8.0002 30.4 8.3002 32 8.3002 32L7.8002 32.4C7.8002 32.4 7.70019 32.3 7.60019 32.1C7.50019 31.9 7.30019 31.7 7.10019 31.4C6.90019 31.2 6.6002 30.9 6.2002 30.7C5.8002 30.5 5.4002 30.4 4.9002 30.4C4.8002 30.4 3.9002 30.5 3.9002 30.5L3.6002 30.3C3.6002 30.3 3.6002 30.4 3.6002 30.5C3.6002 30.6 3.7002 30.7 3.7002 30.7L3.5002 31C3.5002 31 3.3002 30.9 3.2002 30.8C3.2002 30.9 3.2002 31 3.3002 31.1C3.3002 31.2 3.5002 31.3 3.5002 31.3C3.5002 31.3 4.2002 34.2 4.3002 34.2H4.7002L5.2002 33.5L5.9002 35.7C5.9002 35.7 4.4002 35.9 4.3002 35.9C4.3002 35.9 2.7002 39 2.7002 39.1C2.7002 39.1 2.7002 39.2 2.7002 39.3C2.4002 39.3 2.1002 39.2 1.7002 39.2V41.3C7.2002 41.3 12.7002 41.3 17.9002 41ZM9.1002 27.6L12.2002 25.9L12.1002 26.1L12.2002 26.2L11.7002 27.5C11.7002 27.5 10.3002 27.8 10.1002 27.9C9.8002 28 9.3002 28.4 9.3002 28.4L9.0002 27.9L9.1002 27.7C9.1002 27.8 9.1002 27.7 9.1002 27.6ZM3.9002 38.6L4.7002 37.1L6.8002 37.6C6.9002 37.6 10.9002 37 11.0002 36.9C11.1002 36.8 11.8002 36.6 11.8002 36.6C11.8002 36.6 13.4002 37.7 13.4002 37.8C13.4002 37.9 12.0002 39.7 12.0002 39.7C12.0002 39.7 11.9002 39.9 11.7002 40C9.2002 39.9 6.6002 39.6 4.0002 39.3C4.1002 39.2 4.1002 39.1 4.1002 39.1V39C4.3002 39 3.9002 38.6 3.9002 38.6Z" fill="#867750"/>
<path d="M64.7001 28.3C62.3001 27.7 58.6001 28.2 54.7001 29.7C50.5001 31.3 47.9001 33.8 46.5001 35.8L45.3001 36.2L44.9001 36.8C45.3001 36.7 45.8001 36.6 46.3001 36.5H46.4001C46.5001 36.5 46.6001 36.5 46.7001 36.4C46.8001 36.4 46.8001 36.4 46.9001 36.4C47.0001 36.4 47.1001 36.3 47.2001 36.3H47.3001C47.4001 36.3 47.6001 36.2 47.8001 36.2H47.9001C48.0001 36.2 48.1001 36.1 48.2001 36.1C50.2001 35.5 52.4001 34.8 54.7001 33.9C58.6001 32.1 62.1001 30.2 64.7001 28.3Z" fill="#867750"/>
<path d="M56.1002 27.9C60.0002 26.8 63.7002 26.6 66.2002 27.3C66.3002 27.2 66.3002 27.1 66.3002 27C66.3002 26.7 66.0002 26.4 65.4002 26.3C65.2002 26.2 65.0002 26.2 64.8002 26.1C63.9002 25.9 62.5002 25.8 61.1002 25.9C58.2002 26.1 56.0002 26.9 56.1002 27.9C56.1002 27.8 56.1002 27.8 56.1002 27.9Z" fill="#867750"/>
<path d="M62.2 24.8L61.8 12.9C61.8 12.8 61.7 12.8 61.7 12.8H61.5C61.4 12.8 61.4 12.9 61.4 12.9L61 24.9C61.4 24.8 61.8 24.8 62.2 24.8Z" fill="#867750"/>
<path d="M79.1001 6C79.2001 6 79.0001 8.4 78.9001 8.6C78.7001 10 78.6001 11.4 78.2001 12.8C77.3001 16 75.8001 18.9 73.9001 21.5C72.9001 22.9 71.7001 24.1 70.5001 25.3C69.6001 26.2 68.6001 27 67.6001 27.8C64.7001 30.1 61.5001 32 58.2001 33.5C56.0001 34.6 53.7001 35.5 51.3001 36.3C47.6001 37.6 43.7001 38.7 39.9001 39.5C36.2001 40.3 32.4001 40.9 28.6001 41.4C24.4001 41.9 20.3001 42.2 16.1001 42.4C13.8001 42.5 11.5001 42.5 9.3001 42.5C5.9001 42.5 3.7001 42.5 0.100098 42.3V43.7C1.0001 43.7 0.400098 43.7 1.3001 43.7L1.2001 46.9H3.0001V52.5C3.7001 52.5 3.8001 52.5 3.9001 52.5C4.0001 52.5 4.1001 52.5 4.2001 52.5V46.9C4.5001 46.9 4.8001 46.9 5.0001 46.9V52.6C5.1001 52.6 5.2001 52.6 5.3001 52.6C5.4001 52.6 5.5001 52.6 5.6001 52.6C6.7001 52.6 7.8001 52.6 8.9001 52.7C9.0001 52.7 9.1001 52.7 9.2001 52.7C9.3001 52.7 9.4001 52.7 9.5001 52.7V51C8.4001 50.8 7.0001 48.9 7.0001 48.9C7.8001 48.9 8.5001 48.9 9.3001 48.9V46.7C9.6001 46.7 9.9001 46.7 10.2001 46.7V52.7C10.3001 52.7 10.4001 52.7 10.5001 52.7C10.6001 52.7 10.7001 52.7 10.8001 52.7C11.9001 52.7 12.9001 52.8 14.0001 52.8C14.1001 52.8 14.2001 52.8 14.3001 52.8C14.4001 52.8 14.5001 52.8 14.6001 52.8V51.2C13.8001 51.1 12.3001 48.9 12.3001 48.9C13.1001 48.9 13.8001 48.9 14.6001 48.9V46.4C14.9001 46.4 15.2001 46.4 15.5001 46.3V52.7C15.6001 52.7 15.7001 52.7 15.8001 52.7C15.9001 52.7 16.0001 52.7 16.1001 52.7C17.2001 52.7 18.2001 52.8 19.3001 52.8C19.4001 52.8 19.5001 52.8 19.6001 52.8C19.7001 52.8 19.8001 52.8 19.9001 52.8V51.1C19.1001 50.9 17.7001 48.7 17.7001 48.7C18.4001 48.7 19.1001 48.7 19.9001 48.7V45.9C20.2001 45.9 20.6001 45.9 20.9001 45.8V52.8C21.0001 52.8 21.1001 52.8 21.2001 52.8C21.3001 52.8 21.4001 52.8 21.5001 52.8C22.5001 52.8 23.6001 52.9 24.6001 53C24.7001 53 24.8001 53 24.9001 53C25.0001 53 25.1001 53 25.2001 53V51.2C24.4001 50.9 23.1001 48.5 23.1001 48.5C23.8001 48.5 24.5001 48.5 25.2001 48.5V45.3C25.6001 45.3 25.9001 45.2 26.2001 45.2V53C26.3001 53 26.4001 53 26.5001 53C26.6001 53 26.7001 53 26.8001 53C27.8001 53.1 28.8001 53.1 29.9001 53.2C30.0001 53.2 30.1001 53.2 30.2001 53.2C30.3001 53.2 30.4001 53.2 30.5001 53.2V51.3C29.8001 51.2 28.4001 48.3 28.4001 48.3C29.1001 48.3 29.8001 48.3 30.5001 48.2V44.6C30.9001 44.6 31.2001 44.5 31.6001 44.5V53.2C31.7001 53.2 31.8001 53.2 31.9001 53.2C32.0001 53.2 32.1001 53.2 32.2001 53.2C33.2001 53.3 34.2001 53.3 35.2001 53.4C35.3001 53.4 35.4001 53.4 35.5001 53.4C35.6001 53.4 35.7001 53.4 35.8001 53.4V51.4C35.1001 51.4 33.7001 48 33.7001 48C34.4001 48 35.1001 47.9 35.8001 47.9V43.8C36.2001 43.7 36.6001 43.7 36.9001 43.6V54C37.0001 54 37.1001 54 37.2001 54C37.3001 54 37.4001 54 37.5001 54C38.5001 54.1 39.5001 54.2 40.4001 54.2C40.5001 54.2 40.6001 54.2 40.7001 54.2C40.8001 54.2 40.9001 54.2 41.0001 54.2V52C40.3001 52 38.9001 48.2 38.9001 48.2C39.6001 48.2 40.3001 48.1 41.0001 48.1V43.5C41.4001 43.4 41.8001 43.4 42.2001 43.3V54.5C42.3001 54.5 42.4001 54.5 42.5001 54.5C42.6001 54.5 42.7001 54.5 42.8001 54.5C43.8001 54.6 44.7001 54.7 45.7001 54.8C45.8001 54.8 45.9001 54.8 46.0001 54.8C46.1001 54.8 46.2001 54.8 46.3001 54.8V52.3C45.6001 52.1 44.3001 47.8 44.3001 47.8C45.0001 47.7 45.6001 47.7 46.3001 47.6V42.3C46.7001 42.2 47.1001 42.1 47.6001 42V55C47.7001 55 47.8001 55 47.9001 55C48.0001 55 48.1001 55 48.2001 55C49.2001 55.1 50.1001 55.2 51.0001 55.3C51.1001 55.3 51.2001 55.3 51.3001 55.3C51.4001 55.3 51.5001 55.3 51.6001 55.3V52.5C51.0001 52.5 49.7001 47.2 49.7001 47.2C50.4001 47.1 51.0001 47.1 51.6001 47V41C52.0001 40.9 52.5001 40.8 52.9001 40.6V55.3C53.0001 55.3 53.1001 55.3 53.2001 55.3C53.3001 55.3 53.4001 55.3 53.5001 55.3C54.4001 55.4 55.4001 55.5 56.3001 55.7C56.4001 55.7 56.5001 55.7 56.6001 55.7C56.7001 55.7 56.8001 55.7 56.9001 55.7V52.6C56.3001 52.2 55.1001 46.2 55.1001 46.2C55.7001 46.1 56.3001 46 56.9001 45.9V39.2C57.4001 39 57.8001 38.9 58.3001 38.7V55.8C58.4001 55.8 58.5001 55.8 58.6001 55.8C58.7001 55.8 58.8001 55.8 58.9001 55.8C59.8001 55.9 60.7001 56.1 61.6001 56.2C61.7001 56.2 61.8001 56.2 61.9001 56.2C62.0001 56.2 62.1001 56.2 62.2001 56.2V52.9C61.7001 52.6 60.7001 47 60.5001 45.5C60.5001 45.3 60.4001 45.1 60.4001 45.1C61.0001 45 61.6001 44.8 62.2001 44.7V37C62.7001 36.8 63.2001 36.6 63.6001 36.4V56.5C63.7001 56.5 63.8001 56.5 63.9001 56.6C64.0001 56.6 64.1001 56.6 64.2001 56.6C65.1001 56.8 66.0001 56.9 66.9001 57.1C67.0001 57.1 67.1001 57.1 67.2001 57.2C67.3001 57.2 67.4001 57.2 67.5001 57.3V53.7C67.1001 53.4 66.4001 48.8 66.0001 46C65.8001 44.8 65.7001 44 65.7001 44C66.3001 43.8 66.9001 43.7 67.5001 43.5V34.8C68.0001 34.5 68.5001 34.3 69.0001 34V57.7C69.1001 57.7 69.2001 57.7 69.3001 57.8C69.4001 57.8 69.5001 57.8 69.6001 57.9H69.7001C70.6001 58.1 71.4001 58.3 72.3001 58.5C72.4001 58.5 72.5001 58.5 72.6001 58.6C72.7001 58.6 72.8001 58.6 72.9001 58.7V54.7C72.6001 54.6 72.0001 50.1 71.6001 46.6C71.3001 44.3 71.2001 42.4 71.2001 42.4C71.8001 42.2 72.4001 41.9 72.9001 41.7V31.7C73.4001 31.3 73.9001 30.9 74.4001 30.5V59.1C74.5001 59.1 74.6001 59.2 74.7001 59.2C74.8001 59.2 74.9001 59.3 75.0001 59.3C75.2001 59.4 75.5001 59.4 75.7001 59.5C76.3001 59.7 77.0001 59.9 77.6001 60C77.7001 60 77.8001 60.1 77.9001 60.1C78.0001 60.1 78.1001 60.2 78.2001 60.2V54.9C77.9001 53.4 77.6001 50.1 77.3001 47C77.1001 44.4 76.9001 41.8 76.8001 40.5C76.8001 39.9 76.7001 39.6 76.7001 39.6C77.2001 39.3 77.7001 38.9 78.1001 38.6V27.3C78.7001 26.7 79.2001 26.1 79.7001 25.4V61C79.8001 61 79.9001 61.1 80.0001 61.1C80.1001 61.1 80.2001 61.2 80.3001 61.2C80.7001 61.3 81.0001 61.5 81.3001 61.6C81.5001 61.7 81.7001 61.8 81.9001 61.9C82.2001 62 82.5001 62.2 82.8001 62.3C82.9001 62.3 83.0001 62.4 83.1001 62.4C83.2001 62.5 83.3001 62.5 83.4001 62.6V57C83.2001 56.6 82.9001 52.3 82.5001 47.6C82.3001 45.1 82.2001 42.5 82.0001 40.4C82.0001 39.6 81.9001 38.9 81.9001 38.3C81.9001 37.5 81.8001 36.8 81.8001 36.4C81.8001 35.9 81.8001 35.5 81.8001 35.5C82.4001 34.8 82.9001 34 83.4001 33.2V19.4C84.1001 17.9 84.6001 16.4 85.0001 14.9V63.7C85.1001 63.8 85.2001 63.8 85.4001 63.9C86.5001 64.6 87.7001 65.6 88.7001 66.6H92.5001V6H79.1001Z" fill="#867750"/>
<path d="M76.6002 64.9C75.1002 64 72.0002 62.5 66.5002 61.1C65.7002 60.9 64.8002 60.7 63.8002 60.5C59.8002 59.6 54.8002 58.8 48.5002 58.1C47.1002 57.9 45.6002 57.8 44.1002 57.7C43.1002 57.6 42.1002 57.5 41.0002 57.5C33.7002 57 25.8002 56.6 19.0002 56.4C18.5002 56.4 18.0002 56.4 17.4002 56.4C9.2002 56 3.2002 56 3.2002 56V65.4V65.5V66V66.3V66.5V66.6H6.0002H78.4002C78.4002 66.5 77.8002 65.7 76.6002 64.9ZM48.4002 58.8C53.1002 59.3 57.4002 59.9 61.2002 60.7L5.7002 65.7L41.4002 58.1C43.8002 58.3 46.2002 58.6 48.4002 58.8ZM19.1002 57.1C24.5002 57.3 31.5002 57.5 38.2002 58L5.8002 64.8L17.9002 57C18.3002 57 18.7002 57 19.1002 57.1ZM3.9002 56.7C5.7002 56.7 10.3002 56.8 16.3002 56.9L3.9002 65V56.7ZM14.4002 65.8L64.1002 61.3C65.5002 61.6 66.8002 62 68.0002 62.3C72.8002 63.7 75.2002 64.9 76.2002 65.6C76.3002 65.7 76.5002 65.8 76.6002 65.9L14.4002 65.8Z" fill="#867750"/>
<path d="M157.4 30.9L175.5 9.10001V9.10001H157.4V6.10001H181V8.20001L163 30V30.1H180.9V33H157.4V30.9Z" fill="#867750"/>
</g>
<defs>
<clipPath id="clip0_86_102">
<rect width="226.7" height="72.8" fill="white"/>
</clipPath>
</defs>
</svg>
